<svg width="60" height="61" viewBox="0 0 60 61" fill="none" xmlns="http://www.w3.org/2000/svg">
<g clip-path="url(#clip0_2350_7002)">
<path d="M51.2133 9.48203C45.547 3.8159 38.0133 0.695312 30 0.695312C21.9867 0.695312 14.453 3.8159 8.78672 9.48203C3.12047 15.1482 0 22.682 0 30.6953C0 38.7086 3.12059 46.2423 8.78672 51.9086C14.4529 57.5748 21.9867 60.6953 30 60.6953C38.0133 60.6953 45.547 57.5747 51.2133 51.9086C56.8795 46.2425 60 38.7086 60 30.6953C60 22.682 56.8794 15.1483 51.2133 9.48203ZM49.9703 10.725C53.2361 13.9908 55.6016 17.9161 56.9466 22.2C55.4783 20.2854 53.5027 18.5245 51.0599 16.9865C49.5586 16.0413 47.9258 15.2103 46.1897 14.498C46.1856 14.4866 46.1823 14.4752 46.1776 14.4639C44.2493 9.77207 41.5791 6.10961 38.4841 3.74523C42.7724 5.08961 46.7017 7.45645 49.9703 10.725ZM10.0297 10.725C13.2971 7.45762 17.225 5.09125 21.5115 3.74652C19.6631 5.16238 17.9573 7.05027 16.4584 9.37293C16.3345 9.56876 16.293 9.80558 16.3429 10.0319C16.3927 10.2581 16.5299 10.4556 16.7246 10.5812C16.9193 10.7069 17.1558 10.7505 17.3825 10.7027C17.6092 10.655 17.8079 10.5196 17.9353 10.326C21.2118 5.2491 25.4964 2.45312 30 2.45312C35.4744 2.45312 40.5904 6.60555 43.8987 13.6469C39.6615 12.232 34.9199 11.4809 30 11.4809C22.058 11.4809 14.5786 13.4362 8.94 16.9864C6.49723 18.5243 4.52156 20.2854 3.05332 22.1999C4.3984 17.9161 6.76395 13.9908 10.0297 10.725ZM9.87656 18.4739C10.8491 17.8615 11.8812 17.2998 12.9633 16.7894C11.537 21.0598 10.7856 25.8213 10.7856 30.6953C10.7856 35.6152 11.5366 40.357 12.9517 44.5941C5.90637 41.2868 1.75781 36.181 1.75781 30.6953C1.75781 26.1106 4.64109 21.7703 9.87656 18.4739ZM10.0297 50.6656C6.76453 47.4004 4.39922 43.4757 3.05402 39.1926C5.42344 42.2901 9.09621 44.9584 13.8033 46.8868C14.5154 48.6223 15.3462 50.2546 16.2911 51.7553C17.829 54.1981 19.5901 56.1738 21.5046 57.642C17.2208 56.2969 13.2955 53.9314 10.0297 50.6656ZM17.7786 50.8187C14.4026 45.457 12.5434 38.3104 12.5434 30.6953C12.5434 25.4284 13.451 20.3068 15.1662 15.8489C19.5823 14.1486 24.6762 13.2387 30 13.2387C37.615 13.2387 44.7616 15.0979 50.1234 18.4739C55.3589 21.7703 58.2422 26.1106 58.2422 30.6953C58.2422 35.28 55.3589 39.6203 50.1234 42.9167C49.1542 43.527 48.1259 44.0869 47.0477 44.596C48.4631 40.3584 49.2144 35.6159 49.2144 30.6953C49.2144 29.5952 49.1761 28.4859 49.1003 27.3984C49.0818 27.1676 48.973 26.9535 48.7975 26.8024C48.6221 26.6514 48.3941 26.5757 48.1632 26.5918C47.9322 26.6079 47.717 26.7144 47.5641 26.8883C47.4113 27.0621 47.3332 27.2893 47.3468 27.5204C47.4199 28.5771 47.4566 29.636 47.4566 30.6953C47.4566 36.0228 46.5455 41.12 44.8428 45.5382C40.4246 47.2409 35.3275 48.1519 30 48.1519C26.5646 48.1519 23.2072 47.7723 20.0213 47.0238C19.9089 46.9973 19.7924 46.9933 19.6785 47.0119C19.5646 47.0305 19.4555 47.0713 19.3573 47.1321C19.2592 47.1929 19.174 47.2724 19.1066 47.3661C19.0392 47.4598 18.991 47.5659 18.9646 47.6782C18.9112 47.9052 18.9502 48.144 19.073 48.3421C19.1957 48.5403 19.3921 48.6816 19.6191 48.7349C22.9369 49.5145 26.4294 49.9097 30 49.9097C34.9206 49.9097 39.663 49.1584 43.9007 47.743C43.3916 48.8212 42.8316 49.8495 42.2214 50.8187C38.925 56.0542 34.5847 58.9375 30 58.9375C25.4153 58.9375 21.075 56.0542 17.7786 50.8187ZM49.9703 50.6656C46.7045 53.9314 42.7792 56.2969 38.4953 57.6419C40.4099 56.1736 42.1709 54.198 43.7088 51.7552C44.6531 50.2555 45.4833 48.6245 46.1951 46.8904C47.9292 46.1786 49.5602 45.3484 51.0599 44.4041C53.5027 42.8662 55.4783 41.1051 56.9466 39.1906C55.6016 43.4745 53.2361 47.3998 49.9703 50.6656Z" fill="white"/>
<path d="M38.626 24.423C36.3572 24.423 34.5114 26.2688 34.5114 28.5376V32.8517C34.5114 35.1205 36.3572 36.9663 38.626 36.9663C40.8947 36.9663 42.7405 35.1205 42.7405 32.8517V28.5376C42.7405 26.2688 40.8947 24.423 38.626 24.423ZM40.9827 32.8518C40.9827 34.1514 39.9256 35.2086 38.626 35.2086C37.3264 35.2086 36.2692 34.1514 36.2692 32.8518V28.5377C36.2692 27.2381 37.3264 26.1809 38.626 26.1809C39.9256 26.1809 40.9827 27.2381 40.9827 28.5377V32.8518ZM28.9189 28.7373C28.0767 28.7365 27.2549 28.9958 26.5656 29.4796C26.6377 27.6486 28.1491 26.1809 29.9975 26.1809C30.483 26.1809 30.8764 25.7875 30.8764 25.302C30.8764 24.8165 30.483 24.4231 29.9975 24.4231C27.1339 24.4231 24.8044 26.7527 24.8044 29.6162V32.8518C24.8044 35.1206 26.6501 36.9664 28.9189 36.9664C31.1876 36.9664 33.0334 35.1206 33.0334 32.8518C33.0334 30.5831 31.1876 28.7373 28.9189 28.7373ZM28.9189 35.2087C27.6194 35.2087 26.5622 34.1516 26.5622 32.852C26.5622 31.5523 27.6194 30.4952 28.9189 30.4952C30.2185 30.4952 31.2756 31.5523 31.2756 32.852C31.2756 34.1516 30.2185 35.2087 28.9189 35.2087ZM21.9943 30.6948C22.8101 30.0387 23.3264 29.0732 23.3264 27.9983C23.3264 26.027 21.5891 24.423 19.4537 24.423C18.2419 24.423 17.123 24.9311 16.3839 25.8171C16.2346 25.996 16.1625 26.227 16.1835 26.4591C16.2044 26.6913 16.3167 26.9056 16.4957 27.0549C16.5843 27.1289 16.6866 27.1846 16.7968 27.219C16.907 27.2534 17.0228 27.2658 17.1378 27.2554C17.2527 27.245 17.3645 27.2121 17.4667 27.1585C17.569 27.1049 17.6596 27.0318 17.7336 26.9431C18.1318 26.4657 18.7749 26.1807 19.4537 26.1807C20.6199 26.1807 21.5686 26.9961 21.5686 27.9983C21.5686 29.0005 20.6199 29.8157 19.4537 29.8157C18.9682 29.8157 18.5748 30.2091 18.5748 30.6946C18.5748 31.1802 18.9682 31.5736 19.4537 31.5736C20.6199 31.5736 21.5686 32.3889 21.5686 33.3911C21.5686 34.3933 20.6199 35.2086 19.4537 35.2086C18.773 35.2086 18.1289 34.9224 17.731 34.443C17.6572 34.3542 17.5667 34.2808 17.4646 34.227C17.3625 34.1731 17.2508 34.14 17.1359 34.1293C16.9037 34.1078 16.6726 34.1794 16.4932 34.3283C16.3139 34.4772 16.2011 34.6913 16.1795 34.9234C16.158 35.1555 16.2296 35.3867 16.3785 35.566C17.1176 36.4561 18.2384 36.9665 19.4537 36.9665C21.5891 36.9665 23.3264 35.3626 23.3264 33.3911C23.3264 32.3163 22.8101 31.3508 21.9943 30.6948ZM45.0973 19.0303C43.4233 19.0303 42.0613 20.3922 42.0613 22.0662C42.0613 23.7403 43.4233 25.1022 45.0973 25.1022C46.7713 25.1022 48.1333 23.7403 48.1333 22.0662C48.1333 20.3922 46.7713 19.0303 45.0973 19.0303ZM45.0973 23.3444C44.3924 23.3444 43.8191 22.771 43.8191 22.0662C43.8191 21.3615 44.3925 20.7881 45.0973 20.7881C45.8021 20.7881 46.3755 21.3615 46.3755 22.0662C46.3755 22.771 45.8021 23.3444 45.0973 23.3444Z" fill="white"/>
</g>
<defs>
<clipPath id="clip0_2350_7002">
<rect width="60" height="60" fill="white" transform="translate(0 0.695312)"/>
</clipPath>
</defs>
</svg>
