<svg width="40" height="40" viewBox="0 0 40 40" fill="none" xmlns="http://www.w3.org/2000/svg">
<mask id="mask0_2303_3339" style="mask-type:luminance" maskUnits="userSpaceOnUse" x="3" y="4" width="34" height="33">
<path d="M35.4501 35.4502V4.54993H4.54976V35.4502H35.4501Z" fill="white" stroke="white" stroke-width="1.1"/>
</mask>
<g mask="url(#mask0_2303_3339)">
<path d="M19.999 5.03118V11.5561" stroke="#06A788" stroke-width="1.1" stroke-miterlimit="10" stroke-linecap="round" stroke-linejoin="round"/>
<path d="M17.1732 32.8914H22.8248V26.8323C22.8247 26.7445 22.7897 26.6604 22.7276 26.5983C22.6655 26.5362 22.5813 26.5013 22.4935 26.5011H17.5063C17.3238 26.5011 17.1732 26.6499 17.1732 26.8323V32.8914Z" stroke="#06A788" stroke-width="1.1" stroke-miterlimit="10" stroke-linecap="round" stroke-linejoin="round"/>
<path d="M19.999 26.5011V32.8914" stroke="#06A788" stroke-width="1.1" stroke-miterlimit="10" stroke-linecap="round" stroke-linejoin="round"/>
<path d="M21.0443 19.9815H19.999V18.2476" stroke="#06A788" stroke-width="1.1" stroke-miterlimit="10" stroke-linecap="round" stroke-linejoin="round"/>
<path d="M7.63992 21.3187H11.9717C12.094 21.3187 12.1949 21.4197 12.1949 21.5419V23.6991C12.1949 23.8214 12.094 23.9223 11.9717 23.9223H7.63992C7.51592 23.9223 7.41492 23.8214 7.41492 23.6991V21.5419C7.41492 21.4197 7.51592 21.3187 7.63992 21.3187Z" stroke="#06A788" stroke-width="1.1" stroke-miterlimit="10" stroke-linecap="round" stroke-linejoin="round"/>
<path d="M9.80481 21.3187V23.9223" stroke="#06A788" stroke-width="1.1" stroke-miterlimit="10" stroke-linecap="round" stroke-linejoin="round"/>
<path d="M7.63992 26.0051H11.9717C12.094 26.0051 12.1949 26.1061 12.1949 26.2301V28.3855C12.1949 28.5095 12.094 28.6105 11.9717 28.6105H7.63992C7.58027 28.6105 7.52309 28.5867 7.48091 28.5445C7.43873 28.5024 7.415 28.4452 7.41492 28.3855V26.2301C7.41502 26.1704 7.43876 26.1133 7.48093 26.0711C7.52311 26.0289 7.58028 26.0052 7.63992 26.0051Z" stroke="#06A788" stroke-width="1.1" stroke-miterlimit="10" stroke-linecap="round" stroke-linejoin="round"/>
<path d="M9.80481 26.0051V28.6105" stroke="#06A788" stroke-width="1.1" stroke-miterlimit="10" stroke-linecap="round" stroke-linejoin="round"/>
<path d="M32.3601 21.3187H28.0283C27.9043 21.3187 27.8033 21.4197 27.8033 21.5419V23.6991C27.8033 23.8214 27.9043 23.9223 28.0283 23.9223H32.3601C32.4823 23.9223 32.5833 23.8214 32.5833 23.6991V21.5419C32.5833 21.4197 32.4823 21.3187 32.3601 21.3187Z" stroke="#06A788" stroke-width="1.1" stroke-miterlimit="10" stroke-linecap="round" stroke-linejoin="round"/>
<path d="M30.1932 21.3187V23.9223" stroke="#06A788" stroke-width="1.1" stroke-miterlimit="10" stroke-linecap="round" stroke-linejoin="round"/>
<path d="M32.3601 26.0051H28.0283C27.9687 26.0052 27.9115 26.0289 27.8693 26.0711C27.8272 26.1133 27.8034 26.1704 27.8033 26.2301V28.3855C27.8033 28.5095 27.9043 28.6105 28.0283 28.6105H32.3601C32.4823 28.6105 32.5833 28.5095 32.5833 28.3855V26.2301C32.5833 26.1061 32.4823 26.0051 32.3601 26.0051Z" stroke="#06A788" stroke-width="1.1" stroke-miterlimit="10" stroke-linecap="round" stroke-linejoin="round"/>
<path d="M30.1932 26.0051V28.6105" stroke="#06A788" stroke-width="1.1" stroke-miterlimit="10" stroke-linecap="round" stroke-linejoin="round"/>
<path d="M19.9991 22.9908C21.9001 22.9908 23.4504 21.4322 23.4504 19.5228C23.4504 17.6135 21.9001 16.0549 19.9991 16.0549C18.0981 16.0549 16.5479 17.6135 16.5479 19.5228C16.5479 21.4322 18.0981 22.9908 19.9991 22.9908Z" stroke="#06A788" stroke-width="1.1" stroke-miterlimit="10" stroke-linecap="round" stroke-linejoin="round"/>
<path d="M19.999 5.78041H24.1838C24.391 5.78041 24.5611 5.95047 24.5611 6.15941V8.86044C24.5611 9.06944 24.391 9.2395 24.1838 9.2395H19.999V5.78041Z" stroke="#06A788" stroke-width="1.1" stroke-miterlimit="10" stroke-linecap="round" stroke-linejoin="round"/>
<path d="M14.1383 18.2476H4.62795C4.53938 18.2476 4.46851 18.1749 4.46851 18.0864V16.441C4.46851 16.3524 4.53938 16.2798 4.62795 16.2798H14.1383V18.2476Z" stroke="#06A788" stroke-width="1.1" stroke-miterlimit="10" stroke-linecap="round" stroke-linejoin="round"/>
<path d="M25.8615 18.2476H35.3701C35.4128 18.2474 35.4537 18.2304 35.4839 18.2002C35.5141 18.17 35.5311 18.1291 35.5313 18.0864V16.441C35.5311 16.3983 35.5141 16.3574 35.4839 16.3272C35.4537 16.297 35.4128 16.2799 35.3701 16.2798H25.8615V18.2476Z" stroke="#06A788" stroke-width="1.1" stroke-miterlimit="10" stroke-linecap="round" stroke-linejoin="round"/>
<path d="M18.858 13.9401H13.0948C13.0664 13.9401 13.0383 13.9346 13.012 13.9237C12.9858 13.9129 12.9619 13.897 12.9419 13.8769C12.9218 13.8568 12.9059 13.833 12.895 13.8067C12.8842 13.7805 12.8786 13.7524 12.8787 13.724V11.7722C12.8789 11.715 12.9018 11.6601 12.9422 11.6197C12.9827 11.5792 13.0376 11.5564 13.0948 11.5561H26.905C27.0237 11.5561 27.1194 11.6536 27.1194 11.7722V13.724C27.1196 13.7523 27.1142 13.7803 27.1035 13.8065C27.0929 13.8328 27.0771 13.8566 27.0572 13.8767C27.0373 13.8968 27.0136 13.9127 26.9874 13.9236C26.9613 13.9345 26.9333 13.9401 26.905 13.9401H20.9451" stroke="#06A788" stroke-width="1.1" stroke-miterlimit="10" stroke-linecap="round" stroke-linejoin="round"/>
<path d="M5.40039 27.1281V34.6856C5.40039 34.8415 5.52795 34.969 5.68558 34.969H14.1383M5.40039 18.2476V24.9637" stroke="#06A788" stroke-width="1.1" stroke-miterlimit="10" stroke-linecap="round" stroke-linejoin="round"/>
<path d="M25.8615 18.2476H34.5976V34.6856C34.5974 34.7607 34.5674 34.8327 34.5143 34.8858C34.4612 34.9389 34.3893 34.9688 34.3142 34.9691H25.8615V18.2476Z" stroke="#06A788" stroke-width="1.1" stroke-miterlimit="10" stroke-linecap="round" stroke-linejoin="round"/>
<path d="M16.2892 34.969V33.2988C16.2892 33.0756 16.4876 32.8914 16.7304 32.8914H23.2696C23.5106 32.8914 23.709 33.0756 23.709 33.2988V34.969" stroke="#06A788" stroke-width="1.1" stroke-miterlimit="10" stroke-linecap="round" stroke-linejoin="round"/>
<path d="M14.1384 13.9401V34.969H25.8615V13.9401" stroke="#06A788" stroke-width="1.1" stroke-miterlimit="10" stroke-linecap="round" stroke-linejoin="round"/>
</g>
</svg>
