<svg width="80" height="80" viewBox="0 0 80 80" fill="none" xmlns="http://www.w3.org/2000/svg">
<mask id="path-1-inside-1_5418_10061" fill="white">
<path d="M33.75 18.75H38.75C39.0815 18.75 39.3995 18.6183 39.6339 18.3839C39.8683 18.1495 40 17.8315 40 17.5V10C40 9.66848 39.8683 9.35054 39.6339 9.11612C39.3995 8.8817 39.0815 8.75 38.75 8.75H33.75C33.4185 8.75 33.1005 8.8817 32.8661 9.11612C32.6317 9.35054 32.5 9.66848 32.5 10V17.5C32.5 17.8315 32.6317 18.1495 32.8661 18.3839C33.1005 18.6183 33.4185 18.75 33.75 18.75ZM35 11.25H37.5V16.25H35V11.25ZM43.75 18.75H48.75C49.0815 18.75 49.3995 18.6183 49.6339 18.3839C49.8683 18.1495 50 17.8315 50 17.5V10C50 9.66848 49.8683 9.35054 49.6339 9.11612C49.3995 8.8817 49.0815 8.75 48.75 8.75H43.75C43.4185 8.75 43.1005 8.8817 42.8661 9.11612C42.6317 9.35054 42.5 9.66848 42.5 10V17.5C42.5 17.8315 42.6317 18.1495 42.8661 18.3839C43.1005 18.6183 43.4185 18.75 43.75 18.75ZM45 11.25H47.5V16.25H45V11.25ZM53.75 18.75H58.75C59.0815 18.75 59.3995 18.6183 59.6339 18.3839C59.8683 18.1495 60 17.8315 60 17.5V10C60 9.66848 59.8683 9.35054 59.6339 9.11612C59.3995 8.8817 59.0815 8.75 58.75 8.75H53.75C53.4185 8.75 53.1005 8.8817 52.8661 9.11612C52.6317 9.35054 52.5 9.66848 52.5 10V17.5C52.5 17.8315 52.6317 18.1495 52.8661 18.3839C53.1005 18.6183 53.4185 18.75 53.75 18.75ZM55 11.25H57.5V16.25H55V11.25ZM33.75 31.25H38.75C39.0815 31.25 39.3995 31.1183 39.6339 30.8839C39.8683 30.6495 40 30.3315 40 30V22.5C40 22.1685 39.8683 21.8505 39.6339 21.6161C39.3995 21.3817 39.0815 21.25 38.75 21.25H33.75C33.4185 21.25 33.1005 21.3817 32.8661 21.6161C32.6317 21.8505 32.5 22.1685 32.5 22.5V30C32.5 30.3315 32.6317 30.6495 32.8661 30.8839C33.1005 31.1183 33.4185 31.25 33.75 31.25ZM35 23.75H37.5V28.75H35V23.75ZM43.75 31.25H48.75C49.0815 31.25 49.3995 31.1183 49.6339 30.8839C49.8683 30.6495 50 30.3315 50 30V22.5C50 22.1685 49.8683 21.8505 49.6339 21.6161C49.3995 21.3817 49.0815 21.25 48.75 21.25H43.75C43.4185 21.25 43.1005 21.3817 42.8661 21.6161C42.6317 21.8505 42.5 22.1685 42.5 22.5V30C42.5 30.3315 42.6317 30.6495 42.8661 30.8839C43.1005 31.1183 43.4185 31.25 43.75 31.25ZM45 23.75H47.5V28.75H45V23.75ZM53.75 31.25H58.75C59.0815 31.25 59.3995 31.1183 59.6339 30.8839C59.8683 30.6495 60 30.3315 60 30V22.5C60 22.1685 59.8683 21.8505 59.6339 21.6161C59.3995 21.3817 59.0815 21.25 58.75 21.25H53.75C53.4185 21.25 53.1005 21.3817 52.8661 21.6161C52.6317 21.8505 52.5 22.1685 52.5 22.5V30C52.5 30.3315 52.6317 30.6495 52.8661 30.8839C53.1005 31.1183 53.4185 31.25 53.75 31.25ZM55 23.75H57.5V28.75H55V23.75ZM23.75 18.75H28.75C29.0815 18.75 29.3995 18.6183 29.6339 18.3839C29.8683 18.1495 30 17.8315 30 17.5V10C30 9.66848 29.8683 9.35054 29.6339 9.11612C29.3995 8.8817 29.0815 8.75 28.75 8.75H23.75C23.4185 8.75 23.1005 8.8817 22.8661 9.11612C22.6317 9.35054 22.5 9.66848 22.5 10V17.5C22.5 17.8315 22.6317 18.1495 22.8661 18.3839C23.1005 18.6183 23.4185 18.75 23.75 18.75ZM25 11.25H27.5V16.25H25V11.25ZM23.75 31.25H28.75C29.0815 31.25 29.3995 31.1183 29.6339 30.8839C29.8683 30.6495 30 30.3315 30 30V22.5C30 22.1685 29.8683 21.8505 29.6339 21.6161C29.3995 21.3817 29.0815 21.25 28.75 21.25H23.75C23.4185 21.25 23.1005 21.3817 22.8661 21.6161C22.6317 21.8505 22.5 22.1685 22.5 22.5V30C22.5 30.3315 22.6317 30.6495 22.8661 30.8839C23.1005 31.1183 23.4185 31.25 23.75 31.25ZM25 23.75H27.5V28.75H25V23.75ZM33.75 43.75H38.75C39.0815 43.75 39.3995 43.6183 39.6339 43.3839C39.8683 43.1495 40 42.8315 40 42.5V35C40 34.6685 39.8683 34.3505 39.6339 34.1161C39.3995 33.8817 39.0815 33.75 38.75 33.75H33.75C33.4185 33.75 33.1005 33.8817 32.8661 34.1161C32.6317 34.3505 32.5 34.6685 32.5 35V42.5C32.5 42.8315 32.6317 43.1495 32.8661 43.3839C33.1005 43.6183 33.4185 43.75 33.75 43.75ZM35 36.25H37.5V41.25H35V36.25ZM23.75 43.75H28.75C29.0815 43.75 29.3995 43.6183 29.6339 43.3839C29.8683 43.1495 30 42.8315 30 42.5V35C30 34.6685 29.8683 34.3505 29.6339 34.1161C29.3995 33.8817 29.0815 33.75 28.75 33.75H23.75C23.4185 33.75 23.1005 33.8817 22.8661 34.1161C22.6317 34.3505 22.5 34.6685 22.5 35V42.5C22.5 42.8315 22.6317 43.1495 22.8661 43.3839C23.1005 43.6183 23.4185 43.75 23.75 43.75ZM25 36.25H27.5V41.25H25V36.25ZM43.75 43.75H48.75C49.0815 43.75 49.3995 43.6183 49.6339 43.3839C49.8683 43.1495 50 42.8315 50 42.5V35C50 34.6685 49.8683 34.3505 49.6339 34.1161C49.3995 33.8817 49.0815 33.75 48.75 33.75H43.75C43.4185 33.75 43.1005 33.8817 42.8661 34.1161C42.6317 34.3505 42.5 34.6685 42.5 35V42.5C42.5 42.8315 42.6317 43.1495 42.8661 43.3839C43.1005 43.6183 43.4185 43.75 43.75 43.75ZM45 36.25H47.5V41.25H45V36.25ZM53.75 43.75H58.75C59.0815 43.75 59.3995 43.6183 59.6339 43.3839C59.8683 43.1495 60 42.8315 60 42.5V35C60 34.6685 59.8683 34.3505 59.6339 34.1161C59.3995 33.8817 59.0815 33.75 58.75 33.75H53.75C53.4185 33.75 53.1005 33.8817 52.8661 34.1161C52.6317 34.3505 52.5 34.6685 52.5 35V42.5C52.5 42.8315 52.6317 43.1495 52.8661 43.3839C53.1005 43.6183 53.4185 43.75 53.75 43.75ZM55 36.25H57.5V41.25H55V36.25ZM33.75 56.25H38.75C39.0815 56.25 39.3995 56.1183 39.6339 55.8839C39.8683 55.6495 40 55.3315 40 55V47.5C40 47.1685 39.8683 46.8505 39.6339 46.6161C39.3995 46.3817 39.0815 46.25 38.75 46.25H33.75C33.4185 46.25 33.1005 46.3817 32.8661 46.6161C32.6317 46.8505 32.5 47.1685 32.5 47.5V55C32.5 55.3315 32.6317 55.6495 32.8661 55.8839C33.1005 56.1183 33.4185 56.25 33.75 56.25ZM35 48.75H37.5V53.75H35V48.75ZM23.75 56.25H28.75C29.0815 56.25 29.3995 56.1183 29.6339 55.8839C29.8683 55.6495 30 55.3315 30 55V47.5C30 47.1685 29.8683 46.8505 29.6339 46.6161C29.3995 46.3817 29.0815 46.25 28.75 46.25H23.75C23.4185 46.25 23.1005 46.3817 22.8661 46.6161C22.6317 46.8505 22.5 47.1685 22.5 47.5V55C22.5 55.3315 22.6317 55.6495 22.8661 55.8839C23.1005 56.1183 23.4185 56.25 23.75 56.25ZM25 48.75H27.5V53.75H25V48.75ZM43.75 56.25H48.75C49.0815 56.25 49.3995 56.1183 49.6339 55.8839C49.8683 55.6495 50 55.3315 50 55V47.5C50 47.1685 49.8683 46.8505 49.6339 46.6161C49.3995 46.3817 49.0815 46.25 48.75 46.25H43.75C43.4185 46.25 43.1005 46.3817 42.8661 46.6161C42.6317 46.8505 42.5 47.1685 42.5 47.5V55C42.5 55.3315 42.6317 55.6495 42.8661 55.8839C43.1005 56.1183 43.4185 56.25 43.75 56.25ZM45 48.75H47.5V53.75H45V48.75ZM53.75 56.25H58.75C59.0815 56.25 59.3995 56.1183 59.6339 55.8839C59.8683 55.6495 60 55.3315 60 55V47.5C60 47.1685 59.8683 46.8505 59.6339 46.6161C59.3995 46.3817 59.0815 46.25 58.75 46.25H53.75C53.4185 46.25 53.1005 46.3817 52.8661 46.6161C52.6317 46.8505 52.5 47.1685 52.5 47.5V55C52.5 55.3315 52.6317 55.6495 52.8661 55.8839C53.1005 56.1183 53.4185 56.25 53.75 56.25ZM55 48.75H57.5V53.75H55V48.75Z"/>
</mask>
<path d="M33.75 18.75H38.75C39.0815 18.75 39.3995 18.6183 39.6339 18.3839C39.8683 18.1495 40 17.8315 40 17.5V10C40 9.66848 39.8683 9.35054 39.6339 9.11612C39.3995 8.8817 39.0815 8.75 38.75 8.75H33.75C33.4185 8.75 33.1005 8.8817 32.8661 9.11612C32.6317 9.35054 32.5 9.66848 32.5 10V17.5C32.5 17.8315 32.6317 18.1495 32.8661 18.3839C33.1005 18.6183 33.4185 18.75 33.75 18.75ZM35 11.25H37.5V16.25H35V11.25ZM43.75 18.75H48.75C49.0815 18.75 49.3995 18.6183 49.6339 18.3839C49.8683 18.1495 50 17.8315 50 17.5V10C50 9.66848 49.8683 9.35054 49.6339 9.11612C49.3995 8.8817 49.0815 8.75 48.75 8.75H43.75C43.4185 8.75 43.1005 8.8817 42.8661 9.11612C42.6317 9.35054 42.5 9.66848 42.5 10V17.5C42.5 17.8315 42.6317 18.1495 42.8661 18.3839C43.1005 18.6183 43.4185 18.75 43.75 18.75ZM45 11.25H47.5V16.25H45V11.25ZM53.75 18.75H58.75C59.0815 18.75 59.3995 18.6183 59.6339 18.3839C59.8683 18.1495 60 17.8315 60 17.5V10C60 9.66848 59.8683 9.35054 59.6339 9.11612C59.3995 8.8817 59.0815 8.75 58.75 8.75H53.75C53.4185 8.75 53.1005 8.8817 52.8661 9.11612C52.6317 9.35054 52.5 9.66848 52.5 10V17.5C52.5 17.8315 52.6317 18.1495 52.8661 18.3839C53.1005 18.6183 53.4185 18.75 53.75 18.75ZM55 11.25H57.5V16.25H55V11.25ZM33.75 31.25H38.75C39.0815 31.25 39.3995 31.1183 39.6339 30.8839C39.8683 30.6495 40 30.3315 40 30V22.5C40 22.1685 39.8683 21.8505 39.6339 21.6161C39.3995 21.3817 39.0815 21.25 38.75 21.25H33.75C33.4185 21.25 33.1005 21.3817 32.8661 21.6161C32.6317 21.8505 32.5 22.1685 32.5 22.5V30C32.5 30.3315 32.6317 30.6495 32.8661 30.8839C33.1005 31.1183 33.4185 31.25 33.75 31.25ZM35 23.75H37.5V28.75H35V23.75ZM43.75 31.25H48.75C49.0815 31.25 49.3995 31.1183 49.6339 30.8839C49.8683 30.6495 50 30.3315 50 30V22.5C50 22.1685 49.8683 21.8505 49.6339 21.6161C49.3995 21.3817 49.0815 21.25 48.75 21.25H43.75C43.4185 21.25 43.1005 21.3817 42.8661 21.6161C42.6317 21.8505 42.5 22.1685 42.5 22.5V30C42.5 30.3315 42.6317 30.6495 42.8661 30.8839C43.1005 31.1183 43.4185 31.25 43.75 31.25ZM45 23.75H47.5V28.75H45V23.75ZM53.75 31.25H58.75C59.0815 31.25 59.3995 31.1183 59.6339 30.8839C59.8683 30.6495 60 30.3315 60 30V22.5C60 22.1685 59.8683 21.8505 59.6339 21.6161C59.3995 21.3817 59.0815 21.25 58.75 21.25H53.75C53.4185 21.25 53.1005 21.3817 52.8661 21.6161C52.6317 21.8505 52.5 22.1685 52.5 22.5V30C52.5 30.3315 52.6317 30.6495 52.8661 30.8839C53.1005 31.1183 53.4185 31.25 53.75 31.25ZM55 23.75H57.5V28.75H55V23.75ZM23.75 18.75H28.75C29.0815 18.75 29.3995 18.6183 29.6339 18.3839C29.8683 18.1495 30 17.8315 30 17.5V10C30 9.66848 29.8683 9.35054 29.6339 9.11612C29.3995 8.8817 29.0815 8.75 28.75 8.75H23.75C23.4185 8.75 23.1005 8.8817 22.8661 9.11612C22.6317 9.35054 22.5 9.66848 22.5 10V17.5C22.5 17.8315 22.6317 18.1495 22.8661 18.3839C23.1005 18.6183 23.4185 18.75 23.75 18.75ZM25 11.25H27.5V16.25H25V11.25ZM23.75 31.25H28.75C29.0815 31.25 29.3995 31.1183 29.6339 30.8839C29.8683 30.6495 30 30.3315 30 30V22.5C30 22.1685 29.8683 21.8505 29.6339 21.6161C29.3995 21.3817 29.0815 21.25 28.75 21.25H23.75C23.4185 21.25 23.1005 21.3817 22.8661 21.6161C22.6317 21.8505 22.5 22.1685 22.5 22.5V30C22.5 30.3315 22.6317 30.6495 22.8661 30.8839C23.1005 31.1183 23.4185 31.25 23.75 31.25ZM25 23.75H27.5V28.75H25V23.75ZM33.75 43.75H38.75C39.0815 43.75 39.3995 43.6183 39.6339 43.3839C39.8683 43.1495 40 42.8315 40 42.5V35C40 34.6685 39.8683 34.3505 39.6339 34.1161C39.3995 33.8817 39.0815 33.75 38.75 33.75H33.75C33.4185 33.75 33.1005 33.8817 32.8661 34.1161C32.6317 34.3505 32.5 34.6685 32.5 35V42.5C32.5 42.8315 32.6317 43.1495 32.8661 43.3839C33.1005 43.6183 33.4185 43.75 33.75 43.75ZM35 36.25H37.5V41.25H35V36.25ZM23.75 43.75H28.75C29.0815 43.75 29.3995 43.6183 29.6339 43.3839C29.8683 43.1495 30 42.8315 30 42.5V35C30 34.6685 29.8683 34.3505 29.6339 34.1161C29.3995 33.8817 29.0815 33.75 28.75 33.75H23.75C23.4185 33.75 23.1005 33.8817 22.8661 34.1161C22.6317 34.3505 22.5 34.6685 22.5 35V42.5C22.5 42.8315 22.6317 43.1495 22.8661 43.3839C23.1005 43.6183 23.4185 43.75 23.75 43.75ZM25 36.25H27.5V41.25H25V36.25ZM43.75 43.75H48.75C49.0815 43.75 49.3995 43.6183 49.6339 43.3839C49.8683 43.1495 50 42.8315 50 42.5V35C50 34.6685 49.8683 34.3505 49.6339 34.1161C49.3995 33.8817 49.0815 33.75 48.75 33.75H43.75C43.4185 33.75 43.1005 33.8817 42.8661 34.1161C42.6317 34.3505 42.5 34.6685 42.5 35V42.5C42.5 42.8315 42.6317 43.1495 42.8661 43.3839C43.1005 43.6183 43.4185 43.75 43.75 43.75ZM45 36.25H47.5V41.25H45V36.25ZM53.75 43.75H58.75C59.0815 43.75 59.3995 43.6183 59.6339 43.3839C59.8683 43.1495 60 42.8315 60 42.5V35C60 34.6685 59.8683 34.3505 59.6339 34.1161C59.3995 33.8817 59.0815 33.75 58.75 33.75H53.75C53.4185 33.75 53.1005 33.8817 52.8661 34.1161C52.6317 34.3505 52.5 34.6685 52.5 35V42.5C52.5 42.8315 52.6317 43.1495 52.8661 43.3839C53.1005 43.6183 53.4185 43.75 53.75 43.75ZM55 36.25H57.5V41.25H55V36.25ZM33.75 56.25H38.75C39.0815 56.25 39.3995 56.1183 39.6339 55.8839C39.8683 55.6495 40 55.3315 40 55V47.5C40 47.1685 39.8683 46.8505 39.6339 46.6161C39.3995 46.3817 39.0815 46.25 38.75 46.25H33.75C33.4185 46.25 33.1005 46.3817 32.8661 46.6161C32.6317 46.8505 32.5 47.1685 32.5 47.5V55C32.5 55.3315 32.6317 55.6495 32.8661 55.8839C33.1005 56.1183 33.4185 56.25 33.75 56.25ZM35 48.75H37.5V53.75H35V48.75ZM23.75 56.25H28.75C29.0815 56.25 29.3995 56.1183 29.6339 55.8839C29.8683 55.6495 30 55.3315 30 55V47.5C30 47.1685 29.8683 46.8505 29.6339 46.6161C29.3995 46.3817 29.0815 46.25 28.75 46.25H23.75C23.4185 46.25 23.1005 46.3817 22.8661 46.6161C22.6317 46.8505 22.5 47.1685 22.5 47.5V55C22.5 55.3315 22.6317 55.6495 22.8661 55.8839C23.1005 56.1183 23.4185 56.25 23.75 56.25ZM25 48.75H27.5V53.75H25V48.75ZM43.75 56.25H48.75C49.0815 56.25 49.3995 56.1183 49.6339 55.8839C49.8683 55.6495 50 55.3315 50 55V47.5C50 47.1685 49.8683 46.8505 49.6339 46.6161C49.3995 46.3817 49.0815 46.25 48.75 46.25H43.75C43.4185 46.25 43.1005 46.3817 42.8661 46.6161C42.6317 46.8505 42.5 47.1685 42.5 47.5V55C42.5 55.3315 42.6317 55.6495 42.8661 55.8839C43.1005 56.1183 43.4185 56.25 43.75 56.25ZM45 48.75H47.5V53.75H45V48.75ZM53.75 56.25H58.75C59.0815 56.25 59.3995 56.1183 59.6339 55.8839C59.8683 55.6495 60 55.3315 60 55V47.5C60 47.1685 59.8683 46.8505 59.6339 46.6161C59.3995 46.3817 59.0815 46.25 58.75 46.25H53.75C53.4185 46.25 53.1005 46.3817 52.8661 46.6161C52.6317 46.8505 52.5 47.1685 52.5 47.5V55C52.5 55.3315 52.6317 55.6495 52.8661 55.8839C53.1005 56.1183 53.4185 56.25 53.75 56.25ZM55 48.75H57.5V53.75H55V48.75Z" fill="#A8ABAE" stroke="white" mask="url(#path-1-inside-1_5418_10061)"/>
<path d="M12.7492 67.6048L12.6744 67.6783C11.8175 68.5205 10.6655 68.9948 9.46404 69H9.46392C8.25704 69.0047 7.09465 68.5448 6.21767 67.7156C5.34068 66.8865 4.81636 65.7517 4.75338 64.5465C4.69041 63.3412 5.0936 62.158 5.87939 61.242C6.66499 60.3262 7.77276 59.7477 8.97319 59.6264M12.7492 67.6048L8.9992 59.875M12.7492 67.6048V67.5V65C12.7492 64.7348 12.8546 64.4804 13.0421 64.2929C13.2296 64.1054 13.484 64 13.7492 64C14.0144 64 14.2688 64.1054 14.4563 64.2929C14.6438 64.4804 14.7492 64.7348 14.7492 65V67.5V67.6048L14.824 67.6783C15.6824 68.522 16.8368 68.9963 18.0404 69C19.2479 69.0064 20.4115 68.5478 21.2898 67.7192C22.1682 66.8906 22.6938 65.7556 22.7576 64.5498C22.8215 63.344 22.4187 62.1599 21.6328 61.2431C20.847 60.3266 19.7387 59.7476 18.5376 59.6263C18.3711 59.6084 18.2117 59.5489 18.0742 59.4533C17.9365 59.3575 17.825 59.2287 17.7501 59.0786C17.6752 58.9285 17.6393 58.762 17.6456 58.5944C17.6519 58.4272 17.7001 58.2643 17.7857 58.1206C18.2295 57.3963 18.4659 56.5641 18.4692 55.7147V55.7137C18.4692 54.4636 17.9726 53.2646 17.0886 52.3806C16.2046 51.4966 15.0056 51 13.7554 51C12.5053 51 11.3063 51.4966 10.4223 52.3806C9.53832 53.2646 9.0417 54.4636 9.0417 55.7137L9.0417 55.7147C9.04498 56.5641 9.28143 57.3964 9.72526 58.1206M12.7492 67.6048L9.9392 57.9913M8.97319 59.6264C8.9735 59.6263 8.9738 59.6263 8.9741 59.6263L8.9992 59.875M8.97319 59.6264C8.97298 59.6264 8.97277 59.6264 8.97256 59.6264L8.9992 59.875M8.97319 59.6264C9.13974 59.6084 9.29912 59.5489 9.43669 59.4533C9.57443 59.3575 9.68587 59.2287 9.76077 59.0786C9.83566 58.9285 9.8716 58.762 9.86527 58.5944C9.85896 58.4272 9.81082 58.2643 9.72526 58.1206M8.9992 59.875C9.20768 59.8527 9.40719 59.7782 9.57936 59.6586C9.75154 59.5389 9.89084 59.3779 9.98446 59.1902C10.0781 59.0026 10.123 58.7945 10.1151 58.585C10.1072 58.3754 10.0467 58.1713 9.9392 57.9913M9.72526 58.1206C9.72554 58.1211 9.72581 58.1215 9.72608 58.122L9.9392 57.9913M9.72526 58.1206C9.72503 58.1202 9.72479 58.1198 9.72456 58.1194L9.9392 57.9913M64.7492 48.75V49H64.9992H76.2492C76.5144 49 76.7688 49.1054 76.9563 49.2929C77.1438 49.4804 77.2492 49.7348 77.2492 50V55C77.2492 55.2652 77.1438 55.5196 76.9563 55.7071C76.7688 55.8946 76.5144 56 76.2492 56H74.9992H74.7492V56.25V75C74.7492 75.2652 74.6438 75.5196 74.4563 75.7071C74.2688 75.8946 74.0144 76 73.7492 76H18.7492C18.484 76 18.2296 75.8946 18.0421 75.7071L17.8653 75.8839L18.0421 75.7071C17.8546 75.5196 17.7492 75.2652 17.7492 75V71.2038V70.9723L17.5185 70.9545C16.6808 70.8897 15.8632 70.6653 15.1099 70.2933L14.7492 70.1152V70.5175V75C14.7492 75.2652 14.6438 75.5196 14.4563 75.7071L14.6331 75.8839L14.4563 75.7071C14.2688 75.8946 14.0144 76 13.7492 76C13.484 76 13.2296 75.8946 13.0421 75.7071L12.8653 75.8839L13.0421 75.7071C12.8546 75.5196 12.7492 75.2652 12.7492 75V70.5175V70.1113L12.3866 70.2943C11.4794 70.7521 10.4785 70.9936 9.46244 71C7.88355 71.0032 6.35427 70.4486 5.14446 69.4341C3.93465 68.4196 3.12207 67.0103 2.85013 65.455C2.57818 63.8998 2.86434 62.2984 3.65811 60.9335C4.45189 59.5687 5.70225 58.5281 7.18855 57.9953L7.41534 57.9141L7.3425 57.6844C7.14026 57.0469 7.03671 56.3821 7.03545 55.7133C7.03345 54.5086 7.35623 53.3255 7.96981 52.2887C8.58339 51.2519 9.46509 50.3996 10.5221 49.8216C11.5792 49.2435 12.7725 48.9611 13.9765 49.004C15.1805 49.0469 16.3507 49.4135 17.364 50.0653L17.7492 50.3131V49.855V5C17.7492 4.73478 17.8546 4.48043 18.0421 4.29289C18.2296 4.10536 18.484 4 18.7492 4H63.7492C64.0144 4 64.2688 4.10536 64.4563 4.29289C64.6438 4.48043 64.7492 4.73478 64.7492 5V48.75ZM47.4992 74H47.7492V73.75V61.25V61H47.4992H34.9992H34.7492V61.25V73.75V74H34.9992H47.4992ZM62.4992 74H62.7492V73.75V6.25V6H62.4992H19.9992H19.7492V6.25V52.6625V52.7208L19.775 52.7732C20.2265 53.6877 20.4618 54.6937 20.4629 55.7135C20.4617 56.3823 20.3581 57.0469 20.1559 57.6844L20.083 57.9142L20.31 57.9954C21.6414 58.4718 22.7877 59.3576 23.5846 60.5258C24.3814 61.694 24.7878 63.0845 24.7455 64.498C24.7033 65.9114 24.2144 67.2751 23.3492 68.3936C22.4839 69.5121 21.2867 70.3278 19.9292 70.7238L19.7492 70.7763V70.9638V73.75V74H19.9992H32.4992H32.7492V73.75V60C32.7492 59.7348 32.8546 59.4804 33.0421 59.2929C33.2296 59.1054 33.484 59 33.7492 59H48.7492C49.0144 59 49.2688 59.1054 49.4563 59.2929C49.6438 59.4804 49.7492 59.7348 49.7492 60V73.75V74H49.9992H62.4992ZM72.4992 74H72.7492V73.75V56.25V56H72.4992H64.9992H64.7492V56.25V73.75V74H64.9992H72.4992ZM74.9992 54H75.2492V53.75V51.25V51H74.9992H64.9992H64.7492V51.25V53.75V54H64.9992H74.9992Z" fill="#A8ABAE" stroke="white" stroke-width="0.5"/>
</svg>
