<svg width="16" height="16" viewBox="0 0 16 16" fill="none" xmlns="http://www.w3.org/2000/svg">
<path d="M2.01629 15.2712C1.87267 15.4866 1.93089 15.7776 2.14629 15.9212C2.22311 15.9726 2.31346 16 2.40589 16C2.55736 16 2.70601 15.9267 2.79632 15.7912L3.15357 15.2553C2.86581 15.1291 2.59019 14.9768 2.33017 14.8003L2.01629 15.2712ZM13.7324 14.8003C13.4724 14.9768 13.1968 15.1291 12.909 15.2553L13.2663 15.7912C13.3566 15.9267 13.5052 16 13.6567 16C13.7461 16 13.8364 15.9745 13.9163 15.9212C14.1318 15.7776 14.1899 15.4866 14.0463 15.2712L13.7324 14.8003ZM1.00007 9.06694V10.5312C1.00007 12.8575 2.89261 14.75 5.21882 14.75H10.8438C13.17 14.75 15.0626 12.8575 15.0626 10.5312V10.2583H7.31701C5.13786 10.2583 3.01667 9.85763 1.00007 9.06694ZM2.56239 5.52466V1.71875C2.56239 1.28797 2.91286 0.9375 3.34364 0.9375H3.96864C4.39942 0.9375 4.74989 1.28797 4.74989 1.71875V1.94116C4.02526 2.14994 3.49989 2.83 3.49989 3.61984V3.75C3.49989 4.00887 3.70976 4.21875 3.96864 4.21875H6.46864C6.72751 4.21875 6.93739 4.00887 6.93739 3.75V3.59375C6.93739 2.80853 6.40792 2.145 5.68739 1.94041V1.71875C5.68739 0.771031 4.91636 0 3.96864 0H3.34364C2.39592 0 1.62489 0.771031 1.62489 1.71875V5.14825C1.69917 5.17091 1.77204 5.19798 1.84311 5.22931C2.08002 5.33455 2.31988 5.43303 2.56239 5.52466ZM15.0039 7.32866H7.31701C5.28692 7.32866 3.31776 6.91069 1.46342 6.08647C0.959855 5.86341 0.372012 6.08941 0.148605 6.59197C-0.074801 7.09456 0.151511 7.68337 0.654105 7.90678C2.76495 8.84516 5.00645 9.32081 7.31704 9.32081H15.0039C15.5542 9.32081 16 8.87497 16 8.32472C16 7.77447 15.5541 7.32866 15.0039 7.32866Z" fill="#A3ABB0"/>
</svg>
