<svg width="20" height="21" viewBox="0 0 20 21" fill="none" xmlns="http://www.w3.org/2000/svg">
<g clip-path="url(#clip0_4592_180)">
<path d="M18.8148 10.1311H3.255V8.66207C3.255 8.20371 2.88207 7.83094 2.42387 7.83094H2.39668V2.87242C2.39668 2.01656 3.09297 1.32031 3.94883 1.32031C4.80469 1.32031 5.50094 2.01656 5.50094 2.87242V3.73715C4.72016 3.85723 4.09273 4.48422 3.99215 5.2891L3.9116 5.9341C3.90168 6.01321 3.9087 6.09352 3.93219 6.16971C3.95568 6.2459 3.99511 6.31623 4.04785 6.37602C4.10062 6.43577 4.16549 6.48362 4.23815 6.51639C4.31082 6.54917 4.38962 6.56613 4.46934 6.56613H7.07809C7.23922 6.56613 7.39289 6.49687 7.49957 6.37602C7.60625 6.25516 7.65594 6.09418 7.63594 5.9341L7.55539 5.28914C7.46504 4.56707 6.95098 3.98816 6.28219 3.78992V2.87246C6.28219 1.58582 5.23543 0.539062 3.94883 0.539062C2.66223 0.539062 1.61543 1.58582 1.61543 2.87242V7.83094C1.1618 7.83641 0.794336 8.20723 0.794336 8.66207V10.1971C0.332383 10.3588 0 10.7994 0 11.3161C0 11.9694 0.531641 12.5011 1.18516 12.5011H1.2248V14.369C1.2248 16.1521 2.51816 17.6389 4.21582 17.9408V19.0629H2.32945C2.11367 19.0629 1.93883 19.2378 1.93883 19.4536C1.93883 19.6693 2.11367 19.8442 2.32945 19.8442H18.0155C18.2311 19.8442 18.4061 19.6693 18.4061 19.4536C18.4061 19.2378 18.2311 19.0629 18.0155 19.0629H15.7842V17.9408C17.4819 17.639 18.7752 16.1521 18.7752 14.369V12.5011H18.8149C19.4684 12.5011 20 11.9694 20 11.3161C20 10.6627 19.4684 10.1311 18.8149 10.1311H18.8148ZM6.78008 5.38602L6.83 5.78488H4.71758L4.7673 5.38602C4.83063 4.87957 5.2632 4.49766 5.77379 4.49766C6.28418 4.49766 6.71676 4.87957 6.78008 5.38602ZM1.57578 8.66207C1.57578 8.63445 1.59805 8.61219 1.62566 8.61219H2.42387C2.45133 8.61219 2.47375 8.63445 2.47375 8.66207V10.1309H1.57578V8.66207ZM4.99711 19.0629V17.9968H6.24769L5.71043 19.0629H4.99711ZM12.8775 17.9968L13.4148 19.0631H6.58523L7.1225 17.9968H12.8775ZM14.2895 19.0629L13.7524 17.9968H15.0029V19.0629H14.2895ZM18.8148 11.7198H15.8082C15.5926 11.7198 15.4176 11.8946 15.4176 12.1104C15.4176 12.3262 15.5926 12.5011 15.8082 12.5011H17.9939V14.369C17.9939 15.9386 16.7169 17.2155 15.1473 17.2155H4.85273C3.28309 17.2155 2.00605 15.9386 2.00605 14.369V12.5011H12.6832C12.899 12.5011 13.0739 12.3262 13.0739 12.1104C13.0739 11.8946 12.899 11.7198 12.6832 11.7198H1.18516C0.962383 11.7198 0.78125 11.5387 0.78125 11.3161C0.78125 11.0934 0.962383 10.9123 1.18516 10.9123H18.8148C19.0376 10.9123 19.2188 11.0934 19.2188 11.3161C19.2188 11.5387 19.0376 11.7198 18.8148 11.7198Z" fill="#5C5E61"/>
<path d="M12.8316 8.97332C13.506 8.97332 14.0547 8.42477 14.0547 7.75031C14.0547 7.07586 13.506 6.52734 12.8316 6.52734C12.1571 6.52734 11.6086 7.0759 11.6086 7.75031C11.6086 8.42473 12.1573 8.97332 12.8316 8.97332ZM12.8316 7.30859C13.0751 7.30859 13.2735 7.5068 13.2735 7.75031C13.2735 7.99402 13.0753 8.19211 12.8316 8.19211C12.5879 8.19211 12.3898 7.99402 12.3898 7.75031C12.3898 7.5068 12.588 7.30859 12.8316 7.30859ZM16.3641 6.51711C15.5118 6.51711 14.8183 7.21063 14.8183 8.06313C14.8183 8.91547 15.5118 9.60902 16.3641 9.60902C17.2166 9.60902 17.9102 8.91551 17.9102 8.06313C17.9102 7.21063 17.2166 6.51711 16.3641 6.51711ZM16.3641 8.82777C15.9425 8.82777 15.5995 8.48473 15.5995 8.06313C15.5995 7.64137 15.9425 7.29836 16.3641 7.29836C16.7859 7.29836 17.1289 7.64137 17.1289 8.06313C17.1289 8.48473 16.7859 8.82777 16.3641 8.82777ZM15.5545 5.83336C16.6596 5.83336 17.5586 4.93434 17.5586 3.8293C17.5586 2.72422 16.6595 1.8252 15.5545 1.8252C14.4495 1.8252 13.5504 2.72426 13.5504 3.8293C13.5504 4.93434 14.4495 5.83336 15.5545 5.83336ZM15.5545 2.60641C16.2288 2.60641 16.7773 3.155 16.7773 3.8293C16.7773 4.50355 16.2288 5.05211 15.5545 5.05211C14.8802 5.05211 14.3317 4.50355 14.3317 3.8293C14.3317 3.155 14.8804 2.60641 15.5545 2.60641ZM14.2457 11.7199H14.2448C14.0291 11.7199 13.8547 11.8948 13.8547 12.1105C13.8547 12.3263 14.0302 12.5012 14.2457 12.5012C14.4615 12.5012 14.6364 12.3263 14.6364 12.1105C14.6364 11.8948 14.4615 11.7199 14.2457 11.7199Z" fill="#5C5E61"/>
</g>
<defs>
<clipPath id="clip0_4592_180">
<rect width="20" height="20" fill="white" transform="translate(0 0.5)"/>
</clipPath>
</defs>
</svg>
