<svg width="20" height="21" viewBox="0 0 20 21" fill="none" xmlns="http://www.w3.org/2000/svg">
<path d="M18.7241 10.3238V4.03766C18.7241 2.50859 17.4801 1.26465 15.9511 1.26465H3.96922C2.44016 1.26465 1.19621 2.50863 1.19621 4.03766V10.4049C0.455586 11.1792 0 12.2283 0 13.3818V18.1484C0 19.0233 0.711836 19.7352 1.58684 19.7352C2.4618 19.7352 3.17363 19.0233 3.17363 18.1484V17.6561H16.8264V18.1484C16.8264 19.0233 17.5382 19.7352 18.4132 19.7352C19.2882 19.7352 20 19.0234 20 18.1484V13.3818C20 12.1875 19.5116 11.1052 18.7241 10.3238ZM3.96922 2.0459H15.9511C17.0493 2.0459 17.9428 2.93941 17.9428 4.03766V9.70902C17.702 9.56069 17.4471 9.43651 17.1819 9.33828V8.0393C17.1819 6.88773 16.245 5.95086 15.0935 5.95086H11.6979C10.9988 5.95086 10.3793 6.29645 10 6.82539C9.62078 6.29645 9.00129 5.95086 8.30223 5.95086H4.9066C3.75504 5.95086 2.81816 6.8877 2.81816 8.0393V9.33828C2.52339 9.44744 2.24148 9.58861 1.9775 9.75926V4.03766C1.97746 2.93941 2.87094 2.0459 3.96922 2.0459ZM4.30988 9.07195C4.06789 9.07195 3.83055 9.09234 3.59934 9.13086V8.0393C3.59934 7.31852 4.18574 6.73211 4.90652 6.73211H8.30215C9.02293 6.73211 9.60934 7.31852 9.60934 8.0393V9.07199H4.30988V9.07195ZM10.3906 8.03926C10.3906 7.31848 10.977 6.73207 11.6978 6.73207H15.0934C15.8142 6.73207 16.4006 7.31848 16.4006 8.03926V9.13082C16.1658 9.09165 15.9281 9.07195 15.6901 9.07191H10.3906V8.03926ZM4.30988 9.8532H15.6901C17.6358 9.8532 19.2187 11.4361 19.2187 13.3818V14.5407H15.3009C15.0852 14.5407 14.9103 14.7156 14.9103 14.9313C14.9103 15.147 15.0852 15.322 15.3009 15.322H19.2188V16.8749H0.78125V15.322H11.3946C11.6104 15.322 11.7853 15.147 11.7853 14.9313C11.7853 14.7156 11.6104 14.5407 11.3946 14.5407H0.78125V13.3818C0.78125 11.4361 2.36418 9.8532 4.30988 9.8532ZM2.39238 18.1484C2.39238 18.5925 2.03102 18.9539 1.58684 18.9539C1.14266 18.9539 0.78125 18.5925 0.78125 18.1484V17.6561H2.39238V18.1484ZM18.4132 18.9539C17.969 18.9539 17.6076 18.5925 17.6076 18.1484V17.6561H19.2188V18.1484C19.2188 18.5925 18.8574 18.9539 18.4132 18.9539Z" fill="#5C5E61"/>
<path d="M13.3476 15.3222C13.5634 15.3222 13.7384 15.1472 13.7384 14.9313C13.7384 14.7155 13.5634 14.5405 13.3476 14.5405C13.1317 14.5405 12.9568 14.7155 12.9568 14.9313C12.9568 15.1472 13.1317 15.3222 13.3476 15.3222Z" fill="#5C5E61"/>
</svg>
