<svg width="17" height="16" viewBox="0 0 17 16" fill="none" xmlns="http://www.w3.org/2000/svg">
<g clip-path="url(#clip0_2348_5736)">
<path d="M14.0621 7.1375C13.7183 6.98655 13.3468 6.90877 12.9712 6.90909H3.15305C2.77755 6.90873 2.40606 6.98639 2.06214 7.13716C1.57608 7.34972 1.16246 7.69929 0.871859 8.14313C0.581254 8.58696 0.426246 9.10585 0.425781 9.63636V13.4545C0.425781 13.5992 0.483249 13.7379 0.585541 13.8402C0.687834 13.9425 0.826572 14 0.971236 14C1.1159 14 1.25464 13.9425 1.35693 13.8402C1.45922 13.7379 1.51669 13.5992 1.51669 13.4545V13.1818C1.51757 13.1098 1.54659 13.0409 1.59755 12.9899C1.6485 12.939 1.71736 12.91 1.78942 12.9091H14.3349C14.4069 12.91 14.4758 12.939 14.5267 12.9899C14.5777 13.0409 14.6067 13.1098 14.6076 13.1818V13.4545C14.6076 13.5992 14.6651 13.7379 14.7674 13.8402C14.8697 13.9425 15.0084 14 15.1531 14C15.2977 14 15.4365 13.9425 15.5387 13.8402C15.641 13.7379 15.6985 13.5992 15.6985 13.4545V9.63636C15.698 9.10591 15.5429 8.5871 15.2523 8.14332C14.9617 7.69955 14.5482 7.35004 14.0621 7.1375ZM12.1531 2H3.97124C3.46491 2 2.97933 2.20114 2.6213 2.55916C2.26328 2.91718 2.06214 3.40277 2.06214 3.90909V6.36364C2.06216 6.38477 2.06709 6.40561 2.07653 6.42451C2.08598 6.44341 2.09969 6.45986 2.11659 6.47255C2.13348 6.48525 2.15309 6.49384 2.17388 6.49766C2.19466 6.50148 2.21605 6.50041 2.23635 6.49455C2.53412 6.40745 2.84281 6.36337 3.15305 6.36364H3.29726C3.33092 6.36385 3.36347 6.35161 3.38864 6.32927C3.41381 6.30692 3.42984 6.27606 3.43362 6.24261C3.46337 5.97609 3.59026 5.72986 3.79004 5.55095C3.98983 5.37205 4.24851 5.273 4.51669 5.27273H6.42578C6.69414 5.27275 6.95307 5.37168 7.15307 5.55061C7.35307 5.72954 7.4801 5.97591 7.50987 6.24261C7.51366 6.27606 7.52968 6.30692 7.55485 6.32927C7.58003 6.35161 7.61258 6.36385 7.64624 6.36364H8.4801C8.51376 6.36385 8.54631 6.35161 8.57148 6.32927C8.59666 6.30692 8.61268 6.27606 8.61646 6.24261C8.6462 5.97626 8.77293 5.73018 8.9725 5.55129C9.17207 5.37241 9.4305 5.27325 9.69851 5.27273H11.6076C11.876 5.27275 12.1349 5.37168 12.3349 5.55061C12.5349 5.72954 12.6619 5.97591 12.6917 6.24261C12.6955 6.27606 12.7115 6.30692 12.7367 6.32927C12.7618 6.35161 12.7944 6.36385 12.8281 6.36364H12.9712C13.2815 6.36349 13.5902 6.40768 13.8879 6.49489C13.9083 6.50076 13.9297 6.50182 13.9505 6.49798C13.9713 6.49415 13.9909 6.48552 14.0078 6.47279C14.0247 6.46006 14.0384 6.44357 14.0479 6.42462C14.0573 6.40568 14.0622 6.3848 14.0621 6.36364V3.90909C14.0621 3.40277 13.861 2.91718 13.503 2.55916C13.145 2.20114 12.6594 2 12.1531 2Z" fill="#A3ABB0"/>
</g>
<defs>
<clipPath id="clip0_2348_5736">
<rect width="16" height="16" fill="white" transform="translate(0.0625)"/>
</clipPath>
</defs>
</svg>
