<svg width="16" height="17" viewBox="0 0 16 17" fill="none" xmlns="http://www.w3.org/2000/svg">
<path d="M4.5 2.5V4M11.5 2.5V4M2 13V5.5C2 5.10218 2.15804 4.72064 2.43934 4.43934C2.72064 4.15804 3.10218 4 3.5 4H12.5C12.8978 4 13.2794 4.15804 13.5607 4.43934C13.842 4.72064 14 5.10218 14 5.5V13M2 13C2 13.3978 2.15804 13.7794 2.43934 14.0607C2.72064 14.342 3.10218 14.5 3.5 14.5H12.5C12.8978 14.5 13.2794 14.342 13.5607 14.0607C13.842 13.7794 14 13.3978 14 13M2 13V8C2 7.60218 2.15804 7.22064 2.43934 6.93934C2.72064 6.65804 3.10218 6.5 3.5 6.5H12.5C12.8978 6.5 13.2794 6.65804 13.5607 6.93934C13.842 7.22064 14 7.60218 14 8V13" stroke="#A8ABAE" stroke-linecap="round" stroke-linejoin="round"/>
</svg>
