<svg width="80" height="80" viewBox="0 0 80 80" fill="none" xmlns="http://www.w3.org/2000/svg">
<mask id="path-1-inside-1_5418_10099" fill="white">
<path d="M42.9996 62.6201C42.6971 62.6201 42.407 62.7402 42.1932 62.9541C41.9793 63.168 41.8591 63.4581 41.8591 63.7605V66.1174C41.8591 66.4199 41.9793 66.7099 42.1932 66.9238C42.407 67.1377 42.6971 67.2579 42.9996 67.2579C43.3021 67.2579 43.5921 67.1377 43.806 66.9238C44.0199 66.7099 44.1401 66.4199 44.1401 66.1174V63.7605C44.14 63.4581 44.0198 63.168 43.806 62.9541C43.5921 62.7403 43.3021 62.6201 42.9996 62.6201ZM28.3622 53.496H20.7637C19.8817 53.496 19.1642 54.2135 19.1642 55.0956V64.6935C19.1642 65.5755 19.8817 66.293 20.7636 66.293H28.3622C29.2442 66.293 29.9617 65.5755 29.9617 64.6935V55.0956C29.9617 54.2135 29.244 53.496 28.3622 53.496ZM27.6809 64.0122H21.445V55.7768H27.6809V64.0122ZM59.2355 53.496H51.6367C50.7549 53.496 50.0374 54.2135 50.0374 55.0956V64.6935C50.0374 65.5755 50.7549 66.293 51.6367 66.293H59.2355C60.1173 66.293 60.8348 65.5755 60.8348 64.6935V55.0956C60.8348 54.2135 60.1173 53.496 59.2355 53.496ZM58.5541 64.0122H52.3183V55.7768H58.5541V64.0122ZM28.3622 31.7947H20.7637C19.8817 31.7947 19.1642 32.5122 19.1642 33.3942V42.9922C19.1642 43.8742 19.8817 44.5917 20.7636 44.5917H28.3622C29.2442 44.5917 29.9617 43.8742 29.9617 42.9922V33.3942C29.9617 32.5122 29.244 31.7947 28.3622 31.7947ZM27.6809 42.3109H21.445V34.0755H27.6809V42.3109ZM43.7988 31.7947H36.2002C35.3182 31.7947 34.6007 32.5122 34.6007 33.3942V42.9922C34.6007 43.8742 35.3184 44.5917 36.2002 44.5917H43.7988C44.6808 44.5917 45.3983 43.8742 45.3983 42.9922V33.3942C45.3983 32.5122 44.6808 31.7947 43.7988 31.7947ZM43.1176 42.3109H36.8816V34.0755H43.1176V42.3109ZM59.2355 31.7947H51.6367C50.7549 31.7947 50.0374 32.5122 50.0374 33.3942V42.9922C50.0374 43.8742 50.7549 44.5917 51.6367 44.5917H59.2355C60.1173 44.5917 60.8348 43.8742 60.8348 42.9922V33.3942C60.8348 32.5122 60.1173 31.7947 59.2355 31.7947ZM58.5541 42.3109H52.3183V34.0755H58.5541V42.3109ZM28.3623 11.8425H20.7637C19.8817 11.8425 19.1642 12.56 19.1642 13.442V23.0399C19.1641 23.9219 19.8817 24.6394 20.7637 24.6394H28.3623C29.2443 24.6394 29.9618 23.9219 29.9618 23.0399V13.442C29.9618 12.56 29.2442 11.8425 28.3623 11.8425ZM27.6809 22.3587H21.445V14.1232H27.6809V22.3587ZM43.7988 11.8425H36.2002C35.3182 11.8425 34.6007 12.56 34.6007 13.442V23.0399C34.6007 23.9219 35.3184 24.6394 36.2002 24.6394H43.7988C44.6808 24.6394 45.3983 23.9219 45.3983 23.0399V13.442C45.3983 12.56 44.6808 11.8425 43.7988 11.8425ZM43.1176 22.3587H36.8816V14.1232H43.1176V22.3587ZM59.2356 11.8425H51.6369C50.755 11.8425 50.0375 12.56 50.0375 13.442V23.0399C50.0374 23.9219 50.7549 24.6394 51.6369 24.6394H59.2356C60.1175 24.6394 60.835 23.9219 60.835 23.0399V13.442C60.835 12.56 60.1175 11.8425 59.2356 11.8425ZM58.5541 22.3587H52.3183V14.1232H58.5541V22.3587Z"/>
</mask>
<path d="M42.9996 62.6201C42.6971 62.6201 42.407 62.7402 42.1932 62.9541C41.9793 63.168 41.8591 63.4581 41.8591 63.7605V66.1174C41.8591 66.4199 41.9793 66.7099 42.1932 66.9238C42.407 67.1377 42.6971 67.2579 42.9996 67.2579C43.3021 67.2579 43.5921 67.1377 43.806 66.9238C44.0199 66.7099 44.1401 66.4199 44.1401 66.1174V63.7605C44.14 63.4581 44.0198 63.168 43.806 62.9541C43.5921 62.7403 43.3021 62.6201 42.9996 62.6201ZM28.3622 53.496H20.7637C19.8817 53.496 19.1642 54.2135 19.1642 55.0956V64.6935C19.1642 65.5755 19.8817 66.293 20.7636 66.293H28.3622C29.2442 66.293 29.9617 65.5755 29.9617 64.6935V55.0956C29.9617 54.2135 29.244 53.496 28.3622 53.496ZM27.6809 64.0122H21.445V55.7768H27.6809V64.0122ZM59.2355 53.496H51.6367C50.7549 53.496 50.0374 54.2135 50.0374 55.0956V64.6935C50.0374 65.5755 50.7549 66.293 51.6367 66.293H59.2355C60.1173 66.293 60.8348 65.5755 60.8348 64.6935V55.0956C60.8348 54.2135 60.1173 53.496 59.2355 53.496ZM58.5541 64.0122H52.3183V55.7768H58.5541V64.0122ZM28.3622 31.7947H20.7637C19.8817 31.7947 19.1642 32.5122 19.1642 33.3942V42.9922C19.1642 43.8742 19.8817 44.5917 20.7636 44.5917H28.3622C29.2442 44.5917 29.9617 43.8742 29.9617 42.9922V33.3942C29.9617 32.5122 29.244 31.7947 28.3622 31.7947ZM27.6809 42.3109H21.445V34.0755H27.6809V42.3109ZM43.7988 31.7947H36.2002C35.3182 31.7947 34.6007 32.5122 34.6007 33.3942V42.9922C34.6007 43.8742 35.3184 44.5917 36.2002 44.5917H43.7988C44.6808 44.5917 45.3983 43.8742 45.3983 42.9922V33.3942C45.3983 32.5122 44.6808 31.7947 43.7988 31.7947ZM43.1176 42.3109H36.8816V34.0755H43.1176V42.3109ZM59.2355 31.7947H51.6367C50.7549 31.7947 50.0374 32.5122 50.0374 33.3942V42.9922C50.0374 43.8742 50.7549 44.5917 51.6367 44.5917H59.2355C60.1173 44.5917 60.8348 43.8742 60.8348 42.9922V33.3942C60.8348 32.5122 60.1173 31.7947 59.2355 31.7947ZM58.5541 42.3109H52.3183V34.0755H58.5541V42.3109ZM28.3623 11.8425H20.7637C19.8817 11.8425 19.1642 12.56 19.1642 13.442V23.0399C19.1641 23.9219 19.8817 24.6394 20.7637 24.6394H28.3623C29.2443 24.6394 29.9618 23.9219 29.9618 23.0399V13.442C29.9618 12.56 29.2442 11.8425 28.3623 11.8425ZM27.6809 22.3587H21.445V14.1232H27.6809V22.3587ZM43.7988 11.8425H36.2002C35.3182 11.8425 34.6007 12.56 34.6007 13.442V23.0399C34.6007 23.9219 35.3184 24.6394 36.2002 24.6394H43.7988C44.6808 24.6394 45.3983 23.9219 45.3983 23.0399V13.442C45.3983 12.56 44.6808 11.8425 43.7988 11.8425ZM43.1176 22.3587H36.8816V14.1232H43.1176V22.3587ZM59.2356 11.8425H51.6369C50.755 11.8425 50.0375 12.56 50.0375 13.442V23.0399C50.0374 23.9219 50.7549 24.6394 51.6369 24.6394H59.2356C60.1175 24.6394 60.835 23.9219 60.835 23.0399V13.442C60.835 12.56 60.1175 11.8425 59.2356 11.8425ZM58.5541 22.3587H52.3183V14.1232H58.5541V22.3587Z" fill="#A8ABAE" stroke="white" mask="url(#path-1-inside-1_5418_10099)"/>
<mask id="path-2-inside-2_5418_10099" fill="white">
<path d="M73.1693 73.7655H71.3979C71.1747 70.8211 69.1101 68.3846 66.355 67.6068L66.3167 6.87544H67.7C68.5173 6.87544 69.1822 6.2106 69.1822 5.39342V1.48203C69.1822 0.664841 68.5173 0 67.7 0H59.7625C59.1327 0 58.622 0.510467 58.622 1.14046C58.622 1.77046 59.1325 2.28093 59.7625 2.28093H66.9012V4.59467H13.0982V2.28093H62.63C63.2599 2.28093 63.7705 1.77046 63.7705 1.14046C63.7705 0.510467 63.2599 0 62.63 0H12.2993C11.4821 0 10.8172 0.664841 10.8172 1.48203V5.39357C10.8172 6.21076 11.4821 6.8756 12.2993 6.8756H13.6385L13.6627 55.2297C13.6629 55.532 13.7831 55.8219 13.997 56.0356C14.2108 56.2494 14.5008 56.3694 14.8032 56.3694C15.1056 56.3691 15.3964 56.2487 15.6101 56.0347C15.8238 55.8207 15.9438 55.5306 15.9436 55.2281L15.9194 6.87544H64.0358L64.0739 67.3557C64.0701 67.3558 64.0666 67.3565 64.0628 67.3566C64.0231 67.3588 63.9837 67.3635 63.9442 67.3665C63.8503 67.3735 63.7564 67.3805 63.6634 67.3911C63.6127 67.3969 63.5626 67.4054 63.5122 67.4122C63.4311 67.4233 63.3498 67.4341 63.2695 67.4482C63.215 67.4576 63.1611 67.4694 63.1069 67.48C63.0317 67.4949 62.9564 67.5096 62.882 67.5269C62.8259 67.5399 62.7708 67.5549 62.7152 67.5693C62.6434 67.5879 62.5719 67.6063 62.5011 67.6271C62.4452 67.6435 62.3898 67.6616 62.3344 67.6794C62.2651 67.7013 62.1962 67.7244 62.1277 67.7485C62.0723 67.7682 62.0177 67.7893 61.9628 67.8104C61.8958 67.8363 61.8289 67.8625 61.7628 67.8905C61.7083 67.9135 61.6544 67.9374 61.6006 67.9618C61.4165 68.0447 61.2363 68.136 61.0605 68.2354C61.0092 68.2643 60.9583 68.2935 60.9078 68.3236C60.8461 68.3605 60.7853 68.3986 60.7247 68.4375C60.6755 68.4691 60.6264 68.5007 60.578 68.5333C60.5178 68.5741 60.4588 68.6165 60.3999 68.6591C60.3531 68.693 60.3063 68.7266 60.2603 68.7616C60.2016 68.8064 60.1441 68.8532 60.0867 68.9C60.0427 68.936 59.9983 68.9713 59.9552 69.0083C59.8974 69.0579 59.8413 69.1094 59.785 69.161C59.7444 69.1982 59.7033 69.2344 59.6636 69.2727C59.6056 69.3283 59.5499 69.3864 59.4938 69.4443C59.458 69.4811 59.4213 69.5169 59.3863 69.5547C59.3255 69.6202 59.2672 69.6882 59.2088 69.7563C59.1806 69.7891 59.1513 69.8205 59.1236 69.8539C59.0384 69.9568 58.956 70.0621 58.8767 70.1696C58.7464 70.1966 58.618 70.2291 58.491 70.265C58.4491 70.2769 58.4083 70.291 58.3667 70.3038C58.282 70.33 58.1978 70.3569 58.1149 70.3871C58.0672 70.4043 58.0205 70.423 57.9735 70.4416C57.8495 70.4901 57.7273 70.5431 57.6072 70.6005C57.5345 70.6354 57.4625 70.6719 57.3914 70.71C57.347 70.7336 57.3027 70.7569 57.2589 70.7818C57.1833 70.8247 57.1094 70.8704 57.0361 70.9166C56.9999 70.9396 56.9627 70.9613 56.9269 70.985C56.8196 71.0558 56.7148 71.1304 56.6127 71.2085C56.6061 71.2135 56.6 71.2191 56.5936 71.2241C56.498 71.2982 56.405 71.3754 56.3146 71.4552C56.2819 71.4841 56.2508 71.5147 56.2188 71.5443C56.1556 71.6022 56.0937 71.6616 56.0333 71.7224C55.9981 71.758 55.9642 71.7947 55.93 71.8313C55.8401 71.9272 55.7536 72.0262 55.6707 72.1282C55.6196 72.191 55.5703 72.2552 55.5221 72.3202C55.4925 72.3599 55.4628 72.3992 55.4344 72.4397C55.3836 72.5121 55.3355 72.5861 55.288 72.661C55.2658 72.6961 55.2424 72.7303 55.2208 72.7658C55.1534 72.877 55.0898 72.9906 55.0303 73.1063C55.0261 73.1146 55.0225 73.1233 55.0183 73.1316C54.9636 73.2397 54.9125 73.35 54.8647 73.4621C54.8475 73.5025 54.8325 73.5439 54.8163 73.5847C54.7922 73.6449 54.7667 73.7042 54.7449 73.7655H47.3527V55.4351C47.3527 54.3659 46.4829 53.496 45.4137 53.496H34.5856C33.5164 53.496 32.6465 54.3659 32.6465 55.4351V73.7656H25.2547C25.2326 73.7044 25.2072 73.6449 25.1831 73.5846C25.1669 73.5438 25.1519 73.5024 25.1347 73.4622C25.0876 73.3516 25.037 73.2426 24.9828 73.1353C24.978 73.1258 24.9739 73.1158 24.9691 73.1061C24.9097 72.9908 24.8464 72.8775 24.7791 72.7666C24.7572 72.7302 24.7333 72.6953 24.7105 72.6594C24.6639 72.5853 24.6156 72.5124 24.5656 72.4405C24.5369 72.3994 24.5067 72.3597 24.4769 72.3194C24.4291 72.255 24.38 72.1915 24.3295 72.1291C24.2465 72.027 24.16 71.928 24.07 71.8321C24.0356 71.7952 24.0014 71.7583 23.9659 71.7224C23.9059 71.6616 23.8441 71.6032 23.7814 71.5452C23.7491 71.5153 23.7177 71.4844 23.6847 71.4553C23.5942 71.3753 23.501 71.2982 23.4055 71.2243C23.3991 71.2193 23.3931 71.2138 23.3866 71.2088C23.2843 71.1307 23.1794 71.0561 23.072 70.9852C23.0366 70.9616 22.9998 70.9402 22.9639 70.9174C22.8903 70.8705 22.8157 70.8253 22.74 70.7819C22.6966 70.7572 22.6525 70.7341 22.6084 70.7107C22.5369 70.6725 22.4648 70.6357 22.3916 70.6005C22.345 70.5783 22.2982 70.5567 22.2511 70.5357C22.1766 70.5025 22.1011 70.4714 22.025 70.4414C21.9784 70.4232 21.932 70.4046 21.8848 70.3875C21.8011 70.3577 21.7166 70.3298 21.6316 70.3038C21.5905 70.2911 21.55 70.2771 21.5084 70.2654C21.381 70.2289 21.2523 70.197 21.1225 70.1697C21.0434 70.0625 20.9613 69.9575 20.8763 69.8549C20.8484 69.8213 20.8191 69.7897 20.7908 69.7568C20.7333 69.689 20.6746 69.6223 20.6145 69.5568C20.5791 69.5185 20.5419 69.4821 20.5056 69.4447C20.4502 69.3877 20.395 69.3304 20.3378 69.2754C20.2978 69.2369 20.2566 69.2004 20.2158 69.1629C20.1603 69.1113 20.104 69.0608 20.0469 69.0111C20.0036 68.974 19.9592 68.9383 19.915 68.9024C19.858 68.8558 19.801 68.8096 19.7427 68.7649C19.6966 68.7297 19.6497 68.6958 19.603 68.6618C19.5445 68.6191 19.4854 68.5774 19.4256 68.5366C19.3774 68.5038 19.3285 68.4722 19.2794 68.4407C19.219 68.4018 19.1581 68.3639 19.0966 68.3269C18.8729 68.1934 18.642 68.0726 18.4049 67.9649C18.3517 67.9408 18.2985 67.9168 18.2447 67.894C18.178 67.8657 18.1106 67.8393 18.043 67.8132C17.9891 67.7924 17.9353 67.7713 17.881 67.7519C17.8116 67.7271 17.7413 67.7044 17.671 67.6818C17.6169 67.6644 17.5631 67.6463 17.5086 67.6302C17.4358 67.6086 17.3621 67.5899 17.2883 67.5707C17.235 67.5569 17.1822 67.5421 17.1286 67.5296C17.0499 67.5111 16.97 67.4957 16.8905 67.48C16.841 67.4702 16.7919 67.4591 16.7422 67.4504C16.6474 67.4343 16.5523 67.4202 16.4569 67.4082C16.421 67.4035 16.3855 67.3969 16.3494 67.3927C16.2192 67.3775 16.0886 67.3658 15.9577 67.3579L15.9483 52.4576C15.9481 52.1553 15.8279 51.8654 15.614 51.6516C15.4002 51.4379 15.1102 51.3179 14.8078 51.3179C14.5054 51.3182 14.2146 51.4385 14.0009 51.6526C13.7872 51.8666 13.6672 52.1567 13.6674 52.4592L13.6769 67.5979C10.9054 68.3655 8.82537 70.8099 8.60131 73.766H6.82991C5.11117 73.766 3.71289 75.1642 3.71289 76.883C3.71289 78.6019 5.11117 80 6.82991 80H73.1695C74.8884 80 76.2865 78.6017 76.2865 76.883C76.2865 75.1638 74.8882 73.7655 73.1693 73.7655ZM57.3835 73.6331L57.3892 73.6253C57.437 73.5635 57.4878 73.5038 57.5397 73.4455C57.5528 73.4306 57.5663 73.4161 57.5797 73.4014C57.6303 73.3463 57.6827 73.2929 57.7369 73.2413L57.7452 73.2332C57.8168 73.1663 57.8914 73.1026 57.9686 73.0424C58.0274 72.9961 58.0874 72.9513 58.1491 72.9091C58.1522 72.9069 58.1552 72.9046 58.1583 72.9025C58.2399 72.8477 58.3239 72.7965 58.41 72.7491C58.4763 72.7122 58.5436 72.6769 58.6127 72.6447L58.6206 72.6407C58.7108 72.5992 58.8028 72.5618 58.8963 72.5286C58.9697 72.5024 59.0438 72.4777 59.1194 72.4564L59.1242 72.455C59.2213 72.4283 59.3196 72.4062 59.4188 72.3886C59.499 72.3737 59.5798 72.3617 59.6609 72.3528C59.8331 72.3347 59.9989 72.2776 60.1457 72.186C60.2926 72.0943 60.4166 71.9704 60.5084 71.8236C61.3694 70.4474 62.8502 69.6258 64.4695 69.6258C64.5631 69.6258 64.6595 69.6293 64.7575 69.6357L64.7725 69.6368C64.8701 69.6435 64.9694 69.653 65.07 69.666C65.0744 69.6666 65.0787 69.6665 65.083 69.6669C67.1958 69.9455 68.8682 71.6414 69.1093 73.7658H57.2894C57.3203 73.721 57.3506 73.676 57.3835 73.6331ZM45.0719 55.7768V73.7655H34.9273V55.7768H45.0719ZM14.9513 69.6625L14.9563 69.6622C15.0503 69.6507 15.1446 69.6419 15.2391 69.6358L15.2557 69.6346C15.3469 69.6288 15.4384 69.6258 15.5299 69.6257C17.1491 69.6257 18.63 70.4472 19.4911 71.8235C19.612 72.016 19.7879 72.168 19.996 72.2597C20.1048 72.3086 20.2207 72.34 20.3394 72.3528C20.4407 72.3639 20.5414 72.3797 20.6413 72.4C20.72 72.4154 20.7981 72.4337 20.8755 72.4549L20.8805 72.4564C20.9754 72.4832 21.0691 72.5144 21.1611 72.5499C21.2349 72.5778 21.308 72.6075 21.3791 72.6407C21.3813 72.6416 21.3833 72.6428 21.3855 72.6439C21.4731 72.6851 21.5588 72.7301 21.6423 72.7789C21.71 72.8181 21.7767 72.8588 21.8414 72.9025C21.8439 72.9041 21.8461 72.906 21.8486 72.9077C21.9275 72.9618 22.004 73.0192 22.078 73.0799C22.1384 73.1291 22.1977 73.1797 22.2544 73.2332L22.2616 73.2402C22.3163 73.2917 22.3686 73.3458 22.4195 73.4011C22.486 73.4729 22.5495 73.5475 22.6098 73.6246L22.6172 73.6344C22.6497 73.6767 22.6795 73.7213 22.71 73.7652H10.8897C11.1321 71.6296 12.8218 69.9269 14.9513 69.6625ZM73.1693 77.7189H6.82991C6.36882 77.7189 5.99366 77.3438 5.99366 76.8827C5.99366 76.4216 6.36882 76.0464 6.82991 76.0464H73.1693C73.6304 76.0464 74.0056 76.4216 74.0056 76.8827C74.0056 77.3438 73.6304 77.7189 73.1693 77.7189Z"/>
</mask>
<path d="M73.1693 73.7655H71.3979C71.1747 70.8211 69.1101 68.3846 66.355 67.6068L66.3167 6.87544H67.7C68.5173 6.87544 69.1822 6.2106 69.1822 5.39342V1.48203C69.1822 0.664841 68.5173 0 67.7 0H59.7625C59.1327 0 58.622 0.510467 58.622 1.14046C58.622 1.77046 59.1325 2.28093 59.7625 2.28093H66.9012V4.59467H13.0982V2.28093H62.63C63.2599 2.28093 63.7705 1.77046 63.7705 1.14046C63.7705 0.510467 63.2599 0 62.63 0H12.2993C11.4821 0 10.8172 0.664841 10.8172 1.48203V5.39357C10.8172 6.21076 11.4821 6.8756 12.2993 6.8756H13.6385L13.6627 55.2297C13.6629 55.532 13.7831 55.8219 13.997 56.0356C14.2108 56.2494 14.5008 56.3694 14.8032 56.3694C15.1056 56.3691 15.3964 56.2487 15.6101 56.0347C15.8238 55.8207 15.9438 55.5306 15.9436 55.2281L15.9194 6.87544H64.0358L64.0739 67.3557C64.0701 67.3558 64.0666 67.3565 64.0628 67.3566C64.0231 67.3588 63.9837 67.3635 63.9442 67.3665C63.8503 67.3735 63.7564 67.3805 63.6634 67.3911C63.6127 67.3969 63.5626 67.4054 63.5122 67.4122C63.4311 67.4233 63.3498 67.4341 63.2695 67.4482C63.215 67.4576 63.1611 67.4694 63.1069 67.48C63.0317 67.4949 62.9564 67.5096 62.882 67.5269C62.8259 67.5399 62.7708 67.5549 62.7152 67.5693C62.6434 67.5879 62.5719 67.6063 62.5011 67.6271C62.4452 67.6435 62.3898 67.6616 62.3344 67.6794C62.2651 67.7013 62.1962 67.7244 62.1277 67.7485C62.0723 67.7682 62.0177 67.7893 61.9628 67.8104C61.8958 67.8363 61.8289 67.8625 61.7628 67.8905C61.7083 67.9135 61.6544 67.9374 61.6006 67.9618C61.4165 68.0447 61.2363 68.136 61.0605 68.2354C61.0092 68.2643 60.9583 68.2935 60.9078 68.3236C60.8461 68.3605 60.7853 68.3986 60.7247 68.4375C60.6755 68.4691 60.6264 68.5007 60.578 68.5333C60.5178 68.5741 60.4588 68.6165 60.3999 68.6591C60.3531 68.693 60.3063 68.7266 60.2603 68.7616C60.2016 68.8064 60.1441 68.8532 60.0867 68.9C60.0427 68.936 59.9983 68.9713 59.9552 69.0083C59.8974 69.0579 59.8413 69.1094 59.785 69.161C59.7444 69.1982 59.7033 69.2344 59.6636 69.2727C59.6056 69.3283 59.5499 69.3864 59.4938 69.4443C59.458 69.4811 59.4213 69.5169 59.3863 69.5547C59.3255 69.6202 59.2672 69.6882 59.2088 69.7563C59.1806 69.7891 59.1513 69.8205 59.1236 69.8539C59.0384 69.9568 58.956 70.0621 58.8767 70.1696C58.7464 70.1966 58.618 70.2291 58.491 70.265C58.4491 70.2769 58.4083 70.291 58.3667 70.3038C58.282 70.33 58.1978 70.3569 58.1149 70.3871C58.0672 70.4043 58.0205 70.423 57.9735 70.4416C57.8495 70.4901 57.7273 70.5431 57.6072 70.6005C57.5345 70.6354 57.4625 70.6719 57.3914 70.71C57.347 70.7336 57.3027 70.7569 57.2589 70.7818C57.1833 70.8247 57.1094 70.8704 57.0361 70.9166C56.9999 70.9396 56.9627 70.9613 56.9269 70.985C56.8196 71.0558 56.7148 71.1304 56.6127 71.2085C56.6061 71.2135 56.6 71.2191 56.5936 71.2241C56.498 71.2982 56.405 71.3754 56.3146 71.4552C56.2819 71.4841 56.2508 71.5147 56.2188 71.5443C56.1556 71.6022 56.0937 71.6616 56.0333 71.7224C55.9981 71.758 55.9642 71.7947 55.93 71.8313C55.8401 71.9272 55.7536 72.0262 55.6707 72.1282C55.6196 72.191 55.5703 72.2552 55.5221 72.3202C55.4925 72.3599 55.4628 72.3992 55.4344 72.4397C55.3836 72.5121 55.3355 72.5861 55.288 72.661C55.2658 72.6961 55.2424 72.7303 55.2208 72.7658C55.1534 72.877 55.0898 72.9906 55.0303 73.1063C55.0261 73.1146 55.0225 73.1233 55.0183 73.1316C54.9636 73.2397 54.9125 73.35 54.8647 73.4621C54.8475 73.5025 54.8325 73.5439 54.8163 73.5847C54.7922 73.6449 54.7667 73.7042 54.7449 73.7655H47.3527V55.4351C47.3527 54.3659 46.4829 53.496 45.4137 53.496H34.5856C33.5164 53.496 32.6465 54.3659 32.6465 55.4351V73.7656H25.2547C25.2326 73.7044 25.2072 73.6449 25.1831 73.5846C25.1669 73.5438 25.1519 73.5024 25.1347 73.4622C25.0876 73.3516 25.037 73.2426 24.9828 73.1353C24.978 73.1258 24.9739 73.1158 24.9691 73.1061C24.9097 72.9908 24.8464 72.8775 24.7791 72.7666C24.7572 72.7302 24.7333 72.6953 24.7105 72.6594C24.6639 72.5853 24.6156 72.5124 24.5656 72.4405C24.5369 72.3994 24.5067 72.3597 24.4769 72.3194C24.4291 72.255 24.38 72.1915 24.3295 72.1291C24.2465 72.027 24.16 71.928 24.07 71.8321C24.0356 71.7952 24.0014 71.7583 23.9659 71.7224C23.9059 71.6616 23.8441 71.6032 23.7814 71.5452C23.7491 71.5153 23.7177 71.4844 23.6847 71.4553C23.5942 71.3753 23.501 71.2982 23.4055 71.2243C23.3991 71.2193 23.3931 71.2138 23.3866 71.2088C23.2843 71.1307 23.1794 71.0561 23.072 70.9852C23.0366 70.9616 22.9998 70.9402 22.9639 70.9174C22.8903 70.8705 22.8157 70.8253 22.74 70.7819C22.6966 70.7572 22.6525 70.7341 22.6084 70.7107C22.5369 70.6725 22.4648 70.6357 22.3916 70.6005C22.345 70.5783 22.2982 70.5567 22.2511 70.5357C22.1766 70.5025 22.1011 70.4714 22.025 70.4414C21.9784 70.4232 21.932 70.4046 21.8848 70.3875C21.8011 70.3577 21.7166 70.3298 21.6316 70.3038C21.5905 70.2911 21.55 70.2771 21.5084 70.2654C21.381 70.2289 21.2523 70.197 21.1225 70.1697C21.0434 70.0625 20.9613 69.9575 20.8763 69.8549C20.8484 69.8213 20.8191 69.7897 20.7908 69.7568C20.7333 69.689 20.6746 69.6223 20.6145 69.5568C20.5791 69.5185 20.5419 69.4821 20.5056 69.4447C20.4502 69.3877 20.395 69.3304 20.3378 69.2754C20.2978 69.2369 20.2566 69.2004 20.2158 69.1629C20.1603 69.1113 20.104 69.0608 20.0469 69.0111C20.0036 68.974 19.9592 68.9383 19.915 68.9024C19.858 68.8558 19.801 68.8096 19.7427 68.7649C19.6966 68.7297 19.6497 68.6958 19.603 68.6618C19.5445 68.6191 19.4854 68.5774 19.4256 68.5366C19.3774 68.5038 19.3285 68.4722 19.2794 68.4407C19.219 68.4018 19.1581 68.3639 19.0966 68.3269C18.8729 68.1934 18.642 68.0726 18.4049 67.9649C18.3517 67.9408 18.2985 67.9168 18.2447 67.894C18.178 67.8657 18.1106 67.8393 18.043 67.8132C17.9891 67.7924 17.9353 67.7713 17.881 67.7519C17.8116 67.7271 17.7413 67.7044 17.671 67.6818C17.6169 67.6644 17.5631 67.6463 17.5086 67.6302C17.4358 67.6086 17.3621 67.5899 17.2883 67.5707C17.235 67.5569 17.1822 67.5421 17.1286 67.5296C17.0499 67.5111 16.97 67.4957 16.8905 67.48C16.841 67.4702 16.7919 67.4591 16.7422 67.4504C16.6474 67.4343 16.5523 67.4202 16.4569 67.4082C16.421 67.4035 16.3855 67.3969 16.3494 67.3927C16.2192 67.3775 16.0886 67.3658 15.9577 67.3579L15.9483 52.4576C15.9481 52.1553 15.8279 51.8654 15.614 51.6516C15.4002 51.4379 15.1102 51.3179 14.8078 51.3179C14.5054 51.3182 14.2146 51.4385 14.0009 51.6526C13.7872 51.8666 13.6672 52.1567 13.6674 52.4592L13.6769 67.5979C10.9054 68.3655 8.82537 70.8099 8.60131 73.766H6.82991C5.11117 73.766 3.71289 75.1642 3.71289 76.883C3.71289 78.6019 5.11117 80 6.82991 80H73.1695C74.8884 80 76.2865 78.6017 76.2865 76.883C76.2865 75.1638 74.8882 73.7655 73.1693 73.7655ZM57.3835 73.6331L57.3892 73.6253C57.437 73.5635 57.4878 73.5038 57.5397 73.4455C57.5528 73.4306 57.5663 73.4161 57.5797 73.4014C57.6303 73.3463 57.6827 73.2929 57.7369 73.2413L57.7452 73.2332C57.8168 73.1663 57.8914 73.1026 57.9686 73.0424C58.0274 72.9961 58.0874 72.9513 58.1491 72.9091C58.1522 72.9069 58.1552 72.9046 58.1583 72.9025C58.2399 72.8477 58.3239 72.7965 58.41 72.7491C58.4763 72.7122 58.5436 72.6769 58.6127 72.6447L58.6206 72.6407C58.7108 72.5992 58.8028 72.5618 58.8963 72.5286C58.9697 72.5024 59.0438 72.4777 59.1194 72.4564L59.1242 72.455C59.2213 72.4283 59.3196 72.4062 59.4188 72.3886C59.499 72.3737 59.5798 72.3617 59.6609 72.3528C59.8331 72.3347 59.9989 72.2776 60.1457 72.186C60.2926 72.0943 60.4166 71.9704 60.5084 71.8236C61.3694 70.4474 62.8502 69.6258 64.4695 69.6258C64.5631 69.6258 64.6595 69.6293 64.7575 69.6357L64.7725 69.6368C64.8701 69.6435 64.9694 69.653 65.07 69.666C65.0744 69.6666 65.0787 69.6665 65.083 69.6669C67.1958 69.9455 68.8682 71.6414 69.1093 73.7658H57.2894C57.3203 73.721 57.3506 73.676 57.3835 73.6331ZM45.0719 55.7768V73.7655H34.9273V55.7768H45.0719ZM14.9513 69.6625L14.9563 69.6622C15.0503 69.6507 15.1446 69.6419 15.2391 69.6358L15.2557 69.6346C15.3469 69.6288 15.4384 69.6258 15.5299 69.6257C17.1491 69.6257 18.63 70.4472 19.4911 71.8235C19.612 72.016 19.7879 72.168 19.996 72.2597C20.1048 72.3086 20.2207 72.34 20.3394 72.3528C20.4407 72.3639 20.5414 72.3797 20.6413 72.4C20.72 72.4154 20.7981 72.4337 20.8755 72.4549L20.8805 72.4564C20.9754 72.4832 21.0691 72.5144 21.1611 72.5499C21.2349 72.5778 21.308 72.6075 21.3791 72.6407C21.3813 72.6416 21.3833 72.6428 21.3855 72.6439C21.4731 72.6851 21.5588 72.7301 21.6423 72.7789C21.71 72.8181 21.7767 72.8588 21.8414 72.9025C21.8439 72.9041 21.8461 72.906 21.8486 72.9077C21.9275 72.9618 22.004 73.0192 22.078 73.0799C22.1384 73.1291 22.1977 73.1797 22.2544 73.2332L22.2616 73.2402C22.3163 73.2917 22.3686 73.3458 22.4195 73.4011C22.486 73.4729 22.5495 73.5475 22.6098 73.6246L22.6172 73.6344C22.6497 73.6767 22.6795 73.7213 22.71 73.7652H10.8897C11.1321 71.6296 12.8218 69.9269 14.9513 69.6625ZM73.1693 77.7189H6.82991C6.36882 77.7189 5.99366 77.3438 5.99366 76.8827C5.99366 76.4216 6.36882 76.0464 6.82991 76.0464H73.1693C73.6304 76.0464 74.0056 76.4216 74.0056 76.8827C74.0056 77.3438 73.6304 77.7189 73.1693 77.7189Z" fill="#A8ABAE" stroke="white" mask="url(#path-2-inside-2_5418_10099)"/>
</svg>
