<svg width="18" height="18" viewBox="0 0 18 18" fill="none" xmlns="http://www.w3.org/2000/svg">
<path d="M9 1.6875C7.55373 1.6875 6.13993 2.11637 4.9374 2.91988C3.73486 3.72339 2.7976 4.86544 2.24413 6.20163C1.69067 7.53781 1.54586 9.00811 1.82801 10.4266C2.11017 11.8451 2.80661 13.148 3.82928 14.1707C4.85196 15.1934 6.15492 15.8898 7.57341 16.172C8.99189 16.4541 10.4622 16.3093 11.7984 15.7559C13.1346 15.2024 14.2766 14.2651 15.0801 13.0626C15.8836 11.8601 16.3125 10.4463 16.3125 9C16.3103 7.06129 15.5391 5.20262 14.1683 3.83175C12.7974 2.46087 10.9387 1.68973 9 1.6875ZM14.5097 6.1875H12.0031C11.6874 5.02939 11.1554 3.94149 10.4351 2.98125C11.3053 3.19031 12.1201 3.58508 12.8235 4.13849C13.527 4.69191 14.1024 5.39088 14.5104 6.1875H14.5097ZM15.1875 9C15.188 9.57063 15.1092 10.1386 14.9534 10.6875H12.2456C12.4181 9.56911 12.4181 8.43089 12.2456 7.3125H14.9534C15.1092 7.86144 15.188 8.42937 15.1875 9ZM9 3.02344C9.84229 3.92521 10.4676 5.0074 10.8281 6.1875H7.17188C7.53208 5.00724 8.15739 3.92497 9 3.02344ZM7.17188 11.8125H10.8281C10.4679 12.9928 9.84261 14.075 9 14.9766C8.15771 14.0748 7.53245 12.9926 7.17188 11.8125ZM6.89766 10.6875C6.70454 9.57079 6.70454 8.42921 6.89766 7.3125H11.108C11.3011 8.42921 11.3011 9.57079 11.108 10.6875H6.89766ZM10.4379 15.0188C11.1582 14.0585 11.6902 12.9706 12.0059 11.8125H14.5132C14.1049 12.6094 13.529 13.3086 12.8251 13.862C12.1212 14.4155 11.3059 14.8101 10.4351 15.0188H10.4379Z" fill="#F1913D"/>
</svg>
