<svg width="25" height="24" viewBox="0 0 25 24" fill="none" xmlns="http://www.w3.org/2000/svg">
<path d="M22.834 18C22.834 18.1989 22.755 18.3897 22.6143 18.5303C22.4737 18.671 22.2829 18.75 22.084 18.75H19.084V21.75C19.084 21.9489 19.005 22.1397 18.8643 22.2803C18.7237 22.421 18.5329 22.5 18.334 22.5C18.1351 22.5 17.9443 22.421 17.8037 22.2803C17.663 22.1397 17.584 21.9489 17.584 21.75V18.75H6.33398C6.13507 18.75 5.94431 18.671 5.80365 18.5303C5.663 18.3897 5.58398 18.1989 5.58398 18V6.75H2.58398C2.38507 6.75 2.19431 6.67098 2.05365 6.53033C1.913 6.38968 1.83398 6.19891 1.83398 6C1.83398 5.80109 1.913 5.61032 2.05365 5.46967C2.19431 5.32902 2.38507 5.25 2.58398 5.25H5.58398V2.25C5.58398 2.05109 5.663 1.86032 5.80365 1.71967C5.94431 1.57902 6.13507 1.5 6.33398 1.5C6.5329 1.5 6.72366 1.57902 6.86431 1.71967C7.00497 1.86032 7.08398 2.05109 7.08398 2.25V17.25H22.084C22.2829 17.25 22.4737 17.329 22.6143 17.4697C22.755 17.6103 22.834 17.8011 22.834 18ZM9.33398 6.75H17.584V15C17.584 15.1989 17.663 15.3897 17.8037 15.5303C17.9443 15.671 18.1351 15.75 18.334 15.75C18.5329 15.75 18.7237 15.671 18.8643 15.5303C19.005 15.3897 19.084 15.1989 19.084 15V6C19.084 5.80109 19.005 5.61032 18.8643 5.46967C18.7237 5.32902 18.5329 5.25 18.334 5.25H9.33398C9.13507 5.25 8.94431 5.32902 8.80365 5.46967C8.663 5.61032 8.58398 5.80109 8.58398 6C8.58398 6.19891 8.663 6.38968 8.80365 6.53033C8.94431 6.67098 9.13507 6.75 9.33398 6.75Z" fill="#2C2E33"/>
</svg>
