<svg width="42" height="42" viewBox="0 0 42 42" fill="none" xmlns="http://www.w3.org/2000/svg">
<g clip-path="url(#clip0_2443_9883)">
<path d="M31.3113 10.943C34.3331 10.943 36.7828 8.4933 36.7828 5.47148C36.7828 2.44967 34.3331 0 31.3113 0C28.2895 0 25.8398 2.44967 25.8398 5.47148C25.8398 8.4933 28.2895 10.943 31.3113 10.943Z" fill="#F1913D"/>
<path d="M28.8332 31.7707L26.5281 22.7308C26.1179 21.123 24.666 19.991 23.0007 19.991H18.9976C17.3324 19.991 15.8804 21.123 15.4703 22.7308L13.1652 31.7707C12.8207 33.116 13.8379 34.4203 15.2242 34.4203H16.955V40.1789C16.955 41.1796 17.7671 42 18.7761 42H23.2304C24.2312 42 25.0515 41.1878 25.0515 40.1789V34.4203H26.7824C28.1605 34.4203 29.1777 33.116 28.8332 31.7707Z" fill="#F1913D"/>
<path d="M20.9973 19.0395C23.2308 19.0395 25.0414 17.2288 25.0414 14.9953C25.0414 12.7618 23.2308 10.9512 20.9973 10.9512C18.7637 10.9512 16.9531 12.7618 16.9531 14.9953C16.9531 17.2288 18.7637 19.0395 20.9973 19.0395Z" fill="#F1913D"/>
<path d="M41.9089 28.1695L38.7917 15.9386C38.2339 13.7566 36.2733 12.2308 34.0257 12.2308H28.6116C27.7667 12.2308 26.971 12.4441 26.2655 12.8297C26.5444 13.4941 26.6921 14.2242 26.6921 14.9953C26.6921 16.4719 26.1261 17.8172 25.1991 18.8344C26.6183 19.4824 27.7175 20.7457 28.1194 22.3289L29.9077 29.3426L30.4245 31.3687C30.4573 31.4918 30.4819 31.623 30.4983 31.7461C30.6542 32.7633 30.3835 33.7804 29.7436 34.6008C29.03 35.5277 27.939 36.0527 26.7741 36.0527H26.6839V40.1707C26.6839 40.5398 26.6265 40.8926 26.5198 41.2289C26.9628 41.6965 27.6026 41.9918 28.2999 41.9918H34.3292C35.6909 41.9918 36.7901 40.8926 36.7901 39.5308V31.7379H39.128C40.9983 31.7461 42.3683 29.9824 41.9089 28.1695ZM11.5737 31.3687L12.0905 29.3426L13.8788 22.3289C14.2808 20.7375 15.38 19.4824 16.7991 18.8344C15.8374 17.7873 15.3045 16.417 15.3061 14.9953C15.3061 14.2324 15.4538 13.5023 15.7327 12.8297C15.0272 12.4441 14.2315 12.2308 13.3866 12.2308H7.97255C5.7249 12.2308 3.75614 13.7566 3.20654 15.9386L0.089348 28.1695C-0.370027 29.9824 0.999895 31.7461 2.87021 31.7461H5.2081V39.539C5.2081 40.9008 6.30732 42 7.66904 42H13.6983C14.3956 42 15.0272 41.7047 15.4784 41.2371C15.3718 40.9008 15.3143 40.548 15.3143 40.1789V36.0609H15.2241C14.0511 36.0609 12.9683 35.5277 12.2546 34.609C11.6147 33.7886 11.3522 32.7633 11.4999 31.7543C11.5163 31.623 11.5409 31.4918 11.5737 31.3687Z" fill="#F1913D"/>
<path d="M16.1566 5.48203C16.1624 2.46022 13.7174 0.00585293 10.6956 5.14573e-05C7.6738 -0.00575001 5.21943 2.43921 5.21363 5.46102C5.20783 8.48283 7.65279 10.9372 10.6746 10.943C13.6964 10.9488 16.1508 8.50384 16.1566 5.48203Z" fill="#F1913D"/>
</g>
<defs>
<clipPath id="clip0_2443_9883">
<rect width="42" height="42" fill="white"/>
</clipPath>
</defs>
</svg>
