<svg width="36" height="36" viewBox="0 0 36 36" fill="none" xmlns="http://www.w3.org/2000/svg">
<path d="M6 33H27C27.7956 33 28.5587 32.6839 29.1213 32.1213C29.6839 31.5587 30 30.7956 30 30V10.5L22.5 3H9C8.20435 3 7.44129 3.31607 6.87868 3.87868C6.31607 4.44129 6 5.20435 6 6V9" stroke="#F1913D" stroke-width="2" stroke-linecap="round" stroke-linejoin="round"/>
<path d="M21 3V9C21 9.79565 21.3161 10.5587 21.8787 11.1213C22.4413 11.6839 23.2044 12 24 12H30" stroke="#F1913D" stroke-width="2" stroke-linecap="round" stroke-linejoin="round"/>
<path d="M15.4348 16.05C14.9224 15.5384 14.2692 15.191 13.5586 15.0521C12.848 14.9132 12.1121 14.989 11.4448 15.27C11.0098 15.45 10.6048 15.72 10.2748 16.065L9.74976 16.575L9.22476 16.065C8.71531 15.5539 8.0656 15.2055 7.35797 15.064C6.65033 14.9225 5.9166 14.9942 5.24976 15.27C4.79976 15.45 4.40976 15.72 4.06476 16.065C2.63976 17.475 2.56476 19.86 4.36476 21.675L9.74976 27L15.1498 21.675C16.9498 19.86 16.8598 17.475 15.4348 16.065V16.05Z" stroke="#F1913D" stroke-width="2" stroke-linecap="round" stroke-linejoin="round"/>
</svg>
