<svg width="40" height="40" viewBox="0 0 40 40" fill="none" xmlns="http://www.w3.org/2000/svg">
<path d="M36.25 31.25H33.75V27.5C33.75 26.837 33.4866 26.2011 33.0178 25.7322C32.5489 25.2634 31.913 25 31.25 25H28.75C28.087 25 27.4511 25.2634 26.9822 25.7322C26.5134 26.2011 26.25 26.837 26.25 27.5V31.25H23.75V25C23.75 24.337 23.4866 23.7011 23.0178 23.2322C22.5489 22.7634 21.913 22.5 21.25 22.5H18.75C18.087 22.5 17.4511 22.7634 16.9822 23.2322C16.5134 23.7011 16.25 24.337 16.25 25V31.25H13.75V10C13.75 9.33696 13.4866 8.70107 13.0178 8.23223C12.5489 7.76339 11.913 7.5 11.25 7.5H8.75C8.08696 7.5 7.45107 7.76339 6.98223 8.23223C6.51339 8.70107 6.25 9.33696 6.25 10V31.25H3.75C3.41848 31.25 3.10054 31.3817 2.86612 31.6161C2.6317 31.8505 2.5 32.1685 2.5 32.5C2.5 32.8315 2.6317 33.1495 2.86612 33.3839C3.10054 33.6183 3.41848 33.75 3.75 33.75H36.25C36.5815 33.75 36.8995 33.6183 37.1339 33.3839C37.3683 33.1495 37.5 32.8315 37.5 32.5C37.5 32.1685 37.3683 31.8505 37.1339 31.6161C36.8995 31.3817 36.5815 31.25 36.25 31.25Z" fill="#C79E34"/>
<path d="M37.1339 22.8663L32.3589 18.0913C33.4513 16.5556 33.9268 14.6656 33.6913 12.7958C33.4557 10.9261 32.5263 9.21303 31.0872 7.9963C29.648 6.77957 27.8043 6.14796 25.9214 6.22665C24.0385 6.30535 22.2539 7.08862 20.9213 8.42119C19.5887 9.75377 18.8055 11.5384 18.7268 13.4213C18.6481 15.3042 19.2797 17.1479 20.4964 18.5871C21.7132 20.0262 23.4262 20.9556 25.2959 21.1912C27.1657 21.4267 29.0557 20.9512 30.5914 19.8588L35.3664 24.6338C35.6021 24.8615 35.9179 24.9874 36.2456 24.9846C36.5734 24.9817 36.8869 24.8503 37.1186 24.6185C37.3504 24.3868 37.4819 24.0732 37.4847 23.7455C37.4876 23.4178 37.3616 23.102 37.1339 22.8663ZM26.2501 18.75C25.2612 18.75 24.2945 18.4568 23.4723 17.9074C22.65 17.3579 22.0092 16.5771 21.6307 15.6634C21.2523 14.7498 21.1533 13.7445 21.3462 12.7746C21.5391 11.8046 22.0153 10.9137 22.7146 10.2145C23.4139 9.51521 24.3048 9.039 25.2747 8.84608C26.2446 8.65315 27.2499 8.75217 28.1635 9.1306C29.0772 9.50904 29.8581 10.1499 30.4075 10.9722C30.9569 11.7944 31.2501 12.7611 31.2501 13.75C31.2501 15.0761 30.7233 16.3479 29.7857 17.2855C28.848 18.2232 27.5762 18.75 26.2501 18.75Z" fill="#C79E34"/>
</svg>
