<svg width="20" height="20" viewBox="0 0 20 20" fill="none" xmlns="http://www.w3.org/2000/svg">
<path d="M11.875 8.75C11.875 8.91576 11.8091 9.07473 11.6919 9.19194C11.5747 9.30915 11.4158 9.375 11.25 9.375H9.375V11.25C9.375 11.4158 9.30915 11.5747 9.19194 11.6919C9.07473 11.8091 8.91576 11.875 8.75 11.875C8.58423 11.875 8.42526 11.8091 8.30805 11.6919C8.19084 11.5747 8.125 11.4158 8.125 11.25V9.375H6.25C6.08423 9.375 5.92526 9.30915 5.80805 9.19194C5.69084 9.07473 5.625 8.91576 5.625 8.75C5.625 8.58423 5.69084 8.42526 5.80805 8.30805C5.92526 8.19084 6.08423 8.125 6.25 8.125H8.125V6.25C8.125 6.08423 8.19084 5.92526 8.30805 5.80805C8.42526 5.69084 8.58423 5.625 8.75 5.625C8.91576 5.625 9.07473 5.69084 9.19194 5.80805C9.30915 5.92526 9.375 6.08423 9.375 6.25V8.125H11.25C11.4158 8.125 11.5747 8.19084 11.6919 8.30805C11.8091 8.42526 11.875 8.58423 11.875 8.75ZM17.9422 17.9422C17.8841 18.0003 17.8152 18.0464 17.7393 18.0778C17.6635 18.1093 17.5821 18.1255 17.5 18.1255C17.4179 18.1255 17.3365 18.1093 17.2607 18.0778C17.1848 18.0464 17.1159 18.0003 17.0578 17.9422L13.1469 14.0305C11.7857 15.1642 10.0398 15.7296 8.27244 15.6089C6.50506 15.4883 4.85223 14.6909 3.65779 13.3826C2.46334 12.0744 1.81926 10.356 1.85951 8.58492C1.89976 6.81388 2.62125 5.12653 3.87389 3.87389C5.12653 2.62125 6.81388 1.89976 8.58492 1.85951C10.356 1.81926 12.0744 2.46334 13.3826 3.65779C14.6909 4.85223 15.4883 6.50506 15.6089 8.27244C15.7296 10.0398 15.1642 11.7857 14.0305 13.1469L17.9422 17.0578C18.0003 17.1159 18.0464 17.1848 18.0778 17.2607C18.1093 17.3365 18.1255 17.4179 18.1255 17.5C18.1255 17.5821 18.1093 17.6635 18.0778 17.7393C18.0464 17.8152 18.0003 17.8841 17.9422 17.9422ZM8.75 14.375C9.86252 14.375 10.9501 14.0451 11.8751 13.427C12.8001 12.8089 13.5211 11.9304 13.9468 10.9026C14.3726 9.87475 14.484 8.74376 14.2669 7.65261C14.0499 6.56147 13.5141 5.55919 12.7275 4.77252C11.9408 3.98585 10.9385 3.45012 9.84738 3.23308C8.75624 3.01604 7.62524 3.12743 6.5974 3.55317C5.56957 3.97892 4.69106 4.69989 4.07298 5.62491C3.4549 6.54994 3.125 7.63748 3.125 8.75C3.12665 10.2413 3.71981 11.6711 4.77435 12.7256C5.82888 13.7802 7.25866 14.3733 8.75 14.375Z" fill="#F1913D"/>
</svg>
