<svg width="25" height="24" viewBox="0 0 25 24" fill="none" xmlns="http://www.w3.org/2000/svg">
<path d="M23.166 18H22.416V9.25034C22.416 9.00349 22.3551 8.76044 22.2387 8.54277C22.1222 8.3251 21.9539 8.13954 21.7485 8.00253L13.4985 2.50222C13.2521 2.33796 12.9626 2.25031 12.6665 2.25031C12.3704 2.25031 12.0809 2.33796 11.8345 2.50222L3.58445 8.00253C3.37893 8.13943 3.21039 8.32495 3.09378 8.54263C2.97717 8.7603 2.91611 9.0034 2.91602 9.25034V18H2.16602C1.9671 18 1.77634 18.079 1.63569 18.2197C1.49503 18.3604 1.41602 18.5511 1.41602 18.75C1.41602 18.9489 1.49503 19.1397 1.63569 19.2804C1.77634 19.421 1.9671 19.5 2.16602 19.5H23.166C23.3649 19.5 23.5557 19.421 23.6963 19.2804C23.837 19.1397 23.916 18.9489 23.916 18.75C23.916 18.5511 23.837 18.3604 23.6963 18.2197C23.5557 18.079 23.3649 18 23.166 18ZM4.41602 9.25034L12.666 3.75003L20.916 9.2494V18H18.666V12.75C18.666 12.5511 18.587 12.3604 18.4463 12.2197C18.3057 12.079 18.1149 12 17.916 12H7.41602C7.2171 12 7.02634 12.079 6.88569 12.2197C6.74503 12.3604 6.66602 12.5511 6.66602 12.75V18H4.41602V9.25034ZM17.166 13.5V15H13.416V13.5H17.166ZM11.916 15H8.16602V13.5H11.916V15ZM8.16602 16.5H11.916V18H8.16602V16.5ZM13.416 16.5H17.166V18H13.416V16.5Z" fill="#2C2E33"/>
</svg>
