<svg width="20" height="21" viewBox="0 0 20 21" fill="none" xmlns="http://www.w3.org/2000/svg">
<g clip-path="url(#clip0_4592_195)">
<path d="M19.8041 6.0781L10.1948 0.552007C10.1355 0.517933 10.0684 0.5 10 0.5C9.93167 0.5 9.86452 0.517933 9.80527 0.552007L0.195898 6.0781C0.136357 6.11234 0.0868954 6.16167 0.052502 6.22113C0.0181087 6.28058 -7.07504e-07 6.34805 0 6.41673L0 20.1094C0 20.3251 0.174883 20.5 0.390625 20.5H19.6094C19.8251 20.5 20 20.3251 20 20.1094V6.41673C20 6.34805 19.9819 6.28059 19.9475 6.22113C19.9131 6.16168 19.8637 6.11235 19.8041 6.0781ZM6.38117 19.3024C6.38117 19.532 6.19438 19.7188 5.96477 19.7188C5.73516 19.7188 5.54836 19.532 5.54836 19.3024V18.6719H6.38117V19.3024ZM14.4516 19.3024C14.4516 19.532 14.2648 19.7188 14.0352 19.7188C13.8056 19.7188 13.6188 19.532 13.6188 19.3024V18.6719H14.4516V19.3024ZM14.8423 17.8906H11.3084C11.0927 17.8906 10.9178 18.0656 10.9178 18.2813C10.9178 18.497 11.0927 18.6719 11.3084 18.6719H12.8376V19.3024C12.8376 19.4488 12.8641 19.589 12.9123 19.7188H7.08766C7.13721 19.5856 7.16254 19.4445 7.16242 19.3024V18.6719H8.48594C8.70168 18.6719 8.87656 18.497 8.87656 18.2813C8.87656 18.0656 8.70168 17.8906 8.48594 17.8906H4.84375C4.62836 17.8906 4.45312 17.7154 4.45312 17.5V16.1238C4.45312 16.0276 4.4884 15.9352 4.55246 15.8635L5.54066 14.7578H14.4594L15.4475 15.8635C15.5116 15.9351 15.5469 16.0278 15.5469 16.1238V17.5C15.5469 17.7154 15.3716 17.8906 15.1562 17.8906H14.8423ZM11.4053 13.3172C11.4816 13.3934 11.5816 13.4316 11.6815 13.4316C11.7815 13.4316 11.8815 13.3934 11.9577 13.3172L13.5612 11.7137C13.6449 11.8591 13.7061 12.0164 13.7427 12.1802L14.1461 13.9766H8.89879L11.9797 10.8956H12.1377C12.461 10.8956 12.7641 10.9878 13.0201 11.1498L11.4052 12.7647C11.2527 12.9172 11.2528 13.1646 11.4053 13.3172ZM7.79391 13.9766H5.85402L6.25793 12.1798C6.42789 11.4237 7.08785 10.8956 7.86281 10.8956H10.8748L7.79391 13.9766ZM19.2188 19.7188H17.8906V8.23439C17.8906 8.01869 17.7157 7.84377 17.5 7.84377H16.2109C15.9952 7.84377 15.8203 8.01869 15.8203 8.23439C15.8203 8.45009 15.9952 8.62502 16.2109 8.62502H17.1094V19.7188H15.1581C15.2077 19.5855 15.233 19.4445 15.2329 19.3024V18.6691C15.8434 18.6295 16.3281 18.1204 16.3281 17.5V16.1238C16.3281 15.8353 16.2223 15.558 16.03 15.3429L14.993 14.1826L14.505 12.009C14.2545 10.8935 13.281 10.1144 12.1377 10.1144H7.86285C6.7198 10.1144 5.74641 10.8933 5.49574 12.0085L5.00703 14.1826L3.97 15.3429C3.77788 15.5576 3.67173 15.8357 3.67188 16.1238V17.5C3.67188 18.1204 4.15656 18.6295 4.76711 18.6691V19.3024C4.76711 19.4488 4.79359 19.589 4.84188 19.7188H2.89062V8.62502H12.9688C13.1845 8.62502 13.3594 8.45009 13.3594 8.23439C13.3594 8.01869 13.1845 7.84377 12.9688 7.84377H2.5C2.28426 7.84377 2.10938 8.01869 2.10938 8.23439V19.7188H0.78125V6.64271L10 1.3413L19.2188 6.64275V19.7188Z" fill="#5C5E61"/>
<path d="M14.9102 7.95823C14.8368 7.88512 14.7375 7.84397 14.634 7.84378C14.5312 7.84378 14.4305 7.88554 14.3578 7.95823C14.2852 8.03089 14.2434 8.13167 14.2434 8.2344C14.2434 8.33714 14.2852 8.43792 14.3578 8.51054C14.4313 8.58349 14.5305 8.62461 14.634 8.62503C14.7371 8.62503 14.8375 8.58323 14.9102 8.51054C14.9832 8.43792 15.0246 8.33714 15.0246 8.2344C15.0246 8.13167 14.9832 8.03089 14.9102 7.95823ZM10.005 3.52612C9.10031 3.52612 8.36434 4.2621 8.36434 5.16675C8.36434 6.0714 9.10031 6.80737 10.005 6.80737C10.9096 6.80737 11.6456 6.0714 11.6456 5.16675C11.6456 4.2621 10.9096 3.52612 10.005 3.52612ZM10.005 6.02612C9.53109 6.02612 9.14559 5.64062 9.14559 5.16675C9.14559 4.69288 9.53109 4.30737 10.005 4.30737C10.4788 4.30737 10.8643 4.69288 10.8643 5.16675C10.8643 5.64062 10.4788 6.02612 10.005 6.02612ZM10.2762 18.0051C10.2027 17.9322 10.1035 17.891 10 17.8907C9.89727 17.8907 9.79648 17.9325 9.72383 18.0051C9.65083 18.0786 9.60971 18.1778 9.60938 18.2813C9.60938 18.3841 9.65117 18.4848 9.72383 18.5575C9.79725 18.6304 9.89647 18.6716 10 18.6719C10.1027 18.6719 10.2035 18.6301 10.2762 18.5575C10.3492 18.484 10.3903 18.3848 10.3906 18.2813C10.3906 18.1785 10.3488 18.0778 10.2762 18.0051ZM12.2266 15.8516H7.78336C7.56762 15.8516 7.39273 16.0265 7.39273 16.2422C7.39273 16.4579 7.56762 16.6328 7.78336 16.6328H12.2266C12.4423 16.6328 12.6172 16.4579 12.6172 16.2422C12.6172 16.0265 12.4423 15.8516 12.2266 15.8516ZM6.01836 15.966C5.9457 15.8934 5.84492 15.8516 5.74219 15.8516C5.63945 15.8516 5.53867 15.8933 5.46602 15.966C5.39296 16.0394 5.35183 16.1387 5.35156 16.2422C5.35156 16.345 5.39336 16.4457 5.46602 16.5184C5.53867 16.591 5.63945 16.6328 5.74219 16.6328C5.84492 16.6328 5.9457 16.591 6.01836 16.5184C6.09102 16.4457 6.13281 16.345 6.13281 16.2422C6.13281 16.1395 6.09102 16.0387 6.01836 15.966ZM14.6512 15.966C14.5785 15.8934 14.4777 15.8516 14.375 15.8516C14.2723 15.8516 14.1715 15.8933 14.0988 15.966C14.0262 16.0387 13.9844 16.1395 13.9844 16.2422C13.9844 16.345 14.0262 16.4457 14.0988 16.5184C14.1715 16.591 14.2723 16.6328 14.375 16.6328C14.4777 16.6328 14.5785 16.591 14.6512 16.5184C14.7238 16.4457 14.7656 16.345 14.7656 16.2422C14.7656 16.1395 14.7238 16.0387 14.6512 15.966Z" fill="#5C5E61"/>
</g>
<defs>
<clipPath id="clip0_4592_195">
<rect width="20" height="20" fill="white" transform="translate(0 0.5)"/>
</clipPath>
</defs>
</svg>
