<svg width="24" height="24" viewBox="0 0 24 24" fill="none" xmlns="http://www.w3.org/2000/svg">
<path d="M4.55078 5.90508C4.55078 5.1222 5.17467 4.5 5.92177 4.5C6.66881 4.5 7.29275 5.12221 7.29275 5.90508C7.29275 6.68801 6.66917 7.3101 5.92177 7.3101C5.17436 7.3101 4.55078 6.68801 4.55078 5.90508Z" stroke="#5C5E61"/>
<path d="M10.6055 5.90508C10.6055 5.12221 11.2294 4.5 11.9765 4.5C12.7239 4.5 13.3476 5.1222 13.3476 5.90508C13.3476 6.68789 12.7236 7.3101 11.9765 7.3101C11.2294 7.3101 10.6055 6.68794 10.6055 5.90508Z" stroke="#5C5E61"/>
<path d="M19.4998 5.90514C19.4998 6.68797 18.8757 7.31016 18.1288 7.31016C17.3818 7.31016 16.7578 6.68794 16.7578 5.90508C16.7578 5.12211 17.3813 4.5 18.1288 4.5C18.8763 4.5 19.4998 5.12215 19.4998 5.90514Z" stroke="#5C5E61"/>
<path d="M7.24249 12.0096C7.24249 12.7926 6.61849 13.4147 5.87133 13.4147C5.12411 13.4147 4.5 12.7925 4.5 12.0096C4.5 11.2267 5.12419 10.6044 5.87133 10.6044C6.61842 10.6044 7.24249 11.2266 7.24249 12.0096Z" stroke="#5C5E61"/>
<path d="M13.2967 12.0096C13.2967 12.7926 12.6726 13.4147 11.9257 13.4147C11.1786 13.4147 10.5547 12.7926 10.5547 12.0096C10.5547 11.2264 11.1784 10.6044 11.9257 10.6044C12.6731 10.6044 13.2967 11.2264 13.2967 12.0096Z" stroke="#5C5E61"/>
<path d="M19.4497 12.0096C19.4497 12.7927 18.826 13.4147 18.0787 13.4147C17.3309 13.4147 16.707 12.7925 16.707 12.0096C16.707 11.2267 17.3313 10.6044 18.0787 10.6044C18.8259 10.6044 19.4497 11.2265 19.4497 12.0096Z" stroke="#5C5E61"/>
<path d="M4.54297 18.0947C4.54297 17.3117 5.16709 16.6896 5.9143 16.6896C6.66137 16.6896 7.28523 17.3116 7.28523 18.0947C7.28523 18.8777 6.66139 19.4997 5.9143 19.4997C5.16714 19.4997 4.54297 18.8772 4.54297 18.0947Z" stroke="#5C5E61"/>
<path d="M10.5977 18.0947C10.5977 17.3117 11.2217 16.6896 11.969 16.6896C12.7159 16.6896 13.3399 17.3116 13.3399 18.0947C13.3399 18.8777 12.7159 19.4997 11.969 19.4997C11.2215 19.4997 10.5977 18.8773 10.5977 18.0947Z" stroke="#5C5E61"/>
<path d="M16.7539 18.0947C16.7539 17.3116 17.3779 16.6896 18.1249 16.6896C18.8718 16.6896 19.4959 17.3116 19.4959 18.0947C19.4959 18.8777 18.8722 19.4997 18.1249 19.4997C17.378 19.4997 16.7539 18.8773 16.7539 18.0947Z" stroke="#5C5E61"/>
</svg>
