<svg width="25" height="24" viewBox="0 0 25 24" fill="none" xmlns="http://www.w3.org/2000/svg">
<g clip-path="url(#clip0_2348_5575)">
<path d="M24.2299 10.5L17.9055 4.13248C16.2164 2.44679 13.9276 1.50006 11.5413 1.50006C9.15494 1.50006 6.8661 2.44679 5.17704 4.13248L5.1686 4.14092L3.87766 5.47498C3.74394 5.61869 3.67188 5.80911 3.67698 6.00535C3.68207 6.20159 3.7639 6.38801 3.9049 6.5246C4.0459 6.66118 4.23483 6.73704 4.43114 6.73588C4.62744 6.73473 4.81547 6.65665 4.95485 6.51842L6.24204 5.18904C6.7599 4.67128 7.35087 4.23224 7.9961 3.88592L12.3555 8.24998L3.35548 17.25C3.21615 17.3893 3.10563 17.5546 3.03023 17.7367C2.95483 17.9187 2.91602 18.1138 2.91602 18.3108C2.91602 18.5078 2.95483 18.7029 3.03023 18.8849C3.10563 19.0669 3.21615 19.2323 3.35548 19.3715L5.29516 21.3112C5.43446 21.4506 5.59983 21.5611 5.78184 21.6365C5.96385 21.7119 6.15893 21.7507 6.35595 21.7507C6.55296 21.7507 6.74804 21.7119 6.93005 21.6365C7.11206 21.5611 7.27743 21.4506 7.41673 21.3112L16.4167 12.3112L17.7611 13.6556L19.4167 15.3094C19.556 15.4487 19.7214 15.5592 19.9034 15.6346C20.0854 15.71 20.2805 15.7488 20.4775 15.7488C20.6745 15.7488 20.8696 15.71 21.0516 15.6346C21.2336 15.5592 21.399 15.4487 21.5383 15.3094L24.228 12.6197C24.509 12.3387 24.6671 11.9576 24.6674 11.5602C24.6678 11.1628 24.5104 10.7815 24.2299 10.5ZM6.35548 20.25L4.41673 18.3103L10.7917 11.9353L12.7305 13.875L6.35548 20.25ZM15.8861 10.7175L13.7917 12.8128L11.852 10.875L13.9474 8.77967C14.0171 8.71001 14.0724 8.6273 14.1101 8.53625C14.1479 8.4452 14.1673 8.3476 14.1673 8.24904C14.1673 8.15048 14.1479 8.05289 14.1101 7.96184C14.0724 7.87079 14.0171 7.78807 13.9474 7.71842L9.50923 3.28123C10.7915 2.9201 12.1468 2.90701 13.4358 3.2433C14.7247 3.5796 15.9009 4.25314 16.8433 5.19467L20.9889 9.36748L18.2917 12.0619L16.9474 10.7175C16.8777 10.6477 16.795 10.5924 16.7039 10.5547C16.6129 10.5169 16.5153 10.4975 16.4167 10.4975C16.3182 10.4975 16.2206 10.5169 16.1295 10.5547C16.0385 10.5924 15.9558 10.6477 15.8861 10.7175ZM20.4799 14.2481L19.3549 13.1231L22.0417 10.4297L23.1667 11.5547L20.4799 14.2481Z" fill="#2C2E33"/>
</g>
<defs>
<clipPath id="clip0_2348_5575">
<rect width="24" height="24" fill="white" transform="translate(0.666016)"/>
</clipPath>
</defs>
</svg>
