<svg width="42" height="42" viewBox="0 0 42 42" fill="none" xmlns="http://www.w3.org/2000/svg">
<g clip-path="url(#clip0_2443_9851)">
<path d="M14.7164 35.4405C15.4739 36.1055 16.2558 36.7916 17.0601 37.503L17.0767 37.5176L19.7523 39.8288C20.1108 40.1385 20.5557 40.2933 21.0006 40.2933C21.4456 40.2933 21.8906 40.1384 22.2491 39.8288L24.9242 37.5176L24.9407 37.5031C30.2373 32.819 34.2084 29.2329 37.0815 25.7355C40.4371 21.6506 42.0001 17.9573 42.0001 14.1123C42.0001 7.15582 36.551 1.70673 29.5948 1.70673C26.4683 1.70673 23.3791 2.884 21.0006 4.92476C18.6215 2.88387 15.5323 1.70673 12.4057 1.70673C5.44923 1.7066 0 7.15582 0 14.1122C0 22.521 5.85455 27.6606 14.7164 35.4405ZM13.362 17.1811H18.4539V12.089H23.546V17.1811H28.638V22.2731H23.546V27.365H18.4539V22.2731H13.362V17.1811Z" fill="#F1913D"/>
</g>
<defs>
<clipPath id="clip0_2443_9851">
<rect width="42" height="42" fill="white"/>
</clipPath>
</defs>
</svg>
