<svg width="40" height="40" viewBox="0 0 40 40" fill="none" xmlns="http://www.w3.org/2000/svg">
<path d="M34.1668 21.1666V32.5C34.1668 34.8 32.3002 36.6666 30.0002 36.6666H25.0002V25C25.0002 24.0833 24.2502 23.3333 23.3335 23.3333H16.6668C15.7502 23.3333 15.0002 24.0833 15.0002 25V36.6666H10.0002C7.70016 36.6666 5.8335 34.8 5.8335 32.5V21.1666C5.99183 21.0916 6.14183 21 6.29183 20.9L20.0002 11.7583L33.7085 20.9C33.8585 21 34.0085 21.0833 34.1668 21.1666ZM12.5002 5.74996L6.66683 9.63329V5.83329C6.66683 4.91663 7.41683 4.16663 8.3335 4.16663H10.8335C11.7252 4.16663 12.4502 4.86663 12.5002 5.74996Z" fill="#C79E34"/>
<path d="M36.2483 20.0016C35.6731 20.0016 35.1108 19.8311 34.6325 19.5116L20 9.75664L5.36749 19.5116C4.88727 19.8305 4.32338 20.0001 3.74693 19.999C3.17048 19.9978 2.60727 19.826 2.1283 19.5053C1.64934 19.1845 1.27606 18.7291 1.05554 18.1965C0.835021 17.6639 0.777126 17.0779 0.889156 16.5125C0.963422 16.1365 1.11147 15.779 1.32473 15.4606C1.538 15.1422 1.81226 14.8692 2.13166 14.6575L18.3825 3.82497C18.8613 3.5047 19.4244 3.33374 20.0004 3.33374C20.5764 3.33374 21.1395 3.5047 21.6183 3.82497L37.8683 14.6583C38.5167 15.0908 38.9575 15.7491 39.1108 16.5133C39.2642 17.2775 39.11 18.055 38.6775 18.7033C38.4114 19.1035 38.0504 19.4315 37.6267 19.6582C37.203 19.8849 36.7297 20.0032 36.2492 20.0025L36.2483 20.0016Z" fill="#C79E34"/>
</svg>
