<svg width="24" height="24" viewBox="0 0 24 24" fill="none" xmlns="http://www.w3.org/2000/svg">
<path d="M22.5 19.5H21V10.8328C21 10.6252 20.957 10.4199 20.8735 10.2298C20.7901 10.0397 20.6681 9.86895 20.5153 9.72843L13.0153 2.65218C13.0116 2.64898 13.0082 2.64554 13.005 2.64187C12.7289 2.39074 12.369 2.25159 11.9958 2.25159C11.6225 2.25159 11.2627 2.39074 10.9866 2.64187L10.9762 2.65218L3.48469 9.72843C3.33187 9.86895 3.20989 10.0397 3.12646 10.2298C3.04303 10.4199 2.99997 10.6252 3 10.8328V19.5H1.5C1.30109 19.5 1.11032 19.579 0.96967 19.7197C0.829018 19.8603 0.75 20.0511 0.75 20.25C0.75 20.4489 0.829018 20.6397 0.96967 20.7803C1.11032 20.921 1.30109 21 1.5 21H22.5C22.6989 21 22.8897 20.921 23.0303 20.7803C23.171 20.6397 23.25 20.4489 23.25 20.25C23.25 20.0511 23.171 19.8603 23.0303 19.7197C22.8897 19.579 22.6989 19.5 22.5 19.5ZM4.5 10.8328L4.51031 10.8234L12 3.74999L19.4906 10.8216L19.5009 10.8309V19.5H15V15C15 14.6022 14.842 14.2206 14.5607 13.9393C14.2794 13.658 13.8978 13.5 13.5 13.5H10.5C10.1022 13.5 9.72064 13.658 9.43934 13.9393C9.15804 14.2206 9 14.6022 9 15V19.5H4.5V10.8328ZM13.5 19.5H10.5V15H13.5V19.5Z" fill="#2C2E33"/>
</svg>
