<svg width="50" height="51" viewBox="0 0 50 51" fill="none" xmlns="http://www.w3.org/2000/svg">
<path d="M19.7917 36.9583C19.5154 36.9583 19.2504 37.0681 19.0551 37.2634C18.8597 37.4588 18.75 37.7237 18.75 38C18.75 38.2763 18.8597 38.5412 19.0551 38.7366C19.2504 38.9319 19.5154 39.0417 19.7917 39.0417H30.2083C30.4846 39.0417 30.7496 38.9319 30.9449 38.7366C31.1403 38.5412 31.25 38.2763 31.25 38C31.25 37.7237 31.1403 37.4588 30.9449 37.2634C30.7496 37.0681 30.4846 36.9583 30.2083 36.9583H19.7917Z" fill="#C79E34"/>
<path fill-rule="evenodd" clip-rule="evenodd" d="M29.5186 5.86459C28.2316 4.84837 26.6397 4.29562 24.9998 4.29562C23.36 4.29562 21.7681 4.84837 20.4811 5.86459L6.93942 16.5563C6.07501 17.2388 5.37646 18.1083 4.8962 19.0995C4.41595 20.0907 4.16647 21.1778 4.1665 22.2792V39.0417C4.1665 40.9755 4.93473 42.8302 6.30218 44.1977C7.66964 45.5651 9.5243 46.3333 11.4582 46.3333H38.5415C40.4754 46.3333 42.33 45.5651 43.6975 44.1977C45.0649 42.8302 45.8332 40.9755 45.8332 39.0417V22.2792C45.8332 21.1778 45.5837 20.0907 45.1035 19.0995C44.6232 18.1083 43.9247 17.2388 43.0603 16.5563L29.5186 5.86459ZM21.7728 7.50001C22.6919 6.77443 23.8288 6.37979 24.9998 6.37979C26.1709 6.37979 27.3078 6.77443 28.2269 7.50001L41.7686 18.1917C42.3861 18.6791 42.8852 19.3001 43.2283 20.0081C43.5714 20.716 43.7497 21.4925 43.7498 22.2792V39.0417C43.7498 40.423 43.2011 41.7478 42.2244 42.7245C41.2476 43.7013 39.9228 44.25 38.5415 44.25H11.4582C10.0768 44.25 8.75208 43.7013 7.77532 42.7245C6.79857 41.7478 6.24984 40.423 6.24984 39.0417V22.2792C6.24968 21.4926 6.42767 20.7163 6.77045 20.0083C7.11322 19.3004 7.61188 18.6793 8.229 18.1917L21.7728 7.50001Z" fill="#C79E34"/>
</svg>
