<svg width="19" height="18" viewBox="0 0 19 18" fill="none" xmlns="http://www.w3.org/2000/svg">
<g clip-path="url(#clip0_4549_8720)">
<path d="M18.482 5.29205C18.4399 4.33564 18.2852 3.67812 18.0636 3.10836C17.8351 2.50359 17.4834 1.96213 17.0228 1.51201C16.5726 1.05489 16.0276 0.699691 15.4298 0.474702C14.8568 0.253147 14.2027 0.0984842 13.2463 0.0563159C12.2827 0.0105764 11.9768 0 9.53301 0C7.08917 0 6.78328 0.0105764 5.8233 0.0527447C4.86689 0.0949129 4.20937 0.249713 3.63975 0.471131C3.03484 0.699691 2.49338 1.05132 2.04326 1.51201C1.58614 1.96213 1.23108 2.50716 1.00595 3.10493C0.784397 3.67812 0.629734 4.33207 0.587566 5.28848C0.541826 6.25203 0.53125 6.55792 0.53125 9.00176C0.53125 11.4456 0.541826 11.7515 0.583995 12.7115C0.626163 13.6679 0.780963 14.3254 1.00252 14.8952C1.23108 15.4999 1.58614 16.0414 2.04326 16.4915C2.49338 16.9486 3.03841 17.3038 3.63618 17.5288C4.20937 17.7504 4.86332 17.905 5.81987 17.9472C6.77971 17.9895 7.08574 17.9999 9.52957 17.9999C11.9734 17.9999 12.2793 17.9895 13.2393 17.9472C14.1957 17.905 14.8532 17.7504 15.4228 17.5288C16.6325 17.0611 17.5889 16.1047 18.0566 14.8952C18.278 14.322 18.4328 13.6679 18.475 12.7115C18.5172 11.7515 18.5278 11.4456 18.5278 9.00176C18.5278 6.55792 18.5242 6.25203 18.482 5.29205ZM16.8611 12.6411C16.8224 13.5202 16.6747 13.9949 16.5516 14.3114C16.2492 15.0956 15.6268 15.7179 14.8426 16.0204C14.5262 16.1434 14.048 16.2911 13.1724 16.3297C12.223 16.372 11.9382 16.3824 9.53658 16.3824C7.13491 16.3824 6.8466 16.372 5.90063 16.3297C5.02155 16.2911 4.54685 16.1434 4.23038 16.0204C3.84015 15.8761 3.48495 15.6476 3.19664 15.3487C2.89776 15.0568 2.6692 14.7052 2.52497 14.315C2.4019 13.9985 2.25424 13.5202 2.21565 12.6447C2.17334 11.6953 2.1629 11.4104 2.1629 9.00876C2.1629 6.60709 2.17334 6.31878 2.21565 5.37295C2.25424 4.49387 2.4019 4.01917 2.52497 3.7027C2.6692 3.31234 2.89776 2.95727 3.20021 2.66883C3.49196 2.36994 3.84359 2.14138 4.23395 1.99729C4.55042 1.87422 5.0287 1.72656 5.9042 1.68783C6.85361 1.64566 7.13848 1.63508 9.54001 1.63508C11.9453 1.63508 12.23 1.64566 13.176 1.68783C14.055 1.72656 14.5297 1.87422 14.8462 1.99729C15.2364 2.14138 15.5916 2.36994 15.88 2.66883C16.1788 2.96071 16.4074 3.31234 16.5516 3.7027C16.6747 4.01917 16.8224 4.49731 16.8611 5.37295C16.9033 6.32236 16.9138 6.60709 16.9138 9.00876C16.9138 11.4104 16.9033 11.6917 16.8611 12.6411Z" fill="#F1FAEE"/>
<path d="M9.53411 4.37793C6.98135 4.37793 4.91016 6.44898 4.91016 9.00188C4.91016 11.5548 6.98135 13.6258 9.53411 13.6258C12.087 13.6258 14.1581 11.5548 14.1581 9.00188C14.1581 6.44898 12.087 4.37793 9.53411 4.37793ZM9.53411 12.0013C7.87801 12.0013 6.53466 10.6581 6.53466 9.00188C6.53466 7.34564 7.87801 6.00244 9.53411 6.00244C11.1903 6.00244 12.5335 7.34564 12.5335 9.00188C12.5335 10.6581 11.1903 12.0013 9.53411 12.0013Z" fill="#F1FAEE"/>
<path d="M15.4208 4.19496C15.4208 4.79108 14.9375 5.27444 14.3412 5.27444C13.7451 5.27444 13.2617 4.79108 13.2617 4.19496C13.2617 3.5987 13.7451 3.11548 14.3412 3.11548C14.9375 3.11548 15.4208 3.5987 15.4208 4.19496Z" fill="#F1FAEE"/>
</g>
<defs>
<clipPath id="clip0_4549_8720">
<rect width="18" height="18" fill="white" transform="translate(0.5)"/>
</clipPath>
</defs>
</svg>
