<svg width="50" height="51" viewBox="0 0 50 51" fill="none" xmlns="http://www.w3.org/2000/svg">
<g clip-path="url(#clip0_2379_12865)">
<path d="M36.6559 18.3339L36.6559 18.3339L36.6609 18.3391C36.8315 18.5111 37.0549 18.5967 37.2788 18.5967C37.5021 18.5967 37.7258 18.5114 37.8976 18.3409C38.2409 18.0003 38.241 17.4424 37.8996 17.0983C37.5586 16.7547 37.0037 16.7524 36.66 17.0933L36.6559 18.3339ZM36.6559 18.3339L36.6551 18.333M36.6559 18.3339L36.6551 18.333M36.6551 18.333C36.3141 17.9893 36.3163 17.4343 36.66 17.0933L36.6551 18.333Z" fill="#A8ABAE" stroke="white" stroke-width="0.2"/>
<path d="M46.462 28.3825H46.7034L46.5327 28.2118L39.3323 21.0115C38.99 20.6691 38.99 20.1141 39.3323 19.7718C39.6747 19.4296 40.2298 19.4296 40.572 19.7718L49.6422 28.8419C49.8065 29.0063 49.8989 29.2294 49.899 29.4618C49.899 29.6943 49.8066 29.9172 49.6423 30.0816L34.0738 45.6502C33.9094 45.8145 33.6864 45.9069 33.454 45.9069C33.2215 45.9069 32.9985 45.8145 32.8342 45.6502L9.34111 22.1572C9.3411 22.1572 9.3411 22.1572 9.3411 22.1572C8.99879 21.8148 8.99881 21.2598 9.3411 20.9175L24.9094 5.34884C25.2517 5.00664 25.8068 5.00664 26.1491 5.34884C26.1491 5.34884 26.1491 5.34884 26.1491 5.34884L34.9704 14.17C35.3127 14.5124 35.3127 15.0675 34.9704 15.4098C34.628 15.752 34.0729 15.7519 33.7306 15.4098L26.7792 8.45839L26.6085 8.28768V8.5291V25.6994C26.6085 27.179 27.8119 28.3825 29.2916 28.3825H46.462ZM24.8555 8.12373V7.88231L24.6848 8.05302L12.2477 20.4901L12.077 20.6608H12.3184H24.7555H24.8555V20.5608V8.12373ZM32.4067 42.7434L32.5774 42.9141V42.6727V30.2356V30.1356H32.4774H29.2918C26.8457 30.1356 24.8555 28.1455 24.8555 25.6994V22.5139V22.4139H24.7555H12.3184H12.077L12.2477 22.5846L32.4067 42.7434ZM34.3304 42.6728V42.9142L34.5012 42.7435L46.9382 30.3064L47.1089 30.1356H46.8675H34.4304H34.3304V30.2356V42.6728Z" fill="#A8ABAE" stroke="white" stroke-width="0.2"/>
<path d="M0.976562 25.4046H6.70225C7.18637 25.4046 7.57881 25.7971 7.57881 26.2812C7.57881 26.7653 7.18637 27.1577 6.70225 27.1577H0.976562C0.492442 27.1577 0.1 26.7652 0.1 26.2812C0.1 25.7971 0.492442 25.4046 0.976562 25.4046Z" fill="#A8ABAE" stroke="white" stroke-width="0.2"/>
<path d="M9.59766 25.4046H9.6123C10.0964 25.4046 10.4889 25.7971 10.4889 26.2812C10.4889 26.7652 10.0964 27.1577 9.6123 27.1577H9.59766C9.11354 27.1577 8.72109 26.7652 8.72109 26.2812C8.72109 25.7971 9.11354 25.4046 9.59766 25.4046Z" fill="#A8ABAE" stroke="white" stroke-width="0.2"/>
<path d="M0.976562 15.151H4.10186C4.58598 15.151 4.97842 15.5435 4.97842 16.0275C4.97842 16.5116 4.58598 16.9041 4.10186 16.9041H0.976562C0.492442 16.9041 0.1 16.5116 0.1 16.0275C0.1 15.5435 0.492442 15.151 0.976562 15.151Z" fill="#A8ABAE" stroke="white" stroke-width="0.2"/>
<path d="M7.29297 15.151H10.9871C11.4712 15.151 11.8637 15.5435 11.8637 16.0275C11.8637 16.5116 11.4712 16.9041 10.9871 16.9041H7.29297C6.80885 16.9041 6.41641 16.5116 6.41641 16.0275C6.41641 15.5435 6.80885 15.151 7.29297 15.151Z" fill="#A8ABAE" stroke="white" stroke-width="0.2"/>
<path d="M7.64453 30.7756H13.1132C13.5972 30.7756 13.9897 31.1681 13.9897 31.6522C13.9897 32.1362 13.5973 32.5287 13.1132 32.5287H7.64453C7.16041 32.5287 6.76797 32.1362 6.76797 31.6522C6.76797 31.1681 7.16041 30.7756 7.64453 30.7756Z" fill="#A8ABAE" stroke="white" stroke-width="0.2"/>
<path d="M3.61328 37.0258H17.3827C17.8668 37.0258 18.2593 37.4183 18.2593 37.9023C18.2593 38.3864 17.8668 38.7789 17.3827 38.7789H3.61328C3.12916 38.7789 2.73672 38.3864 2.73672 37.9023C2.73672 37.4183 3.12916 37.0258 3.61328 37.0258Z" fill="#A8ABAE" stroke="white" stroke-width="0.2"/>
</g>
<defs>
<clipPath id="clip0_2379_12865">
<rect width="50" height="50" fill="white" transform="translate(0 0.5)"/>
</clipPath>
</defs>
</svg>
