<svg width="14" height="14" viewBox="0 0 14 14" fill="none" xmlns="http://www.w3.org/2000/svg">
<path d="M6.99964 6.23108L13.4377 2.454C13.2524 2.17977 13.0031 1.95472 12.7115 1.79822C12.4198 1.64173 12.0945 1.55848 11.7635 1.55566H2.23575C1.90308 1.55552 1.57542 1.63667 1.28126 1.79205C0.987108 1.94743 0.735378 2.17233 0.547974 2.44719L6.99964 6.23108Z" fill="white"/>
<path d="M7.68057 7.40174C7.47379 7.52169 7.23907 7.58507 7.00001 7.58549C6.76158 7.58714 6.5269 7.52612 6.31946 7.40855L0.194458 3.82202V10.403C0.194458 10.9445 0.409562 11.4638 0.792448 11.8467C1.17534 12.2296 1.69464 12.4447 2.23612 12.4447H11.7639C12.3054 12.4447 12.8247 12.2296 13.2076 11.8467C13.5905 11.4638 13.8056 10.9445 13.8056 10.403V3.82202L7.68057 7.40174Z" fill="white"/>
</svg>
