<svg width="19" height="18" viewBox="0 0 19 18" fill="none" xmlns="http://www.w3.org/2000/svg">
<path d="M16.7005 16.2V10.926C16.7005 8.334 16.1425 6.354 13.1185 6.354C11.6605 6.354 10.6885 7.146 10.2925 7.902H10.2565V6.588H7.39453V16.2H10.3825V11.43C10.3825 10.17 10.6165 8.964 12.1645 8.964C13.6945 8.964 13.7125 10.386 13.7125 11.502V16.182H16.7005V16.2Z" fill="#F1FAEE"/>
<path d="M2.53516 6.58789H5.52316V16.1999H2.53516V6.58789Z" fill="#F1FAEE"/>
<path d="M4.02878 1.80005C3.07478 1.80005 2.30078 2.57405 2.30078 3.52805C2.30078 4.48205 3.07478 5.27405 4.02878 5.27405C4.98278 5.27405 5.75678 4.48205 5.75678 3.52805C5.75678 2.57405 4.98278 1.80005 4.02878 1.80005Z" fill="#F1FAEE"/>
</svg>
