<svg width="50" height="51" viewBox="0 0 50 51" fill="none" xmlns="http://www.w3.org/2000/svg">
<path d="M42.5742 38.5897L42.7 38.5394V38.404V24.249C42.7 23.6695 43.1704 23.199 43.75 23.199C44.3295 23.199 44.8 23.6695 44.8 24.249V39.249C44.8 39.679 44.5378 40.0638 44.1424 40.2261C44.1421 40.2262 44.1419 40.2263 44.1417 40.2264L31.6657 45.2158L31.7375 45.3952C31.7375 45.3974 31.7375 45.3994 31.7375 45.4015L31.6563 45.2187L31.6371 45.2272C31.3894 45.3262 31.113 45.3262 30.8654 45.2272L30.8462 45.2187L30.8074 45.2015H30.801L18.8243 40.4108L18.75 40.3811L18.6757 40.4108L6.64074 45.2233L6.64072 45.2233C6.5143 45.2739 6.382 45.299 6.25 45.299C6.04199 45.299 5.83872 45.2382 5.66233 45.1185C5.37414 44.9229 5.2 44.5971 5.2 44.249V21.749C5.2 21.3188 5.46227 20.9344 5.85956 20.7746C5.85958 20.7746 5.8596 20.7746 5.85962 20.7746L18.3281 15.7857L18.3282 15.7863L18.3507 15.7788L18.3509 15.7791L18.3623 15.7745C18.6118 15.6739 18.8907 15.6739 19.1402 15.7745L19.1401 15.7746L19.1448 15.7763L19.1648 15.7838L19.1987 15.7965H19.1989L26.6456 18.7772C26.6456 18.7772 26.6456 18.7772 26.6457 18.7772C27.1862 18.9939 27.4479 19.6052 27.2319 20.1419L27.2318 20.1421C27.0154 20.682 26.3971 20.9421 25.8673 20.7285L25.8668 20.7283L20.0743 18.4108L19.8 18.3011V18.5965V38.4015V38.5369L19.9257 38.5872L29.9257 42.5872L30.2 42.6969V42.4015V29.249C30.2 28.6695 30.6704 28.199 31.25 28.199C31.8295 28.199 32.3 28.6695 32.3 29.249V42.404V42.6994L32.5742 42.5897L42.5742 38.5897ZM18.2775 15.634L18.265 15.6028L18.265 15.6028L18.265 15.5965L18.2775 15.634ZM17.5743 38.5872L17.7 38.5369V38.4015V18.594V18.2986L17.4257 18.4083L7.42572 22.4083L7.3 22.4586V22.594V42.4015V42.6969L7.57428 42.5872L17.5743 38.5872Z" fill="#A8ABAE" stroke="white" stroke-width="0.4"/>
<path d="M32.7 14.249C32.7 12.292 34.293 10.699 36.25 10.699C38.207 10.699 39.8 12.292 39.8 14.249C39.8 16.2061 38.207 17.799 36.25 17.799C34.293 17.799 32.7 16.2061 32.7 14.249ZM34.8 14.249C34.8 15.0495 35.4495 15.699 36.25 15.699C37.0505 15.699 37.7 15.0495 37.7 14.249C37.7 13.4486 37.0505 12.799 36.25 12.799C35.4495 12.799 34.8 13.4486 34.8 14.249Z" fill="#A8ABAE" stroke="white" stroke-width="0.4"/>
<path d="M36.0971 24.9704L36.25 25.1518L36.4029 24.9704C37.7722 23.3466 39.3407 21.2865 40.5681 19.331C41.1818 18.3533 41.7126 17.3981 42.0906 16.5341C42.4666 15.6746 42.7 14.8865 42.7 14.249C42.7 10.6936 39.8054 7.79902 36.25 7.79902C32.6945 7.79902 29.8 10.6936 29.8 14.249C29.8 14.8871 30.0334 15.6755 30.4094 16.5351C30.7874 17.3993 31.3182 18.3544 31.9319 19.3319C33.1593 21.2872 34.7278 23.3466 36.0971 24.9704ZM27.7 14.249C27.7 9.53448 31.5355 5.69902 36.25 5.69902C40.9645 5.69902 44.8 9.53448 44.8 14.249C44.8 15.3262 44.3769 16.6323 43.7105 18.0145C43.0462 19.3922 42.1501 20.8255 41.2259 22.1512C39.3782 24.8016 37.43 27.0055 37.0314 27.4501C36.8312 27.6712 36.5474 27.799 36.25 27.799C35.9526 27.799 35.6688 27.6712 35.4686 27.4501C35.0699 27.0053 33.1217 24.8015 31.2741 22.1512C30.3499 20.8255 29.4538 19.3922 28.7895 18.0145C28.1231 16.6323 27.7 15.3262 27.7 14.249Z" fill="#A8ABAE" stroke="white" stroke-width="0.4"/>
</svg>
