<svg width="40" height="40" viewBox="0 0 40 40" fill="none" xmlns="http://www.w3.org/2000/svg">
<path d="M7.10223 29.5784C6.92637 29.4883 6.72196 29.4716 6.53381 29.532C6.34567 29.5923 6.18914 29.7249 6.09856 29.9005C6.03123 30.0315 6.00428 30.1797 6.02111 30.3261C6.03795 30.4725 6.09781 30.6106 6.19313 30.723C6.28845 30.8354 6.41495 30.917 6.55664 30.9575C6.69833 30.998 6.84884 30.9955 6.98915 30.9505C7.12945 30.9055 7.25326 30.8198 7.3449 30.7044C7.43655 30.589 7.49193 30.4491 7.50403 30.3022C7.51613 30.1553 7.48442 30.0082 7.4129 29.8793C7.34138 29.7505 7.23327 29.6458 7.10223 29.5784ZM9.00184 30.802C8.8615 30.8471 8.73768 30.9328 8.64603 31.0482C8.55438 31.1637 8.49901 31.3037 8.48691 31.4506C8.47482 31.5975 8.50655 31.7447 8.57809 31.8736C8.64963 32.0025 8.75777 32.1072 8.88884 32.1747C9.01992 32.2421 9.16804 32.2691 9.31449 32.2524C9.46093 32.2357 9.59914 32.1759 9.71162 32.0807C9.82411 31.9854 9.90583 31.8589 9.94646 31.7172C9.98709 31.5756 9.9848 31.425 9.93988 31.2846C9.90999 31.1913 9.86202 31.1048 9.79869 31.0301C9.73537 30.9553 9.65794 30.8938 9.57083 30.849C9.48372 30.8042 9.38864 30.777 9.29101 30.7689C9.19338 30.7608 9.09512 30.7721 9.00184 30.802ZM19.4619 19.1311C19.5195 19.2007 19.5914 19.257 19.6729 19.2962C19.7543 19.3353 19.8432 19.3564 19.9336 19.3578C20.0239 19.3593 20.1135 19.3411 20.1961 19.3047C20.2788 19.2682 20.3525 19.2142 20.4123 19.1465C20.5968 18.9373 24.94 13.9983 25.7533 11.6153C26.6936 8.86016 26.515 6.60867 25.2222 4.92351C23.7491 3.0032 21.1775 2.4225 19.9019 2.50812C17.4929 2.6693 15.7354 3.55031 14.6783 5.12664C13.4533 6.95351 13.4682 9.45602 14.0263 11.1256C14.8193 13.4975 19.2727 18.9022 19.4619 19.1311ZM15.7165 5.82281C16.5466 4.58492 17.9829 3.88922 19.9854 3.75531C21.2683 3.66937 23.2205 4.36773 24.2304 5.68437C25.2528 7.01711 25.3671 8.87672 24.5703 11.2116C24.0307 12.7925 21.3932 16.08 19.9586 17.7612C18.4893 15.9327 15.7453 12.3247 15.2118 10.7293C14.8676 9.69977 14.5866 7.50781 15.7164 5.82281H15.7165Z" fill="white"/>
<path d="M35.4403 24.1461C23.0902 18.6426 25.3382 19.6565 23.075 18.6041C23.0005 18.5689 22.9198 18.5488 22.8375 18.545C22.7551 18.5411 22.6729 18.5535 22.5954 18.5815C22.5179 18.6096 22.4468 18.6526 22.386 18.7083C22.3252 18.7639 22.276 18.831 22.2413 18.9057C22.2066 18.9805 22.1869 19.0613 22.1836 19.1436C22.1802 19.2259 22.1931 19.3081 22.2216 19.3854C22.2501 19.4627 22.2936 19.5337 22.3496 19.5941C22.4056 19.6545 22.473 19.7033 22.5479 19.7376L23.0284 19.961L20.0052 21.5141L16.854 19.8953L17.3429 19.6662C17.4172 19.6313 17.4839 19.5822 17.5393 19.5216C17.5946 19.461 17.6374 19.39 17.6654 19.3129C17.6933 19.2357 17.7057 19.1538 17.702 19.0718C17.6983 18.9898 17.6784 18.9093 17.6436 18.835C17.6087 18.7607 17.5596 18.6939 17.499 18.6386C17.4384 18.5833 17.3674 18.5404 17.2903 18.5125C17.1344 18.4561 16.9625 18.464 16.8124 18.5343L4.54271 24.1537C4.43398 24.2039 4.34182 24.284 4.27708 24.3848C4.21233 24.4855 4.1777 24.6026 4.17725 24.7223V29.1551C4.17725 29.3208 4.24309 29.4798 4.3603 29.597C4.47751 29.7142 4.63649 29.7801 4.80225 29.7801C4.96801 29.7801 5.12698 29.7142 5.24419 29.597C5.3614 29.4798 5.42725 29.3208 5.42725 29.1551V25.746L19.2043 32.8237V35.8512L11.8801 32.0885C11.807 32.0503 11.7271 32.0269 11.6449 32.0197C11.5628 32.0125 11.48 32.0217 11.4014 32.0466C11.3228 32.0715 11.2499 32.1118 11.1869 32.165C11.1239 32.2182 11.0721 32.2834 11.0344 32.3568C10.9968 32.4301 10.974 32.5102 10.9674 32.5924C10.9608 32.6746 10.9705 32.7573 10.9961 32.8357C11.0216 32.9142 11.0624 32.9867 11.1161 33.0493C11.1698 33.1119 11.2353 33.1633 11.309 33.2004L19.5437 37.4309C19.6314 37.4753 19.7282 37.4987 19.8265 37.4992C19.9248 37.4996 20.0218 37.4771 20.1098 37.4334L35.4784 29.7135C35.582 29.6615 35.669 29.5818 35.7299 29.4831C35.7907 29.3845 35.8229 29.2709 35.8229 29.1551V24.7223C35.8223 24.5994 35.7857 24.4794 35.7177 24.377C35.6497 24.2747 35.5533 24.1944 35.4403 24.1461ZM19.8325 31.7412L16.28 29.9162L20.0151 27.9973L23.6019 29.8478L19.8325 31.7412ZM11.3329 27.3747L15.0784 25.4505L18.6503 27.2933L14.9123 29.2136L11.3329 27.3747ZM24.4697 20.6258L28.3033 22.3341L24.9524 24.0557L21.3729 22.2167L24.4697 20.6258ZM20.0052 22.9194L23.5847 24.7583L20.0163 26.5915L16.4444 24.7487L20.0052 22.9194ZM24.9832 29.154L21.3811 27.2956L24.9524 25.4609L28.6022 27.3359L24.9832 29.154ZM29.9853 26.6412L26.3201 24.7583L29.7681 22.987L33.7383 24.7561L29.9853 26.6412ZM18.6376 22.2168L15.0797 24.0446L11.6594 22.2801L15.4201 20.5639L18.6376 22.2168ZM10.2128 22.9402L13.7136 24.7463L9.96514 26.6721L6.23467 24.7556L10.2128 22.9402ZM20.4543 35.8616V32.8277L34.5729 25.7357V28.7695L20.4543 35.8616ZM20.0001 11.5539C20.5161 11.5539 21.0205 11.4009 21.4496 11.1142C21.8786 10.8275 22.2131 10.42 22.4105 9.94327C22.608 9.46652 22.6597 8.94192 22.559 8.43581C22.4583 7.9297 22.2098 7.46481 21.8449 7.09993C21.48 6.73505 21.0151 6.48656 20.509 6.3859C20.0029 6.28524 19.4783 6.33692 19.0016 6.5344C18.5248 6.73189 18.1173 7.06631 17.8307 7.49538C17.544 7.92445 17.391 8.42889 17.391 8.94492C17.3918 9.63663 17.6669 10.2998 18.1561 10.7889C18.6452 11.278 19.3083 11.5531 20.0001 11.5539ZM20.0001 7.58586C20.2689 7.58586 20.5316 7.66556 20.7551 7.8149C20.9786 7.96424 21.1528 8.17649 21.2557 8.42483C21.3585 8.67316 21.3854 8.94643 21.333 9.21006C21.2806 9.47369 21.1511 9.71585 20.9611 9.90592C20.771 10.096 20.5288 10.2254 20.2652 10.2779C20.0016 10.3303 19.7283 10.3034 19.48 10.2005C19.2316 10.0977 19.0194 9.92347 18.87 9.69997C18.7207 9.47648 18.641 9.21372 18.641 8.94492C18.6414 8.58459 18.7847 8.23914 19.0395 7.98435C19.2943 7.72956 19.6397 7.58625 20.0001 7.58586Z" fill="white"/>
</svg>
