<svg width="40" height="40" viewBox="0 0 40 40" fill="none" xmlns="http://www.w3.org/2000/svg">
<path d="M12.4998 21.7501V35.4501L4.6915 37.1251C4.32632 37.2033 3.94828 37.199 3.58496 37.1125C3.22165 37.026 2.88224 36.8595 2.5915 36.6251C2.30255 36.3906 2.06956 36.0947 1.90953 35.7588C1.74951 35.4229 1.66648 35.0555 1.6665 34.6834V15.5584C1.6665 14.3667 2.47484 13.3584 3.6415 13.1084L9.17484 11.9251C9.23317 15.6001 10.6415 19.0417 12.4998 21.7501ZM25.8332 23.7667V37.5001C25.5415 37.5001 25.2415 37.4667 24.9582 37.4084L14.6915 35.2084C14.5165 35.1667 14.3415 35.1501 14.1665 35.1501V23.8584C16.2082 26.1167 18.4498 27.5001 19.9998 27.5001C21.5165 27.5001 23.7748 26.0751 25.8332 23.7667ZM38.3332 13.7667V32.8917C38.3332 34.0834 37.5248 35.0834 36.3582 35.3417L27.4998 37.2334V21.6417C29.2915 19.0251 30.6665 15.7417 30.8165 12.2917L35.3082 11.3251C36.0498 11.1667 36.8165 11.3417 37.4082 11.8251C37.6971 12.0595 37.9301 12.3554 38.0901 12.6913C38.2502 13.0272 38.3332 13.3946 38.3332 13.7667Z" fill="#C79E34"/>
<path d="M19.9997 2.5C14.9455 2.5 10.833 6.6125 10.833 11.6667C10.833 19.3983 17.488 25.8333 19.9997 25.8333C22.2455 25.8333 29.1663 19.4592 29.1663 11.6667C29.1663 6.6125 25.0538 2.5 19.9997 2.5ZM19.9997 15C19.1156 15 18.2678 14.6488 17.6427 14.0237C17.0175 13.3986 16.6663 12.5507 16.6663 11.6667C16.6663 10.7826 17.0175 9.93477 17.6427 9.30964C18.2678 8.68452 19.1156 8.33333 19.9997 8.33333C20.8837 8.33333 21.7316 8.68452 22.3567 9.30964C22.9818 9.93477 23.333 10.7826 23.333 11.6667C23.333 12.5507 22.9818 13.3986 22.3567 14.0237C21.7316 14.6488 20.8837 15 19.9997 15Z" fill="#C79E34"/>
</svg>
