<svg width="18" height="18" viewBox="0 0 18 18" fill="none" xmlns="http://www.w3.org/2000/svg">
<path d="M17.1731 4.21878C17.0921 4.16824 16.9996 4.13914 16.9043 4.13422C16.809 4.12929 16.714 4.14872 16.6282 4.19065C13.6097 5.66721 11.4539 4.97534 9.17508 4.24549C6.78445 3.47979 4.30594 2.68878 0.881719 4.36081C0.786045 4.4067 0.705303 4.47872 0.648818 4.56855C0.592333 4.65838 0.562408 4.76235 0.5625 4.86846V13.301C0.562487 13.3965 0.586757 13.4904 0.633027 13.5738C0.679296 13.6573 0.746044 13.7276 0.826988 13.7782C0.907931 13.8288 1.00041 13.8579 1.09572 13.8629C1.19103 13.8678 1.28603 13.8485 1.3718 13.8066C4.39031 12.33 6.54609 13.0219 8.82844 13.7517C10.1813 14.1842 11.5594 14.625 13.1175 14.625C14.3191 14.625 15.6298 14.3635 17.119 13.6364C17.2136 13.5903 17.2933 13.5185 17.3491 13.4292C17.4049 13.34 17.4346 13.2368 17.4347 13.1316V4.69901C17.4355 4.60332 17.412 4.509 17.3662 4.42497C17.3204 4.34093 17.254 4.26997 17.1731 4.21878ZM16.3125 12.7737C13.4578 14.0513 11.373 13.3847 9.17156 12.6809C7.81875 12.2485 6.44063 11.8076 4.8825 11.8076C3.78781 11.8129 2.70425 12.0277 1.69031 12.4404V5.22635C4.545 3.94878 6.62977 4.61534 8.83125 5.31917C11.0327 6.02299 13.2989 6.75003 16.3125 5.56104V12.7737ZM9 6.75003C8.55499 6.75003 8.11998 6.88199 7.74997 7.12922C7.37996 7.37645 7.09157 7.72785 6.92127 8.13899C6.75097 8.55012 6.70642 9.00252 6.79323 9.43898C6.88005 9.87544 7.09434 10.2763 7.40901 10.591C7.72368 10.9057 8.12459 11.12 8.56105 11.2068C8.99751 11.2936 9.4499 11.2491 9.86104 11.0788C10.2722 10.9085 10.6236 10.6201 10.8708 10.2501C11.118 9.88005 11.25 9.44503 11.25 9.00003C11.25 8.40329 11.0129 7.83099 10.591 7.40904C10.169 6.98708 9.59674 6.75003 9 6.75003ZM9 10.125C8.7775 10.125 8.55999 10.059 8.37498 9.93543C8.18998 9.81181 8.04578 9.63611 7.96064 9.43054C7.87549 9.22498 7.85321 8.99878 7.89662 8.78055C7.94003 8.56232 8.04717 8.36187 8.20451 8.20453C8.36184 8.0472 8.5623 7.94005 8.78052 7.89664C8.99875 7.85323 9.22495 7.87551 9.43052 7.96066C9.63609 8.04581 9.81179 8.19 9.9354 8.37501C10.059 8.56001 10.125 8.77752 10.125 9.00003C10.125 9.29839 10.0065 9.58454 9.7955 9.79552C9.58452 10.0065 9.29837 10.125 9 10.125ZM3.9375 6.75003V10.125C3.9375 10.2742 3.87824 10.4173 3.77275 10.5228C3.66726 10.6283 3.52418 10.6875 3.375 10.6875C3.22582 10.6875 3.08274 10.6283 2.97725 10.5228C2.87176 10.4173 2.8125 10.2742 2.8125 10.125V6.75003C2.8125 6.60084 2.87176 6.45777 2.97725 6.35228C3.08274 6.24679 3.22582 6.18753 3.375 6.18753C3.52418 6.18753 3.66726 6.24679 3.77275 6.35228C3.87824 6.45777 3.9375 6.60084 3.9375 6.75003ZM14.0625 11.25V7.87503C14.0625 7.72584 14.1218 7.58277 14.2273 7.47728C14.3327 7.37179 14.4758 7.31253 14.625 7.31253C14.7742 7.31253 14.9173 7.37179 15.0227 7.47728C15.1282 7.58277 15.1875 7.72584 15.1875 7.87503V11.25C15.1875 11.3992 15.1282 11.5423 15.0227 11.6478C14.9173 11.7533 14.7742 11.8125 14.625 11.8125C14.4758 11.8125 14.3327 11.7533 14.2273 11.6478C14.1218 11.5423 14.0625 11.3992 14.0625 11.25Z" fill="black"/>
</svg>
