<svg width="80" height="80" viewBox="0 0 80 80" fill="none" xmlns="http://www.w3.org/2000/svg">
<mask id="path-1-inside-1_5418_10084" fill="white">
<path d="M30.3866 15.2302H49.6136C49.9037 15.2302 50.1819 15.1149 50.387 14.9098C50.5921 14.7047 50.7073 14.4265 50.7073 14.1364V7.98828C50.7073 7.6982 50.5921 7.42 50.387 7.21488C50.1819 7.00977 49.9037 6.89453 49.6136 6.89453H30.3866C30.0965 6.89453 29.8183 7.00977 29.6132 7.21488C29.408 7.42 29.2928 7.6982 29.2928 7.98828V14.1364C29.2928 14.4265 29.408 14.7047 29.6132 14.9098C29.8183 15.1149 30.0965 15.2302 30.3866 15.2302ZM31.4803 9.08203H48.5198V13.0427H31.4803V9.08203ZM30.3866 27.2989H49.6136C49.9037 27.2989 50.1819 27.1837 50.387 26.9786C50.5921 26.7734 50.7073 26.4952 50.7073 26.2052V20.0572C50.7073 19.7671 50.5921 19.4889 50.387 19.2838C50.1819 19.0787 49.9037 18.9634 49.6136 18.9634H30.3866C30.0965 18.9634 29.8183 19.0787 29.6132 19.2838C29.408 19.4889 29.2928 19.7671 29.2928 20.0572V26.2052C29.2928 26.4952 29.408 26.7734 29.6132 26.9786C29.8183 27.1837 30.0965 27.2989 30.3866 27.2989ZM31.4803 21.1509H48.5198V25.1114H31.4803V21.1509ZM30.3866 39.3678H49.6136C49.9037 39.3678 50.1819 39.2526 50.387 39.0475C50.5921 38.8423 50.7073 38.5641 50.7073 38.2741V32.1259C50.7073 31.8359 50.5921 31.5577 50.387 31.3525C50.1819 31.1474 49.9037 31.0322 49.6136 31.0322H30.3866C30.0965 31.0322 29.8183 31.1474 29.6132 31.3525C29.408 31.5577 29.2928 31.8359 29.2928 32.1259V38.2741C29.2928 38.5641 29.408 38.8423 29.6132 39.0475C29.8183 39.2526 30.0965 39.3678 30.3866 39.3678ZM31.4803 33.2197H48.5198V37.1803H31.4803V33.2197ZM30.3866 51.4367H49.6136C49.9037 51.4367 50.1819 51.3215 50.387 51.1164C50.5921 50.9112 50.7073 50.633 50.7073 50.343V44.195C50.7073 43.9049 50.5921 43.6267 50.387 43.4216C50.1819 43.2165 49.9037 43.1012 49.6136 43.1012H30.3866C30.0965 43.1012 29.8183 43.2165 29.6132 43.4216C29.408 43.6267 29.2928 43.9049 29.2928 44.195V50.343C29.2928 50.633 29.408 50.9112 29.6132 51.1164C29.8183 51.3215 30.0965 51.4367 30.3866 51.4367ZM31.4803 45.2889H48.5198V49.2494H31.4803V45.2889ZM77.5 76.4062H73.9062V14.1364C73.9062 13.8463 73.791 13.5681 73.5859 13.363C73.3808 13.1579 73.1026 13.0427 72.8125 13.0427H55.8547V2.5C55.8547 2.20992 55.7395 1.93172 55.5343 1.7266C55.3292 1.52148 55.051 1.40625 54.7609 1.40625H25.2391C24.949 1.40625 24.6708 1.52148 24.4657 1.7266C24.2605 1.93172 24.1453 2.20992 24.1453 2.5V13.0427H7.1875C6.89742 13.0427 6.61922 13.1579 6.4141 13.363C6.20898 13.5681 6.09375 13.8463 6.09375 14.1364V76.4062H2.5C2.20992 76.4062 1.93172 76.5215 1.7266 76.7266C1.52148 76.9317 1.40625 77.2099 1.40625 77.5C1.40625 77.7901 1.52148 78.0683 1.7266 78.2734C1.93172 78.4785 2.20992 78.5938 2.5 78.5938H77.5C77.7901 78.5938 78.0683 78.4785 78.2734 78.2734C78.4785 78.0683 78.5938 77.7901 78.5938 77.5C78.5938 77.2099 78.4785 76.9317 78.2734 76.7266C78.0683 76.5215 77.7901 76.4062 77.5 76.4062ZM71.7188 15.2302V76.4062H55.8547V15.2302H71.7188ZM53.6672 3.59375V76.4062H50.7072V59.4784C50.7072 59.1884 50.592 58.9102 50.3868 58.705C50.1817 58.4999 49.9035 58.3847 49.6134 58.3847H30.3866C30.0965 58.3847 29.8183 58.4999 29.6132 58.705C29.408 58.9102 29.2928 59.1884 29.2928 59.4784V76.4062H26.3328V3.59375H53.6672ZM41.0938 60.5722H48.5197V76.4062H41.0938V60.5722ZM38.9062 76.4062H31.4803V60.5722H38.9062V76.4062ZM8.28125 15.2302H24.1453V76.4062H8.28125V15.2302ZM60.7547 27.2989H66.8189C67.109 27.2989 67.3872 27.1837 67.5923 26.9786C67.7974 26.7734 67.9127 26.4952 67.9127 26.2052V20.1411C67.9127 19.851 67.7974 19.5728 67.5923 19.3677C67.3872 19.1626 67.109 19.0473 66.8189 19.0473H60.7547C60.4646 19.0473 60.1864 19.1626 59.9813 19.3677C59.7762 19.5728 59.6609 19.851 59.6609 20.1411V26.2052C59.6609 26.4952 59.7762 26.7734 59.9813 26.9786C60.1864 27.1837 60.4646 27.2989 60.7547 27.2989ZM61.8484 21.2348H65.7252V25.1114H61.8484V21.2348ZM60.7547 38.6944H66.8189C67.109 38.6944 67.3872 38.5791 67.5923 38.374C67.7974 38.1689 67.9127 37.8907 67.9127 37.6006V31.5364C67.9127 31.2463 67.7974 30.9681 67.5923 30.763C67.3872 30.5579 67.109 30.4427 66.8189 30.4427H60.7547C60.4646 30.4427 60.1864 30.5579 59.9813 30.763C59.7762 30.9681 59.6609 31.2463 59.6609 31.5364V37.6006C59.6609 37.8907 59.7762 38.1689 59.9813 38.374C60.1864 38.5791 60.4646 38.6944 60.7547 38.6944ZM61.8484 32.6302H65.7252V36.5069H61.8484V32.6302ZM60.7547 50.0895H66.8189C67.109 50.0895 67.3872 49.9743 67.5923 49.7692C67.7974 49.5641 67.9127 49.2859 67.9127 48.9958V42.9316C67.9127 42.6415 67.7974 42.3633 67.5923 42.1582C67.3872 41.953 67.109 41.8378 66.8189 41.8378H60.7547C60.4646 41.8378 60.1864 41.953 59.9813 42.1582C59.7762 42.3633 59.6609 42.6415 59.6609 42.9316V48.9958C59.6609 49.2859 59.7762 49.5641 59.9813 49.7692C60.1864 49.9743 60.4646 50.0895 60.7547 50.0895ZM61.8484 44.0255H65.7252V47.9022H61.8484V44.0255ZM60.7547 61.4848H66.8189C67.109 61.4848 67.3872 61.3696 67.5923 61.1645C67.7974 60.9594 67.9127 60.6812 67.9127 60.3911V54.327C67.9127 54.0369 67.7974 53.7588 67.5923 53.5536C67.3872 53.3485 67.109 53.2333 66.8189 53.2333H60.7547C60.4646 53.2333 60.1864 53.3485 59.9813 53.5536C59.7762 53.7588 59.6609 54.0369 59.6609 54.327V60.3911C59.6609 60.6812 59.7762 60.9594 59.9813 61.1645C60.1864 61.3696 60.4646 61.4848 60.7547 61.4848ZM61.8484 55.4208H65.7252V59.2973H61.8484V55.4208ZM60.7547 72.8805H66.8189C67.109 72.8805 67.3872 72.7652 67.5923 72.5601C67.7974 72.355 67.9127 72.0768 67.9127 71.7867V65.7225C67.9127 65.4324 67.7974 65.1542 67.5923 64.9491C67.3872 64.744 67.109 64.6287 66.8189 64.6287H60.7547C60.4646 64.6287 60.1864 64.744 59.9813 64.9491C59.7762 65.1542 59.6609 65.4324 59.6609 65.7225V71.7867C59.6609 72.0768 59.7762 72.355 59.9813 72.5601C60.1864 72.7652 60.4646 72.8805 60.7547 72.8805ZM61.8484 66.8162H65.7252V70.693H61.8484V66.8162ZM19.2453 19.0473H13.1812C12.8912 19.0473 12.613 19.1626 12.4079 19.3677C12.2027 19.5728 12.0875 19.851 12.0875 20.1411V26.2052C12.0875 26.4952 12.2027 26.7734 12.4079 26.9786C12.613 27.1837 12.8912 27.2989 13.1812 27.2989H19.2453C19.3889 27.2989 19.5312 27.2706 19.6639 27.2157C19.7966 27.1607 19.9171 27.0801 20.0187 26.9786C20.1203 26.877 20.2008 26.7564 20.2558 26.6237C20.3108 26.491 20.3391 26.3488 20.3391 26.2052V20.1411C20.3391 19.851 20.2238 19.5728 20.0187 19.3677C19.8136 19.1626 19.5354 19.0473 19.2453 19.0473ZM18.1516 25.1114H14.275V21.2348H18.1516V25.1114ZM19.2453 30.4427H13.1812C12.8912 30.4427 12.613 30.5579 12.4079 30.763C12.2027 30.9681 12.0875 31.2463 12.0875 31.5364V37.6006C12.0875 37.8907 12.2027 38.1689 12.4079 38.374C12.613 38.5791 12.8912 38.6944 13.1812 38.6944H19.2453C19.3889 38.6944 19.5312 38.6661 19.6639 38.6111C19.7966 38.5562 19.9171 38.4756 20.0187 38.374C20.1203 38.2725 20.2008 38.1519 20.2558 38.0192C20.3108 37.8865 20.3391 37.7443 20.3391 37.6006V31.5364C20.3391 31.2463 20.2238 30.9681 20.0187 30.763C19.8136 30.5579 19.5354 30.4427 19.2453 30.4427ZM18.1516 36.5069H14.275V32.6302H18.1516V36.5069ZM19.2453 41.838H13.1812C12.8912 41.838 12.613 41.9532 12.4079 42.1583C12.2027 42.3634 12.0875 42.6416 12.0875 42.9317V48.9959C12.0875 49.286 12.2027 49.5642 12.4079 49.7693C12.613 49.9745 12.8912 50.0897 13.1812 50.0897H19.2453C19.3889 50.0897 19.5312 50.0614 19.6639 50.0064C19.7966 49.9515 19.9171 49.8709 20.0187 49.7693C20.1203 49.6678 20.2008 49.5472 20.2558 49.4145C20.3108 49.2818 20.3391 49.1396 20.3391 48.9959V42.9317C20.3391 42.6416 20.2238 42.3634 20.0187 42.1583C19.8136 41.9532 19.5354 41.838 19.2453 41.838ZM18.1516 47.902H14.275V44.0253H18.1516V47.902ZM19.2453 53.2333H13.1812C12.8912 53.2333 12.613 53.3485 12.4079 53.5536C12.2027 53.7588 12.0875 54.0369 12.0875 54.327V60.3911C12.0875 60.6812 12.2027 60.9594 12.4079 61.1645C12.613 61.3696 12.8912 61.4848 13.1812 61.4848H19.2453C19.3889 61.4848 19.5312 61.4566 19.6639 61.4016C19.7966 61.3466 19.9171 61.2661 20.0187 61.1645C20.1203 61.0629 20.2008 60.9424 20.2558 60.8097C20.3108 60.677 20.3391 60.5347 20.3391 60.3911V54.327C20.3391 54.0369 20.2238 53.7588 20.0187 53.5536C19.8136 53.3485 19.5354 53.2333 19.2453 53.2333ZM18.1516 59.2973H14.275V55.4208H18.1516V59.2973ZM19.2453 64.6287H13.1812C12.8912 64.6287 12.613 64.744 12.4079 64.9491C12.2027 65.1542 12.0875 65.4324 12.0875 65.7225V71.7867C12.0875 72.0768 12.2027 72.355 12.4079 72.5601C12.613 72.7652 12.8912 72.8805 13.1812 72.8805H19.2453C19.3889 72.8805 19.5312 72.8522 19.6639 72.7972C19.7966 72.7422 19.9171 72.6617 20.0187 72.5601C20.1203 72.4585 20.2008 72.338 20.2558 72.2053C20.3108 72.0726 20.3391 71.9304 20.3391 71.7867V65.7225C20.3391 65.4324 20.2238 65.1542 20.0187 64.9491C19.8136 64.744 19.5354 64.6287 19.2453 64.6287ZM18.1516 70.693H14.275V66.8162H18.1516V70.693Z"/>
</mask>
<path d="M30.3866 15.2302H49.6136C49.9037 15.2302 50.1819 15.1149 50.387 14.9098C50.5921 14.7047 50.7073 14.4265 50.7073 14.1364V7.98828C50.7073 7.6982 50.5921 7.42 50.387 7.21488C50.1819 7.00977 49.9037 6.89453 49.6136 6.89453H30.3866C30.0965 6.89453 29.8183 7.00977 29.6132 7.21488C29.408 7.42 29.2928 7.6982 29.2928 7.98828V14.1364C29.2928 14.4265 29.408 14.7047 29.6132 14.9098C29.8183 15.1149 30.0965 15.2302 30.3866 15.2302ZM31.4803 9.08203H48.5198V13.0427H31.4803V9.08203ZM30.3866 27.2989H49.6136C49.9037 27.2989 50.1819 27.1837 50.387 26.9786C50.5921 26.7734 50.7073 26.4952 50.7073 26.2052V20.0572C50.7073 19.7671 50.5921 19.4889 50.387 19.2838C50.1819 19.0787 49.9037 18.9634 49.6136 18.9634H30.3866C30.0965 18.9634 29.8183 19.0787 29.6132 19.2838C29.408 19.4889 29.2928 19.7671 29.2928 20.0572V26.2052C29.2928 26.4952 29.408 26.7734 29.6132 26.9786C29.8183 27.1837 30.0965 27.2989 30.3866 27.2989ZM31.4803 21.1509H48.5198V25.1114H31.4803V21.1509ZM30.3866 39.3678H49.6136C49.9037 39.3678 50.1819 39.2526 50.387 39.0475C50.5921 38.8423 50.7073 38.5641 50.7073 38.2741V32.1259C50.7073 31.8359 50.5921 31.5577 50.387 31.3525C50.1819 31.1474 49.9037 31.0322 49.6136 31.0322H30.3866C30.0965 31.0322 29.8183 31.1474 29.6132 31.3525C29.408 31.5577 29.2928 31.8359 29.2928 32.1259V38.2741C29.2928 38.5641 29.408 38.8423 29.6132 39.0475C29.8183 39.2526 30.0965 39.3678 30.3866 39.3678ZM31.4803 33.2197H48.5198V37.1803H31.4803V33.2197ZM30.3866 51.4367H49.6136C49.9037 51.4367 50.1819 51.3215 50.387 51.1164C50.5921 50.9112 50.7073 50.633 50.7073 50.343V44.195C50.7073 43.9049 50.5921 43.6267 50.387 43.4216C50.1819 43.2165 49.9037 43.1012 49.6136 43.1012H30.3866C30.0965 43.1012 29.8183 43.2165 29.6132 43.4216C29.408 43.6267 29.2928 43.9049 29.2928 44.195V50.343C29.2928 50.633 29.408 50.9112 29.6132 51.1164C29.8183 51.3215 30.0965 51.4367 30.3866 51.4367ZM31.4803 45.2889H48.5198V49.2494H31.4803V45.2889ZM77.5 76.4062H73.9062V14.1364C73.9062 13.8463 73.791 13.5681 73.5859 13.363C73.3808 13.1579 73.1026 13.0427 72.8125 13.0427H55.8547V2.5C55.8547 2.20992 55.7395 1.93172 55.5343 1.7266C55.3292 1.52148 55.051 1.40625 54.7609 1.40625H25.2391C24.949 1.40625 24.6708 1.52148 24.4657 1.7266C24.2605 1.93172 24.1453 2.20992 24.1453 2.5V13.0427H7.1875C6.89742 13.0427 6.61922 13.1579 6.4141 13.363C6.20898 13.5681 6.09375 13.8463 6.09375 14.1364V76.4062H2.5C2.20992 76.4062 1.93172 76.5215 1.7266 76.7266C1.52148 76.9317 1.40625 77.2099 1.40625 77.5C1.40625 77.7901 1.52148 78.0683 1.7266 78.2734C1.93172 78.4785 2.20992 78.5938 2.5 78.5938H77.5C77.7901 78.5938 78.0683 78.4785 78.2734 78.2734C78.4785 78.0683 78.5938 77.7901 78.5938 77.5C78.5938 77.2099 78.4785 76.9317 78.2734 76.7266C78.0683 76.5215 77.7901 76.4062 77.5 76.4062ZM71.7188 15.2302V76.4062H55.8547V15.2302H71.7188ZM53.6672 3.59375V76.4062H50.7072V59.4784C50.7072 59.1884 50.592 58.9102 50.3868 58.705C50.1817 58.4999 49.9035 58.3847 49.6134 58.3847H30.3866C30.0965 58.3847 29.8183 58.4999 29.6132 58.705C29.408 58.9102 29.2928 59.1884 29.2928 59.4784V76.4062H26.3328V3.59375H53.6672ZM41.0938 60.5722H48.5197V76.4062H41.0938V60.5722ZM38.9062 76.4062H31.4803V60.5722H38.9062V76.4062ZM8.28125 15.2302H24.1453V76.4062H8.28125V15.2302ZM60.7547 27.2989H66.8189C67.109 27.2989 67.3872 27.1837 67.5923 26.9786C67.7974 26.7734 67.9127 26.4952 67.9127 26.2052V20.1411C67.9127 19.851 67.7974 19.5728 67.5923 19.3677C67.3872 19.1626 67.109 19.0473 66.8189 19.0473H60.7547C60.4646 19.0473 60.1864 19.1626 59.9813 19.3677C59.7762 19.5728 59.6609 19.851 59.6609 20.1411V26.2052C59.6609 26.4952 59.7762 26.7734 59.9813 26.9786C60.1864 27.1837 60.4646 27.2989 60.7547 27.2989ZM61.8484 21.2348H65.7252V25.1114H61.8484V21.2348ZM60.7547 38.6944H66.8189C67.109 38.6944 67.3872 38.5791 67.5923 38.374C67.7974 38.1689 67.9127 37.8907 67.9127 37.6006V31.5364C67.9127 31.2463 67.7974 30.9681 67.5923 30.763C67.3872 30.5579 67.109 30.4427 66.8189 30.4427H60.7547C60.4646 30.4427 60.1864 30.5579 59.9813 30.763C59.7762 30.9681 59.6609 31.2463 59.6609 31.5364V37.6006C59.6609 37.8907 59.7762 38.1689 59.9813 38.374C60.1864 38.5791 60.4646 38.6944 60.7547 38.6944ZM61.8484 32.6302H65.7252V36.5069H61.8484V32.6302ZM60.7547 50.0895H66.8189C67.109 50.0895 67.3872 49.9743 67.5923 49.7692C67.7974 49.5641 67.9127 49.2859 67.9127 48.9958V42.9316C67.9127 42.6415 67.7974 42.3633 67.5923 42.1582C67.3872 41.953 67.109 41.8378 66.8189 41.8378H60.7547C60.4646 41.8378 60.1864 41.953 59.9813 42.1582C59.7762 42.3633 59.6609 42.6415 59.6609 42.9316V48.9958C59.6609 49.2859 59.7762 49.5641 59.9813 49.7692C60.1864 49.9743 60.4646 50.0895 60.7547 50.0895ZM61.8484 44.0255H65.7252V47.9022H61.8484V44.0255ZM60.7547 61.4848H66.8189C67.109 61.4848 67.3872 61.3696 67.5923 61.1645C67.7974 60.9594 67.9127 60.6812 67.9127 60.3911V54.327C67.9127 54.0369 67.7974 53.7588 67.5923 53.5536C67.3872 53.3485 67.109 53.2333 66.8189 53.2333H60.7547C60.4646 53.2333 60.1864 53.3485 59.9813 53.5536C59.7762 53.7588 59.6609 54.0369 59.6609 54.327V60.3911C59.6609 60.6812 59.7762 60.9594 59.9813 61.1645C60.1864 61.3696 60.4646 61.4848 60.7547 61.4848ZM61.8484 55.4208H65.7252V59.2973H61.8484V55.4208ZM60.7547 72.8805H66.8189C67.109 72.8805 67.3872 72.7652 67.5923 72.5601C67.7974 72.355 67.9127 72.0768 67.9127 71.7867V65.7225C67.9127 65.4324 67.7974 65.1542 67.5923 64.9491C67.3872 64.744 67.109 64.6287 66.8189 64.6287H60.7547C60.4646 64.6287 60.1864 64.744 59.9813 64.9491C59.7762 65.1542 59.6609 65.4324 59.6609 65.7225V71.7867C59.6609 72.0768 59.7762 72.355 59.9813 72.5601C60.1864 72.7652 60.4646 72.8805 60.7547 72.8805ZM61.8484 66.8162H65.7252V70.693H61.8484V66.8162ZM19.2453 19.0473H13.1812C12.8912 19.0473 12.613 19.1626 12.4079 19.3677C12.2027 19.5728 12.0875 19.851 12.0875 20.1411V26.2052C12.0875 26.4952 12.2027 26.7734 12.4079 26.9786C12.613 27.1837 12.8912 27.2989 13.1812 27.2989H19.2453C19.3889 27.2989 19.5312 27.2706 19.6639 27.2157C19.7966 27.1607 19.9171 27.0801 20.0187 26.9786C20.1203 26.877 20.2008 26.7564 20.2558 26.6237C20.3108 26.491 20.3391 26.3488 20.3391 26.2052V20.1411C20.3391 19.851 20.2238 19.5728 20.0187 19.3677C19.8136 19.1626 19.5354 19.0473 19.2453 19.0473ZM18.1516 25.1114H14.275V21.2348H18.1516V25.1114ZM19.2453 30.4427H13.1812C12.8912 30.4427 12.613 30.5579 12.4079 30.763C12.2027 30.9681 12.0875 31.2463 12.0875 31.5364V37.6006C12.0875 37.8907 12.2027 38.1689 12.4079 38.374C12.613 38.5791 12.8912 38.6944 13.1812 38.6944H19.2453C19.3889 38.6944 19.5312 38.6661 19.6639 38.6111C19.7966 38.5562 19.9171 38.4756 20.0187 38.374C20.1203 38.2725 20.2008 38.1519 20.2558 38.0192C20.3108 37.8865 20.3391 37.7443 20.3391 37.6006V31.5364C20.3391 31.2463 20.2238 30.9681 20.0187 30.763C19.8136 30.5579 19.5354 30.4427 19.2453 30.4427ZM18.1516 36.5069H14.275V32.6302H18.1516V36.5069ZM19.2453 41.838H13.1812C12.8912 41.838 12.613 41.9532 12.4079 42.1583C12.2027 42.3634 12.0875 42.6416 12.0875 42.9317V48.9959C12.0875 49.286 12.2027 49.5642 12.4079 49.7693C12.613 49.9745 12.8912 50.0897 13.1812 50.0897H19.2453C19.3889 50.0897 19.5312 50.0614 19.6639 50.0064C19.7966 49.9515 19.9171 49.8709 20.0187 49.7693C20.1203 49.6678 20.2008 49.5472 20.2558 49.4145C20.3108 49.2818 20.3391 49.1396 20.3391 48.9959V42.9317C20.3391 42.6416 20.2238 42.3634 20.0187 42.1583C19.8136 41.9532 19.5354 41.838 19.2453 41.838ZM18.1516 47.902H14.275V44.0253H18.1516V47.902ZM19.2453 53.2333H13.1812C12.8912 53.2333 12.613 53.3485 12.4079 53.5536C12.2027 53.7588 12.0875 54.0369 12.0875 54.327V60.3911C12.0875 60.6812 12.2027 60.9594 12.4079 61.1645C12.613 61.3696 12.8912 61.4848 13.1812 61.4848H19.2453C19.3889 61.4848 19.5312 61.4566 19.6639 61.4016C19.7966 61.3466 19.9171 61.2661 20.0187 61.1645C20.1203 61.0629 20.2008 60.9424 20.2558 60.8097C20.3108 60.677 20.3391 60.5347 20.3391 60.3911V54.327C20.3391 54.0369 20.2238 53.7588 20.0187 53.5536C19.8136 53.3485 19.5354 53.2333 19.2453 53.2333ZM18.1516 59.2973H14.275V55.4208H18.1516V59.2973ZM19.2453 64.6287H13.1812C12.8912 64.6287 12.613 64.744 12.4079 64.9491C12.2027 65.1542 12.0875 65.4324 12.0875 65.7225V71.7867C12.0875 72.0768 12.2027 72.355 12.4079 72.5601C12.613 72.7652 12.8912 72.8805 13.1812 72.8805H19.2453C19.3889 72.8805 19.5312 72.8522 19.6639 72.7972C19.7966 72.7422 19.9171 72.6617 20.0187 72.5601C20.1203 72.4585 20.2008 72.338 20.2558 72.2053C20.3108 72.0726 20.3391 71.9304 20.3391 71.7867V65.7225C20.3391 65.4324 20.2238 65.1542 20.0187 64.9491C19.8136 64.744 19.5354 64.6287 19.2453 64.6287ZM18.1516 70.693H14.275V66.8162H18.1516V70.693Z" fill="#A8ABAE" stroke="white" mask="url(#path-1-inside-1_5418_10084)"/>
</svg>
