<svg width="36" height="36" viewBox="0 0 36 36" fill="none" xmlns="http://www.w3.org/2000/svg">
<path d="M18.5061 32.991C15.4409 33.0945 12.4177 32.2559 9.84374 30.5882C7.26982 28.9206 5.26894 26.504 4.11073 23.6642C2.95253 20.8243 2.69265 17.6977 3.36614 14.7056C4.03962 11.7135 5.61409 8.9998 7.87737 6.9301C10.1407 4.86039 12.984 3.5342 16.0242 3.13022C19.0644 2.72624 22.1554 3.2639 24.8807 4.67074C27.6059 6.07757 29.8344 8.28598 31.2659 10.9984C32.6974 13.7107 33.263 16.7967 32.8866 19.8405" stroke="#F1913D" stroke-width="2" stroke-linecap="round" stroke-linejoin="round"/>
<path d="M18 9V18L21 19.5" stroke="#F1913D" stroke-width="2" stroke-linecap="round" stroke-linejoin="round"/>
<path d="M21 27L27 33L33 27" stroke="#F1913D" stroke-width="2" stroke-linecap="round" stroke-linejoin="round"/>
<path d="M27 21V33" stroke="#F1913D" stroke-width="2" stroke-linecap="round" stroke-linejoin="round"/>
</svg>
