<svg width="16" height="17" viewBox="0 0 16 17" fill="none" xmlns="http://www.w3.org/2000/svg">
<path d="M9.5 7V4M9.5 7H12.5M9.5 7L13.5 3M11.5 15C5.97733 15 1.5 10.5227 1.5 5V3.5C1.5 3.10218 1.65804 2.72064 1.93934 2.43934C2.22064 2.15804 2.60218 2 3 2H3.91467C4.25867 2 4.55867 2.234 4.642 2.568L5.37933 5.51667C5.45267 5.81 5.34333 6.118 5.10133 6.29867L4.23933 6.94533C4.11595 7.03465 4.02467 7.16138 3.97903 7.3067C3.93339 7.45202 3.93584 7.60818 3.986 7.752C4.38725 8.84341 5.02094 9.83456 5.84319 10.6568C6.66544 11.4791 7.65659 12.1128 8.748 12.514C9.042 12.622 9.36667 12.5113 9.55467 12.2607L10.2013 11.3987C10.2898 11.2805 10.4113 11.1911 10.5504 11.1416C10.6895 11.0922 10.8401 11.0849 10.9833 11.1207L13.932 11.858C14.2653 11.9413 14.5 12.2413 14.5 12.5853V13.5C14.5 13.8978 14.342 14.2794 14.0607 14.5607C13.7794 14.842 13.3978 15 13 15H11.5Z" stroke="#8E8E93" stroke-linecap="round" stroke-linejoin="round"/>
</svg>
