<svg width="42" height="42" viewBox="0 0 42 42" fill="none" xmlns="http://www.w3.org/2000/svg">
<g clip-path="url(#clip0_2443_9870)">
<path d="M13.5817 21.1488C19.418 21.1488 24.1517 16.415 24.1517 10.5788C24.1517 4.7425 19.418 0 13.5817 0C7.74547 0 3.01172 4.73375 3.01172 10.57C3.01172 16.4063 7.74547 21.1488 13.5817 21.1488ZM9.88922 14.7525C9.98547 14.4025 10.0817 14.0613 10.1867 13.7113C10.3092 13.3088 10.423 13.265 10.7905 13.4575C11.4205 13.7813 12.0855 13.965 12.7855 14.0525C13.2317 14.105 13.678 14.0613 14.0892 13.8775C14.868 13.5363 14.9905 12.635 14.3342 12.0925C14.1067 11.9088 13.853 11.7688 13.5905 11.655C12.908 11.3575 12.1992 11.13 11.5517 10.745C10.5105 10.1238 9.84547 9.2575 9.92422 7.98875C10.0117 6.55375 10.8255 5.6525 12.138 5.18C12.6805 4.97875 12.6805 4.9875 12.6892 4.41875V3.84125C12.698 3.4125 12.7767 3.3425 13.1967 3.325H13.5905C14.5005 3.325 14.5005 3.325 14.5005 4.235C14.5005 4.87375 14.5005 4.8825 15.1392 4.97875C15.6292 5.0575 16.093 5.1975 16.548 5.39875C16.8017 5.5125 16.8892 5.6875 16.8192 5.95C16.7055 6.34375 16.6005 6.7375 16.4692 7.1225C16.3467 7.49 16.233 7.5425 15.883 7.37625C15.1742 7.035 14.4305 6.88625 13.643 6.93C13.433 6.93875 13.2405 6.965 13.048 7.0525C12.3742 7.35 12.2605 8.09375 12.838 8.5575C13.1267 8.79375 13.4592 8.96 13.8092 9.1C14.4042 9.345 15.008 9.59 15.5855 9.905C17.3967 10.9113 17.8867 13.1863 16.6092 14.735C16.1455 15.295 15.5505 15.6713 14.8417 15.8638C14.5355 15.9513 14.3955 16.1088 14.413 16.4238C14.4305 16.7388 14.413 17.045 14.413 17.36C14.413 17.64 14.273 17.7888 13.993 17.7975C13.6605 17.8063 13.3192 17.8063 12.9867 17.7975C12.6892 17.7888 12.5492 17.6225 12.5492 17.3338C12.5492 17.1063 12.5492 16.8788 12.5405 16.6513C12.5317 16.1525 12.523 16.1263 12.033 16.0475C11.4117 15.9513 10.808 15.8113 10.2392 15.5313C9.81047 15.33 9.76672 15.2163 9.88922 14.7525Z" fill="#F1913D"/>
<path d="M37.293 22.0325H36.0592C35.2455 19.5388 33.653 17.325 31.5267 15.61C31.5267 15.5313 31.5092 15.4438 31.4917 15.365C31.0455 13.7988 31.5967 12.3725 32.2355 11.3488C32.6817 10.6313 32.1042 9.71252 31.2642 9.81752C29.383 10.0538 28.088 10.745 27.1955 11.5238C26.583 12.0575 26.1455 12.775 25.953 13.5713C24.6055 19.1538 19.5742 23.31 13.5805 23.31C10.6667 23.31 7.98922 22.33 5.84547 20.685C5.10172 22.295 4.69922 24.0538 4.69922 25.9C4.69922 26.8975 4.82172 27.8688 5.04922 28.805C5.04922 28.805 5.04922 28.8225 5.05797 28.8488C5.29422 29.82 5.65297 30.7563 6.10797 31.64C6.71172 32.9438 7.58672 34.4663 8.79422 35.7C10.5355 37.4938 10.833 39.7163 10.8767 40.6788V41.1513C10.9117 41.6238 11.3055 42 11.7867 42H17.3167C17.8155 42 18.2267 41.5975 18.2267 41.09V39.725C19.0317 39.83 19.8542 39.8913 20.6855 39.8913C21.3417 39.8913 21.9805 39.8563 22.6192 39.7863V41.09C22.6192 41.5888 23.0217 42 23.5292 42H29.0767C29.5755 42 29.9867 41.5975 29.9867 41.09V39.725C29.9955 39.27 30.153 37.4588 31.868 35.91L32.0517 35.7525C32.0692 35.735 32.0867 35.7263 32.1042 35.7088C34.0117 34.0113 35.4205 31.8938 36.1467 29.5313H37.3105C38.238 29.5313 38.9905 28.7788 38.9905 27.8513V23.7125C38.973 22.785 38.2205 22.0325 37.293 22.0325ZM30.3717 22.33C29.6105 22.33 28.998 21.7175 28.998 20.9563C28.998 20.195 29.6105 19.5825 30.3717 19.5825C31.133 19.5825 31.7455 20.195 31.7455 20.9563C31.7455 21.7175 31.133 22.33 30.3717 22.33Z" fill="#F1913D"/>
</g>
<defs>
<clipPath id="clip0_2443_9870">
<rect width="42" height="42" fill="white"/>
</clipPath>
</defs>
</svg>
