<svg width="18" height="18" viewBox="0 0 18 18" fill="none" xmlns="http://www.w3.org/2000/svg">
<path d="M5.04 10.3718C4.86 10.3943 4.68 10.4183 4.5 10.4438M5.04 10.3718C7.66969 10.0418 10.3303 10.0418 12.96 10.3718M5.04 10.3718L4.755 13.5M12.96 10.3718C13.14 10.3943 13.32 10.4183 13.5 10.4438M12.96 10.3718L13.245 13.5L13.4167 15.3923C13.4274 15.509 13.4136 15.6267 13.3762 15.7378C13.3388 15.8489 13.2787 15.951 13.1996 16.0376C13.1206 16.1242 13.0244 16.1933 12.9172 16.2407C12.8099 16.288 12.694 16.3125 12.5767 16.3125H5.42325C4.92675 16.3125 4.53825 15.8865 4.58325 15.3923L4.755 13.5M4.755 13.5H3.9375C3.48995 13.5 3.06072 13.3222 2.74426 13.0057C2.42779 12.6893 2.25 12.2601 2.25 11.8125V7.092C2.25 6.28125 2.826 5.58075 3.62775 5.46075C4.10471 5.3894 4.58306 5.32764 5.0625 5.2755M13.2435 13.5H14.0618C14.2834 13.5001 14.5029 13.4565 14.7078 13.3718C14.9126 13.287 15.0987 13.1627 15.2555 13.006C15.4123 12.8493 15.5366 12.6632 15.6215 12.4585C15.7063 12.2537 15.75 12.0342 15.75 11.8125V7.092C15.75 6.28125 15.174 5.58075 14.3723 5.46075C13.8953 5.38941 13.4169 5.32764 12.9375 5.2755M12.9375 5.2755C10.3202 4.99073 7.67978 4.99073 5.0625 5.2755M12.9375 5.2755V2.53125C12.9375 2.0655 12.5595 1.6875 12.0938 1.6875H5.90625C5.4405 1.6875 5.0625 2.0655 5.0625 2.53125V5.2755M13.5 7.875H13.506V7.881H13.5V7.875ZM11.25 7.875H11.256V7.881H11.25V7.875Z" stroke="#5C5E61" stroke-width="1.5" stroke-linecap="round" stroke-linejoin="round"/>
</svg>
