<svg width="24" height="24" viewBox="0 0 24 24" fill="none" xmlns="http://www.w3.org/2000/svg">
<path d="M22.062 6.87846L17.1223 1.93971C16.983 1.80038 16.8176 1.68986 16.6356 1.61446C16.4536 1.53905 16.2585 1.50024 16.0615 1.50024C15.8645 1.50024 15.6694 1.53905 15.4874 1.61446C15.3054 1.68986 15.14 1.80038 15.0007 1.93971L1.93946 15C1.80014 15.1393 1.68962 15.3047 1.61421 15.4867C1.53881 15.6687 1.5 15.8638 1.5 16.0608C1.5 16.2578 1.53881 16.4529 1.61421 16.6349C1.68962 16.8169 1.80014 16.9823 1.93946 17.1216L6.87915 22.0603C7.01844 22.1997 7.18382 22.3102 7.36583 22.3856C7.54784 22.461 7.74292 22.4998 7.93993 22.4998C8.13694 22.4998 8.33202 22.461 8.51403 22.3856C8.69604 22.3102 8.86142 22.1997 9.00071 22.0603L22.062 9.00002C22.2013 8.86072 22.3118 8.69535 22.3872 8.51334C22.4626 8.33133 22.5014 8.13625 22.5014 7.93924C22.5014 7.74222 22.4626 7.54714 22.3872 7.36513C22.3118 7.18312 22.2013 7.01775 22.062 6.87846ZM7.93946 21L3.00071 16.0603L6.00071 13.0603L8.47009 15.5306C8.53977 15.6003 8.62249 15.6556 8.71354 15.6933C8.80458 15.731 8.90217 15.7504 9.00071 15.7504C9.09926 15.7504 9.19684 15.731 9.28788 15.6933C9.37893 15.6556 9.46165 15.6003 9.53134 15.5306C9.60102 15.461 9.65629 15.3782 9.69401 15.2872C9.73172 15.1961 9.75113 15.0986 9.75113 15C9.75113 14.9015 9.73172 14.8039 9.69401 14.7128C9.65629 14.6218 9.60102 14.5391 9.53134 14.4694L7.06102 12L9.00071 10.0603L11.4701 12.5306C11.6108 12.6714 11.8017 12.7504 12.0007 12.7504C12.1997 12.7504 12.3906 12.6714 12.5313 12.5306C12.6721 12.3899 12.7511 12.199 12.7511 12C12.7511 11.801 12.6721 11.6101 12.5313 11.4694L10.061 9.00002L12.0007 7.06033L14.4701 9.53064C14.5398 9.60033 14.6225 9.6556 14.7135 9.69331C14.8046 9.73102 14.9022 9.75043 15.0007 9.75043C15.0993 9.75043 15.1968 9.73102 15.2879 9.69331C15.3789 9.6556 15.4617 9.60033 15.5313 9.53064C15.601 9.46096 15.6563 9.37823 15.694 9.28719C15.7317 9.19615 15.7511 9.09856 15.7511 9.00002C15.7511 8.90147 15.7317 8.80389 15.694 8.71284C15.6563 8.6218 15.601 8.53907 15.5313 8.46939L13.061 6.00002L16.061 3.00002L21.0007 7.9397L7.93946 21Z" fill="#2C2E33"/>
</svg>
