<svg width="40" height="40" viewBox="0 0 40 40" fill="none" xmlns="http://www.w3.org/2000/svg">
<path d="M10 20C10.3784 20.0007 10.7565 19.9795 11.1325 19.9365C11.199 19.9306 11.2637 19.9114 11.3227 19.8801C11.3817 19.8488 11.4339 19.806 11.476 19.7542C11.5182 19.7024 11.5496 19.6427 11.5683 19.5786C11.5871 19.5145 11.5927 19.4473 11.5851 19.3809C11.5774 19.3146 11.5565 19.2504 11.5236 19.1923C11.4907 19.1342 11.4465 19.0832 11.3936 19.0424C11.3407 19.0016 11.2802 18.9719 11.2156 18.9549C11.151 18.9379 11.0836 18.934 11.0175 18.9435C10.6797 18.9818 10.34 19.0007 10 19C7.5585 19 6 18.1115 6 17.5V16.032C7.21639 16.7228 8.60233 17.0582 10 17C11.3976 17.0584 12.7836 16.7232 14 16.0325V17.5C14 17.6326 14.0527 17.7598 14.1464 17.8536C14.2402 17.9473 14.3674 18 14.5 18C14.6326 18 14.7598 17.9473 14.8536 17.8536C14.9473 17.7598 15 17.6326 15 17.5V14.5C15 13.075 12.8505 12 10 12C7.1495 12 5 13.075 5 14.5V32.5C5 33.925 7.1495 35 10 35C10.354 34.9994 10.7078 34.981 11.06 34.945C11.1253 34.9384 11.1887 34.9189 11.2465 34.8878C11.3044 34.8567 11.3555 34.8145 11.397 34.7636C11.4385 34.7127 11.4696 34.6541 11.4885 34.5912C11.5073 34.5283 11.5136 34.4623 11.507 34.397C11.5004 34.3317 11.4809 34.2683 11.4498 34.2105C11.4187 34.1526 11.3765 34.1015 11.3256 34.06C11.2747 34.0185 11.2161 33.9874 11.1532 33.9685C11.0903 33.9497 11.0243 33.9434 10.959 33.95C10.6404 33.9829 10.3203 33.9996 10 34C7.5585 34 6 33.1115 6 32.5V31.0325C7.21645 31.7232 8.60238 32.0584 10 32C10.18 32 10.355 31.995 10.53 31.984C10.6606 31.9737 10.782 31.9125 10.8679 31.8136C10.9539 31.7147 10.9976 31.5861 10.9897 31.4553C10.9818 31.3245 10.9228 31.2021 10.8255 31.1143C10.7283 31.0265 10.6004 30.9805 10.4695 30.986C10.3145 30.9955 10.1595 31 9.9995 31C7.558 31 5.9995 30.1115 5.9995 29.5V28.0325C7.21609 28.7233 8.60221 29.0585 10 29C10.18 29 10.355 28.995 10.53 28.984C10.6606 28.9737 10.782 28.9125 10.8679 28.8136C10.9539 28.7147 10.9976 28.5861 10.9897 28.4553C10.9818 28.3245 10.9228 28.2021 10.8255 28.1143C10.7283 28.0265 10.6004 27.9805 10.4695 27.986C10.3145 27.9955 10.1595 28 9.9995 28C7.558 28 5.9995 27.1115 5.9995 26.5V25.0325C7.21609 25.7233 8.60221 26.0585 10 26C10.18 26 10.355 25.995 10.53 25.984C10.6606 25.9737 10.782 25.9125 10.8679 25.8136C10.9539 25.7147 10.9976 25.5861 10.9897 25.4553C10.9818 25.3245 10.9228 25.2021 10.8255 25.1143C10.7283 25.0265 10.6004 24.9805 10.4695 24.986C10.3145 24.9955 10.1595 25 9.9995 25C7.558 25 5.9995 24.1115 5.9995 23.5V22.0325C7.21609 22.7233 8.60221 23.0585 10 23C10.18 23 10.355 22.995 10.53 22.984C10.6606 22.9737 10.782 22.9125 10.8679 22.8136C10.9539 22.7147 10.9976 22.5861 10.9897 22.4553C10.9818 22.3245 10.9228 22.2021 10.8255 22.1143C10.7283 22.0265 10.6004 21.9805 10.4695 21.986C10.3145 21.9955 10.1595 22 9.9995 22C7.558 22 5.9995 21.1115 5.9995 20.5V19.032C7.21604 19.7229 8.60216 20.0583 10 20ZM10 13C12.4415 13 14 13.8885 14 14.5C14 15.1115 12.4415 16 10 16C7.5585 16 6 15.1115 6 14.5C6 13.8885 7.5585 13 10 13ZM32.5 19H14.5C13.8372 19.0008 13.2018 19.2644 12.7331 19.7331C12.2644 20.2018 12.0008 20.8372 12 21.5V32.5C12.0008 33.1628 12.2644 33.7982 12.7331 34.2669C13.2018 34.7356 13.8372 34.9992 14.5 35H32.5C33.1628 34.9992 33.7982 34.7356 34.2669 34.2669C34.7356 33.7982 34.9992 33.1628 35 32.5V21.5C34.9992 20.8372 34.7356 20.2018 34.2669 19.7331C33.7982 19.2644 33.1628 19.0008 32.5 19ZM27.5 22H30.05C30.1489 22.48 30.3863 22.9206 30.7329 23.2671C31.0794 23.6137 31.52 23.8511 32 23.95V28.05C31.52 28.1489 31.0794 28.3863 30.7329 28.7329C30.3863 29.0794 30.1489 29.52 30.05 30H27.5V22ZM19.5 34H14.5C14.1023 33.9996 13.721 33.8414 13.4398 33.5602C13.1586 33.279 13.0004 32.8977 13 32.5V32.487C13.4302 32.8178 13.9573 32.9981 14.5 33H19.5V34ZM19.5 30H16.95C16.8511 29.52 16.6137 29.0794 16.2671 28.7329C15.9206 28.3863 15.48 28.1489 15 28.05V23.95C15.48 23.8511 15.9206 23.6137 16.2671 23.2671C16.6137 22.9206 16.8511 22.48 16.95 22H19.5V30ZM19.5 21H16.5C16.3674 21 16.2402 21.0527 16.1464 21.1464C16.0527 21.2402 16 21.3674 16 21.5C15.9996 21.8977 15.8414 22.279 15.5602 22.5602C15.279 22.8414 14.8977 22.9996 14.5 23C14.3674 23 14.2402 23.0527 14.1464 23.1464C14.0527 23.2402 14 23.3674 14 23.5V28.5C14 28.6326 14.0527 28.7598 14.1464 28.8536C14.2402 28.9473 14.3674 29 14.5 29C14.8977 29.0004 15.279 29.1586 15.5602 29.4398C15.8414 29.721 15.9996 30.1023 16 30.5C16 30.6326 16.0527 30.7598 16.1464 30.8536C16.2402 30.9473 16.3674 31 16.5 31H19.5V32H14.5C14.1023 31.9996 13.721 31.8414 13.4398 31.5602C13.1586 31.279 13.0004 30.8977 13 30.5V21.5C13.0004 21.1023 13.1586 20.721 13.4398 20.4398C13.721 20.1586 14.1023 20.0004 14.5 20H19.5V21ZM26.5 34H20.5V20H26.5V34ZM34 32.5C33.9996 32.8977 33.8414 33.279 33.5602 33.5602C33.279 33.8414 32.8977 33.9996 32.5 34H27.5V33H32.5C33.0427 32.9981 33.5698 32.8178 34 32.487V32.5ZM34 30.5C33.9996 30.8977 33.8414 31.279 33.5602 31.5602C33.279 31.8414 32.8977 31.9996 32.5 32H27.5V31H30.5C30.6326 31 30.7598 30.9473 30.8536 30.8536C30.9473 30.7598 31 30.6326 31 30.5C31.0004 30.1023 31.1586 29.721 31.4398 29.4398C31.721 29.1586 32.1023 29.0004 32.5 29C32.6326 29 32.7598 28.9473 32.8536 28.8536C32.9473 28.7598 33 28.6326 33 28.5V23.5C33 23.3674 32.9473 23.2402 32.8536 23.1464C32.7598 23.0527 32.6326 23 32.5 23C32.1023 22.9996 31.721 22.8414 31.4398 22.5602C31.1586 22.279 31.0004 21.8977 31 21.5C31 21.3674 30.9473 21.2402 30.8536 21.1464C30.7598 21.0527 30.6326 21 30.5 21H27.5V20H32.5C32.8977 20.0004 33.279 20.1586 33.5602 20.4398C33.8414 20.721 33.9996 21.1023 34 21.5V30.5ZM24.5 28.25C24.4997 28.0512 24.4206 27.8606 24.28 27.72C24.1394 27.5794 23.9488 27.5003 23.75 27.5H23.25C22.8074 27.5018 22.3807 27.3354 22.056 27.0345C21.7314 26.7337 21.5332 26.3208 21.5015 25.8793C21.4697 25.4378 21.6068 25.0008 21.885 24.6566C22.1632 24.3123 22.5617 24.0866 23 24.025V23.5C23 23.3674 23.0527 23.2402 23.1464 23.1464C23.2402 23.0527 23.3674 23 23.5 23C23.6326 23 23.7598 23.0527 23.8536 23.1464C23.9473 23.2402 24 23.3674 24 23.5V24H25C25.1326 24 25.2598 24.0527 25.3536 24.1464C25.4473 24.2402 25.5 24.3674 25.5 24.5C25.5 24.6326 25.4473 24.7598 25.3536 24.8536C25.2598 24.9473 25.1326 25 25 25H23.25C23.0511 25 22.8603 25.079 22.7197 25.2197C22.579 25.3603 22.5 25.5511 22.5 25.75C22.5 25.9489 22.579 26.1397 22.7197 26.2803C22.8603 26.421 23.0511 26.5 23.25 26.5H23.75C24.1926 26.4982 24.6193 26.6646 24.944 26.9655C25.2686 27.2663 25.4668 27.6792 25.4985 28.1207C25.5303 28.5622 25.3932 28.9992 25.115 29.3434C24.8368 29.6877 24.4383 29.9134 24 29.975V30.5C24 30.6326 23.9473 30.7598 23.8536 30.8536C23.7598 30.9473 23.6326 31 23.5 31C23.3674 31 23.2402 30.9473 23.1464 30.8536C23.0527 30.7598 23 30.6326 23 30.5V30H22C21.8674 30 21.7402 29.9473 21.6464 29.8536C21.5527 29.7598 21.5 29.6326 21.5 29.5C21.5 29.3674 21.5527 29.2402 21.6464 29.1464C21.7402 29.0527 21.8674 29 22 29H23.75C23.9488 28.9997 24.1394 28.9206 24.28 28.78C24.4206 28.6394 24.4997 28.4488 24.5 28.25ZM27 14.5C27 14.0055 26.8534 13.5222 26.5787 13.1111C26.304 12.7 25.9135 12.3795 25.4567 12.1903C24.9999 12.0011 24.4972 11.9516 24.0123 12.048C23.5273 12.1445 23.0819 12.3826 22.7322 12.7322C22.3826 13.0819 22.1445 13.5273 22.048 14.0123C21.9516 14.4972 22.0011 14.9999 22.1903 15.4567C22.3795 15.9135 22.7 16.304 23.1111 16.5787C23.5222 16.8534 24.0055 17 24.5 17C25.1628 16.9992 25.7982 16.7356 26.2669 16.2669C26.7356 15.7982 26.9992 15.1628 27 14.5ZM23 14.5C23 14.2033 23.088 13.9133 23.2528 13.6666C23.4176 13.42 23.6519 13.2277 23.926 13.1142C24.2001 13.0006 24.5017 12.9709 24.7926 13.0288C25.0836 13.0867 25.3509 13.2296 25.5607 13.4393C25.7704 13.6491 25.9133 13.9164 25.9712 14.2074C26.0291 14.4983 25.9993 14.7999 25.8858 15.074C25.7723 15.3481 25.58 15.5824 25.3334 15.7472C25.0867 15.912 24.7967 16 24.5 16C24.1023 15.9996 23.721 15.8414 23.4398 15.5602C23.1586 15.279 23.0004 14.8977 23 14.5ZM35 13V16C35 16.0929 34.9741 16.1839 34.9253 16.2629C34.8765 16.3419 34.8067 16.4057 34.7236 16.4472C34.6406 16.4887 34.5476 16.5063 34.4551 16.498C34.3626 16.4896 34.2743 16.4557 34.2 16.4L33 15.5V17.5C33 17.6326 32.9473 17.7598 32.8536 17.8536C32.7598 17.9473 32.6326 18 32.5 18C32.3674 18 32.2402 17.9473 32.1464 17.8536C32.0527 17.7598 32 17.6326 32 17.5V14.75L24.5 9.125L17 14.75V17.5C17 17.6326 16.9473 17.7598 16.8536 17.8536C16.7598 17.9473 16.6326 18 16.5 18C16.3674 18 16.2402 17.9473 16.1464 17.8536C16.0527 17.7598 16 17.6326 16 17.5V14.5C15.9999 14.4224 16.018 14.3458 16.0527 14.2763C16.0874 14.2069 16.1378 14.1465 16.2 14.1L24.2 8.1C24.2865 8.03509 24.3918 8 24.5 8C24.6082 8 24.7135 8.03509 24.8 8.1L34 15V13.25L24.5 6.125L15.8 12.65C15.6939 12.7296 15.5606 12.7637 15.4293 12.745C15.298 12.7262 15.1796 12.6561 15.1 12.55C15.0204 12.4439 14.9863 12.3106 15.005 12.1793C15.0238 12.048 15.0939 11.9296 15.2 11.85L24.2 5.1C24.2865 5.03509 24.3918 5 24.5 5C24.6082 5 24.7135 5.03509 24.8 5.1L34.8 12.6C34.8622 12.6465 34.9126 12.7069 34.9473 12.7763C34.982 12.8458 35.0001 12.9224 35 13Z" fill="#06A788"/>
</svg>
