<svg width="50" height="51" viewBox="0 0 50 51" fill="none" xmlns="http://www.w3.org/2000/svg">
<path d="M35.1125 21.0292C35.3081 20.8336 35.418 20.5683 35.418 20.2917C35.418 20.0151 35.3081 19.7498 35.1125 19.5542C34.9169 19.3586 34.6516 19.2487 34.375 19.2487C34.0984 19.2487 33.8331 19.3586 33.6375 19.5542L23.6542 29.5396C23.5574 29.6366 23.4425 29.7136 23.3159 29.7661C23.1894 29.8186 23.0537 29.8456 22.9167 29.8456C22.7797 29.8456 22.644 29.8186 22.5174 29.7661C22.3909 29.7136 22.2759 29.6366 22.1792 29.5396L16.3625 23.7208C16.1669 23.5252 15.9016 23.4154 15.625 23.4154C15.3484 23.4154 15.0831 23.5252 14.8875 23.7208C14.6919 23.9164 14.582 24.1817 14.582 24.4583C14.582 24.735 14.6919 25.0002 14.8875 25.1958L20.7063 31.0125C20.9965 31.3029 21.3411 31.5333 21.7203 31.6904C22.0996 31.8476 22.5061 31.9285 22.9167 31.9285C23.3272 31.9285 23.7338 31.8476 24.113 31.6904C24.4923 31.5333 24.8369 31.3029 25.1271 31.0125L35.1125 21.0292Z" fill="#C79E34"/>
<path fill-rule="evenodd" clip-rule="evenodd" d="M27.1957 4.26875C25.7666 3.81744 24.2331 3.81744 22.804 4.26875L9.26234 8.54375C7.78365 9.01073 6.49233 9.93695 5.57595 11.1879C4.65957 12.4388 4.16585 13.9493 4.1665 15.5V25.5C4.1665 28.2917 5.20817 33.4521 8.31026 37.9417C11.4498 42.4854 16.7019 46.3333 24.9998 46.3333C33.2978 46.3333 38.5498 42.4854 41.6894 37.9417C44.7936 33.4521 45.8332 28.2917 45.8332 25.5V15.4979C45.8334 13.9476 45.3395 12.4376 44.4231 11.187C43.5068 9.93653 42.2157 9.01062 40.7373 8.54375L27.1957 4.26875ZM23.4311 6.25417C24.4521 5.93168 25.5476 5.93168 26.5686 6.25417L40.1103 10.5313C41.1661 10.8648 42.0881 11.526 42.7426 12.4191C43.3971 13.3123 43.7499 14.3907 43.7498 15.4979V25.5C43.7498 27.9167 42.8123 32.6521 39.9769 36.7563C37.179 40.8063 32.5353 44.25 24.9998 44.25C17.4644 44.25 12.8207 40.8063 10.0228 36.7563C7.18942 32.6521 6.24984 27.9167 6.24984 25.5V15.4979C6.24979 14.3907 6.60261 13.3123 7.25708 12.4191C7.91155 11.526 8.83361 10.8648 9.88942 10.5313L23.4311 6.25417Z" fill="#C79E34"/>
</svg>
