<svg width="25" height="24" viewBox="0 0 25 24" fill="none" xmlns="http://www.w3.org/2000/svg">
<path d="M4.08398 8.25002H7.17773C7.34296 8.89533 7.71826 9.4673 8.24447 9.87575C8.77067 10.2842 9.41786 10.5059 10.084 10.5059C10.7501 10.5059 11.3973 10.2842 11.9235 9.87575C12.4497 9.4673 12.825 8.89533 12.9902 8.25002H20.584C20.7829 8.25002 20.9737 8.17101 21.1143 8.03035C21.255 7.8897 21.334 7.69894 21.334 7.50002C21.334 7.30111 21.255 7.11035 21.1143 6.96969C20.9737 6.82904 20.7829 6.75002 20.584 6.75002H12.9902C12.825 6.10471 12.4497 5.53274 11.9235 5.12429C11.3973 4.71584 10.7501 4.49414 10.084 4.49414C9.41786 4.49414 8.77067 4.71584 8.24447 5.12429C7.71826 5.53274 7.34296 6.10471 7.17773 6.75002H4.08398C3.88507 6.75002 3.69431 6.82904 3.55365 6.96969C3.413 7.11035 3.33398 7.30111 3.33398 7.50002C3.33398 7.69894 3.413 7.8897 3.55365 8.03035C3.69431 8.17101 3.88507 8.25002 4.08398 8.25002ZM10.084 6.00002C10.3807 6.00002 10.6707 6.088 10.9173 6.25282C11.164 6.41764 11.3563 6.65191 11.4698 6.926C11.5833 7.20009 11.613 7.50169 11.5552 7.79266C11.4973 8.08363 11.3544 8.3509 11.1446 8.56068C10.9349 8.77046 10.6676 8.91332 10.3766 8.9712C10.0856 9.02908 9.78405 8.99937 9.50996 8.88584C9.23587 8.77231 9.0016 8.58005 8.83678 8.33338C8.67196 8.0867 8.58398 7.7967 8.58398 7.50002C8.58398 7.1022 8.74202 6.72067 9.02332 6.43936C9.30463 6.15806 9.68616 6.00002 10.084 6.00002ZM20.584 15.75H18.9902C18.825 15.1047 18.4497 14.5327 17.9235 14.1243C17.3973 13.7158 16.7501 13.4941 16.084 13.4941C15.4179 13.4941 14.7707 13.7158 14.2445 14.1243C13.7183 14.5327 13.343 15.1047 13.1777 15.75H4.08398C3.88507 15.75 3.69431 15.829 3.55365 15.9697C3.413 16.1103 3.33398 16.3011 3.33398 16.5C3.33398 16.6989 3.413 16.8897 3.55365 17.0304C3.69431 17.171 3.88507 17.25 4.08398 17.25H13.1777C13.343 17.8953 13.7183 18.4673 14.2445 18.8758C14.7707 19.2842 15.4179 19.5059 16.084 19.5059C16.7501 19.5059 17.3973 19.2842 17.9235 18.8758C18.4497 18.4673 18.825 17.8953 18.9902 17.25H20.584C20.7829 17.25 20.9737 17.171 21.1143 17.0304C21.255 16.8897 21.334 16.6989 21.334 16.5C21.334 16.3011 21.255 16.1103 21.1143 15.9697C20.9737 15.829 20.7829 15.75 20.584 15.75ZM16.084 18C15.7873 18 15.4973 17.912 15.2506 17.7472C15.004 17.5824 14.8117 17.3481 14.6982 17.074C14.5846 16.8 14.5549 16.4984 14.6128 16.2074C14.6707 15.9164 14.8135 15.6491 15.0233 15.4394C15.2331 15.2296 15.5004 15.0867 15.7913 15.0288C16.0823 14.971 16.3839 15.0007 16.658 15.1142C16.9321 15.2277 17.1664 15.42 17.3312 15.6667C17.496 15.9133 17.584 16.2034 17.584 16.5C17.584 16.8978 17.4259 17.2794 17.1446 17.5607C16.8633 17.842 16.4818 18 16.084 18Z" fill="#2C2E33"/>
</svg>
