<svg width="20" height="21" viewBox="0 0 20 21" fill="none" xmlns="http://www.w3.org/2000/svg">
<g clip-path="url(#clip0_4592_188)">
<path d="M19.9963 3.84671V0.890468C19.9963 0.674843 19.8215 0.5 19.6058 0.5H16.6496C16.4339 0.5 16.259 0.674882 16.259 0.890468V1.97445H16.2383C16.2317 1.97445 16.2251 1.97461 16.2185 1.97492C16.212 1.97461 16.2055 1.97445 16.199 1.97445H16.1598C16.1532 1.97445 16.1467 1.97461 16.1403 1.97492C16.1337 1.97461 16.1272 1.97445 16.1206 1.97445H16.0814C16.0748 1.97445 16.0683 1.97461 16.0619 1.97492C16.0554 1.97461 16.0488 1.97445 16.0423 1.97445H16.0031C15.9966 1.97445 15.99 1.97461 15.9834 1.97492C15.9769 1.97461 15.9704 1.97445 15.9639 1.97445H15.9247C15.9181 1.97445 15.9116 1.97461 15.9051 1.97492C15.8986 1.97461 15.892 1.97445 15.8855 1.97445H15.8462C15.8397 1.97445 15.8333 1.97461 15.8267 1.97492C15.8202 1.97461 15.8137 1.97445 15.8072 1.97445H15.768C15.7614 1.97445 15.7548 1.97461 15.7484 1.97492C15.7419 1.97461 15.7353 1.97445 15.7287 1.97445H15.6895C15.683 1.97445 15.6766 1.97461 15.67 1.97492C15.6635 1.97461 15.657 1.97445 15.6505 1.97445H15.6112C15.6047 1.97445 15.5982 1.97461 15.5916 1.97492C15.5851 1.97461 15.5786 1.97445 15.5721 1.97445H15.5328C15.5263 1.97445 15.5199 1.97461 15.5133 1.97492C15.5068 1.97461 15.5003 1.97445 15.4938 1.97445H15.4546C15.448 1.97445 15.4414 1.97461 15.4349 1.97492C15.4284 1.97461 15.4219 1.97445 15.4153 1.97445H15.3761C15.3696 1.97445 15.363 1.97461 15.3566 1.97492C15.35 1.97461 15.3435 1.97445 15.3369 1.97445H15.2977C15.2911 1.97445 15.2847 1.97461 15.2782 1.97492C15.2717 1.97461 15.2651 1.97445 15.2586 1.97445H15.2194C15.2128 1.97445 15.2063 1.97461 15.1997 1.97492C15.1932 1.97461 15.1867 1.97445 15.1802 1.97445H15.141C15.1344 1.97445 15.1278 1.97461 15.1214 1.97492C15.1149 1.97461 15.1083 1.97445 15.1018 1.97445H15.0627C15.0562 1.97445 15.0496 1.97461 15.043 1.97492C15.0365 1.97461 15.03 1.97445 15.0235 1.97445H14.9843C14.9777 1.97445 14.9712 1.97461 14.9648 1.97492C14.9582 1.97461 14.9516 1.97445 14.9451 1.97445H14.906C14.8994 1.97445 14.8929 1.97461 14.8863 1.97492C14.8798 1.97461 14.8733 1.97445 14.8668 1.97445H14.8276C14.821 1.97445 14.8144 1.97461 14.808 1.97492C14.8015 1.97461 14.7949 1.97445 14.7884 1.97445H14.7493C14.7427 1.97445 14.7362 1.97461 14.7296 1.97492C14.7231 1.97461 14.7166 1.97445 14.7101 1.97445H14.6709C14.6643 1.97445 14.6577 1.97461 14.6513 1.97492C14.6448 1.97461 14.6382 1.97445 14.6316 1.97445H14.5924C14.5859 1.97445 14.5793 1.97461 14.5729 1.97492C14.5663 1.97461 14.5598 1.97445 14.5532 1.97445H14.5142C14.5076 1.97445 14.501 1.97461 14.4945 1.97492C14.488 1.97461 14.4815 1.97445 14.475 1.97445H14.4357C14.4292 1.97445 14.4226 1.97461 14.4162 1.97492C14.4096 1.97461 14.4031 1.97445 14.3965 1.97445H14.3573C14.3507 1.97445 14.3443 1.97461 14.3378 1.97492C14.3313 1.97461 14.3247 1.97445 14.3182 1.97445H14.279C14.2725 1.97445 14.2659 1.97461 14.2595 1.97492C14.2529 1.97461 14.2464 1.97445 14.2398 1.97445H14.2006C14.194 1.97445 14.1876 1.97461 14.181 1.97492C14.1745 1.97461 14.168 1.97445 14.1615 1.97445H14.1223C14.1157 1.97445 14.1092 1.97461 14.1026 1.97492C14.0961 1.97461 14.0896 1.97445 14.0831 1.97445H14.0439C14.0373 1.97445 14.0308 1.97461 14.0243 1.97492C14.0178 1.97461 14.0113 1.97445 14.0048 1.97445H13.9656C13.9591 1.97445 13.9525 1.97461 13.9459 1.97492C13.9394 1.97461 13.9329 1.97445 13.9264 1.97445H13.8872C13.8806 1.97445 13.8741 1.97461 13.8677 1.97492C13.8611 1.97461 13.8545 1.97445 13.848 1.97445H13.8087C13.8022 1.97445 13.7958 1.97461 13.7892 1.97492C13.7827 1.97461 13.7762 1.97445 13.7697 1.97445H13.7305C13.7239 1.97445 13.7173 1.97461 13.7108 1.97492C13.7043 1.97461 13.6978 1.97445 13.6912 1.97445H13.652C13.6455 1.97445 13.6389 1.97461 13.6325 1.97492C13.6259 1.97461 13.6194 1.97445 13.6128 1.97445H13.5737C13.5672 1.97445 13.5606 1.97461 13.5541 1.97492C13.5476 1.97461 13.541 1.97445 13.5345 1.97445H13.4953C13.4888 1.97445 13.4822 1.97461 13.4758 1.97492C13.4692 1.97461 13.4627 1.97445 13.4561 1.97445H13.4171C13.4105 1.97445 13.4039 1.97461 13.3974 1.97492C13.3909 1.97461 13.3844 1.97445 13.3778 1.97445H13.3386C13.3321 1.97445 13.3255 1.97461 13.3191 1.97492C13.3125 1.97461 13.306 1.97445 13.2994 1.97445H13.2603C13.2538 1.97445 13.2472 1.97461 13.2407 1.97492C13.2342 1.97461 13.2276 1.97445 13.2211 1.97445H13.1819C13.1753 1.97445 13.1688 1.97461 13.1622 1.97492C13.1557 1.97461 13.1492 1.97445 13.1427 1.97445H13.1035C13.0969 1.97445 13.0903 1.97461 13.0839 1.97492C13.0774 1.97461 13.0708 1.97445 13.0643 1.97445H13.0252C13.0186 1.97445 13.0121 1.97461 13.0057 1.97492C12.9991 1.97461 12.9925 1.97445 12.986 1.97445H12.9468C12.9402 1.97445 12.9337 1.97461 12.9273 1.97492C12.9207 1.97461 12.9141 1.97445 12.9076 1.97445H12.8685C12.8619 1.97445 12.8554 1.97461 12.8488 1.97492C12.8423 1.97461 12.8358 1.97445 12.8293 1.97445H12.7901C12.7835 1.97445 12.7769 1.97461 12.7704 1.97492C12.7639 1.97461 12.7574 1.97445 12.7509 1.97445H12.7116C12.7051 1.97445 12.6987 1.97461 12.6921 1.97492C12.6856 1.97461 12.6791 1.97445 12.6726 1.97445H12.6334C12.6268 1.97445 12.6202 1.97461 12.6137 1.97492C12.6072 1.97461 12.6007 1.97445 12.5941 1.97445H12.5549C12.5484 1.97445 12.5418 1.97461 12.5354 1.97492C12.5288 1.97461 12.5223 1.97445 12.5157 1.97445H12.4766C12.4701 1.97445 12.4635 1.97461 12.457 1.97492C12.4504 1.97461 12.4439 1.97445 12.4374 1.97445H12.3982C12.3917 1.97445 12.3851 1.97461 12.3787 1.97492C12.3722 1.97461 12.3656 1.97445 12.359 1.97445H12.3198C12.3132 1.97445 12.3068 1.97461 12.3003 1.97492C12.2938 1.97461 12.2873 1.97445 12.2807 1.97445H12.2415C12.235 1.97445 12.2284 1.97461 12.222 1.97492C12.2154 1.97461 12.2089 1.97445 12.2023 1.97445H12.1631C12.1565 1.97445 12.1501 1.97461 12.1436 1.97492C12.137 1.97461 12.1305 1.97445 12.124 1.97445H12.0848C12.0782 1.97445 12.0717 1.97461 12.0651 1.97492C12.0586 1.97461 12.0521 1.97445 12.0456 1.97445H12.0064C11.9998 1.97445 11.9932 1.97461 11.9868 1.97492C11.9803 1.97461 11.9737 1.97445 11.9671 1.97445H11.9281C11.9215 1.97445 11.915 1.97461 11.9084 1.97492C11.9019 1.97461 11.8954 1.97445 11.8889 1.97445H11.868V0.890468C11.868 0.674843 11.6931 0.5 11.4773 0.5H8.52129C8.30551 0.5 8.13067 0.674882 8.13067 0.890468V1.97445H8.10973C8.10317 1.97445 8.09661 1.97461 8.0902 1.97492C8.08364 1.97461 8.07708 1.97445 8.07051 1.97445H8.03145C8.02493 1.97445 8.01837 1.97461 8.0118 1.97492C8.0053 1.97461 7.99879 1.97445 7.99227 1.97445H7.95305C7.94649 1.97445 7.93993 1.97461 7.93337 1.97492C7.92686 1.97461 7.92035 1.97445 7.91384 1.97445H7.87462C7.86805 1.97445 7.86149 1.97461 7.85509 1.97492C7.84853 1.97461 7.84196 1.97445 7.8354 1.97445H7.79634C7.78977 1.97445 7.78321 1.97461 7.77665 1.97492C7.77014 1.97461 7.76363 1.97445 7.75712 1.97445H7.7179C7.71134 1.97445 7.70477 1.97461 7.69837 1.97492C7.69181 1.97461 7.68525 1.97445 7.67868 1.97445H7.63962C7.63305 1.97445 7.62649 1.97461 7.61993 1.97492C7.61342 1.97461 7.60691 1.97445 7.6004 1.97445H7.56118C7.55462 1.97445 7.54805 1.97461 7.54165 1.97492C7.5351 1.97461 7.52855 1.97445 7.522 1.97445H7.48278C7.47622 1.97445 7.46981 1.97461 7.46325 1.97492C7.45674 1.97461 7.45023 1.97445 7.44372 1.97445H7.4045C7.39794 1.97445 7.39138 1.97461 7.38497 1.97492C7.37841 1.97461 7.37185 1.97445 7.36528 1.97445H7.32606C7.3195 1.97445 7.31294 1.97461 7.30653 1.97492C7.29997 1.97461 7.29341 1.97445 7.28684 1.97445H7.24778C7.24122 1.97445 7.23466 1.97461 7.22809 1.97492C7.22159 1.97461 7.21508 1.97445 7.20856 1.97445H7.16934C7.16278 1.97445 7.15622 1.97461 7.14981 1.97492C7.14326 1.97461 7.13669 1.97445 7.13013 1.97445H7.09091C7.08434 1.97445 7.07794 1.97461 7.07138 1.97492C7.06487 1.97461 7.05836 1.97445 7.05184 1.97445H7.01263C7.00606 1.97445 6.99954 1.97461 6.99309 1.97492C6.98655 1.97461 6.98 1.97445 6.97345 1.97445H6.93423C6.92767 1.97445 6.92126 1.97461 6.9147 1.97492C6.90819 1.97461 6.90168 1.97445 6.89517 1.97445H6.85595C6.84938 1.97445 6.84282 1.97461 6.83626 1.97492C6.82975 1.97461 6.82324 1.97445 6.81673 1.97445H6.77751C6.77095 1.97445 6.76438 1.97461 6.75798 1.97492C6.75142 1.97461 6.74486 1.97445 6.73829 1.97445H6.69923C6.69267 1.97445 6.6861 1.97461 6.67954 1.97492C6.67304 1.97461 6.66652 1.97445 6.66001 1.97445H6.62079C6.61423 1.97445 6.60767 1.97461 6.60126 1.97492C6.5947 1.97461 6.58814 1.97445 6.58157 1.97445H6.54235C6.53579 1.97445 6.52938 1.97461 6.52282 1.97492C6.51632 1.97461 6.5098 1.97445 6.50329 1.97445H6.46407C6.45755 1.97445 6.45099 1.97461 6.44454 1.97492C6.438 1.97461 6.43145 1.97445 6.42489 1.97445H6.38567C6.37911 1.97445 6.37255 1.97461 6.36614 1.97492C6.35959 1.97461 6.35302 1.97445 6.34646 1.97445H6.30739C6.30083 1.97445 6.29427 1.97461 6.28771 1.97492C6.2812 1.97461 6.27469 1.97445 6.26817 1.97445H6.22896C6.22239 1.97445 6.21583 1.97461 6.20942 1.97492C6.20287 1.97461 6.1963 1.97445 6.18974 1.97445H6.15067C6.14411 1.97445 6.13755 1.97461 6.13099 1.97492C6.12448 1.97461 6.11797 1.97445 6.11146 1.97445H6.07224C6.06567 1.97445 6.05911 1.97461 6.05271 1.97492C6.04615 1.97461 6.03958 1.97445 6.03302 1.97445H5.9938C5.98724 1.97445 5.98083 1.97461 5.97427 1.97492C5.96776 1.97461 5.96125 1.97445 5.95474 1.97445H5.91556C5.909 1.97445 5.90243 1.97461 5.89587 1.97492C5.88936 1.97461 5.88285 1.97445 5.87634 1.97445H5.83712C5.83056 1.97445 5.824 1.97461 5.81759 1.97492C5.81103 1.97461 5.80447 1.97445 5.7979 1.97445H5.75884C5.75228 1.97445 5.74571 1.97461 5.73915 1.97492C5.73265 1.97461 5.72613 1.97445 5.71962 1.97445H5.6804C5.67384 1.97445 5.66728 1.97461 5.66087 1.97492C5.65431 1.97461 5.64775 1.97445 5.64118 1.97445H5.60196C5.5954 1.97445 5.589 1.97461 5.58243 1.97492C5.57593 1.97461 5.56942 1.97445 5.5629 1.97445H5.52368C5.51712 1.97445 5.51056 1.97461 5.50415 1.97492C5.49759 1.97461 5.49103 1.97445 5.48446 1.97445H5.44525C5.43868 1.97445 5.43228 1.97461 5.42571 1.97492C5.41921 1.97461 5.4127 1.97445 5.40618 1.97445H5.367C5.36044 1.97445 5.35388 1.97461 5.34732 1.97492C5.34081 1.97461 5.3343 1.97445 5.32779 1.97445H5.28857C5.282 1.97445 5.27544 1.97461 5.26904 1.97492C5.26253 1.97461 5.25602 1.97445 5.2495 1.97445H5.21029C5.20372 1.97445 5.19716 1.97461 5.1906 1.97492C5.18409 1.97461 5.17758 1.97445 5.17107 1.97445H5.13185C5.12529 1.97445 5.11872 1.97461 5.11232 1.97492C5.10576 1.97461 5.0992 1.97445 5.09263 1.97445H5.05341C5.04685 1.97445 5.04044 1.97461 5.03388 1.97492C5.02737 1.97461 5.02086 1.97445 5.01435 1.97445H4.97513C4.96857 1.97445 4.96201 1.97461 4.9556 1.97492C4.94904 1.97461 4.94248 1.97445 4.93591 1.97445H4.89669C4.89017 1.97445 4.88372 1.97461 4.87716 1.97492C4.87066 1.97461 4.86414 1.97445 4.85763 1.97445H4.81845C4.81189 1.97445 4.80533 1.97461 4.79876 1.97492C4.79226 1.97461 4.78575 1.97445 4.77923 1.97445H4.74001C4.73345 1.97445 4.72689 1.97461 4.72048 1.97492C4.71392 1.97461 4.70736 1.97445 4.70079 1.97445H4.66173C4.65517 1.97445 4.64861 1.97461 4.64205 1.97492C4.63554 1.97461 4.62903 1.97445 4.62251 1.97445H4.58329C4.57673 1.97445 4.57017 1.97461 4.56361 1.97492C4.5571 1.97461 4.55059 1.97445 4.54408 1.97445H4.50486C4.49829 1.97445 4.49173 1.97461 4.48533 1.97492C4.47882 1.97461 4.47231 1.97445 4.4658 1.97445H4.42658C4.42001 1.97445 4.41345 1.97461 4.40689 1.97492C4.40038 1.97461 4.39387 1.97445 4.38736 1.97445H4.34818C4.34162 1.97445 4.33505 1.97461 4.32865 1.97492C4.32209 1.97461 4.31552 1.97445 4.30896 1.97445H4.2699C4.26333 1.97445 4.25677 1.97461 4.25021 1.97492C4.2437 1.97461 4.23719 1.97445 4.23068 1.97445H4.19142C4.18486 1.97445 4.1783 1.97461 4.17189 1.97492C4.16533 1.97461 4.15877 1.97445 4.1522 1.97445H4.11314C4.10658 1.97445 4.10001 1.97461 4.09345 1.97492C4.08695 1.97461 4.08043 1.97445 4.07392 1.97445H4.0347C4.02814 1.97445 4.02158 1.97461 4.01517 1.97492C4.00861 1.97461 4.00205 1.97445 3.99548 1.97445H3.95626C3.9497 1.97445 3.9433 1.97461 3.93673 1.97492C3.93023 1.97461 3.92372 1.97445 3.9172 1.97445H3.87587C3.86931 1.97445 3.86275 1.97461 3.85619 1.97492C3.84968 1.97461 3.84317 1.97445 3.83666 1.97445H3.79744C3.79087 1.97445 3.78431 1.97461 3.77775 1.97492C3.77124 1.97461 3.76473 1.97445 3.75822 1.97445H3.73732V0.890468C3.73736 0.674843 3.56248 0.5 3.34689 0.5H0.390647C0.174905 0.5 2.28882e-05 0.674882 2.28882e-05 0.890468V3.84671C2.28882e-05 4.06234 0.174905 4.23718 0.390647 4.23718H1.47447V4.25839C1.47447 4.26495 1.47463 4.27152 1.47494 4.27808C1.47463 4.28448 1.47447 4.29105 1.47447 4.29761V4.33683C1.47447 4.34339 1.47463 4.34995 1.47494 4.35652C1.47463 4.36292 1.47447 4.36948 1.47447 4.37605V4.41523C1.47447 4.42179 1.47463 4.42835 1.47494 4.43491C1.47463 4.44132 1.47447 4.44788 1.47447 4.45445V4.49382C1.47447 4.50038 1.47463 4.50695 1.47494 4.51335C1.47463 4.51991 1.47447 4.52648 1.47447 4.53304V4.57226C1.47447 4.57882 1.47463 4.58538 1.47494 4.59179C1.47463 4.59835 1.47447 4.60491 1.47447 4.61148V4.65069C1.47447 4.65726 1.47463 4.66382 1.47494 4.67023C1.47463 4.67679 1.47447 4.68335 1.47447 4.68991V4.72913C1.47447 4.73569 1.47463 4.74226 1.47494 4.74882C1.47463 4.75523 1.47447 4.76179 1.47447 4.76835V4.80753C1.47447 4.81409 1.47463 4.82066 1.47494 4.82722C1.47463 4.83362 1.47447 4.84019 1.47447 4.84675V4.88597C1.47447 4.89253 1.47463 4.89909 1.47494 4.90566C1.47463 4.91206 1.47447 4.91862 1.47447 4.92519V4.96441C1.47447 4.97097 1.47463 4.97753 1.47494 4.98409C1.47463 4.9905 1.47447 4.99706 1.47447 5.00362V5.04284C1.47447 5.04956 1.47463 5.05597 1.47494 5.06253C1.47463 5.06909 1.47447 5.07565 1.47447 5.08222V5.12144C1.47447 5.128 1.47463 5.13456 1.47494 5.14097C1.47463 5.14753 1.47447 5.15409 1.47447 5.16066V5.19983C1.47447 5.2064 1.47463 5.21296 1.47494 5.21937C1.47463 5.22593 1.47447 5.23249 1.47447 5.23905V5.27827C1.47447 5.28483 1.47463 5.2914 1.47494 5.2978C1.47463 5.30437 1.47447 5.31093 1.47447 5.31749V5.35671C1.47447 5.36327 1.47463 5.36983 1.47494 5.3764C1.47463 5.3828 1.47447 5.38937 1.47447 5.39593V5.43515C1.47447 5.44171 1.47463 5.44827 1.47494 5.45483C1.47463 5.46124 1.47447 5.4678 1.47447 5.47437V5.51358C1.47447 5.5203 1.47463 5.52671 1.47494 5.53327C1.47463 5.53968 1.47447 5.54624 1.47447 5.5528V5.59198C1.47447 5.59854 1.47463 5.60511 1.47494 5.61167C1.47463 5.61808 1.47447 5.62464 1.47447 5.6312V5.67058C1.47447 5.67714 1.47463 5.6837 1.47494 5.69011C1.47463 5.69667 1.47447 5.70323 1.47447 5.70979V5.74901C1.47447 5.75558 1.47463 5.76214 1.47494 5.76854C1.47463 5.77511 1.47447 5.78167 1.47447 5.78823V5.82745C1.47447 5.83401 1.47463 5.84058 1.47494 5.84698C1.47463 5.85354 1.47447 5.86011 1.47447 5.86667V5.90589C1.47447 5.91245 1.47463 5.91901 1.47494 5.92558C1.47463 5.93198 1.47447 5.93854 1.47447 5.94511V5.98429C1.47447 5.99085 1.47463 5.99741 1.47494 6.00397C1.47463 6.01038 1.47447 6.01694 1.47447 6.0235V6.06272C1.47447 6.06929 1.47463 6.07585 1.47494 6.08241C1.47463 6.08882 1.47447 6.09538 1.47447 6.10194V6.14116C1.47447 6.14772 1.47463 6.15429 1.47494 6.16085C1.47463 6.16725 1.47447 6.17382 1.47447 6.18038V6.2196C1.47447 6.22632 1.47463 6.23272 1.47494 6.23928C1.47463 6.24584 1.47447 6.25241 1.47447 6.25897V6.29819C1.47447 6.30475 1.47463 6.31132 1.47494 6.31772C1.47463 6.32429 1.47447 6.33085 1.47447 6.33741V6.37659C1.47447 6.38315 1.47463 6.38971 1.47494 6.39612C1.47463 6.40268 1.47447 6.40925 1.47447 6.41581V6.45503C1.47447 6.46159 1.47463 6.46815 1.47494 6.47456C1.47463 6.48112 1.47447 6.48768 1.47447 6.49425V6.53346C1.47447 6.54003 1.47463 6.54659 1.47494 6.55315C1.47463 6.55956 1.47447 6.56612 1.47447 6.57268V6.6119C1.47447 6.61846 1.47463 6.62503 1.47494 6.63159C1.47463 6.638 1.47447 6.64456 1.47447 6.65112V6.69034C1.47447 6.6969 1.47463 6.70346 1.47494 6.71003C1.47463 6.71643 1.47447 6.723 1.47447 6.72956V6.76874C1.47447 6.7753 1.47463 6.78186 1.47494 6.78842C1.47463 6.79483 1.47447 6.80139 1.47447 6.80796V6.84733C1.47447 6.85389 1.47463 6.86046 1.47494 6.86686C1.47463 6.87343 1.47447 6.87999 1.47447 6.88655V6.92577C1.47447 6.93233 1.47463 6.93889 1.47494 6.9453C1.47463 6.95186 1.47447 6.95842 1.47447 6.96499V7.00421C1.47447 7.01077 1.47463 7.01733 1.47494 7.02389C1.47463 7.0303 1.47447 7.03686 1.47447 7.04342V7.08264C1.47447 7.08921 1.47463 7.09577 1.47494 7.10217C1.47463 7.10874 1.47447 7.1153 1.47447 7.12186V7.16104C1.47447 7.1676 1.47463 7.17417 1.47494 7.18073C1.47463 7.18713 1.47447 7.1937 1.47447 7.20026V7.23948C1.47447 7.24604 1.47463 7.2526 1.47494 7.25917C1.47463 7.26557 1.47447 7.27213 1.47447 7.2787V7.31792C1.47447 7.32464 1.47463 7.33104 1.47494 7.3376C1.47463 7.34401 1.47447 7.35057 1.47447 7.35713V7.39635C1.47447 7.40307 1.47463 7.40948 1.47494 7.41604C1.47463 7.4226 1.47447 7.42916 1.47447 7.43573V7.47495C1.47447 7.48151 1.47463 7.48807 1.47494 7.49448C1.47463 7.50104 1.47447 7.5076 1.47447 7.51417V7.55335C1.47447 7.55991 1.47463 7.56647 1.47494 7.57288C1.47463 7.57944 1.47447 7.586 1.47447 7.59256V7.63178C1.47447 7.63835 1.47463 7.64491 1.47494 7.65131C1.47463 7.65788 1.47447 7.66444 1.47447 7.671V7.71022C1.47447 7.71678 1.47463 7.72334 1.47494 7.72991C1.47463 7.73631 1.47447 7.74288 1.47447 7.74944V7.78866C1.47447 7.79522 1.47463 7.80178 1.47494 7.80834C1.47463 7.81475 1.47447 7.82131 1.47447 7.82788V7.86709C1.47447 7.87366 1.47463 7.88022 1.47494 7.88678C1.47463 7.89319 1.47447 7.89975 1.47447 7.90631V7.94565C1.47447 7.95221 1.47463 7.95877 1.47494 7.96518C1.47463 7.97159 1.47447 7.97815 1.47447 7.98471V8.02409C1.47447 8.03065 1.47463 8.03721 1.47494 8.04362C1.47463 8.05018 1.47447 8.05674 1.47447 8.06331V8.10252C1.47447 8.10909 1.47463 8.11565 1.47494 8.12206C1.47463 8.12862 1.47447 8.13518 1.47447 8.14174V8.18096C1.47447 8.18752 1.47463 8.19409 1.47494 8.20049C1.47463 8.20705 1.47447 8.21362 1.47447 8.22018V8.2594C1.47447 8.26596 1.47463 8.27252 1.47494 8.27893C1.47463 8.28549 1.47447 8.29205 1.47447 8.29862V8.3378C1.47447 8.34436 1.47463 8.35092 1.47494 8.35748C1.47463 8.36389 1.47447 8.37045 1.47447 8.37702V8.41623C1.47447 8.4228 1.47463 8.42936 1.47494 8.43592C1.47463 8.44233 1.47447 8.44889 1.47447 8.45545V8.49467C1.47447 8.50139 1.47463 8.5078 1.47494 8.51436C1.47463 8.52092 1.47447 8.52748 1.47447 8.53405V8.57311C1.47447 8.57967 1.47463 8.58623 1.47494 8.5928C1.47463 8.5992 1.47447 8.60576 1.47447 8.61233V8.63369H0.390647C0.174905 8.63369 2.28882e-05 8.80854 2.28882e-05 9.02416V11.9804C2.28882e-05 12.196 0.174905 12.3709 0.390647 12.3709H1.47447V12.392C1.47447 12.3986 1.47463 12.4052 1.47494 12.4117C1.47463 12.4181 1.47447 12.4247 1.47447 12.4313V12.4706C1.47447 12.4772 1.47463 12.4838 1.47494 12.4902C1.47463 12.4967 1.47447 12.5033 1.47447 12.5099V12.5491C1.47447 12.5556 1.47463 12.5622 1.47494 12.5686C1.47463 12.5752 1.47447 12.5817 1.47447 12.5883V12.6275C1.47447 12.6341 1.47463 12.6406 1.47494 12.6472C1.47463 12.6536 1.47447 12.6602 1.47447 12.6667V12.706C1.47447 12.7125 1.47463 12.7191 1.47494 12.7256C1.47463 12.732 1.47447 12.7386 1.47447 12.7452V12.7844C1.47447 12.7911 1.47463 12.7975 1.47494 12.804C1.47463 12.8106 1.47447 12.8172 1.47447 12.8237V12.8629C1.47447 12.8695 1.47463 12.8761 1.47494 12.8825C1.47463 12.889 1.47447 12.8956 1.47447 12.9022V12.9414C1.47447 12.9479 1.47463 12.9545 1.47494 12.9609C1.47463 12.9675 1.47447 12.974 1.47447 12.9806V13.0198C1.47447 13.0264 1.47463 13.0329 1.47494 13.0395C1.47463 13.0459 1.47447 13.0525 1.47447 13.059V13.0983C1.47447 13.1048 1.47463 13.1114 1.47494 13.1179C1.47463 13.1243 1.47447 13.1309 1.47447 13.1375V13.1768C1.47447 13.1834 1.47463 13.1899 1.47494 13.1963C1.47463 13.2029 1.47447 13.2095 1.47447 13.216V13.2552C1.47447 13.2618 1.47463 13.2684 1.47494 13.2748C1.47463 13.2813 1.47447 13.2879 1.47447 13.2945V13.3337C1.47447 13.3402 1.47463 13.3468 1.47494 13.3532C1.47463 13.3598 1.47447 13.3663 1.47447 13.3729V13.4121C1.47447 13.4187 1.47463 13.4252 1.47494 13.4318C1.47463 13.4382 1.47447 13.4448 1.47447 13.4513V13.4906C1.47447 13.4972 1.47463 13.5037 1.47494 13.5102C1.47463 13.5168 1.47447 13.5233 1.47447 13.5299V13.5691C1.47447 13.5757 1.47463 13.5822 1.47494 13.5886C1.47463 13.5952 1.47447 13.6018 1.47447 13.6083V13.6476C1.47447 13.6541 1.47463 13.6607 1.47494 13.6671C1.47463 13.6736 1.47447 13.6802 1.47447 13.6868V13.726C1.47447 13.7326 1.47463 13.7391 1.47494 13.7455C1.47463 13.7521 1.47447 13.7586 1.47447 13.7652V13.8044C1.47447 13.811 1.47463 13.8176 1.47494 13.8241C1.47463 13.8305 1.47447 13.8371 1.47447 13.8436V13.8829C1.47447 13.8895 1.47463 13.896 1.47494 13.9025C1.47463 13.9091 1.47447 13.9156 1.47447 13.9222V13.9614C1.47447 13.968 1.47463 13.9745 1.47494 13.9809C1.47463 13.9875 1.47447 13.9941 1.47447 14.0006V14.0399C1.47447 14.0464 1.47463 14.053 1.47494 14.0594C1.47463 14.0659 1.47447 14.0725 1.47447 14.0791V14.1183C1.47447 14.1249 1.47463 14.1314 1.47494 14.138C1.47463 14.1444 1.47447 14.1509 1.47447 14.1575V14.1967C1.47447 14.2033 1.47463 14.2099 1.47494 14.2164C1.47463 14.2228 1.47447 14.2294 1.47447 14.2359V14.2752C1.47447 14.2817 1.47463 14.2883 1.47494 14.2948C1.47463 14.3012 1.47447 14.3078 1.47447 14.3143V14.3537C1.47447 14.3603 1.47463 14.3668 1.47494 14.3733C1.47463 14.3798 1.47447 14.3864 1.47447 14.3929V14.4322C1.47447 14.4387 1.47463 14.4453 1.47494 14.4517C1.47463 14.4583 1.47447 14.4648 1.47447 14.4714V14.5106C1.47447 14.5172 1.47463 14.5237 1.47494 14.5303C1.47463 14.5367 1.47447 14.5433 1.47447 14.5498V14.589C1.47447 14.5956 1.47463 14.6022 1.47494 14.6087C1.47463 14.6151 1.47447 14.6217 1.47447 14.6283V14.6674C1.47447 14.6742 1.47463 14.6806 1.47494 14.6871C1.47463 14.6937 1.47447 14.7002 1.47447 14.7068V14.746C1.47447 14.7526 1.47463 14.7592 1.47494 14.7656C1.47463 14.7721 1.47447 14.7787 1.47447 14.7852V14.8245C1.47447 14.831 1.47463 14.8376 1.47494 14.8442C1.47463 14.8506 1.47447 14.8571 1.47447 14.8637V14.9029C1.47447 14.9095 1.47463 14.916 1.47494 14.9226C1.47463 14.929 1.47447 14.9356 1.47447 14.9421V14.9813C1.47447 14.9879 1.47463 14.9945 1.47494 15.001C1.47463 15.0074 1.47447 15.014 1.47447 15.0206V15.0599C1.47447 15.0665 1.47463 15.073 1.47494 15.0794C1.47463 15.086 1.47447 15.0925 1.47447 15.0991V15.1383C1.47447 15.1449 1.47463 15.1515 1.47494 15.1579C1.47463 15.1644 1.47447 15.171 1.47447 15.1775V15.2168C1.47447 15.2233 1.47463 15.2299 1.47494 15.2363C1.47463 15.2429 1.47447 15.2494 1.47447 15.256V15.2952C1.47447 15.3018 1.47463 15.3083 1.47494 15.3149C1.47463 15.3213 1.47447 15.3279 1.47447 15.3344V15.3736C1.47447 15.3803 1.47463 15.3868 1.47494 15.3933C1.47463 15.3999 1.47448 15.4064 1.47447 15.413V15.4522C1.47447 15.4588 1.47463 15.4653 1.47494 15.4717C1.47463 15.4783 1.47447 15.4849 1.47447 15.4914V15.5306C1.47447 15.5372 1.47463 15.5438 1.47494 15.5502C1.47463 15.5567 1.47447 15.5633 1.47447 15.5699V15.6091C1.47447 15.6156 1.47463 15.6222 1.47494 15.6288C1.47463 15.6352 1.47447 15.6417 1.47447 15.6483V15.6875C1.47447 15.6941 1.47463 15.7006 1.47494 15.7072C1.47463 15.7136 1.47447 15.7202 1.47447 15.7267V15.7661C1.47447 15.7726 1.47463 15.7792 1.47494 15.7856C1.47463 15.7922 1.47447 15.7987 1.47447 15.8053V15.8445C1.47447 15.8511 1.47463 15.8576 1.47494 15.864C1.47463 15.8706 1.47447 15.8772 1.47447 15.8837V15.9229C1.47447 15.9295 1.47463 15.9361 1.47494 15.9425C1.47463 15.949 1.47447 15.9556 1.47447 15.9622V16.0014C1.47447 16.0079 1.47463 16.0145 1.47494 16.0211C1.47463 16.0275 1.47447 16.034 1.47447 16.0406V16.0798C1.47447 16.0864 1.47463 16.0929 1.47494 16.0995C1.47463 16.1059 1.47447 16.1125 1.47447 16.119V16.1582C1.47447 16.1649 1.47463 16.1713 1.47494 16.1779C1.47463 16.1845 1.47447 16.191 1.47447 16.1976V16.2368C1.47447 16.2434 1.47463 16.2499 1.47494 16.2563C1.47463 16.2629 1.47447 16.2695 1.47447 16.276V16.3152C1.47447 16.3218 1.47463 16.3284 1.47494 16.3349C1.47463 16.3413 1.47447 16.3479 1.47447 16.3545V16.3937C1.47447 16.4002 1.47463 16.4068 1.47494 16.4134C1.47463 16.4198 1.47447 16.4263 1.47447 16.4329V16.4721C1.47447 16.4787 1.47463 16.4852 1.47494 16.4918C1.47463 16.4982 1.47447 16.5048 1.47447 16.5113V16.5506C1.47447 16.5572 1.47463 16.5636 1.47494 16.5702C1.47463 16.5768 1.47447 16.5833 1.47447 16.5899V16.6291C1.47447 16.6357 1.47463 16.6422 1.47494 16.6486C1.47463 16.6552 1.47447 16.6618 1.47447 16.6683V16.7075C1.47447 16.7141 1.47463 16.7207 1.47494 16.7272C1.47463 16.7336 1.47447 16.7402 1.47447 16.7468V16.768H0.390647C0.174905 16.768 2.28882e-05 16.943 2.28882e-05 17.1586V20.1066C2.28882e-05 20.3222 0.174905 20.4972 0.390647 20.4972H3.33865C3.55439 20.4972 3.72912 20.3222 3.72912 20.1066V19.0218H3.7508C3.75736 19.0218 3.76388 19.0217 3.77033 19.0214C3.77689 19.0217 3.78341 19.0218 3.78998 19.0218H3.8292C3.83576 19.0218 3.84232 19.0217 3.84888 19.0214C3.85529 19.0217 3.86185 19.0218 3.86841 19.0218H3.90763C3.91419 19.0218 3.92076 19.0217 3.92732 19.0214C3.93388 19.0217 3.94029 19.0218 3.94685 19.0218H3.98623C3.99279 19.0218 3.99935 19.0217 4.00576 19.0214C4.01232 19.0217 4.01888 19.0218 4.02544 19.0218H4.06466C4.07123 19.0218 4.07779 19.0217 4.08419 19.0214C4.09076 19.0217 4.09732 19.0218 4.10388 19.0218H4.1431C4.14962 19.0218 4.15619 19.0217 4.16263 19.0214C4.16916 19.0217 4.17572 19.0218 4.18228 19.0218H4.2215C4.22806 19.0218 4.23462 19.0217 4.24119 19.0214C4.24775 19.0217 4.25431 19.0218 4.26087 19.0218H4.30009C4.30665 19.0218 4.31322 19.0217 4.31962 19.0214C4.32619 19.0217 4.33275 19.0218 4.33931 19.0218H4.37853C4.38509 19.0218 4.39165 19.0217 4.39822 19.0214C4.40462 19.0217 4.41119 19.0218 4.41775 19.0218H4.45712C4.46369 19.0218 4.47025 19.0217 4.47665 19.0214C4.48322 19.0217 4.48978 19.0218 4.4963 19.0218H4.53552C4.54208 19.0218 4.54865 19.0217 4.55505 19.0214C4.56162 19.0217 4.56818 19.0218 4.57474 19.0218H4.61396C4.62052 19.0218 4.62708 19.0217 4.63365 19.0214C4.64005 19.0217 4.64662 19.0218 4.65318 19.0218H4.6924C4.69896 19.0218 4.70552 19.0217 4.71208 19.0214C4.71849 19.0217 4.72505 19.0218 4.73162 19.0218H4.77083C4.7774 19.0218 4.78396 19.0217 4.79052 19.0214C4.79708 19.0217 4.80365 19.0218 4.81021 19.0218H4.84943C4.85599 19.0218 4.86251 19.0217 4.86908 19.0214C4.87552 19.0217 4.88204 19.0218 4.88861 19.0218H4.92783C4.93439 19.0218 4.94095 19.0217 4.94751 19.0214C4.95408 19.0217 4.96048 19.0218 4.9672 19.0218H5.00642C5.01298 19.0218 5.01954 19.0217 5.02611 19.0214C5.03251 19.0217 5.03908 19.0218 5.04564 19.0218H5.08486C5.09142 19.0218 5.09798 19.0217 5.10454 19.0214C5.11111 19.0217 5.11751 19.0218 5.12407 19.0218H5.16345C5.17001 19.0218 5.17658 19.0217 5.18298 19.0214C5.18954 19.0217 5.19611 19.0218 5.20267 19.0218H5.24185C5.24841 19.0218 5.25497 19.0217 5.26138 19.0214C5.26794 19.0217 5.2745 19.0218 5.28107 19.0218H5.32029C5.32685 19.0218 5.33341 19.0217 5.33997 19.0214C5.34638 19.0217 5.35294 19.0218 5.3595 19.0218H5.39872C5.40529 19.0218 5.41185 19.0217 5.41841 19.0214C5.42482 19.0217 5.43138 19.0218 5.43794 19.0218H5.47716C5.48372 19.0218 5.49028 19.0217 5.49685 19.0214C5.50341 19.0217 5.50982 19.0218 5.51654 19.0218H5.55575C5.56232 19.0218 5.56888 19.0217 5.57529 19.0214C5.58185 19.0217 5.58841 19.0218 5.59493 19.0218H5.63415C5.64071 19.0218 5.64728 19.0217 5.65384 19.0214C5.6604 19.0217 5.66697 19.0218 5.67353 19.0218H5.71275C5.71931 19.0218 5.72587 19.0217 5.73228 19.0214C5.73884 19.0217 5.7454 19.0218 5.75196 19.0218H5.79118C5.79775 19.0218 5.80431 19.0217 5.81087 19.0214C5.81728 19.0217 5.82384 19.0218 5.8304 19.0218H5.86978C5.87634 19.0218 5.8829 19.0217 5.88931 19.0214C5.89587 19.0217 5.90243 19.0218 5.909 19.0218H5.94817C5.95474 19.0218 5.9613 19.0217 5.96771 19.0214C5.97427 19.0217 5.98083 19.0218 5.98739 19.0218H6.02661C6.03317 19.0218 6.03974 19.0217 6.04614 19.0214C6.05271 19.0217 6.05927 19.0218 6.06583 19.0218H6.10505C6.11161 19.0218 6.11817 19.0217 6.12474 19.0214C6.13114 19.0217 6.13771 19.0218 6.14427 19.0218H6.18364C6.19021 19.0218 6.19677 19.0217 6.20317 19.0214C6.20974 19.0217 6.2163 19.0218 6.22286 19.0218H6.26208C6.26864 19.0218 6.27521 19.0217 6.28177 19.0214C6.28817 19.0217 6.29474 19.0218 6.3013 19.0218H6.34064C6.3472 19.0218 6.35376 19.0217 6.36017 19.0214C6.36673 19.0217 6.37314 19.0218 6.37985 19.0218H6.41907C6.42564 19.0218 6.4322 19.0217 6.4386 19.0214C6.44517 19.0217 6.45173 19.0218 6.45829 19.0218H6.49751C6.50407 19.0218 6.51063 19.0217 6.5172 19.0214C6.5236 19.0217 6.53017 19.0218 6.53673 19.0218H6.57595C6.58251 19.0218 6.58907 19.0217 6.59563 19.0214C6.6022 19.0217 6.6086 19.0218 6.61517 19.0218H6.6545C6.66106 19.0218 6.66763 19.0217 6.67403 19.0214C6.6806 19.0217 6.68704 19.0218 6.69372 19.0218H6.73294C6.7395 19.0218 6.74606 19.0217 6.75263 19.0214C6.75903 19.0217 6.7656 19.0218 6.77216 19.0218H6.81138C6.81794 19.0218 6.8245 19.0217 6.83106 19.0214C6.83763 19.0217 6.84403 19.0218 6.85075 19.0218H6.88997C6.89653 19.0218 6.90309 19.0217 6.9095 19.0214C6.91606 19.0217 6.92263 19.0218 6.92919 19.0218H6.96841C6.97497 19.0218 6.98153 19.0217 6.98809 19.0214C6.99466 19.0217 7.00118 19.0218 7.00774 19.0218H7.04696C7.05352 19.0218 7.06009 19.0217 7.06649 19.0214C7.07306 19.0217 7.07962 19.0218 7.08618 19.0218H7.1254C7.13196 19.0218 7.13852 19.0217 7.14493 19.0214C7.15149 19.0217 7.15806 19.0218 7.16462 19.0218H7.20384C7.2104 19.0218 7.21696 19.0217 7.22352 19.0214C7.22993 19.0217 7.23649 19.0218 7.24306 19.0218H7.28227C7.28884 19.0218 7.2954 19.0217 7.30196 19.0214C7.30852 19.0217 7.31509 19.0218 7.32165 19.0218H7.36087C7.36739 19.0218 7.37395 19.0217 7.3804 19.0214C7.38692 19.0217 7.39348 19.0218 7.40005 19.0218H7.43927C7.44583 19.0218 7.45239 19.0217 7.45895 19.0214C7.46536 19.0217 7.47192 19.0218 7.47848 19.0218H7.51786C7.52442 19.0218 7.53098 19.0217 7.53739 19.0214C7.54395 19.0217 7.55052 19.0218 7.55708 19.0218H7.5963C7.60286 19.0218 7.60942 19.0217 7.61598 19.0214C7.62239 19.0217 7.62895 19.0218 7.63552 19.0218H7.67473C7.6813 19.0218 7.68786 19.0217 7.69442 19.0214C7.70083 19.0217 7.70739 19.0218 7.71395 19.0218H7.75313C7.75969 19.0218 7.76626 19.0217 7.77282 19.0214C7.77938 19.0217 7.78579 19.0218 7.79235 19.0218H7.83173C7.83829 19.0218 7.84485 19.0217 7.85126 19.0214C7.85782 19.0217 7.86438 19.0218 7.87094 19.0218H7.91016C7.91673 19.0218 7.92329 19.0217 7.92985 19.0214C7.93641 19.0217 7.94282 19.0218 7.94938 19.0218H7.98876C7.99516 19.0218 8.00173 19.0217 8.00829 19.0214C8.01485 19.0217 8.02126 19.0218 8.02798 19.0218H8.06719C8.07376 19.0218 8.08028 19.0217 8.08673 19.0214C8.09329 19.0217 8.09981 19.0218 8.10637 19.0218H8.1279V20.1095C8.1279 20.3251 8.30278 20.5 8.51852 20.5H11.4746C11.6904 20.5 11.8652 20.3251 11.8652 20.1095V19.0218H11.8867C11.8933 19.0218 11.8999 19.0217 11.9064 19.0214C11.9129 19.0217 11.9194 19.0218 11.926 19.0218H11.9652C11.9718 19.0218 11.9783 19.0217 11.9849 19.0214C11.9914 19.0217 11.998 19.0218 12.0045 19.0218H12.0437C12.0503 19.0218 12.0569 19.0217 12.0633 19.0214C12.0698 19.0217 12.0764 19.0218 12.083 19.0218H12.1222C12.1287 19.0218 12.1353 19.0217 12.1419 19.0214C12.1484 19.0217 12.155 19.0218 12.1616 19.0218H12.2008C12.2073 19.0218 12.2139 19.0217 12.2203 19.0214C12.2269 19.0217 12.2334 19.0218 12.24 19.0218H12.2792C12.2858 19.0218 12.2923 19.0217 12.2987 19.0214C12.3053 19.0217 12.3119 19.0218 12.3184 19.0218H12.3576C12.3642 19.0218 12.3707 19.0217 12.3773 19.0214C12.3837 19.0217 12.3903 19.0218 12.3968 19.0218H12.4361C12.4426 19.0218 12.4492 19.0217 12.4557 19.0214C12.4623 19.0217 12.4687 19.0218 12.4753 19.0218H12.5146C12.5212 19.0218 12.5278 19.0217 12.5342 19.0214C12.5407 19.0217 12.5473 19.0218 12.5539 19.0218H12.5931C12.5996 19.0218 12.6062 19.0217 12.6126 19.0214C12.6192 19.0217 12.6257 19.0218 12.6323 19.0218H12.6715C12.6781 19.0218 12.6846 19.0217 12.6912 19.0214C12.6978 19.0217 12.7042 19.0218 12.7109 19.0218H12.7501C12.7566 19.0218 12.7632 19.0217 12.7698 19.0214C12.7762 19.0217 12.7827 19.0218 12.7893 19.0218H12.8285C12.8351 19.0218 12.8416 19.0217 12.8482 19.0214C12.8548 19.0217 12.8612 19.0218 12.8677 19.0218H12.9071C12.9137 19.0218 12.9202 19.0217 12.9266 19.0214C12.9332 19.0217 12.9396 19.0218 12.9462 19.0218H12.9855C12.9921 19.0218 12.9987 19.0217 13.0051 19.0214C13.0116 19.0217 13.0182 19.0218 13.0248 19.0218H13.064C13.0705 19.0218 13.0771 19.0217 13.0836 19.0214C13.09 19.0217 13.0966 19.0218 13.1032 19.0218H13.1424C13.1489 19.0218 13.1555 19.0217 13.1621 19.0214C13.1686 19.0217 13.1752 19.0218 13.1818 19.0218H13.221C13.2275 19.0218 13.2341 19.0217 13.2405 19.0214C13.2471 19.0217 13.2536 19.0218 13.2602 19.0218H13.2994C13.306 19.0218 13.3125 19.0217 13.3191 19.0214C13.3257 19.0217 13.3321 19.0218 13.3386 19.0218H13.378C13.3846 19.0218 13.3911 19.0217 13.3975 19.0214C13.4041 19.0217 13.4107 19.0218 13.4172 19.0218H13.4564C13.463 19.0218 13.4695 19.0217 13.4759 19.0214C13.4825 19.0217 13.4891 19.0218 13.4956 19.0218H13.5348C13.5414 19.0218 13.548 19.0217 13.5545 19.0214C13.5609 19.0217 13.5675 19.0218 13.5741 19.0218H13.6133C13.6198 19.0218 13.6264 19.0217 13.633 19.0214C13.6394 19.0217 13.6459 19.0218 13.6525 19.0218H13.6919C13.6984 19.0218 13.705 19.0217 13.7114 19.0214C13.718 19.0217 13.7245 19.0218 13.7311 19.0218H13.7703C13.7769 19.0218 13.7834 19.0217 13.79 19.0214C13.7964 19.0217 13.8029 19.0218 13.8095 19.0218H13.8489C13.8554 19.0218 13.862 19.0217 13.8684 19.0214C13.875 19.0217 13.8815 19.0218 13.8881 19.0218H13.9273C13.9339 19.0218 13.9404 19.0217 13.9468 19.0214C13.9534 19.0217 13.96 19.0218 13.9665 19.0218H14.0057C14.0123 19.0218 14.0189 19.0217 14.0254 19.0214C14.032 19.0217 14.0384 19.0218 14.045 19.0218H14.0843C14.0909 19.0218 14.0975 19.0217 14.1039 19.0214C14.1104 19.0217 14.117 19.0218 14.1235 19.0218H14.1627C14.1693 19.0218 14.1759 19.0217 14.1823 19.0214C14.1888 19.0217 14.1954 19.0218 14.2019 19.0218H14.2412C14.2477 19.0218 14.2543 19.0217 14.2609 19.0214C14.2673 19.0217 14.2738 19.0218 14.2804 19.0218H14.3196C14.3262 19.0218 14.3327 19.0217 14.3393 19.0214C14.3459 19.0217 14.3523 19.0218 14.359 19.0218H14.3982C14.4048 19.0218 14.4113 19.0217 14.4179 19.0214C14.4243 19.0217 14.4309 19.0218 14.4374 19.0218H14.4766C14.4832 19.0218 14.4898 19.0217 14.4963 19.0214C14.5028 19.0217 14.5094 19.0218 14.516 19.0218H14.5552C14.5618 19.0218 14.5683 19.0217 14.5747 19.0214C14.5813 19.0217 14.5878 19.0218 14.5944 19.0218H14.6336C14.6402 19.0218 14.6468 19.0217 14.6532 19.0214C14.6597 19.0217 14.6663 19.0218 14.6728 19.0218H14.7121C14.7186 19.0218 14.7252 19.0217 14.7318 19.0214C14.7382 19.0217 14.7447 19.0218 14.7513 19.0218H14.7905C14.7971 19.0218 14.8036 19.0217 14.8102 19.0214C14.8168 19.0217 14.8233 19.0218 14.8299 19.0218H14.8691C14.8756 19.0218 14.8822 19.0217 14.8886 19.0214C14.8952 19.0217 14.9017 19.0218 14.9083 19.0218H14.9475C14.9541 19.0218 14.9606 19.0217 14.9672 19.0214C14.9736 19.0217 14.9801 19.0218 14.9867 19.0218H15.0261C15.0326 19.0218 15.0392 19.0217 15.0456 19.0214C15.0522 19.0217 15.0587 19.0218 15.0653 19.0218H15.1045C15.1111 19.0218 15.1176 19.0217 15.1242 19.0214C15.1306 19.0217 15.1372 19.0218 15.1437 19.0218H15.1831C15.1896 19.0218 15.1962 19.0217 15.2026 19.0214C15.2092 19.0217 15.2157 19.0218 15.2222 19.0218H15.2615C15.2681 19.0218 15.2746 19.0217 15.281 19.0214C15.2876 19.0217 15.2942 19.0218 15.3007 19.0218H15.34C15.3465 19.0218 15.3531 19.0217 15.3595 19.0214C15.366 19.0217 15.3726 19.0218 15.3792 19.0218H15.4184C15.425 19.0218 15.4315 19.0217 15.4381 19.0214C15.4445 19.0217 15.451 19.0218 15.4576 19.0218H15.497C15.5035 19.0218 15.5101 19.0217 15.5165 19.0214C15.5231 19.0217 15.5296 19.0218 15.5362 19.0218H15.5754C15.5819 19.0218 15.5885 19.0217 15.5951 19.0214C15.6015 19.0217 15.608 19.0218 15.6146 19.0218H15.6538C15.6604 19.0218 15.6669 19.0217 15.6735 19.0214C15.6801 19.0217 15.6866 19.0218 15.6932 19.0218H15.7324C15.739 19.0218 15.7455 19.0217 15.7519 19.0214C15.7585 19.0217 15.7651 19.0218 15.7716 19.0218H15.8109C15.8174 19.0218 15.824 19.0217 15.8305 19.0214C15.8369 19.0217 15.8435 19.0218 15.8501 19.0218H15.8893C15.8959 19.0218 15.9024 19.0217 15.909 19.0214C15.9154 19.0217 15.9219 19.0218 15.9285 19.0218H15.9677C15.9742 19.0218 15.9808 19.0217 15.9874 19.0214C15.9939 19.0217 16.0005 19.0218 16.0071 19.0218H16.0463C16.0528 19.0218 16.0594 19.0217 16.0658 19.0214C16.0724 19.0217 16.0789 19.0218 16.0855 19.0218H16.1247C16.1313 19.0218 16.1378 19.0217 16.1444 19.0214C16.151 19.0217 16.1575 19.0218 16.1641 19.0218H16.2033C16.2099 19.0218 16.2164 19.0217 16.2228 19.0214C16.2294 19.0217 16.236 19.0218 16.2425 19.0218H16.264V20.1058C16.264 20.3214 16.4389 20.4963 16.6545 20.4963H19.6026C19.8183 20.4963 19.9931 20.3214 19.9931 20.1058V17.1577C19.9931 16.9421 19.8183 16.7672 19.6026 16.7672H18.5188V16.7459C18.5188 16.7393 18.5187 16.7327 18.5183 16.7263C18.5187 16.7198 18.5188 16.7132 18.5188 16.7066V16.6674C18.5188 16.6609 18.5187 16.6543 18.5183 16.6479C18.5187 16.6413 18.5188 16.6348 18.5188 16.6282V16.589C18.5188 16.5824 18.5187 16.5759 18.5183 16.5695C18.5187 16.5629 18.5188 16.5563 18.5188 16.5498V16.5106C18.5188 16.504 18.5187 16.4974 18.5183 16.4909C18.5187 16.4845 18.5188 16.4779 18.5188 16.4713V16.4321C18.5188 16.4254 18.5187 16.419 18.5183 16.4124C18.5187 16.4059 18.5188 16.3995 18.5188 16.3927V16.3536C18.5188 16.347 18.5187 16.3404 18.5183 16.334C18.5187 16.3275 18.5188 16.3209 18.5188 16.3143V16.2751C18.5188 16.2686 18.5187 16.262 18.5183 16.2556C18.5187 16.249 18.5188 16.2425 18.5188 16.2359V16.1967C18.5188 16.1901 18.5187 16.1836 18.5183 16.1772C18.5187 16.1706 18.5188 16.164 18.5188 16.1575V16.1182C18.5188 16.1117 18.5187 16.1051 18.5183 16.0986C18.5187 16.0922 18.5188 16.0856 18.5188 16.079V16.0397C18.5188 16.0331 18.5187 16.0265 18.5183 16.0201C18.5187 16.0136 18.5188 16.007 18.5188 16.0004V15.9613C18.5188 15.9547 18.5187 15.9481 18.5183 15.9417C18.5187 15.9352 18.5188 15.9286 18.5188 15.922V15.8828C18.5188 15.8762 18.5187 15.8697 18.5183 15.8632C18.5187 15.8567 18.5188 15.8501 18.5188 15.8436V15.8043C18.5188 15.7978 18.5187 15.7912 18.5183 15.7847C18.5187 15.7783 18.5188 15.7717 18.5188 15.7651V15.7259C18.5188 15.7192 18.5187 15.7128 18.5183 15.7062C18.5187 15.6997 18.5188 15.6933 18.5188 15.6865V15.6473C18.5188 15.6408 18.5187 15.6343 18.5183 15.6278C18.5187 15.6212 18.5188 15.6148 18.5188 15.6081V15.5689C18.5188 15.5624 18.5187 15.5558 18.5183 15.5494C18.5187 15.5428 18.5188 15.5363 18.5188 15.5297V15.4905C18.5188 15.4839 18.5187 15.4774 18.5183 15.4709C18.5187 15.4644 18.5188 15.4578 18.5188 15.4513V15.412C18.5188 15.4055 18.5187 15.3989 18.5183 15.3924C18.5187 15.3859 18.5188 15.3794 18.5188 15.3728V15.3336C18.5188 15.3269 18.5187 15.3205 18.5183 15.3139C18.5187 15.3075 18.5188 15.3009 18.5188 15.2944V15.2552C18.5188 15.2484 18.5187 15.242 18.5183 15.2355C18.5187 15.2289 18.5188 15.2225 18.5188 15.2158V15.1766C18.5188 15.17 18.5187 15.1635 18.5183 15.1571C18.5187 15.1505 18.5188 15.144 18.5188 15.1374V15.0982C18.5188 15.0916 18.5187 15.085 18.5183 15.0785C18.5187 15.0721 18.5188 15.0655 18.5188 15.059V15.0197C18.5188 15.0132 18.5187 15.0066 18.5183 15C18.5187 14.9936 18.5188 14.9871 18.5188 14.9805V14.9414C18.5188 14.9348 18.5187 14.9283 18.5183 14.9217C18.5187 14.9153 18.5188 14.9087 18.5188 14.9022V14.8628C18.5188 14.8563 18.5187 14.8497 18.5183 14.8433C18.5187 14.8367 18.5188 14.8302 18.5188 14.8236V14.7844C18.5188 14.7778 18.5187 14.7713 18.5183 14.7649C18.5187 14.7583 18.5188 14.7517 18.5188 14.7452V14.7059C18.5188 14.6994 18.5187 14.6928 18.5183 14.6864C18.5187 14.6799 18.5188 14.6733 18.5188 14.6667V14.6275C18.5188 14.6209 18.5187 14.6144 18.5183 14.6078C18.5187 14.6014 18.5188 14.5949 18.5188 14.5883V14.5491C18.5188 14.5424 18.5187 14.5359 18.5183 14.5294C18.5187 14.5228 18.5188 14.5164 18.5188 14.5097V14.4705C18.5188 14.464 18.5187 14.4574 18.5183 14.451C18.5187 14.4444 18.5188 14.4379 18.5188 14.4313V14.3921C18.5188 14.3855 18.5187 14.379 18.5183 14.3726C18.5187 14.366 18.5188 14.3594 18.5188 14.3529V14.3136C18.5188 14.3071 18.5187 14.3005 18.5183 14.294C18.5187 14.2876 18.5188 14.281 18.5188 14.2744V14.2352C18.5188 14.2286 18.5187 14.2221 18.5183 14.2155C18.5187 14.2091 18.5188 14.2026 18.5188 14.196V14.1566C18.5188 14.1501 18.5187 14.1435 18.5183 14.1371C18.5187 14.1305 18.5188 14.124 18.5188 14.1174V14.0782C18.5188 14.0717 18.5187 14.0651 18.5183 14.0587C18.5187 14.0521 18.5188 14.0456 18.5188 14.039V13.9998C18.5188 13.9932 18.5187 13.9867 18.5183 13.9802C18.5187 13.9737 18.5188 13.9671 18.5188 13.9606V13.9213C18.5188 13.9148 18.5187 13.9082 18.5183 13.9017C18.5187 13.8952 18.5188 13.8887 18.5188 13.8821V13.8429C18.5188 13.8362 18.5187 13.8298 18.5183 13.8232C18.5187 13.8167 18.5188 13.8102 18.5188 13.8035V13.7645C18.5188 13.7577 18.5187 13.7513 18.5183 13.7448C18.5187 13.7382 18.5188 13.7318 18.5188 13.7251V13.6859C18.5188 13.6793 18.5187 13.6728 18.5183 13.6664C18.5187 13.6598 18.5188 13.6533 18.5188 13.6467V13.6075C18.5188 13.6009 18.5187 13.5943 18.5183 13.5878C18.5187 13.5814 18.5188 13.5748 18.5188 13.5683V13.529C18.5188 13.5225 18.5187 13.5159 18.5183 13.5093C18.5187 13.5029 18.5188 13.4964 18.5188 13.4898V13.4506C18.5188 13.444 18.5187 13.4375 18.5183 13.4309C18.5187 13.4245 18.5188 13.4179 18.5188 13.4114V13.372C18.5188 13.3654 18.5187 13.3589 18.5183 13.3525C18.5187 13.3459 18.5188 13.3393 18.5188 13.3328V13.2939C18.5188 13.2873 18.5187 13.2808 18.5183 13.2743C18.5187 13.2678 18.5188 13.2612 18.5188 13.2547V13.2155C18.5188 13.2089 18.5187 13.2024 18.5183 13.196C18.5187 13.1894 18.5188 13.1828 18.5188 13.1763V13.137C18.5188 13.1305 18.5187 13.1239 18.5183 13.1175C18.5187 13.111 18.5188 13.1044 18.5188 13.0978V13.0586C18.5188 13.052 18.5187 13.0454 18.5183 13.0389C18.5187 13.0325 18.5188 13.0259 18.5188 13.0194V12.9801C18.5188 12.9734 18.5187 12.967 18.5183 12.9604C18.5187 12.9539 18.5188 12.9475 18.5188 12.9408V12.9017C18.5188 12.895 18.5187 12.8886 18.5183 12.882C18.5187 12.8754 18.5188 12.869 18.5188 12.8624V12.8231C18.5188 12.8166 18.5187 12.81 18.5183 12.8036C18.5187 12.797 18.5188 12.7905 18.5188 12.7839V12.7447C18.5188 12.7381 18.5187 12.7316 18.5183 12.725C18.5187 12.7186 18.5188 12.712 18.5188 12.7055V12.6663C18.5188 12.6597 18.5187 12.6531 18.5183 12.6466C18.5187 12.6402 18.5188 12.6336 18.5188 12.627V12.5878C18.5188 12.5813 18.5187 12.5747 18.5183 12.5681C18.5187 12.5617 18.5188 12.5552 18.5188 12.5486V12.5094C18.5188 12.5027 18.5187 12.4963 18.5183 12.4897C18.5187 12.4832 18.5188 12.4767 18.5188 12.4701V12.4308C18.5188 12.4243 18.5187 12.4177 18.5183 12.4113C18.5187 12.4047 18.5188 12.3982 18.5188 12.3916V12.3704H19.6026C19.8183 12.3704 19.9931 12.1955 19.9931 11.9799V9.02369C19.9931 8.80795 19.8183 8.63307 19.6026 8.63307H18.5188V8.62362C18.5188 8.61737 18.5187 8.61096 18.5183 8.60467C18.5187 8.59842 18.5188 8.59202 18.5188 8.58561V8.54764C18.5188 8.54119 18.5187 8.53495 18.5183 8.52854C18.5187 8.52224 18.5188 8.51594 18.5188 8.50963V8.47147C18.5188 8.46522 18.5187 8.45881 18.5183 8.45256C18.5187 8.44616 18.5188 8.43991 18.5188 8.4335V8.39549C18.5188 8.38909 18.5187 8.38268 18.5183 8.37643C18.5187 8.37018 18.5188 8.36377 18.5188 8.35733V8.31936C18.5188 8.31295 18.5187 8.3067 18.5183 8.3003C18.5187 8.29399 18.5188 8.28767 18.5188 8.28135V8.24323C18.5188 8.23698 18.5187 8.23053 18.5183 8.22428C18.5187 8.21788 18.5188 8.21163 18.5188 8.20522V8.16721C18.5188 8.16081 18.5187 8.15455 18.5183 8.14815C18.5187 8.1419 18.5188 8.13549 18.5188 8.12924V8.09108C18.5188 8.08467 18.518 8.07842 18.5178 8.07217C18.518 8.06577 18.5188 8.05948 18.5188 8.05307V8.03354C18.5188 7.81791 18.3439 7.64292 18.1282 7.64292C17.9126 7.64292 17.7377 7.81791 17.7377 8.03354V8.05307C17.7377 8.05948 17.7383 8.06577 17.7386 8.07217C17.7383 8.07842 17.7377 8.08467 17.7377 8.09108V8.12924C17.7377 8.13549 17.7379 8.1419 17.7382 8.14815C17.7379 8.15455 17.7377 8.16081 17.7377 8.16721V8.20522C17.7377 8.21163 17.7379 8.21788 17.7382 8.22428C17.7379 8.23053 17.7377 8.23694 17.7377 8.24323V8.28135C17.7377 8.28776 17.7379 8.29401 17.7382 8.3003C17.7379 8.3067 17.7377 8.31295 17.7377 8.31936V8.35733C17.7377 8.36377 17.7379 8.37018 17.7382 8.37643C17.7379 8.38268 17.7377 8.38909 17.7377 8.39549V8.4335C17.7377 8.43991 17.7379 8.44616 17.7382 8.45256C17.7379 8.45881 17.7377 8.46522 17.7377 8.47147V8.50963C17.7377 8.51604 17.7379 8.52229 17.7382 8.52854C17.7379 8.53495 17.7377 8.54119 17.7377 8.54764V8.58561C17.7377 8.59202 17.7379 8.59842 17.7382 8.60467C17.7379 8.61092 17.7377 8.61737 17.7377 8.62362V8.63307H16.6464C16.4308 8.63307 16.2559 8.80795 16.2559 9.02369V11.9799C16.2559 12.1956 16.4308 12.3704 16.6464 12.3704H17.7377V12.3916C17.7377 12.3982 17.7379 12.4047 17.7382 12.4113C17.7379 12.4177 17.7377 12.4243 17.7377 12.4308V12.4701C17.7377 12.4767 17.7379 12.4832 17.7382 12.4897C17.7379 12.4963 17.7377 12.5028 17.7377 12.5094V12.5486C17.7377 12.5552 17.7379 12.5617 17.7382 12.5681C17.7379 12.5747 17.7377 12.5813 17.7377 12.5878V12.627C17.7377 12.6336 17.7379 12.6402 17.7382 12.6466C17.7379 12.6531 17.7377 12.6597 17.7377 12.6663V12.7055C17.7377 12.712 17.7379 12.7186 17.7382 12.725C17.7379 12.7316 17.7377 12.7381 17.7377 12.7447V12.7839C17.7377 12.7905 17.7379 12.797 17.7382 12.8036C17.7379 12.81 17.7377 12.8166 17.7377 12.8231V12.8624C17.7377 12.869 17.7379 12.8754 17.7382 12.882C17.7379 12.8886 17.7377 12.8951 17.7377 12.9017V12.9408C17.7377 12.9475 17.7379 12.9539 17.7382 12.9604C17.7379 12.967 17.7377 12.9736 17.7377 12.9801V13.0194C17.7377 13.0259 17.7379 13.0325 17.7382 13.0389C17.7379 13.0454 17.7377 13.052 17.7377 13.0586V13.0978C17.7377 13.1044 17.7379 13.1109 17.7382 13.1175C17.7379 13.1239 17.7377 13.1304 17.7377 13.137V13.1762C17.7377 13.1828 17.7379 13.1893 17.7382 13.1959C17.7379 13.2023 17.7377 13.2089 17.7377 13.2154V13.2547C17.7377 13.2612 17.7379 13.2677 17.7382 13.2743C17.7379 13.2807 17.7377 13.2873 17.7377 13.2938V13.3332C17.7377 13.3398 17.7379 13.3463 17.7382 13.3527C17.7379 13.3593 17.7377 13.3659 17.7377 13.3724V13.4117C17.7377 13.4182 17.7379 13.4248 17.7382 13.4312C17.7379 13.4377 17.7377 13.4443 17.7377 13.4509V13.4901C17.7377 13.4967 17.7379 13.5032 17.7382 13.5098C17.7379 13.5162 17.7377 13.5227 17.7377 13.5293V13.5685C17.7377 13.5751 17.7379 13.5817 17.7382 13.5882C17.7379 13.5946 17.7377 13.6012 17.7377 13.6077V13.6469C17.7377 13.6536 17.7379 13.6601 17.7382 13.6666C17.7379 13.6732 17.7377 13.6797 17.7377 13.6863V13.7255C17.7377 13.7321 17.7379 13.7386 17.7382 13.7451C17.7379 13.7516 17.7377 13.7582 17.7377 13.7647V13.804C17.7377 13.8105 17.7379 13.8171 17.7382 13.8235C17.7379 13.8301 17.7377 13.8366 17.7377 13.8432V13.8824C17.7377 13.889 17.7379 13.8955 17.7382 13.9021C17.7379 13.9085 17.7377 13.9151 17.7377 13.9216V13.9608C17.7377 13.9674 17.7379 13.974 17.7382 13.9805C17.7379 13.9869 17.7377 13.9935 17.7377 14.0001V14.0394C17.7377 14.0459 17.7379 14.0525 17.7382 14.0589C17.7379 14.0655 17.7377 14.072 17.7377 14.0786V14.1178C17.7377 14.1244 17.7379 14.1309 17.7382 14.1374C17.7379 14.1439 17.7377 14.1505 17.7377 14.157V14.1963C17.7377 14.2028 17.7379 14.2094 17.7382 14.2158C17.7379 14.2224 17.7377 14.2289 17.7377 14.2355V14.2747C17.7377 14.2813 17.7379 14.2878 17.7382 14.2944C17.7379 14.3008 17.7377 14.3074 17.7377 14.3139V14.3531C17.7377 14.3598 17.7379 14.3663 17.7382 14.3728C17.7379 14.3794 17.7377 14.3859 17.7377 14.3925V14.4317C17.7377 14.4383 17.7379 14.4448 17.7382 14.4512C17.7379 14.4578 17.7377 14.4643 17.7377 14.4709V14.5101C17.7377 14.5167 17.7379 14.5233 17.7382 14.5297C17.7379 14.5362 17.7377 14.5428 17.7377 14.5493V14.5886C17.7377 14.5951 17.7379 14.6017 17.7382 14.6083C17.7379 14.6147 17.7377 14.6212 17.7377 14.6278V14.667C17.7377 14.6736 17.7379 14.6801 17.7382 14.6867C17.7379 14.6931 17.7377 14.6997 17.7377 14.7062V14.7454C17.7377 14.7521 17.7379 14.7586 17.7382 14.7651C17.7379 14.7715 17.7377 14.7781 17.7377 14.7846V14.824C17.7377 14.8306 17.7379 14.8371 17.7382 14.8435C17.7379 14.8501 17.7377 14.8567 17.7377 14.8632V14.9024C17.7377 14.909 17.7379 14.9156 17.7382 14.922C17.7379 14.9285 17.7377 14.9351 17.7377 14.9417V14.9809C17.7377 14.9874 17.7379 14.994 17.7382 15.0006C17.7379 15.007 17.7377 15.0135 17.7377 15.0201V15.0593C17.7377 15.0659 17.7379 15.0724 17.7382 15.079C17.7379 15.0854 17.7377 15.092 17.7377 15.0985V15.1377C17.7377 15.1443 17.7379 15.1508 17.7382 15.1574C17.7379 15.1638 17.7377 15.1704 17.7377 15.1769V15.2163C17.7377 15.2229 17.7379 15.2294 17.7382 15.2358C17.7379 15.2424 17.7377 15.249 17.7377 15.2555V15.2947C17.7377 15.3013 17.7379 15.3079 17.7382 15.3144C17.7379 15.3208 17.7377 15.3274 17.7377 15.334V15.3732C17.7377 15.3797 17.7379 15.3863 17.7382 15.3929C17.7379 15.3993 17.7377 15.4058 17.7377 15.4124V15.4516C17.7377 15.4582 17.7379 15.4647 17.7382 15.4713C17.7379 15.4777 17.7377 15.4843 17.7377 15.4908V15.53C17.7377 15.5367 17.7379 15.5431 17.7382 15.5497C17.7379 15.5563 17.7377 15.5628 17.7377 15.5694V15.6086C17.7377 15.6152 17.7379 15.6217 17.7382 15.6281C17.7379 15.6347 17.7377 15.6413 17.7377 15.6478V15.687C17.7377 15.6936 17.7379 15.7002 17.7382 15.7067C17.7379 15.7131 17.7377 15.7197 17.7377 15.7263V15.7655C17.7377 15.772 17.7379 15.7786 17.7382 15.7852C17.7379 15.7916 17.7377 15.7981 17.7377 15.8047V15.8439C17.7377 15.8505 17.7379 15.857 17.7382 15.8636C17.7379 15.87 17.7377 15.8766 17.7377 15.8831V15.9225C17.7377 15.929 17.7379 15.9356 17.7382 15.942C17.7379 15.9486 17.7377 15.9551 17.7377 15.9617V16.0009C17.7377 16.0075 17.7379 16.014 17.7382 16.0204C17.7379 16.027 17.7377 16.0336 17.7377 16.0401V16.0793C17.7377 16.0859 17.7379 16.0925 17.7382 16.0989C17.7379 16.1054 17.7377 16.112 17.7377 16.1186V16.1578C17.7377 16.1643 17.7379 16.1709 17.7382 16.1775C17.7379 16.1839 17.7377 16.1904 17.7377 16.197V16.2362C17.7377 16.2429 17.7379 16.2493 17.7382 16.2559C17.7379 16.2625 17.7377 16.269 17.7377 16.2756V16.3148C17.7377 16.3213 17.7379 16.3279 17.7382 16.3343C17.7379 16.3409 17.7377 16.3474 17.7377 16.354V16.3932C17.7377 16.3998 17.7379 16.4063 17.7382 16.4127C17.7379 16.4193 17.7377 16.4259 17.7377 16.4324V16.4716C17.7377 16.4782 17.7379 16.4848 17.7382 16.4913C17.7379 16.4977 17.7377 16.5043 17.7377 16.5109V16.5501C17.7377 16.5566 17.7379 16.5632 17.7382 16.5698C17.7379 16.5762 17.7377 16.5827 17.7377 16.5893V16.6285C17.7377 16.6352 17.7379 16.6416 17.7382 16.6482C17.7379 16.6546 17.7377 16.6612 17.7377 16.6677V16.7071C17.7377 16.7136 17.7379 16.7202 17.7382 16.7266C17.7379 16.7332 17.7377 16.7397 17.7377 16.7463V16.7675H16.6546C16.4389 16.7675 16.264 16.9424 16.264 17.1581V18.2412H16.2425C16.236 18.2412 16.2294 18.2414 16.223 18.2416C16.2164 18.2413 16.2099 18.2412 16.2033 18.2412H16.1641C16.1575 18.2412 16.1509 18.2414 16.1444 18.2416C16.1379 18.2413 16.1313 18.2412 16.1248 18.2412H16.0855C16.0789 18.2412 16.0723 18.2414 16.0659 18.2416C16.0594 18.2413 16.0528 18.2412 16.0462 18.2412H16.0101C16.0035 18.2412 15.9969 18.2414 15.9905 18.2416C15.984 18.2413 15.9774 18.2412 15.9708 18.2412H15.9317C15.9251 18.2412 15.9185 18.2414 15.912 18.2416C15.9055 18.2413 15.899 18.2412 15.8925 18.2412H15.8531C15.8465 18.2412 15.84 18.2414 15.8335 18.2416C15.827 18.2413 15.8205 18.2412 15.814 18.2412H15.7746C15.7681 18.2412 15.7615 18.2414 15.7551 18.2416C15.7486 18.2413 15.742 18.2412 15.7354 18.2412H15.6962C15.6896 18.2412 15.6831 18.2414 15.6767 18.2416C15.6701 18.2413 15.6635 18.2412 15.657 18.2412H15.6178C15.6112 18.2412 15.6046 18.2414 15.5981 18.2416C15.5916 18.2413 15.585 18.2412 15.5784 18.2412H15.5392C15.5326 18.2412 15.5261 18.2414 15.5195 18.2416C15.513 18.2413 15.5065 18.2412 15.5 18.2412H15.4608C15.4542 18.2412 15.4476 18.2414 15.4411 18.2416C15.4346 18.2413 15.4281 18.2412 15.4216 18.2412H15.3822C15.3756 18.2412 15.3691 18.2414 15.3626 18.2416C15.3561 18.2413 15.3495 18.2412 15.343 18.2412H15.3037C15.2972 18.2412 15.2906 18.2414 15.2842 18.2416C15.2777 18.2413 15.2711 18.2412 15.2645 18.2412H15.2253C15.2188 18.2412 15.2122 18.2414 15.2057 18.2416C15.1992 18.2413 15.1926 18.2412 15.1861 18.2412H15.1469C15.1403 18.2412 15.1338 18.2414 15.1272 18.2416C15.1207 18.2413 15.1142 18.2412 15.1077 18.2412H15.0683C15.0618 18.2412 15.0552 18.2414 15.0488 18.2416C15.0422 18.2413 15.0357 18.2412 15.0291 18.2412H14.9899C14.9833 18.2412 14.9768 18.2414 14.9702 18.2416C14.9637 18.2413 14.9572 18.2412 14.9507 18.2412H14.9113C14.9048 18.2412 14.8982 18.2414 14.8918 18.2416C14.8852 18.2414 14.8787 18.2412 14.8721 18.2412H14.8329C14.8263 18.2412 14.8198 18.2414 14.8134 18.2416C14.8068 18.2413 14.8002 18.2412 14.7937 18.2412H14.7544C14.7479 18.2412 14.7413 18.2414 14.7348 18.2416C14.7283 18.2413 14.7217 18.2412 14.7152 18.2412H14.6759C14.6693 18.2412 14.6627 18.2414 14.6563 18.2416C14.6498 18.2413 14.6432 18.2412 14.6366 18.2412H14.5974C14.5909 18.2412 14.5843 18.2414 14.5779 18.2416C14.5713 18.2413 14.5648 18.2412 14.5582 18.2412H14.519C14.5125 18.2412 14.5059 18.2414 14.4995 18.2416C14.4929 18.2413 14.4864 18.2412 14.4798 18.2412H14.4406C14.434 18.2412 14.4275 18.2414 14.4209 18.2416C14.4143 18.2413 14.4078 18.2412 14.4012 18.2412H14.362C14.3554 18.2412 14.3489 18.2414 14.3423 18.2416C14.3358 18.2413 14.3293 18.2412 14.3228 18.2412H14.2835C14.277 18.2412 14.2704 18.2414 14.2639 18.2416C14.2573 18.2413 14.2507 18.2412 14.2442 18.2412H14.205C14.1984 18.2412 14.1919 18.2414 14.1854 18.2416C14.1789 18.2414 14.1723 18.2412 14.1658 18.2412H14.1266C14.12 18.2412 14.1134 18.2414 14.107 18.2416C14.1005 18.2413 14.0939 18.2412 14.0873 18.2412H14.0481C14.0416 18.2412 14.035 18.2414 14.0284 18.2416C14.0219 18.2413 14.0154 18.2412 14.0089 18.2412H13.9697C13.9631 18.2412 13.9566 18.2414 13.95 18.2416C13.9434 18.2413 13.9369 18.2412 13.9303 18.2412H13.8911C13.8845 18.2412 13.878 18.2414 13.8716 18.2416C13.865 18.2413 13.8584 18.2412 13.8519 18.2412H13.8127C13.8061 18.2412 13.7996 18.2414 13.793 18.2416C13.7865 18.2413 13.78 18.2412 13.7735 18.2412H13.7341C13.7275 18.2412 13.721 18.2414 13.7146 18.2416C13.708 18.2413 13.7014 18.2412 13.6949 18.2412H13.6557C13.6491 18.2412 13.6425 18.2414 13.636 18.2416C13.6295 18.2413 13.623 18.2412 13.6164 18.2412H13.5771C13.5705 18.2412 13.5639 18.2414 13.5575 18.2416C13.551 18.2413 13.5445 18.2412 13.538 18.2412H13.4986C13.4921 18.2412 13.4855 18.2414 13.4791 18.2416C13.4726 18.2414 13.466 18.2412 13.4594 18.2412H13.4202C13.4137 18.2412 13.4071 18.2414 13.4007 18.2416C13.3941 18.2413 13.3876 18.2412 13.381 18.2412H13.3418C13.3352 18.2412 13.3287 18.2414 13.3221 18.2416C13.3156 18.2413 13.3091 18.2412 13.3026 18.2412H13.2632C13.2566 18.2412 13.2501 18.2414 13.2437 18.2416C13.2371 18.2413 13.2305 18.2412 13.224 18.2412H13.1848C13.1782 18.2412 13.1716 18.2414 13.1652 18.2416C13.1587 18.2413 13.1521 18.2412 13.1455 18.2412H13.1063C13.0998 18.2412 13.0932 18.2414 13.0867 18.2416C13.0801 18.2413 13.0736 18.2412 13.067 18.2412H13.0278C13.0212 18.2412 13.0146 18.2414 13.0082 18.2416C13.0017 18.2413 12.9951 18.2412 12.9886 18.2412H12.9493C12.9428 18.2412 12.9362 18.2414 12.9296 18.2416C12.9231 18.2413 12.9166 18.2412 12.9101 18.2412H12.8709C12.8643 18.2412 12.8578 18.2414 12.8512 18.2416C12.8447 18.2413 12.8382 18.2412 12.8317 18.2412H12.7925C12.7859 18.2412 12.7793 18.2414 12.7728 18.2416C12.7662 18.2413 12.7596 18.2412 12.7531 18.2412H12.7139C12.7073 18.2412 12.7008 18.2414 12.6942 18.2416C12.6877 18.2413 12.6812 18.2412 12.6747 18.2412H12.6355C12.6289 18.2412 12.6223 18.2414 12.6158 18.2416C12.6092 18.2413 12.6027 18.2412 12.5961 18.2412H12.5569C12.5503 18.2412 12.5437 18.2414 12.5373 18.2416C12.5308 18.2413 12.5242 18.2412 12.5177 18.2412H12.4784C12.4719 18.2412 12.4653 18.2414 12.4587 18.2416C12.4522 18.2413 12.4457 18.2412 12.4392 18.2412H12.4C12.3934 18.2412 12.3869 18.2414 12.3804 18.2416C12.3738 18.2413 12.3673 18.2412 12.3608 18.2412H12.3214C12.3149 18.2412 12.3083 18.2414 12.3019 18.2416C12.2954 18.2413 12.2888 18.2412 12.2822 18.2412H12.243C12.2364 18.2412 12.2299 18.2414 12.2235 18.2416C12.2169 18.2413 12.2104 18.2412 12.2038 18.2412H12.1646C12.158 18.2412 12.1514 18.2414 12.145 18.2416C12.1385 18.2413 12.1319 18.2412 12.1253 18.2412H12.0861C12.0796 18.2412 12.073 18.2414 12.0664 18.2416C12.0599 18.2413 12.0533 18.2412 12.0468 18.2412H12.0076C12.001 18.2412 11.9945 18.2414 11.988 18.2416C11.9815 18.2413 11.9749 18.2412 11.9684 18.2412H11.9291C11.9226 18.2412 11.916 18.2414 11.9095 18.2416C11.9029 18.2413 11.8964 18.2412 11.8899 18.2412H11.8682V17.1536C11.8682 16.9379 11.6934 16.7631 11.4778 16.7631H8.52153C8.3059 16.7631 8.13106 16.9379 8.13106 17.1536V18.2412H8.10958C8.10301 18.2412 8.09645 18.2414 8.08989 18.2416C8.08333 18.2413 8.07677 18.2412 8.0702 18.2412H8.03098C8.02442 18.2412 8.01786 18.2414 8.0113 18.2416C8.00479 18.2413 7.99828 18.2412 7.99177 18.2412H7.95255C7.94598 18.2412 7.93942 18.2414 7.93286 18.2416C7.92635 18.2413 7.91984 18.2412 7.91333 18.2412H7.87395C7.86739 18.2412 7.86083 18.2414 7.85442 18.2416C7.84786 18.2413 7.8413 18.2412 7.83473 18.2412H7.79552C7.78895 18.2412 7.78239 18.2414 7.77587 18.2416C7.76936 18.2413 7.76285 18.2412 7.75634 18.2412H7.71712C7.71055 18.2412 7.70399 18.2414 7.69743 18.2416C7.69092 18.2413 7.68441 18.2412 7.6779 18.2412H7.63852C7.63196 18.2412 7.62555 18.2414 7.61899 18.2416C7.61249 18.2413 7.60597 18.2412 7.59946 18.2412H7.56009C7.55352 18.2412 7.54696 18.2414 7.54055 18.2416C7.534 18.2413 7.52743 18.2412 7.52087 18.2412H7.48165C7.47509 18.2412 7.46852 18.2414 7.46196 18.2416C7.45545 18.2413 7.44894 18.2412 7.44243 18.2412H7.40309C7.39653 18.2412 7.38997 18.2414 7.38356 18.2416C7.377 18.2413 7.37044 18.2412 7.36388 18.2412H7.32466C7.31809 18.2412 7.31153 18.2414 7.30497 18.2416C7.29846 18.2413 7.29195 18.2412 7.28544 18.2412H7.24622C7.23966 18.2412 7.23309 18.2414 7.22653 18.2416C7.22003 18.2413 7.21351 18.2412 7.207 18.2412H7.16763C7.16106 18.2412 7.1545 18.2414 7.14809 18.2416C7.14154 18.2413 7.13497 18.2412 7.12841 18.2412H7.08919C7.08263 18.2412 7.07606 18.2414 7.06966 18.2416C7.0631 18.2413 7.05653 18.2412 7.04997 18.2412H7.01079C7.00423 18.2412 6.99766 18.2414 6.9911 18.2416C6.9846 18.2413 6.97808 18.2412 6.97157 18.2412H6.93235C6.92579 18.2412 6.91923 18.2414 6.91267 18.2416C6.90611 18.2413 6.89954 18.2412 6.89298 18.2412H6.85376C6.8472 18.2412 6.84063 18.2414 6.83407 18.2416C6.82757 18.2413 6.82105 18.2412 6.81454 18.2412H6.77532C6.76876 18.2412 6.7622 18.2414 6.75563 18.2416C6.74908 18.2413 6.74251 18.2412 6.73595 18.2412H6.69677C6.6902 18.2412 6.68364 18.2414 6.67708 18.2416C6.67057 18.2413 6.66406 18.2412 6.65755 18.2412H6.61833C6.61177 18.2412 6.60521 18.2414 6.59864 18.2416C6.59214 18.2413 6.58562 18.2412 6.57911 18.2412H6.53989C6.53333 18.2412 6.52677 18.2414 6.52021 18.2416C6.5137 18.2413 6.50719 18.2412 6.50067 18.2412H6.4613C6.45474 18.2412 6.44817 18.2414 6.44177 18.2416C6.43521 18.2413 6.42865 18.2412 6.42208 18.2412H6.38286C6.3763 18.2412 6.36974 18.2414 6.36317 18.2416C6.35667 18.2413 6.35016 18.2412 6.34364 18.2412H6.30446C6.2979 18.2412 6.29134 18.2414 6.28478 18.2416C6.27827 18.2413 6.27176 18.2412 6.26524 18.2412H6.22587C6.21931 18.2412 6.21275 18.2414 6.20634 18.2416C6.19978 18.2413 6.19322 18.2412 6.18665 18.2412H6.14743C6.14087 18.2412 6.13431 18.2414 6.12774 18.2416C6.12124 18.2413 6.11473 18.2412 6.10821 18.2412H6.06884C6.06228 18.2412 6.05571 18.2414 6.04931 18.2416C6.04275 18.2413 6.03619 18.2412 6.02962 18.2412H5.9904C5.98388 18.2412 5.97732 18.2414 5.97087 18.2416C5.96433 18.2414 5.95777 18.2412 5.95122 18.2412H5.912C5.90544 18.2412 5.89888 18.2414 5.89247 18.2416C5.88591 18.2413 5.87935 18.2412 5.87278 18.2412H5.83357C5.827 18.2412 5.82044 18.2414 5.81388 18.2416C5.80737 18.2413 5.80086 18.2412 5.79435 18.2412H5.75497C5.74841 18.2412 5.74185 18.2414 5.73544 18.2416C5.72888 18.2413 5.72232 18.2412 5.71575 18.2412H5.67654C5.66997 18.2412 5.66341 18.2414 5.657 18.2416C5.65045 18.2413 5.64388 18.2412 5.63732 18.2412H5.59814C5.59157 18.2412 5.58501 18.2414 5.57845 18.2416C5.57189 18.2413 5.56533 18.2412 5.55876 18.2412H5.51954C5.51298 18.2412 5.50642 18.2414 5.49986 18.2416C5.49335 18.2413 5.48684 18.2412 5.48032 18.2412H5.44111C5.43454 18.2412 5.42798 18.2414 5.42142 18.2416C5.41491 18.2413 5.4084 18.2412 5.40189 18.2412H5.36251C5.35595 18.2412 5.34939 18.2414 5.34298 18.2416C5.33647 18.2413 5.32996 18.2412 5.32345 18.2412H5.28407C5.27751 18.2412 5.27099 18.2414 5.26454 18.2416C5.258 18.2414 5.25145 18.2412 5.24489 18.2412H5.20568C5.19911 18.2412 5.19255 18.2414 5.18615 18.2416C5.17959 18.2413 5.17302 18.2412 5.16646 18.2412H5.12724C5.12068 18.2412 5.11411 18.2414 5.10755 18.2416C5.10105 18.2413 5.09453 18.2412 5.08802 18.2412H5.04865C5.04208 18.2412 5.03552 18.2414 5.02911 18.2416C5.02256 18.2413 5.01599 18.2412 5.00943 18.2412H4.97021C4.96365 18.2412 4.95708 18.2414 4.95052 18.2416C4.94401 18.2413 4.9375 18.2412 4.93099 18.2412H4.89177C4.88525 18.2412 4.87868 18.2414 4.87212 18.2416C4.86556 18.2413 4.859 18.2412 4.85244 18.2412H4.81322C4.80665 18.2412 4.80009 18.2414 4.79369 18.2416C4.78713 18.2413 4.78056 18.2412 4.774 18.2412H4.73478C4.72822 18.2412 4.72165 18.2414 4.71509 18.2416C4.70859 18.2413 4.70207 18.2412 4.69556 18.2412H4.65634C4.64978 18.2412 4.64322 18.2414 4.63665 18.2416C4.63015 18.2413 4.62364 18.2412 4.61712 18.2412H4.57775C4.57119 18.2412 4.56462 18.2414 4.55822 18.2416C4.55167 18.2414 4.54512 18.2412 4.53857 18.2412H4.49935C4.49279 18.2412 4.48622 18.2414 4.47982 18.2416C4.47326 18.2413 4.4667 18.2412 4.46013 18.2412H4.42091C4.41435 18.2412 4.40779 18.2414 4.40123 18.2416C4.39472 18.2413 4.38821 18.2412 4.38169 18.2412H4.34247C4.33591 18.2412 4.32935 18.2414 4.32279 18.2416C4.31623 18.2413 4.30967 18.2412 4.3031 18.2412H4.26388C4.25732 18.2412 4.25076 18.2414 4.24435 18.2416C4.23779 18.2413 4.23123 18.2412 4.22466 18.2412H4.18544C4.17888 18.2412 4.17236 18.2414 4.1658 18.2416C4.15924 18.2413 4.15267 18.2412 4.14611 18.2412H4.10689C4.10033 18.2412 4.09376 18.2414 4.08736 18.2416C4.0808 18.2413 4.07424 18.2412 4.06767 18.2412H4.02845C4.02189 18.2412 4.01533 18.2414 4.00892 18.2416C4.00236 18.2413 3.9958 18.2412 3.98923 18.2412H3.95002C3.94345 18.2412 3.93689 18.2414 3.93033 18.2416C3.92382 18.2413 3.91731 18.2412 3.9108 18.2412H3.87158C3.86502 18.2412 3.85845 18.2414 3.85189 18.2416C3.84538 18.2413 3.83887 18.2412 3.83236 18.2412H3.79302C3.78646 18.2412 3.7799 18.2414 3.77349 18.2416C3.76693 18.2413 3.76037 18.2412 3.7538 18.2412H3.73228V17.1581C3.73228 16.9424 3.5574 16.7675 3.34181 16.7675H2.25557V16.7463C2.25557 16.7397 2.25541 16.7332 2.2551 16.7266C2.25541 16.7202 2.25557 16.7136 2.25557 16.7071V16.6677C2.25557 16.6612 2.25541 16.6546 2.2551 16.6482C2.25541 16.6416 2.25557 16.6352 2.25557 16.6285V16.5893C2.25557 16.5827 2.25541 16.5762 2.2551 16.5698C2.25541 16.5632 2.25557 16.5566 2.25557 16.5501V16.5109C2.25557 16.5043 2.25541 16.4977 2.2551 16.4913C2.25541 16.4848 2.25557 16.4782 2.25557 16.4716V16.4324C2.25557 16.4259 2.25541 16.4193 2.2551 16.4127C2.25541 16.4063 2.25557 16.3998 2.25557 16.3932V16.354C2.25557 16.3473 2.25541 16.3409 2.2551 16.3343C2.25541 16.3279 2.25557 16.3213 2.25557 16.3148V16.2756C2.25557 16.2689 2.25541 16.2625 2.2551 16.2559C2.25541 16.2493 2.25557 16.2429 2.25557 16.2362V16.197C2.25557 16.1904 2.25541 16.1839 2.2551 16.1775C2.25541 16.1709 2.25557 16.1643 2.25557 16.1578V16.1186C2.25557 16.112 2.25541 16.1054 2.2551 16.0989C2.25541 16.0925 2.25557 16.0859 2.25557 16.0793V16.0401C2.25557 16.0336 2.25541 16.027 2.2551 16.0204C2.25541 16.014 2.25557 16.0075 2.25557 16.0009V15.9617C2.25557 15.9551 2.25541 15.9486 2.2551 15.942C2.25541 15.9356 2.25557 15.929 2.25557 15.9225V15.8831C2.25557 15.8766 2.25541 15.87 2.2551 15.8636C2.25541 15.857 2.25557 15.8505 2.25557 15.8439V15.8047C2.25557 15.7981 2.25541 15.7915 2.2551 15.7851C2.25541 15.7786 2.25557 15.772 2.25557 15.7654V15.7262C2.25557 15.7197 2.25541 15.7131 2.2551 15.7067C2.25541 15.7001 2.25557 15.6936 2.25557 15.687V15.6478C2.25557 15.6412 2.25541 15.6347 2.2551 15.6281C2.25541 15.6217 2.25557 15.6151 2.25557 15.6086V15.5693C2.25557 15.5626 2.25541 15.5562 2.2551 15.5497C2.25541 15.5431 2.25557 15.5367 2.25557 15.53V15.4908C2.25557 15.4842 2.25541 15.4777 2.2551 15.4713C2.25541 15.4647 2.25557 15.4581 2.25557 15.4516V15.4124C2.25557 15.4058 2.25541 15.3992 2.2551 15.3928C2.25541 15.3863 2.25557 15.3797 2.25557 15.3731V15.3339C2.25557 15.3274 2.25541 15.3208 2.2551 15.3144C2.25541 15.3078 2.25557 15.3013 2.25557 15.2947V15.2555C2.25557 15.2489 2.25541 15.2424 2.2551 15.2358C2.25541 15.2294 2.25557 15.2228 2.25557 15.2163V15.1769C2.25557 15.1703 2.25541 15.1638 2.2551 15.1574C2.25541 15.1508 2.25557 15.1443 2.25557 15.1377V15.0985C2.25557 15.0919 2.25541 15.0854 2.2551 15.079C2.25541 15.0724 2.25557 15.0658 2.25557 15.0593V15.02C2.25557 15.0135 2.25541 15.0069 2.2551 15.0005C2.25541 14.994 2.25557 14.9874 2.25557 14.9808V14.9416C2.25557 14.935 2.25541 14.9285 2.2551 14.9219C2.25541 14.9155 2.25557 14.909 2.25557 14.9024V14.8633C2.25557 14.8567 2.25541 14.8501 2.2551 14.8436C2.25541 14.8372 2.25557 14.8306 2.25557 14.824V14.7847C2.25557 14.7781 2.25541 14.7716 2.2551 14.7651C2.25541 14.7586 2.25557 14.7522 2.25557 14.7455V14.7063C2.25557 14.6997 2.25541 14.6931 2.2551 14.6867C2.25541 14.6802 2.25557 14.6736 2.25557 14.667V14.6278C2.25557 14.6213 2.25541 14.6147 2.2551 14.6083C2.25541 14.6017 2.25557 14.5952 2.25557 14.5886V14.5494C2.25557 14.5428 2.25541 14.5363 2.2551 14.5297C2.25541 14.5233 2.25557 14.5167 2.25557 14.5102V14.4709C2.25557 14.4642 2.25541 14.4578 2.2551 14.4513C2.25541 14.4449 2.25557 14.4383 2.25557 14.4317V14.3925C2.25557 14.3858 2.25541 14.3794 2.2551 14.3729C2.25541 14.3663 2.25557 14.3599 2.25557 14.3532V14.314C2.25557 14.3074 2.25541 14.3008 2.2551 14.2944C2.25541 14.2879 2.25557 14.2813 2.25557 14.2747V14.2355C2.25557 14.229 2.25541 14.2224 2.2551 14.2158C2.25541 14.2094 2.25557 14.2029 2.25557 14.1963V14.1571C2.25557 14.1505 2.25541 14.144 2.2551 14.1374C2.25541 14.131 2.25557 14.1244 2.25557 14.1179V14.0786C2.25557 14.0721 2.25541 14.0655 2.2551 14.059C2.25541 14.0526 2.25557 14.046 2.25557 14.0394V14.0001C2.25557 13.9935 2.25541 13.987 2.2551 13.9806C2.25541 13.974 2.25557 13.9674 2.25557 13.9609V13.9217C2.25557 13.9151 2.25541 13.9085 2.2551 13.902C2.25541 13.8956 2.25557 13.889 2.25557 13.8824V13.8432C2.25557 13.8367 2.25541 13.8301 2.2551 13.8235C2.25541 13.8171 2.25557 13.8106 2.25557 13.804V13.7648C2.25557 13.7582 2.25541 13.7517 2.2551 13.7451C2.25541 13.7387 2.25557 13.7321 2.25557 13.7256V13.6863C2.25557 13.6796 2.25541 13.6732 2.2551 13.6667C2.25541 13.6601 2.25557 13.6537 2.25557 13.647V13.6078C2.25557 13.6012 2.25541 13.5947 2.2551 13.5883C2.25541 13.5817 2.25557 13.5751 2.25557 13.5686V13.5293C2.25557 13.5228 2.25541 13.5162 2.2551 13.5098C2.25541 13.5033 2.25557 13.4967 2.25557 13.4901V13.4509C2.25557 13.4443 2.25541 13.4378 2.2551 13.4312C2.25541 13.4248 2.25557 13.4183 2.25557 13.4117V13.3725C2.25557 13.3659 2.25541 13.3594 2.2551 13.3528C2.25541 13.3464 2.25557 13.3398 2.25557 13.3333V13.2939C2.25557 13.2873 2.25541 13.2808 2.2551 13.2743C2.25541 13.2678 2.25557 13.2612 2.25557 13.2547V13.2155C2.25557 13.2089 2.25541 13.2024 2.2551 13.196C2.25541 13.1894 2.25557 13.1828 2.25557 13.1763V13.137C2.25557 13.1305 2.25541 13.1239 2.2551 13.1175C2.25541 13.111 2.25557 13.1044 2.25557 13.0978V13.0586C2.25557 13.052 2.25541 13.0454 2.2551 13.0389C2.25541 13.0325 2.25557 13.0259 2.25557 13.0194V12.9801C2.25557 12.9734 2.25541 12.967 2.2551 12.9604C2.25541 12.9539 2.25557 12.9475 2.25557 12.9408V12.9017C2.25557 12.895 2.25541 12.8886 2.2551 12.882C2.25541 12.8754 2.25557 12.869 2.25557 12.8624V12.8231C2.25557 12.8166 2.25541 12.81 2.2551 12.8036C2.25541 12.797 2.25557 12.7905 2.25557 12.7839V12.7447C2.25557 12.7381 2.25541 12.7316 2.2551 12.725C2.25541 12.7186 2.25557 12.712 2.25557 12.7055V12.6663C2.25557 12.6597 2.25541 12.6531 2.2551 12.6466C2.25541 12.6402 2.25557 12.6336 2.25557 12.627V12.5878C2.25557 12.5813 2.25541 12.5747 2.2551 12.5681C2.25541 12.5617 2.25557 12.5552 2.25557 12.5486V12.5094C2.25557 12.5027 2.25541 12.4963 2.2551 12.4897C2.25541 12.4832 2.25557 12.4767 2.25557 12.4701V12.4308C2.25557 12.4243 2.25541 12.4177 2.2551 12.4113C2.25541 12.4047 2.25557 12.3982 2.25557 12.3916V12.3704H3.34674C3.56248 12.3704 3.73736 12.1955 3.73736 11.9799V9.02369C3.73736 8.80795 3.56248 8.63307 3.34674 8.63307H2.25557V8.61186C2.25557 8.6053 2.25541 8.59873 2.2551 8.59233C2.25541 8.58576 2.25557 8.5792 2.25557 8.57264V8.53342C2.25557 8.52686 2.25541 8.5203 2.2551 8.51373C2.25541 8.50733 2.25557 8.50076 2.25557 8.4942V8.45498C2.25557 8.44842 2.25541 8.4419 2.2551 8.43534C2.25541 8.42889 2.25557 8.42237 2.25557 8.4158V8.37659C2.25557 8.37002 2.25541 8.36346 2.2551 8.3569C2.25541 8.35049 2.25557 8.34393 2.25557 8.33737V8.29815C2.25557 8.29159 2.25541 8.28502 2.2551 8.27846C2.25541 8.27205 2.25557 8.26549 2.25557 8.25893V8.21955C2.25557 8.21299 2.25541 8.20643 2.2551 8.20002C2.25541 8.19346 2.25557 8.1869 2.25557 8.18034V8.14127C2.25557 8.13456 2.25541 8.12815 2.2551 8.12159C2.25541 8.11502 2.25557 8.10862 2.25557 8.1019V8.06268C2.25557 8.05616 2.25541 8.04959 2.2551 8.04315C2.25541 8.03663 2.25557 8.03006 2.25557 8.0235V7.98428C2.25557 7.97772 2.25541 7.97116 2.2551 7.96475C2.25541 7.95819 2.25557 7.95163 2.25557 7.94506V7.90584C2.25557 7.89928 2.25541 7.89272 2.2551 7.88616C2.25541 7.87975 2.25557 7.87319 2.25557 7.86663V7.82741C2.25557 7.82084 2.25541 7.81428 2.2551 7.80788C2.25541 7.80131 2.25557 7.79475 2.25557 7.78819V7.74897C2.25557 7.74241 2.25541 7.73585 2.2551 7.72928C2.25541 7.72288 2.25557 7.71631 2.25557 7.70975V7.67053C2.25557 7.66397 2.25541 7.65741 2.2551 7.65088C2.25541 7.64444 2.25557 7.63788 2.25557 7.63135V7.59198C2.25557 7.58542 2.25541 7.57885 2.2551 7.57245C2.25541 7.56588 2.25557 7.55932 2.25557 7.55292V7.51354C2.25557 7.50698 2.25541 7.50042 2.2551 7.49401C2.25541 7.48745 2.25557 7.48088 2.25557 7.47432V7.4351C2.25557 7.42854 2.25541 7.42198 2.2551 7.41557C2.25541 7.40901 2.25557 7.40245 2.25557 7.39588V7.35667C2.25557 7.3501 2.25541 7.34354 2.2551 7.33698C2.25541 7.33057 2.25557 7.32401 2.25557 7.31745V7.27823C2.25557 7.27167 2.25541 7.26514 2.2551 7.25858C2.25541 7.25214 2.25557 7.24561 2.25557 7.23905V7.19983C2.25557 7.19327 2.25541 7.18671 2.2551 7.18014C2.25541 7.17374 2.25557 7.16717 2.25557 7.16061V7.12139C2.25557 7.11483 2.25541 7.10827 2.2551 7.10171C2.25541 7.0953 2.25557 7.08874 2.25557 7.08217V7.04296C2.25557 7.03624 2.25541 7.02983 2.2551 7.02327C2.25541 7.01671 2.25557 7.0103 2.25557 7.00358V6.96436C2.25557 6.9578 2.25541 6.95124 2.2551 6.94483C2.25541 6.93827 2.25557 6.93186 2.25557 6.92514V6.88592C2.25557 6.8794 2.25541 6.87284 2.2551 6.86639C2.25541 6.85987 2.25557 6.85331 2.25557 6.84675V6.80753C2.25557 6.80096 2.25541 6.7944 2.2551 6.788C2.25541 6.78143 2.25557 6.77487 2.25557 6.76831V6.72909C2.25557 6.72253 2.25541 6.71596 2.2551 6.7094C2.25541 6.703 2.25557 6.69643 2.25557 6.68987V6.65096C2.25557 6.6444 2.25541 6.63784 2.2551 6.63128C2.25541 6.62487 2.25557 6.61831 2.25557 6.61175V6.57253C2.25557 6.56581 2.25541 6.5594 2.2551 6.55284C2.25541 6.54628 2.25557 6.53987 2.25557 6.53315V6.49393C2.25557 6.48737 2.25541 6.48081 2.2551 6.4744C2.25541 6.46784 2.25557 6.46128 2.25557 6.45471V6.41553C2.25557 6.40897 2.25541 6.40241 2.2551 6.396C2.25541 6.38944 2.25557 6.38288 2.25557 6.37632V6.3371C2.25557 6.33053 2.25541 6.32397 2.2551 6.31757C2.25541 6.311 2.25557 6.30444 2.25557 6.29788V6.25866C2.25557 6.2521 2.25541 6.24554 2.2551 6.23897C2.25541 6.23257 2.25557 6.226 2.25557 6.21944V6.18022C2.25557 6.17366 2.25541 6.1671 2.2551 6.16054C2.25541 6.15413 2.25557 6.14757 2.25557 6.141V6.10179C2.25557 6.09522 2.25541 6.08866 2.2551 6.0821C2.25541 6.07569 2.25557 6.06913 2.25557 6.06257V6.02335C2.25557 6.01679 2.25541 6.01026 2.2551 6.0037C2.25541 5.99725 2.25557 5.99073 2.25557 5.98417V5.94495C2.25557 5.93823 2.25541 5.93182 2.2551 5.92526C2.25541 5.9187 2.25557 5.91229 2.25557 5.90557V5.86636C2.25557 5.85979 2.25541 5.85323 2.2551 5.84683C2.25541 5.84026 2.25557 5.8337 2.25557 5.82714V5.78792C2.25557 5.78136 2.25541 5.77479 2.2551 5.76839C2.25541 5.76183 2.25557 5.75526 2.25557 5.7487V5.70948C2.25557 5.70292 2.25541 5.69636 2.2551 5.68995C2.25541 5.68339 2.25557 5.67683 2.25557 5.67026V5.63104C2.25557 5.62452 2.25541 5.61796 2.2551 5.6114C2.25541 5.60499 2.25557 5.59843 2.25557 5.59187V5.55265C2.25557 5.54608 2.25541 5.53952 2.2551 5.53296C2.25541 5.52655 2.25557 5.51999 2.25557 5.51343V5.47421C2.25557 5.46765 2.25541 5.46108 2.2551 5.45452C2.25541 5.44811 2.25557 5.44155 2.25557 5.43499V5.39577C2.25557 5.38921 2.25541 5.38265 2.2551 5.37608C2.25541 5.36968 2.25557 5.36312 2.25557 5.35655V5.31718C2.25557 5.31062 2.25541 5.30405 2.2551 5.29765C2.25541 5.29108 2.25557 5.28452 2.25557 5.27796V5.23878C2.25557 5.23222 2.25541 5.22565 2.2551 5.21925C2.25541 5.21269 2.25557 5.20612 2.25557 5.19956V5.16034C2.25557 5.15378 2.25541 5.14722 2.2551 5.14081C2.25541 5.13425 2.25557 5.12769 2.25557 5.12112V5.0819C2.25557 5.07534 2.25541 5.06878 2.2551 5.06222C2.25541 5.05581 2.25557 5.04925 2.25557 5.04269V5.00347C2.25557 4.99691 2.25541 4.99034 2.2551 4.98378C2.25541 4.97737 2.25557 4.97081 2.25557 4.96425V4.92503C2.25557 4.91847 2.25541 4.91191 2.2551 4.90534C2.25541 4.89894 2.25557 4.89237 2.25557 4.88581V4.84659C2.25557 4.84003 2.25541 4.83351 2.2551 4.82694C2.25541 4.8205 2.25557 4.81398 2.25557 4.80741V4.76819C2.25557 4.76148 2.25541 4.75507 2.2551 4.74851C2.25541 4.74194 2.25557 4.73554 2.25557 4.72882V4.6896C2.25557 4.68304 2.25541 4.67648 2.2551 4.67007C2.25541 4.66351 2.25557 4.65694 2.25557 4.65038V4.61116C2.25557 4.6046 2.25541 4.59804 2.2551 4.59163C2.25541 4.58507 2.25557 4.57851 2.25557 4.57194V4.53273C2.25557 4.52616 2.25541 4.5196 2.2551 4.5132C2.25541 4.50663 2.25557 4.50007 2.25557 4.49351V4.45429C2.25557 4.44777 2.25541 4.4412 2.2551 4.43464C2.25541 4.42823 2.25557 4.42167 2.25557 4.41511V4.37589C2.25557 4.36933 2.25541 4.36277 2.2551 4.3562C2.25541 4.3498 2.25557 4.34323 2.25557 4.33667V4.29745C2.25557 4.29089 2.25541 4.28433 2.2551 4.27777C2.25541 4.27136 2.25557 4.2648 2.25557 4.25823V4.23702H3.34674C3.56248 4.23702 3.73736 4.06214 3.73736 3.8464V2.75539H3.75826C3.76482 2.75539 3.77138 2.75523 3.77779 2.75496C3.78435 2.75523 3.79091 2.75539 3.79748 2.75539H3.83654C3.8431 2.75539 3.84966 2.75523 3.85623 2.75496C3.86263 2.75523 3.86919 2.75539 3.87576 2.75539H3.91498C3.92154 2.75539 3.9281 2.75523 3.93451 2.75496C3.94107 2.75523 3.94748 2.75539 3.95419 2.75539H3.99337C3.99994 2.75539 4.00638 2.75523 4.01291 2.75496C4.01947 2.75523 4.02591 2.75539 4.03244 2.75539H4.07166C4.07822 2.75539 4.08478 2.75523 4.09134 2.75496C4.09775 2.75523 4.10431 2.75539 4.11087 2.75539H4.15009C4.15665 2.75539 4.16306 2.75523 4.16962 2.75496C4.17619 2.75523 4.18259 2.75539 4.18916 2.75539H4.22837C4.23494 2.75539 4.2415 2.75523 4.24806 2.75496C4.25447 2.75523 4.26103 2.75539 4.26759 2.75539H4.30681C4.31337 2.75539 4.31994 2.75523 4.32634 2.75496C4.3329 2.75523 4.33947 2.75539 4.34603 2.75539H4.38525C4.39181 2.75539 4.39822 2.75523 4.40478 2.75496C4.41119 2.75523 4.41775 2.75539 4.42431 2.75539H4.46353C4.47009 2.75539 4.47665 2.75523 4.48306 2.75496C4.48962 2.75523 4.49619 2.75539 4.50275 2.75539H4.54193C4.54849 2.75539 4.5549 2.75523 4.56146 2.75496C4.56802 2.75523 4.57443 2.75539 4.58099 2.75539H4.62021C4.62677 2.75539 4.63333 2.75523 4.6399 2.75496C4.6463 2.75523 4.65286 2.75539 4.65943 2.75539H4.69865C4.70521 2.75539 4.71177 2.75523 4.71818 2.75496C4.72474 2.75523 4.7313 2.75539 4.73786 2.75539H4.77693C4.78349 2.75539 4.79005 2.75523 4.79661 2.75496C4.80302 2.75523 4.80958 2.75539 4.81615 2.75539H4.85536C4.86193 2.75539 4.86849 2.75523 4.87505 2.75496C4.88146 2.75523 4.88802 2.75539 4.89458 2.75539H4.93365C4.94021 2.75539 4.94677 2.75523 4.95333 2.75496C4.95974 2.75523 4.9663 2.75539 4.97286 2.75539H5.01208C5.01865 2.75539 5.02521 2.75523 5.03161 2.75496C5.03818 2.75523 5.04474 2.75539 5.0513 2.75539H5.09048C5.09704 2.75539 5.10361 2.75523 5.11001 2.75496C5.11657 2.75523 5.12298 2.75539 5.1297 2.75539H5.16876C5.17533 2.75539 5.18189 2.75523 5.18829 2.75496C5.19486 2.75523 5.20142 2.75539 5.20798 2.75539H5.2472C5.25376 2.75539 5.26032 2.75523 5.26673 2.75496C5.27329 2.75523 5.27986 2.75539 5.28642 2.75539H5.32548C5.33204 2.75539 5.33861 2.75523 5.34517 2.75496C5.35157 2.75523 5.35814 2.75539 5.3647 2.75539H5.40392C5.41048 2.75539 5.41704 2.75523 5.42345 2.75496C5.43001 2.75523 5.43657 2.75539 5.44314 2.75539H5.4822C5.48876 2.75539 5.49532 2.75523 5.50189 2.75496C5.50829 2.75523 5.51486 2.75539 5.52142 2.75539H5.56064C5.5672 2.75539 5.57376 2.75523 5.58029 2.75496C5.58673 2.75523 5.59329 2.75539 5.59982 2.75539H5.63903C5.6456 2.75539 5.65216 2.75523 5.65857 2.75496C5.66513 2.75523 5.67153 2.75539 5.6781 2.75539H5.71732C5.72388 2.75539 5.73044 2.75523 5.737 2.75496C5.74341 2.75523 5.74997 2.75539 5.75654 2.75539H5.79575C5.80232 2.75539 5.80888 2.75523 5.81528 2.75496C5.82185 2.75523 5.82841 2.75539 5.83497 2.75539H5.87419C5.88075 2.75539 5.88716 2.75523 5.89372 2.75496C5.90028 2.75523 5.90669 2.75539 5.91325 2.75539H5.95247C5.95903 2.75539 5.9656 2.75523 5.972 2.75496C5.97857 2.75523 5.98513 2.75539 5.99169 2.75539H6.03091C6.03747 2.75539 6.04388 2.75523 6.05044 2.75496C6.057 2.75523 6.06341 2.75539 6.06997 2.75539H6.10919C6.11575 2.75539 6.12228 2.75523 6.12884 2.75496C6.13528 2.75523 6.14181 2.75539 6.14837 2.75539H6.18759C6.19415 2.75539 6.20056 2.75523 6.20712 2.75496C6.21368 2.75523 6.22009 2.75539 6.22665 2.75539H6.26587C6.27243 2.75539 6.279 2.75523 6.28556 2.75496C6.29196 2.75523 6.29853 2.75539 6.30509 2.75539H6.34431C6.35087 2.75539 6.35743 2.75523 6.36384 2.75496C6.3704 2.75523 6.37696 2.75539 6.38353 2.75539H6.42274C6.42915 2.75539 6.43571 2.75523 6.44228 2.75496C6.44868 2.75523 6.45524 2.75539 6.46181 2.75539H6.50103C6.50759 2.75539 6.51415 2.75523 6.52056 2.75496C6.52712 2.75523 6.53368 2.75539 6.54024 2.75539H6.57946C6.58603 2.75539 6.59259 2.75523 6.59899 2.75496C6.60556 2.75523 6.61212 2.75539 6.61868 2.75539H6.65774C6.66427 2.75539 6.67083 2.75523 6.67728 2.75496C6.6838 2.75523 6.69036 2.75539 6.69692 2.75539H6.73614C6.7427 2.75539 6.74927 2.75523 6.75567 2.75496C6.76224 2.75523 6.7688 2.75539 6.77536 2.75539H6.81442C6.82099 2.75539 6.82755 2.75523 6.83411 2.75496C6.84052 2.75523 6.84708 2.75539 6.85364 2.75539H6.89286C6.89942 2.75539 6.90599 2.75523 6.91255 2.75496C6.91895 2.75523 6.92552 2.75539 6.93208 2.75539H6.97114C6.9777 2.75539 6.98427 2.75523 6.99083 2.75496C6.99724 2.75523 7.0038 2.75539 7.01036 2.75539H7.04958C7.05614 2.75539 7.0627 2.75523 7.06927 2.75496C7.07567 2.75523 7.08224 2.75539 7.0888 2.75539H7.12802C7.13458 2.75539 7.14114 2.75523 7.14755 2.75496C7.15411 2.75523 7.16067 2.75539 7.1672 2.75539H7.20626C7.21282 2.75539 7.21938 2.75523 7.22595 2.75496C7.23235 2.75523 7.23891 2.75539 7.24548 2.75539H7.2847C7.29126 2.75539 7.29782 2.75523 7.30423 2.75496C7.31079 2.75523 7.31735 2.75539 7.32391 2.75539H7.36313C7.3697 2.75539 7.3761 2.75523 7.38266 2.75496C7.38923 2.75523 7.39563 2.75539 7.4022 2.75539H7.44141C7.44798 2.75539 7.45454 2.75523 7.46095 2.75496C7.46751 2.75523 7.47391 2.75539 7.48063 2.75539H7.51985C7.52641 2.75539 7.53282 2.75523 7.53938 2.75496C7.54595 2.75523 7.55235 2.75539 7.55891 2.75539H7.59813C7.60469 2.75539 7.61126 2.75523 7.61782 2.75496C7.62423 2.75523 7.63079 2.75539 7.63735 2.75539H7.67657C7.68313 2.75539 7.68966 2.75523 7.6961 2.75496C7.70266 2.75523 7.70907 2.75539 7.71563 2.75539H7.75481C7.76137 2.75539 7.76794 2.75523 7.7745 2.75496C7.78091 2.75523 7.78747 2.75539 7.79403 2.75539H7.83325C7.83981 2.75539 7.84637 2.75523 7.85278 2.75496C7.85934 2.75523 7.86591 2.75539 7.87247 2.75539H7.91169C7.91825 2.75539 7.92466 2.75523 7.93122 2.75496C7.93762 2.75523 7.94419 2.75539 7.95075 2.75539H7.98997C7.99653 2.75539 8.00309 2.75523 8.0095 2.75496C8.01606 2.75523 8.02262 2.75539 8.02919 2.75539H8.06841C8.07497 2.75539 8.08153 2.75523 8.08794 2.75496C8.0945 2.75523 8.10106 2.75539 8.10762 2.75539H8.12852V3.84671C8.12852 4.06234 8.30325 4.23718 8.51899 4.23718H11.4752C11.6909 4.23718 11.8657 4.0623 11.8657 3.84671V2.75539H11.8866C11.8932 2.75539 11.8997 2.75523 11.9063 2.75496C11.9127 2.75523 11.9193 2.75539 11.9258 2.75539H11.965C11.9716 2.75539 11.9782 2.75523 11.9846 2.75496C11.9911 2.75523 11.9977 2.75539 12.0043 2.75539H12.0433C12.0499 2.75539 12.0564 2.75523 12.063 2.75496C12.0694 2.75523 12.076 2.75539 12.0825 2.75539H12.1217C12.1283 2.75539 12.1348 2.75523 12.1412 2.75496C12.1478 2.75523 12.1544 2.75539 12.1609 2.75539H12.2C12.2066 2.75539 12.2131 2.75523 12.2197 2.75496C12.2261 2.75523 12.2327 2.75539 12.2392 2.75539H12.2784C12.285 2.75539 12.2916 2.75523 12.298 2.75496C12.3045 2.75523 12.3111 2.75539 12.3177 2.75539H12.3569C12.3634 2.75539 12.37 2.75523 12.3764 2.75496C12.383 2.75523 12.3894 2.75539 12.3961 2.75539H12.4352C12.4417 2.75539 12.4483 2.75523 12.4547 2.75496C12.4612 2.75523 12.4678 2.75539 12.4744 2.75539H12.5136C12.5202 2.75539 12.5267 2.75523 12.5331 2.75496C12.5397 2.75523 12.5462 2.75539 12.5528 2.75539H12.5919C12.5984 2.75539 12.605 2.75523 12.6115 2.75496C12.618 2.75523 12.6245 2.75539 12.6311 2.75539H12.6703C12.6768 2.75539 12.6834 2.75523 12.6898 2.75496C12.6964 2.75523 12.7029 2.75539 12.7095 2.75539H12.7487C12.7553 2.75539 12.7617 2.75523 12.7682 2.75496C12.7748 2.75523 12.7812 2.75539 12.7878 2.75539H12.827C12.8336 2.75539 12.8401 2.75523 12.8467 2.75496C12.8531 2.75523 12.8596 2.75539 12.8662 2.75539H12.9054C12.912 2.75539 12.9186 2.75523 12.925 2.75496C12.9315 2.75523 12.9379 2.75539 12.9445 2.75539H12.9837C12.9903 2.75539 12.9968 2.75523 13.0034 2.75496C13.0098 2.75523 13.0164 2.75539 13.0229 2.75539H13.0621C13.0687 2.75539 13.0753 2.75523 13.0817 2.75496C13.0882 2.75523 13.0948 2.75539 13.1014 2.75539H13.1405C13.1471 2.75539 13.1535 2.75523 13.1601 2.75496C13.1666 2.75523 13.173 2.75539 13.1796 2.75539H13.2188C13.2254 2.75539 13.2319 2.75523 13.2384 2.75496C13.2449 2.75523 13.2515 2.75539 13.258 2.75539H13.2973C13.3038 2.75539 13.3102 2.75523 13.3168 2.75496C13.3234 2.75523 13.3298 2.75539 13.3363 2.75539H13.3755C13.3821 2.75539 13.3887 2.75523 13.3952 2.75496C13.4016 2.75523 13.4082 2.75539 13.4148 2.75539H13.454C13.4605 2.75539 13.4671 2.75523 13.4735 2.75496C13.4801 2.75523 13.4866 2.75539 13.4932 2.75539H13.5323C13.5388 2.75539 13.5454 2.75523 13.5519 2.75496C13.5584 2.75523 13.5649 2.75539 13.5715 2.75539H13.6107C13.6173 2.75539 13.6238 2.75523 13.6302 2.75496C13.6368 2.75523 13.6434 2.75539 13.6499 2.75539H13.689C13.6955 2.75539 13.7021 2.75523 13.7086 2.75496C13.715 2.75523 13.7216 2.75539 13.7282 2.75539H13.7674C13.7739 2.75539 13.7805 2.75523 13.7869 2.75496C13.7935 2.75523 13.8 2.75539 13.8066 2.75539H13.8458C13.8524 2.75539 13.8589 2.75523 13.8653 2.75496C13.8719 2.75523 13.8785 2.75539 13.885 2.75539H13.9241C13.9307 2.75539 13.9372 2.75523 13.9436 2.75496C13.9502 2.75523 13.9568 2.75539 13.9633 2.75539H14.0025C14.0091 2.75539 14.0157 2.75523 14.0221 2.75496C14.0286 2.75523 14.0352 2.75539 14.0418 2.75539H14.0808C14.0874 2.75539 14.0939 2.75523 14.1005 2.75496C14.1069 2.75523 14.1135 2.75539 14.12 2.75539H14.1593C14.1658 2.75539 14.1724 2.75523 14.1789 2.75496C14.1853 2.75523 14.1919 2.75539 14.1984 2.75539H14.2375C14.2441 2.75539 14.2506 2.75523 14.2572 2.75496C14.2636 2.75523 14.2702 2.75539 14.2767 2.75539H14.3159C14.3225 2.75539 14.3291 2.75523 14.3355 2.75496C14.342 2.75523 14.3486 2.75539 14.3552 2.75539H14.3944C14.4009 2.75539 14.4075 2.75523 14.4139 2.75496C14.4205 2.75523 14.4269 2.75539 14.4336 2.75539H14.4727C14.4792 2.75539 14.4858 2.75523 14.4923 2.75496C14.4987 2.75523 14.5053 2.75539 14.5119 2.75539H14.5511C14.5576 2.75539 14.5642 2.75523 14.5706 2.75496C14.5772 2.75523 14.5836 2.75539 14.5903 2.75539H14.6295C14.6361 2.75539 14.6425 2.75523 14.6491 2.75496C14.6556 2.75523 14.662 2.75539 14.6686 2.75539H14.7078C14.7144 2.75539 14.7209 2.75523 14.7273 2.75496C14.7339 2.75523 14.7404 2.75539 14.747 2.75539H14.7862C14.7928 2.75539 14.7992 2.75523 14.8057 2.75496C14.8123 2.75523 14.8187 2.75539 14.8253 2.75539H14.8645C14.871 2.75539 14.8776 2.75523 14.8842 2.75496C14.8906 2.75523 14.8971 2.75539 14.9037 2.75539H14.9429C14.9495 2.75539 14.9559 2.75523 14.9625 2.75496C14.969 2.75523 14.9754 2.75539 14.982 2.75539H15.0212C15.0278 2.75539 15.0343 2.75523 15.0409 2.75496C15.0473 2.75523 15.0539 2.75539 15.0604 2.75539H15.0996C15.1062 2.75539 15.1128 2.75523 15.1192 2.75496C15.1257 2.75523 15.1323 2.75539 15.1389 2.75539H15.1781C15.1846 2.75539 15.191 2.75523 15.1976 2.75496C15.204 2.75523 15.2106 2.75539 15.2171 2.75539H15.2564C15.2629 2.75539 15.2694 2.75523 15.276 2.75496C15.2824 2.75523 15.289 2.75539 15.2955 2.75539H15.3348C15.3413 2.75539 15.3479 2.75523 15.3543 2.75496C15.3609 2.75523 15.3674 2.75539 15.374 2.75539H15.413C15.4196 2.75539 15.4262 2.75523 15.4327 2.75496C15.4391 2.75523 15.4457 2.75539 15.4523 2.75539H15.4915C15.498 2.75539 15.5046 2.75523 15.511 2.75496C15.5176 2.75523 15.5241 2.75539 15.5307 2.75539H15.5698C15.5763 2.75539 15.5829 2.75523 15.5894 2.75496C15.5959 2.75523 15.6024 2.75539 15.609 2.75539H15.6482C15.6548 2.75539 15.6613 2.75523 15.6677 2.75496C15.6743 2.75523 15.6809 2.75539 15.6874 2.75539H15.7265C15.733 2.75539 15.7396 2.75523 15.7462 2.75496C15.7526 2.75523 15.7591 2.75539 15.7657 2.75539H15.8049C15.8114 2.75539 15.818 2.75523 15.8244 2.75496C15.831 2.75523 15.8375 2.75539 15.8441 2.75539H15.8833C15.8899 2.75539 15.8964 2.75523 15.9028 2.75496C15.9094 2.75523 15.9158 2.75539 15.9225 2.75539H15.9616C15.9682 2.75539 15.9747 2.75523 15.9813 2.75496C15.9877 2.75523 15.9942 2.75539 16.0008 2.75539H16.04C16.0466 2.75539 16.0532 2.75523 16.0596 2.75496C16.0661 2.75523 16.0727 2.75539 16.0792 2.75539H16.1185C16.125 2.75539 16.1314 2.75523 16.138 2.75496C16.1446 2.75523 16.151 2.75539 16.1575 2.75539H16.1967C16.2033 2.75539 16.2099 2.75523 16.2163 2.75496C16.2228 2.75523 16.2294 2.75539 16.236 2.75539H16.2569V3.84671C16.2569 4.06234 16.4317 4.23718 16.6473 4.23718H17.7386V4.24527C17.7386 4.25167 17.7388 4.25792 17.7391 4.26417C17.7388 4.27042 17.7386 4.27687 17.7386 4.28312V4.32109C17.7386 4.32749 17.7388 4.33378 17.7391 4.34003C17.7388 4.34633 17.7386 4.35263 17.7386 4.35894V4.39695C17.7386 4.4032 17.7388 4.4096 17.7391 4.41585C17.7388 4.42215 17.7386 4.42845 17.7386 4.43476V4.47265C17.7386 4.47902 17.7388 4.48527 17.7391 4.49171C17.7388 4.49801 17.7386 4.50431 17.7386 4.51062V4.54847C17.7386 4.55487 17.7388 4.56112 17.7391 4.56737C17.7388 4.57378 17.7386 4.58003 17.7386 4.58628V4.62429C17.7386 4.63054 17.7388 4.63694 17.7391 4.64319C17.7388 4.64945 17.7386 4.65589 17.7386 4.66214V4.69999C17.7386 4.7064 17.7388 4.71265 17.7391 4.71905C17.7388 4.72535 17.7386 4.73166 17.7386 4.73796V4.77581C17.7386 4.78222 17.7388 4.78847 17.7391 4.79472C17.7388 4.80112 17.7386 4.80741 17.7386 4.81382V4.85163C17.7386 4.85804 17.7392 4.86433 17.7396 4.87058C17.7392 4.87698 17.7386 4.88323 17.7386 4.88948V4.90901C17.7386 5.1248 17.9135 5.29964 18.1291 5.29964C18.3449 5.29964 18.5197 5.1248 18.5197 4.90901V4.88948C18.5197 4.88308 18.5189 4.87698 18.5187 4.87058C18.519 4.86433 18.5197 4.85808 18.5197 4.85163V4.81382C18.5197 4.80741 18.5196 4.80112 18.5193 4.79472C18.5196 4.78847 18.5197 4.78222 18.5197 4.77581V4.73796C18.5197 4.73155 18.5196 4.7253 18.5193 4.71905C18.5196 4.71265 18.5197 4.7064 18.5197 4.69999V4.6621C18.5197 4.65585 18.5196 4.64948 18.5193 4.64319C18.5196 4.63694 18.5197 4.63054 18.5197 4.62429V4.58628C18.5197 4.58003 18.5196 4.57378 18.5193 4.56737C18.5196 4.56112 18.5197 4.55487 18.5197 4.54847V4.51058C18.5197 4.50421 18.5196 4.49796 18.5193 4.49171C18.5196 4.48527 18.5197 4.47902 18.5197 4.47261V4.43476C18.5197 4.42835 18.5196 4.4221 18.5193 4.41585C18.5196 4.4096 18.5197 4.4032 18.5197 4.39695V4.35894C18.5197 4.35253 18.5196 4.34628 18.5193 4.34003C18.5196 4.33378 18.5197 4.32753 18.5197 4.32109V4.28312C18.5197 4.27687 18.5196 4.27042 18.5193 4.26417C18.5196 4.25792 18.5197 4.25167 18.5197 4.24527V4.23718H19.6036C19.8215 4.23718 19.9963 4.0623 19.9963 3.84671ZM17.0401 9.41432H19.2152V11.5895H17.0401L17.0401 9.41432ZM17.0483 17.5482H19.2152V19.7152H17.0483V17.5482ZM8.91067 17.5437H11.0858V19.7189H8.91067V17.5437ZM2.94818 19.7152H0.781115V17.5482H2.94818V19.7152ZM2.95627 11.5894H0.781115V9.41432H2.95627V11.5894ZM2.95627 3.45609H0.781115V1.28109H2.95627V3.45609ZM11.0857 3.45609H8.91067V1.28109H11.0857V3.45609ZM19.2152 3.45609H17.0401V1.28109H19.2152V3.45609Z" fill="#5C5E61"/>
<path d="M9.97087 13.3514C10.1866 13.3514 10.3613 13.1765 10.3613 12.9607V10.8623H12.4599C12.6756 10.8623 12.8505 10.6875 12.8505 10.4717C12.8505 10.2561 12.6756 10.0812 12.4599 10.0812H10.3613V7.98272C10.3613 7.7671 10.1866 7.59226 9.97087 7.59226C9.75524 7.59226 9.5804 7.7671 9.5804 7.98272V10.0812H7.48184C7.2661 10.0812 7.09122 10.2561 7.09122 10.4717C7.09122 10.6875 7.2661 10.8623 7.48184 10.8623H9.5804V12.9608C9.5804 13.1765 9.75524 13.3514 9.97087 13.3514V13.3514ZM18.492 6.30909C18.4822 6.28553 18.4702 6.263 18.456 6.24183C18.4419 6.22034 18.4256 6.2005 18.4076 6.18245C18.3896 6.1644 18.3698 6.14815 18.3482 6.13362C18.3269 6.11948 18.3043 6.10748 18.2806 6.0978C18.2571 6.08802 18.2327 6.08057 18.2077 6.07554C18.1573 6.06532 18.1054 6.06532 18.055 6.07554C18.0304 6.08054 18.0057 6.08804 17.9819 6.0978C17.9585 6.10757 17.9358 6.1196 17.9147 6.13366C17.8932 6.14812 17.8734 6.16448 17.8554 6.18249C17.8374 6.20046 17.8211 6.22034 17.8065 6.24187C17.7783 6.28441 17.7585 6.33204 17.7484 6.3821C17.7334 6.45786 17.7412 6.53636 17.7707 6.60772C17.7804 6.63124 17.7925 6.65429 17.8066 6.6753C17.821 6.69687 17.8374 6.71671 17.8554 6.73468C17.8734 6.75269 17.8932 6.76905 17.9148 6.78308C17.9358 6.79726 17.9585 6.80933 17.9819 6.81909C18.0057 6.82886 18.0304 6.83616 18.055 6.84136C18.0803 6.8464 18.1061 6.84866 18.1316 6.84866C18.1569 6.84866 18.1827 6.8464 18.2077 6.84136C18.2326 6.83616 18.2573 6.82886 18.2806 6.81909C18.3043 6.80941 18.327 6.79734 18.3482 6.78308C18.3696 6.76904 18.3895 6.75282 18.4076 6.73468C18.4256 6.71671 18.442 6.69687 18.456 6.6753C18.4702 6.65402 18.4823 6.63138 18.492 6.60772C18.5018 6.5844 18.5092 6.55983 18.5143 6.5348C18.5193 6.50976 18.5221 6.48401 18.5221 6.45866C18.5219 6.40733 18.5117 6.35648 18.492 6.30909Z" fill="#5C5E61"/>
</g>
<defs>
<clipPath id="clip0_4592_188">
<rect width="20" height="20" fill="white" transform="translate(0 0.5)"/>
</clipPath>
</defs>
</svg>
