<svg width="20" height="20" viewBox="0 0 20 20" fill="none" xmlns="http://www.w3.org/2000/svg">
<path d="M9.5681 2.91569C9.60335 2.82971 9.66337 2.75617 9.74054 2.7044C9.8177 2.65264 9.90852 2.625 10.0014 2.625C10.0944 2.625 10.1852 2.65264 10.2623 2.7044C10.3395 2.75617 10.3995 2.82971 10.4348 2.91569L12.2056 7.17485C12.2388 7.25455 12.2932 7.32356 12.3631 7.37428C12.4329 7.425 12.5154 7.45548 12.6014 7.46235L17.1998 7.83069C17.6156 7.86402 17.7839 8.38319 17.4673 8.65402L13.9639 11.6557C13.8985 11.7117 13.8497 11.7846 13.823 11.8665C13.7962 11.9484 13.7925 12.036 13.8123 12.1199L14.8831 16.6074C14.9046 16.6974 14.899 16.7918 14.8669 16.8786C14.8348 16.9654 14.7777 17.0408 14.7028 17.0952C14.6279 17.1496 14.5386 17.1806 14.4461 17.1842C14.3536 17.1879 14.2621 17.164 14.1831 17.1157L10.2456 14.7115C10.1721 14.6666 10.0876 14.6428 10.0014 14.6428C9.91528 14.6428 9.83079 14.6666 9.75727 14.7115L5.81977 17.1165C5.74082 17.1648 5.64932 17.1887 5.55682 17.185C5.46432 17.1814 5.37498 17.1504 5.30008 17.096C5.22518 17.0416 5.16807 16.9663 5.13598 16.8794C5.10389 16.7926 5.09825 16.6982 5.11977 16.6082L6.19061 12.1199C6.21046 12.036 6.20681 11.9483 6.18006 11.8664C6.1533 11.7845 6.10447 11.7116 6.03894 11.6557L2.53561 8.65402C2.46506 8.59388 2.41394 8.51416 2.38874 8.42495C2.36353 8.33574 2.36537 8.24106 2.39401 8.15289C2.42266 8.06473 2.47682 7.98705 2.54965 7.92969C2.62247 7.87233 2.71068 7.83788 2.80311 7.83069L7.40144 7.46235C7.48748 7.45548 7.56996 7.425 7.63979 7.37428C7.70963 7.32356 7.76412 7.25455 7.79727 7.17485L9.5681 2.91569Z" stroke="#5C5E61" stroke-width="1.5" stroke-linecap="round" stroke-linejoin="round"/>
</svg>
