<svg width="14" height="15" viewBox="0 0 14 15" fill="none" xmlns="http://www.w3.org/2000/svg">
<g clip-path="url(#clip0_2451_16256)">
<path d="M8.96734 5.87653C8.81266 5.87653 8.64847 5.75715 8.60055 5.61006L7.08657 0.950738C7.03866 0.803611 6.96133 0.803611 6.91342 0.950738L5.39971 5.61006C5.3518 5.75719 5.1876 5.87653 5.03293 5.87653H0.133748C-0.0209289 5.87653 -0.045025 5.95023 0.0802123 6.04131L4.04351 8.92046C4.16875 9.01153 4.23152 9.20458 4.1836 9.3517L2.66993 14.0107C2.62202 14.1579 2.68479 14.2035 2.81003 14.1125L6.77332 11.2333C6.89856 11.1423 7.10146 11.1423 7.2267 11.2333L11.19 14.1128C11.3152 14.2038 11.378 14.1582 11.3301 14.011L9.81639 9.35198C9.76847 9.20485 9.83124 9.01181 9.95648 8.92073L13.9198 6.04158C14.045 5.95051 14.0209 5.87681 13.8662 5.87681H8.96734V5.87653Z" fill="#F1913D"/>
</g>
<defs>
<clipPath id="clip0_2451_16256">
<rect width="14" height="14" fill="white" transform="translate(0 0.5)"/>
</clipPath>
</defs>
</svg>
