<svg width="50" height="50" viewBox="0 0 50 50" fill="none" xmlns="http://www.w3.org/2000/svg">
<g clip-path="url(#clip0_5418_10794)">
<path d="M7.75855 18.9674H11.2068C11.4355 18.9674 11.6547 18.8765 11.8164 18.7149C11.9781 18.5532 12.0689 18.3339 12.0689 18.1053V11.2087C12.0689 10.9801 11.9781 10.7608 11.8164 10.5992C11.6547 10.4375 11.4355 10.3467 11.2068 10.3467H7.75855C7.52992 10.3467 7.31065 10.4375 7.14898 10.5992C6.98731 10.7608 6.89648 10.9801 6.89648 11.2087V18.1053C6.89648 18.3339 6.98731 18.5532 7.14898 18.7149C7.31065 18.8765 7.52992 18.9674 7.75855 18.9674ZM8.62062 12.0708H10.3448V17.2432H8.62062V12.0708ZM16.3792 18.9674H19.8275C20.0562 18.9674 20.2754 18.8765 20.4371 18.7149C20.5988 18.5532 20.6896 18.3339 20.6896 18.1053V11.2087C20.6896 10.9801 20.5988 10.7608 20.4371 10.5992C20.2754 10.4375 20.0562 10.3467 19.8275 10.3467H16.3792C16.1506 10.3467 15.9313 10.4375 15.7697 10.5992C15.608 10.7608 15.5172 10.9801 15.5172 11.2087V18.1053C15.5172 18.3339 15.608 18.5532 15.7697 18.7149C15.9313 18.8765 16.1506 18.9674 16.3792 18.9674ZM17.2413 12.0708H18.9654V17.2432H17.2413V12.0708ZM7.75855 29.3122H11.2068C11.4355 29.3122 11.6547 29.2214 11.8164 29.0597C11.9781 28.898 12.0689 28.6788 12.0689 28.4501V21.5536C12.0689 21.3249 11.9781 21.1057 11.8164 20.944C11.6547 20.7823 11.4355 20.6915 11.2068 20.6915H7.75855C7.52992 20.6915 7.31065 20.7823 7.14898 20.944C6.98731 21.1057 6.89648 21.3249 6.89648 21.5536V28.4501C6.89648 28.6788 6.98731 28.898 7.14898 29.0597C7.31065 29.2214 7.52992 29.3122 7.75855 29.3122ZM8.62062 22.4156H10.3448V27.5881H8.62062V22.4156ZM16.3792 29.3122H19.8275C20.0562 29.3122 20.2754 29.2214 20.4371 29.0597C20.5988 28.898 20.6896 28.6788 20.6896 28.4501V21.5536C20.6896 21.3249 20.5988 21.1057 20.4371 20.944C20.2754 20.7823 20.0562 20.6915 19.8275 20.6915H16.3792C16.1506 20.6915 15.9313 20.7823 15.7697 20.944C15.608 21.1057 15.5172 21.3249 15.5172 21.5536V28.4501C15.5172 28.6788 15.608 28.898 15.7697 29.0597C15.9313 29.2214 16.1506 29.3122 16.3792 29.3122ZM17.2413 22.4156H18.9654V27.5881H17.2413V22.4156ZM11.2068 39.657C11.4355 39.657 11.6547 39.5662 11.8164 39.4045C11.9781 39.2429 12.0689 39.0236 12.0689 38.795V31.8984C12.0689 31.6698 11.9781 31.4505 11.8164 31.2888C11.6547 31.1272 11.4355 31.0363 11.2068 31.0363H7.75855C7.52992 31.0363 7.31065 31.1272 7.14898 31.2888C6.98731 31.4505 6.89648 31.6698 6.89648 31.8984V38.795C6.89648 39.0236 6.98731 39.2429 7.14898 39.4045C7.31065 39.5662 7.52992 39.657 7.75855 39.657H11.2068ZM8.62062 32.7605H10.3448V37.9329H8.62062V32.7605ZM16.3792 39.657H19.8275C20.0562 39.657 20.2754 39.5662 20.4371 39.4045C20.5988 39.2429 20.6896 39.0236 20.6896 38.795V31.8984C20.6896 31.6698 20.5988 31.4505 20.4371 31.2888C20.2754 31.1272 20.0562 31.0363 19.8275 31.0363H16.3792C16.1506 31.0363 15.9313 31.1272 15.7697 31.2888C15.608 31.4505 15.5172 31.6698 15.5172 31.8984V38.795C15.5172 39.0236 15.608 39.2429 15.7697 39.4045C15.9313 39.5662 16.1506 39.657 16.3792 39.657ZM17.2413 32.7605H18.9654V37.9329H17.2413V32.7605ZM33.6206 27.5881H26.7241C26.4954 27.5881 26.2762 27.6789 26.1145 27.8406C25.9528 28.0022 25.862 28.2215 25.862 28.4501V31.8984C25.862 32.127 25.9528 32.3463 26.1145 32.508C26.2762 32.6697 26.4954 32.7605 26.7241 32.7605H33.6206C33.8493 32.7605 34.0685 32.6697 34.2302 32.508C34.3919 32.3463 34.4827 32.127 34.4827 31.8984V28.4501C34.4827 28.2215 34.3919 28.0022 34.2302 27.8406C34.0685 27.6789 33.8493 27.5881 33.6206 27.5881ZM32.7586 31.0363H27.5861V29.3122H32.7586V31.0363ZM43.9654 27.5881H37.0689C36.8403 27.5881 36.621 27.6789 36.4593 27.8406C36.2977 28.0022 36.2068 28.2215 36.2068 28.4501V31.8984C36.2068 32.127 36.2977 32.3463 36.4593 32.508C36.621 32.6697 36.8403 32.7605 37.0689 32.7605H43.9654C44.1941 32.7605 44.4134 32.6697 44.575 32.508C44.7367 32.3463 44.8275 32.127 44.8275 31.8984V28.4501C44.8275 28.2215 44.7367 28.0022 44.575 27.8406C44.4134 27.6789 44.1941 27.5881 43.9654 27.5881ZM43.1034 31.0363H37.931V29.3122H43.1034V31.0363ZM33.6206 34.4846H26.7241C26.4954 34.4846 26.2762 34.5754 26.1145 34.7371C25.9528 34.8988 25.862 35.118 25.862 35.3467V38.795C25.862 39.0236 25.9528 39.2429 26.1145 39.4045C26.2762 39.5662 26.4954 39.657 26.7241 39.657H33.6206C33.8493 39.657 34.0685 39.5662 34.2302 39.4045C34.3919 39.2429 34.4827 39.0236 34.4827 38.795V35.3467C34.4827 35.118 34.3919 34.8988 34.2302 34.7371C34.0685 34.5754 33.8493 34.4846 33.6206 34.4846ZM32.7586 37.9329H27.5861V36.2088H32.7586V37.9329ZM43.9654 34.4846H37.0689C36.8403 34.4846 36.621 34.5754 36.4593 34.7371C36.2977 34.8988 36.2068 35.118 36.2068 35.3467V38.795C36.2068 39.0236 36.2977 39.2429 36.4593 39.4045C36.621 39.5662 36.8403 39.657 37.0689 39.657H43.9654C44.1941 39.657 44.4134 39.5662 44.575 39.4045C44.7367 39.2429 44.8275 39.0236 44.8275 38.795V35.3467C44.8275 35.118 44.7367 34.8988 44.575 34.7371C44.4134 34.5754 44.1941 34.4846 43.9654 34.4846ZM43.1034 37.9329H37.931V36.2088H43.1034V37.9329Z" fill="#A8ABAE"/>
<path d="M49.1379 48.2759H47.4138V25C47.4138 24.7714 47.323 24.5521 47.1613 24.3904C46.9996 24.2288 46.7804 24.1379 46.5517 24.1379H25V7.75862C25 7.52999 24.9092 7.31072 24.7475 7.14905C24.5858 6.98738 24.3666 6.89655 24.1379 6.89655H21.5517V4.31034C21.5517 4.08171 21.4609 3.86244 21.2992 3.70077C21.1376 3.5391 20.9183 3.44828 20.6897 3.44828H18.1034V0.862069C18.1034 0.633434 18.0126 0.414163 17.851 0.252494C17.6893 0.0908248 17.47 0 17.2414 0H10.3448C10.1162 0 9.89692 0.0908248 9.73525 0.252494C9.57358 0.414163 9.48276 0.633434 9.48276 0.862069V3.44828H6.89655C6.66792 3.44828 6.44865 3.5391 6.28698 3.70077C6.12531 3.86244 6.03448 4.08171 6.03448 4.31034V6.89655H3.44828C3.21964 6.89655 3.00037 6.98738 2.8387 7.14905C2.67703 7.31072 2.58621 7.52999 2.58621 7.75862V48.2759H0.862069C0.633434 48.2759 0.414163 48.3667 0.252494 48.5284C0.0908248 48.69 0 48.9093 0 49.1379C0 49.3666 0.0908248 49.5858 0.252494 49.7475C0.414163 49.9092 0.633434 50 0.862069 50H49.1379C49.3666 50 49.5858 49.9092 49.7475 49.7475C49.9092 49.5858 50 49.3666 50 49.1379C50 48.9093 49.9092 48.69 49.7475 48.5284C49.5858 48.3667 49.3666 48.2759 49.1379 48.2759ZM11.2069 1.72414H16.3793V3.44828H11.2069V1.72414ZM7.75862 5.17241H19.8276V6.89655H7.75862V5.17241ZM4.31034 8.62069H23.2759V48.2759H18.1034V42.2414C18.1034 42.0127 18.0126 41.7935 17.851 41.6318C17.6893 41.4701 17.47 41.3793 17.2414 41.3793H10.3448C10.1162 41.3793 9.89692 41.4701 9.73525 41.6318C9.57358 41.7935 9.48276 42.0127 9.48276 42.2414V48.2759H4.31034V8.62069ZM11.2069 43.1034H12.931V48.2759H11.2069V43.1034ZM14.6552 48.2759V43.1034H16.3793V48.2759H14.6552ZM33.7293 48.2759V43.1034H37.069V48.2759H33.7293ZM38.7931 48.2759V42.2414C38.7931 42.0127 38.7023 41.7935 38.5406 41.6318C38.3789 41.4701 38.1597 41.3793 37.931 41.3793H32.8672C32.6386 41.3793 32.4193 41.4701 32.2577 41.6318C32.096 41.7935 32.0052 42.0127 32.0052 42.2414V48.2759H25V25.8621H45.6897V48.2759H38.7931Z" fill="#A8ABAE"/>
</g>
<defs>
<clipPath id="clip0_5418_10794">
<rect width="50" height="50" fill="white"/>
</clipPath>
</defs>
</svg>
