<svg width="80" height="80" viewBox="0 0 80 80" fill="none" xmlns="http://www.w3.org/2000/svg">
<mask id="path-1-inside-1_5418_10091" fill="white">
<path d="M74.6667 77V13H77.3333C77.687 13 78.0261 12.8595 78.2761 12.6095C78.5262 12.3594 78.6667 12.0203 78.6667 11.6667V2.33333C78.6667 2.1484 78.6282 1.9655 78.5537 1.79625C78.4792 1.62699 78.3703 1.47508 78.2339 1.35017C78.0976 1.22527 77.9367 1.13009 77.7616 1.07069C77.5865 1.0113 77.4009 0.988983 77.2167 1.00516L31.8833 5.00516C31.5512 5.03434 31.242 5.18689 31.0168 5.43275C30.7916 5.6786 30.6667 5.99991 30.6667 6.33333V11.6667C30.6667 12.0203 30.8071 12.3594 31.0572 12.6095C31.3072 12.8595 31.6464 13 32 13H34.6667V34.3333H37.3333V13H72V77H63.2623C63.7483 76.2098 64.0037 75.2995 64 74.3718C64 72.465 63.0015 71.4593 62.2725 70.725C61.621 70.069 61.3333 69.7475 61.3333 69C61.3333 65.687 59.5013 62.3333 56 62.3333C52.4987 62.3333 50.6667 65.687 50.6667 69C50.6667 69.7475 50.3788 70.069 49.7277 70.725C48.9985 71.4593 48 72.465 48 74.3718C47.9962 75.2994 48.2515 76.2097 48.7372 77H34.6667V59.6667C34.6667 59.313 34.5262 58.9739 34.2761 58.7239C34.0261 58.4738 33.687 58.3333 33.3333 58.3333H25.3333C24.9797 58.3333 24.6406 58.4738 24.3905 58.7239C24.1405 58.9739 24 59.313 24 59.6667V77H20V53.4553L36 46.4553L52 53.4553V61H54.6667V54.622L56.7988 55.5553C57.0018 55.6441 57.2237 55.681 57.4445 55.6625C57.6652 55.6441 57.8779 55.5709 58.0633 55.4496C58.2487 55.3283 58.4009 55.1627 58.5063 54.9678C58.6116 54.7729 58.6667 54.5549 58.6667 54.3333V47.6667C58.6667 47.4074 58.5911 47.1539 58.4492 46.9369C58.3074 46.72 58.1053 46.5491 57.8678 46.4452L36.5345 37.1118C36.366 37.0381 36.184 37 36 37C35.816 37 35.634 37.0381 35.4655 37.1118L14.1322 46.4452C13.8947 46.5491 13.6927 46.72 13.5508 46.9369C13.4089 47.1539 13.3333 47.4074 13.3333 47.6667V54.3333C13.3333 54.5548 13.3885 54.7728 13.4939 54.9677C13.5993 55.1625 13.7515 55.328 13.9369 55.4492C14.1223 55.5704 14.3349 55.6436 14.5557 55.662C14.7764 55.6805 14.9982 55.6436 15.2012 55.5548L17.3333 54.6215V77H8V54.3333H10.6667V51.6667H2.66667V22.3333H32V19.6667H23.219L18.2762 14.7238C18.1524 14.6 18.0054 14.5018 17.8436 14.4348C17.6818 14.3678 17.5084 14.3333 17.3333 14.3333H6.66667C6.31305 14.3333 5.97391 14.4738 5.72386 14.7239C5.47381 14.9739 5.33333 15.313 5.33333 15.6667V19.6667H1.33333C0.979711 19.6667 0.640573 19.8071 0.390524 20.0572C0.140476 20.3072 0 20.6464 0 21V53C0 53.3536 0.140476 53.6928 0.390524 53.9428C0.640573 54.1929 0.979711 54.3333 1.33333 54.3333H5.33333V77H0V79.6667H80V77H74.6667ZM33.3333 7.55416L76 3.7895V10.3333H33.3333V7.55416ZM16 52.2947V48.5387L36 39.7887L56 48.5387V52.2947L54.6667 51.7113V51.6667H54.5647L36.5345 43.7785C36.366 43.7047 36.184 43.6667 36 43.6667C35.816 43.6667 35.634 43.7047 35.4655 43.7785L17.4353 51.6667H17.3333V51.7113L16 52.2947ZM8 17H16.7812L19.4478 19.6667H8V17ZM26.6667 61H32V77H26.6667V61ZM53.3333 77C52.599 77 50.6667 76.1918 50.6667 74.3718C50.6667 73.5965 50.9588 73.2695 51.62 72.6037C52.343 71.8753 53.3333 70.878 53.3333 69C53.3333 65.836 55.0777 65 56 65C58.1093 65 58.6667 67.6167 58.6667 69C58.6667 70.878 59.6568 71.8753 60.3798 72.6037C61.0408 73.2703 61.3332 73.5965 61.3332 74.3718C61.3333 76.1918 59.4008 77 58.6667 77H53.3333Z"/>
</mask>
<path d="M74.6667 77V13H77.3333C77.687 13 78.0261 12.8595 78.2761 12.6095C78.5262 12.3594 78.6667 12.0203 78.6667 11.6667V2.33333C78.6667 2.1484 78.6282 1.9655 78.5537 1.79625C78.4792 1.62699 78.3703 1.47508 78.2339 1.35017C78.0976 1.22527 77.9367 1.13009 77.7616 1.07069C77.5865 1.0113 77.4009 0.988983 77.2167 1.00516L31.8833 5.00516C31.5512 5.03434 31.242 5.18689 31.0168 5.43275C30.7916 5.6786 30.6667 5.99991 30.6667 6.33333V11.6667C30.6667 12.0203 30.8071 12.3594 31.0572 12.6095C31.3072 12.8595 31.6464 13 32 13H34.6667V34.3333H37.3333V13H72V77H63.2623C63.7483 76.2098 64.0037 75.2995 64 74.3718C64 72.465 63.0015 71.4593 62.2725 70.725C61.621 70.069 61.3333 69.7475 61.3333 69C61.3333 65.687 59.5013 62.3333 56 62.3333C52.4987 62.3333 50.6667 65.687 50.6667 69C50.6667 69.7475 50.3788 70.069 49.7277 70.725C48.9985 71.4593 48 72.465 48 74.3718C47.9962 75.2994 48.2515 76.2097 48.7372 77H34.6667V59.6667C34.6667 59.313 34.5262 58.9739 34.2761 58.7239C34.0261 58.4738 33.687 58.3333 33.3333 58.3333H25.3333C24.9797 58.3333 24.6406 58.4738 24.3905 58.7239C24.1405 58.9739 24 59.313 24 59.6667V77H20V53.4553L36 46.4553L52 53.4553V61H54.6667V54.622L56.7988 55.5553C57.0018 55.6441 57.2237 55.681 57.4445 55.6625C57.6652 55.6441 57.8779 55.5709 58.0633 55.4496C58.2487 55.3283 58.4009 55.1627 58.5063 54.9678C58.6116 54.7729 58.6667 54.5549 58.6667 54.3333V47.6667C58.6667 47.4074 58.5911 47.1539 58.4492 46.9369C58.3074 46.72 58.1053 46.5491 57.8678 46.4452L36.5345 37.1118C36.366 37.0381 36.184 37 36 37C35.816 37 35.634 37.0381 35.4655 37.1118L14.1322 46.4452C13.8947 46.5491 13.6927 46.72 13.5508 46.9369C13.4089 47.1539 13.3333 47.4074 13.3333 47.6667V54.3333C13.3333 54.5548 13.3885 54.7728 13.4939 54.9677C13.5993 55.1625 13.7515 55.328 13.9369 55.4492C14.1223 55.5704 14.3349 55.6436 14.5557 55.662C14.7764 55.6805 14.9982 55.6436 15.2012 55.5548L17.3333 54.6215V77H8V54.3333H10.6667V51.6667H2.66667V22.3333H32V19.6667H23.219L18.2762 14.7238C18.1524 14.6 18.0054 14.5018 17.8436 14.4348C17.6818 14.3678 17.5084 14.3333 17.3333 14.3333H6.66667C6.31305 14.3333 5.97391 14.4738 5.72386 14.7239C5.47381 14.9739 5.33333 15.313 5.33333 15.6667V19.6667H1.33333C0.979711 19.6667 0.640573 19.8071 0.390524 20.0572C0.140476 20.3072 0 20.6464 0 21V53C0 53.3536 0.140476 53.6928 0.390524 53.9428C0.640573 54.1929 0.979711 54.3333 1.33333 54.3333H5.33333V77H0V79.6667H80V77H74.6667ZM33.3333 7.55416L76 3.7895V10.3333H33.3333V7.55416ZM16 52.2947V48.5387L36 39.7887L56 48.5387V52.2947L54.6667 51.7113V51.6667H54.5647L36.5345 43.7785C36.366 43.7047 36.184 43.6667 36 43.6667C35.816 43.6667 35.634 43.7047 35.4655 43.7785L17.4353 51.6667H17.3333V51.7113L16 52.2947ZM8 17H16.7812L19.4478 19.6667H8V17ZM26.6667 61H32V77H26.6667V61ZM53.3333 77C52.599 77 50.6667 76.1918 50.6667 74.3718C50.6667 73.5965 50.9588 73.2695 51.62 72.6037C52.343 71.8753 53.3333 70.878 53.3333 69C53.3333 65.836 55.0777 65 56 65C58.1093 65 58.6667 67.6167 58.6667 69C58.6667 70.878 59.6568 71.8753 60.3798 72.6037C61.0408 73.2703 61.3332 73.5965 61.3332 74.3718C61.3333 76.1918 59.4008 77 58.6667 77H53.3333Z" fill="#A8ABAE" stroke="white" stroke-width="1.4" mask="url(#path-1-inside-1_5418_10091)"/>
<mask id="path-2-inside-2_5418_10091" fill="white">
<path d="M38.6673 61C38.3137 61 37.9746 61.1405 37.7245 61.3906C37.4745 61.6406 37.334 61.9798 37.334 62.3334V69C37.334 69.3537 37.4745 69.6928 37.7245 69.9429C37.9746 70.1929 38.3137 70.3334 38.6673 70.3334H46.6673C47.0209 70.3334 47.3601 70.1929 47.6101 69.9429C47.8602 69.6928 48.0007 69.3537 48.0007 69V62.3334C48.0007 61.9798 47.8602 61.6406 47.6101 61.3906C47.3601 61.1405 47.0209 61 46.6673 61H38.6673ZM45.334 67.6667H40.0007V63.6667H45.334V67.6667ZM28.0007 53H30.6673V55.6667H28.0007V53ZM20.0007 41V27.6667H32.0007V25H6.66732C6.3137 25 5.97456 25.1405 5.72451 25.3906C5.47446 25.6406 5.33398 25.9798 5.33398 26.3334V47.6667C5.33398 48.0203 5.47446 48.3595 5.72451 48.6095C5.97456 48.8596 6.3137 49 6.66732 49H10.6673V46.3334H8.00065V27.6667H17.334V41H20.0007ZM42.6673 27.6667H50.6673C51.0209 27.6667 51.3601 27.5262 51.6101 27.2762C51.8602 27.0261 52.0007 26.687 52.0007 26.3334V18.3334C52.0007 17.9798 51.8602 17.6406 51.6101 17.3906C51.3601 17.1405 51.0209 17 50.6673 17H42.6673C42.3137 17 41.9746 17.1405 41.7245 17.3906C41.4745 17.6406 41.334 17.9798 41.334 18.3334V26.3334C41.334 26.687 41.4745 27.0261 41.7245 27.2762C41.9746 27.5262 42.3137 27.6667 42.6673 27.6667ZM44.0007 19.6667H49.334V25H44.0007V19.6667ZM58.6673 27.6667H66.6673C67.0209 27.6667 67.3601 27.5262 67.6101 27.2762C67.8602 27.0261 68.0007 26.687 68.0007 26.3334V18.3334C68.0007 17.9798 67.8602 17.6406 67.6101 17.3906C67.3601 17.1405 67.0209 17 66.6673 17H58.6673C58.3137 17 57.9746 17.1405 57.7245 17.3906C57.4745 17.6406 57.334 17.9798 57.334 18.3334V26.3334C57.334 26.687 57.4745 27.0261 57.7245 27.2762C57.9746 27.5262 58.3137 27.6667 58.6673 27.6667ZM60.0007 19.6667H65.334V25H60.0007V19.6667ZM41.334 37H44.0007V34.3334H49.334V41H52.0007V33C52.0007 32.6464 51.8602 32.3073 51.6101 32.0572C51.3601 31.8072 51.0209 31.6667 50.6673 31.6667H42.6673C42.3137 31.6667 41.9746 31.8072 41.7245 32.0572C41.4745 32.3073 41.334 32.6464 41.334 33V37ZM57.334 41C57.334 41.3537 57.4745 41.6928 57.7245 41.9429C57.9746 42.1929 58.3137 42.3334 58.6673 42.3334H66.6673C67.0209 42.3334 67.3601 42.1929 67.6101 41.9429C67.8602 41.6928 68.0007 41.3537 68.0007 41V33C68.0007 32.6464 67.8602 32.3073 67.6101 32.0572C67.3601 31.8072 67.0209 31.6667 66.6673 31.6667H58.6673C58.3137 31.6667 57.9746 31.8072 57.7245 32.0572C57.4745 32.3073 57.334 32.6464 57.334 33V41ZM60.0007 34.3334H65.334V39.6667H60.0007V34.3334ZM61.334 54.3334V57H66.6673C67.0209 57 67.3601 56.8596 67.6101 56.6095C67.8602 56.3595 68.0007 56.0203 68.0007 55.6667V47.6667C68.0007 47.3131 67.8602 46.974 67.6101 46.7239C67.3601 46.4739 67.0209 46.3334 66.6673 46.3334H61.334V49H65.334V54.3334H61.334ZM10.6673 58.3334H13.334V61H10.6673V58.3334Z"/>
</mask>
<path d="M38.6673 61C38.3137 61 37.9746 61.1405 37.7245 61.3906C37.4745 61.6406 37.334 61.9798 37.334 62.3334V69C37.334 69.3537 37.4745 69.6928 37.7245 69.9429C37.9746 70.1929 38.3137 70.3334 38.6673 70.3334H46.6673C47.0209 70.3334 47.3601 70.1929 47.6101 69.9429C47.8602 69.6928 48.0007 69.3537 48.0007 69V62.3334C48.0007 61.9798 47.8602 61.6406 47.6101 61.3906C47.3601 61.1405 47.0209 61 46.6673 61H38.6673ZM45.334 67.6667H40.0007V63.6667H45.334V67.6667ZM28.0007 53H30.6673V55.6667H28.0007V53ZM20.0007 41V27.6667H32.0007V25H6.66732C6.3137 25 5.97456 25.1405 5.72451 25.3906C5.47446 25.6406 5.33398 25.9798 5.33398 26.3334V47.6667C5.33398 48.0203 5.47446 48.3595 5.72451 48.6095C5.97456 48.8596 6.3137 49 6.66732 49H10.6673V46.3334H8.00065V27.6667H17.334V41H20.0007ZM42.6673 27.6667H50.6673C51.0209 27.6667 51.3601 27.5262 51.6101 27.2762C51.8602 27.0261 52.0007 26.687 52.0007 26.3334V18.3334C52.0007 17.9798 51.8602 17.6406 51.6101 17.3906C51.3601 17.1405 51.0209 17 50.6673 17H42.6673C42.3137 17 41.9746 17.1405 41.7245 17.3906C41.4745 17.6406 41.334 17.9798 41.334 18.3334V26.3334C41.334 26.687 41.4745 27.0261 41.7245 27.2762C41.9746 27.5262 42.3137 27.6667 42.6673 27.6667ZM44.0007 19.6667H49.334V25H44.0007V19.6667ZM58.6673 27.6667H66.6673C67.0209 27.6667 67.3601 27.5262 67.6101 27.2762C67.8602 27.0261 68.0007 26.687 68.0007 26.3334V18.3334C68.0007 17.9798 67.8602 17.6406 67.6101 17.3906C67.3601 17.1405 67.0209 17 66.6673 17H58.6673C58.3137 17 57.9746 17.1405 57.7245 17.3906C57.4745 17.6406 57.334 17.9798 57.334 18.3334V26.3334C57.334 26.687 57.4745 27.0261 57.7245 27.2762C57.9746 27.5262 58.3137 27.6667 58.6673 27.6667ZM60.0007 19.6667H65.334V25H60.0007V19.6667ZM41.334 37H44.0007V34.3334H49.334V41H52.0007V33C52.0007 32.6464 51.8602 32.3073 51.6101 32.0572C51.3601 31.8072 51.0209 31.6667 50.6673 31.6667H42.6673C42.3137 31.6667 41.9746 31.8072 41.7245 32.0572C41.4745 32.3073 41.334 32.6464 41.334 33V37ZM57.334 41C57.334 41.3537 57.4745 41.6928 57.7245 41.9429C57.9746 42.1929 58.3137 42.3334 58.6673 42.3334H66.6673C67.0209 42.3334 67.3601 42.1929 67.6101 41.9429C67.8602 41.6928 68.0007 41.3537 68.0007 41V33C68.0007 32.6464 67.8602 32.3073 67.6101 32.0572C67.3601 31.8072 67.0209 31.6667 66.6673 31.6667H58.6673C58.3137 31.6667 57.9746 31.8072 57.7245 32.0572C57.4745 32.3073 57.334 32.6464 57.334 33V41ZM60.0007 34.3334H65.334V39.6667H60.0007V34.3334ZM61.334 54.3334V57H66.6673C67.0209 57 67.3601 56.8596 67.6101 56.6095C67.8602 56.3595 68.0007 56.0203 68.0007 55.6667V47.6667C68.0007 47.3131 67.8602 46.974 67.6101 46.7239C67.3601 46.4739 67.0209 46.3334 66.6673 46.3334H61.334V49H65.334V54.3334H61.334ZM10.6673 58.3334H13.334V61H10.6673V58.3334Z" fill="#A8ABAE" stroke="white" stroke-width="1.4" mask="url(#path-2-inside-2_5418_10091)"/>
</svg>
