<svg width="50" height="51" viewBox="0 0 50 51" fill="none" xmlns="http://www.w3.org/2000/svg">
<path fill-rule="evenodd" clip-rule="evenodd" d="M33.3337 17.1667C33.3337 19.3768 32.4557 21.4964 30.8929 23.0592C29.3301 24.622 27.2105 25.5 25.0003 25.5C22.7902 25.5 20.6706 24.622 19.1078 23.0592C17.545 21.4964 16.667 19.3768 16.667 17.1667C16.667 14.9565 17.545 12.8369 19.1078 11.2741C20.6706 9.71132 22.7902 8.83334 25.0003 8.83334C27.2105 8.83334 29.3301 9.71132 30.8929 11.2741C32.4557 12.8369 33.3337 14.9565 33.3337 17.1667ZM31.2503 17.1667C31.2503 18.8243 30.5918 20.414 29.4197 21.5861C28.2476 22.7582 26.6579 23.4167 25.0003 23.4167C23.3427 23.4167 21.753 22.7582 20.5809 21.5861C19.4088 20.414 18.7503 18.8243 18.7503 17.1667C18.7503 15.5091 19.4088 13.9194 20.5809 12.7473C21.753 11.5752 23.3427 10.9167 25.0003 10.9167C26.6579 10.9167 28.2476 11.5752 29.4197 12.7473C30.5918 13.9194 31.2503 15.5091 31.2503 17.1667Z" fill="#C79E34"/>
<path d="M10.4168 41.125C10.4168 40.4208 10.7293 39.3438 11.4377 38.0646C12.2527 36.632 13.2748 35.3277 14.471 34.1938C17.096 31.6792 20.7564 29.6667 25.0002 29.6667C29.246 29.6667 32.9064 31.6792 35.5293 34.1938C36.7255 35.3277 37.7477 36.632 38.5627 38.0646C39.271 39.3438 39.5835 40.4229 39.5835 41.125C39.5835 41.4013 39.6932 41.6662 39.8886 41.8616C40.0839 42.0569 40.3489 42.1667 40.6252 42.1667C40.9014 42.1667 41.1664 42.0569 41.3617 41.8616C41.5571 41.6662 41.6668 41.4013 41.6668 41.125C41.6668 39.9167 41.1731 38.4792 40.3835 37.0563C39.4676 35.441 38.3177 33.9701 36.971 32.6917C34.0752 29.9125 29.921 27.5833 25.0002 27.5833C20.0772 27.5833 15.9272 29.9125 13.0293 32.6917C11.6827 33.9702 10.5327 35.441 9.61683 37.0563C8.82725 38.4792 8.3335 39.9167 8.3335 41.125C8.3335 41.4013 8.44324 41.6662 8.63859 41.8616C8.83394 42.0569 9.0989 42.1667 9.37516 42.1667C9.65143 42.1667 9.91638 42.0569 10.1117 41.8616C10.3071 41.6662 10.4168 41.4013 10.4168 41.125Z" fill="#C79E34"/>
</svg>
