<svg width="80" height="80" viewBox="0 0 80 80" fill="none" xmlns="http://www.w3.org/2000/svg">
<g clip-path="url(#clip0_5418_10069)">
<mask id="path-1-inside-1_5418_10069" fill="white">
<path d="M21.9197 53.3297C19.8853 53.3297 18.2291 54.9859 18.2291 57.0219C18.2291 59.0547 19.8853 60.7094 21.9197 60.7094C23.9541 60.7094 25.6103 59.0547 25.6103 57.0219C25.6103 54.9859 23.9541 53.3297 21.9197 53.3297ZM21.9197 58.2094C21.2634 58.2094 20.7291 57.6766 20.7291 57.0219C20.7291 56.3641 21.2634 55.8297 21.9197 55.8297C22.5759 55.8297 23.1103 56.3641 23.1103 57.0219C23.1103 57.6766 22.5759 58.2094 21.9197 58.2094ZM28.1775 27.2359H36.2291C36.9197 27.2359 37.4791 26.6766 37.4791 25.9859V17.9437C37.4791 17.2531 36.9197 16.6937 36.2291 16.6937H28.1775C27.4869 16.6937 26.9275 17.2531 26.9275 17.9437V25.9859C26.9275 26.6766 27.4884 27.2359 28.1775 27.2359ZM29.4275 19.1953H34.9791V24.7375H29.4275V19.1953ZM41.0134 27.2359H49.0619C49.7525 27.2359 50.3119 26.6766 50.3119 25.9859V17.9437C50.3119 17.2531 49.7525 16.6937 49.0619 16.6937H41.015C40.3244 16.6937 39.765 17.2531 39.765 17.9437V25.9859C39.7634 26.6766 40.3228 27.2359 41.0134 27.2359ZM42.2634 19.1953H47.8119V24.7375H42.265V19.1953H42.2634ZM28.1775 40.0516H36.2291C36.9197 40.0516 37.4791 39.4922 37.4791 38.8016V30.7641C37.4791 30.0734 36.9197 29.5141 36.2291 29.5141H28.1775C27.4869 29.5141 26.9275 30.0734 26.9275 30.7641V38.8016C26.9275 39.4922 27.4884 40.0516 28.1775 40.0516ZM29.4275 32.0141H34.9791V37.5516H29.4275V32.0141ZM41.0134 40.0516H49.0619C49.7525 40.0516 50.3119 39.4922 50.3119 38.8016V30.7641C50.3119 30.0734 49.7525 29.5141 49.0619 29.5141H41.015C40.3244 29.5141 39.765 30.0734 39.765 30.7641V38.8016C39.7634 39.4922 40.3228 40.0516 41.0134 40.0516ZM42.2634 32.0141H47.8119V37.5516H42.265V32.0141H42.2634ZM69.2806 42.3281H61.2291C60.5384 42.3281 59.9791 42.8875 59.9791 43.5781V51.6203C59.9791 52.3109 60.5384 52.8703 61.2291 52.8703H69.2806C69.9712 52.8703 70.5306 52.3109 70.5306 51.6203V43.5781C70.5306 42.8875 69.9697 42.3281 69.2806 42.3281ZM68.0306 50.3703H62.4791V44.8281H68.0306V50.3703ZM78.7494 75.8766H76.4384V39.9344C76.4384 39.4641 76.1744 39.0344 75.7556 38.8203L56.5697 29.0562V10.5844C56.5697 9.89375 56.0103 9.33437 55.3197 9.33437H52.9728V2.87344C52.9728 2.18281 52.4134 1.62344 51.7228 1.62344H25.5166C24.8259 1.62344 24.2666 2.18281 24.2666 2.87344V9.33281H21.9197C21.2291 9.33281 20.6697 9.89219 20.6697 10.5828V24.5359H7.68531C6.99468 24.5359 6.43531 25.0953 6.43531 25.7859V53.7406L0.513435 58.0578C0.380547 58.1544 0.268089 58.2763 0.182543 58.4166C0.0969968 58.5568 0.0400543 58.7126 0.0149974 58.875C-0.0365651 59.2031 0.0462474 59.5375 0.24156 59.8062L2.7525 63.2344C2.99781 63.5687 3.3775 63.7453 3.76187 63.7453C4.01812 63.7453 4.27593 63.6672 4.49781 63.5047L6.43531 62.0922V75.8734H4.12437C3.43375 75.8734 2.87437 76.4328 2.87437 77.1234C2.87437 77.8141 3.43375 78.3734 4.12437 78.3734H78.7494C79.44 78.3734 79.9994 77.8141 79.9994 77.1234C79.9994 76.4328 79.44 75.8766 78.7494 75.8766ZM62.4775 60.1984L62.7634 59.8078C62.9587 59.5406 63.04 59.2047 62.99 58.8781C62.94 58.5516 62.7603 58.2562 62.4916 58.0609L62.4775 58.0516V57.65H68.0291V63.1875H62.4775V60.1984ZM60.0072 59.3422L58.9759 60.7516L41.8259 48.2437C41.6072 48.0844 41.3478 48.0031 41.09 48.0031C40.8322 48.0031 40.5728 48.0828 40.3541 48.2437L35.1119 52.0672L33.6275 50.9828L41.09 45.5437L60.0072 59.3422ZM26.7666 4.12344H50.4728V9.33281H26.7666V4.12344ZM23.1697 11.8344H54.0697V51.9187L41.8259 42.9891C41.612 42.8329 41.354 42.7488 41.0892 42.7488C40.8244 42.7488 40.5664 42.8329 40.3525 42.9891L31.5025 49.4391L23.1697 43.3641V11.8344ZM20.6697 37.5516H14.4572V32.0141H20.6697V37.5516ZM8.93531 27.0375H20.6697V29.5141H13.2072C12.5166 29.5141 11.9572 30.0734 11.9572 30.7641V38.8016C11.9572 39.4922 12.5166 40.0516 13.2072 40.0516H20.6697V43.3641L8.93531 51.9203V27.0375ZM4.03218 60.7531L2.99781 59.3422L21.9197 45.5469L40.8416 59.3437L39.8103 60.7531L22.6556 48.2437C22.4417 48.0876 22.1837 48.0035 21.9189 48.0035C21.6541 48.0035 21.3961 48.0876 21.1822 48.2437L4.03218 60.7531ZM18.2353 75.8766V67.2375H25.6041V75.8766H18.2353ZM28.1041 75.8766V65.9875C28.1041 65.2969 27.5447 64.7375 26.8541 64.7375H16.9853C16.2947 64.7375 15.7353 65.2969 15.7353 65.9875V75.8766H8.93531V60.2719L21.9197 50.8016L34.9041 60.2687V75.8766H28.1041ZM37.4056 75.8766V62.0922L39.3478 63.5078C39.9056 63.9141 40.6869 63.7922 41.0931 63.2359L43.5994 59.8078C43.7947 59.5394 43.8762 59.2047 43.8259 58.8766C43.7744 58.549 43.5952 58.2551 43.3275 58.0594L37.2322 53.6156L41.09 50.8016L54.0712 60.2687V75.8766H37.4056ZM56.5697 75.8766V62.0922L58.5119 63.5078C58.7252 63.6645 58.9831 63.7488 59.2478 63.7484C59.5072 63.7484 59.7634 63.6656 59.9791 63.5109V64.4359C59.9791 65.1266 60.5384 65.6859 61.2291 65.6859H69.2806C69.9712 65.6859 70.5306 65.1266 70.5306 64.4359V56.3984C70.5306 55.7078 69.9712 55.1484 69.2806 55.1484H61.2291C60.5947 55.1484 60.0712 55.6219 59.9916 56.2359L56.5712 53.7422V31.8609L73.94 40.7V75.8766H56.5697Z"/>
</mask>
<path d="M21.9197 53.3297C19.8853 53.3297 18.2291 54.9859 18.2291 57.0219C18.2291 59.0547 19.8853 60.7094 21.9197 60.7094C23.9541 60.7094 25.6103 59.0547 25.6103 57.0219C25.6103 54.9859 23.9541 53.3297 21.9197 53.3297ZM21.9197 58.2094C21.2634 58.2094 20.7291 57.6766 20.7291 57.0219C20.7291 56.3641 21.2634 55.8297 21.9197 55.8297C22.5759 55.8297 23.1103 56.3641 23.1103 57.0219C23.1103 57.6766 22.5759 58.2094 21.9197 58.2094ZM28.1775 27.2359H36.2291C36.9197 27.2359 37.4791 26.6766 37.4791 25.9859V17.9437C37.4791 17.2531 36.9197 16.6937 36.2291 16.6937H28.1775C27.4869 16.6937 26.9275 17.2531 26.9275 17.9437V25.9859C26.9275 26.6766 27.4884 27.2359 28.1775 27.2359ZM29.4275 19.1953H34.9791V24.7375H29.4275V19.1953ZM41.0134 27.2359H49.0619C49.7525 27.2359 50.3119 26.6766 50.3119 25.9859V17.9437C50.3119 17.2531 49.7525 16.6937 49.0619 16.6937H41.015C40.3244 16.6937 39.765 17.2531 39.765 17.9437V25.9859C39.7634 26.6766 40.3228 27.2359 41.0134 27.2359ZM42.2634 19.1953H47.8119V24.7375H42.265V19.1953H42.2634ZM28.1775 40.0516H36.2291C36.9197 40.0516 37.4791 39.4922 37.4791 38.8016V30.7641C37.4791 30.0734 36.9197 29.5141 36.2291 29.5141H28.1775C27.4869 29.5141 26.9275 30.0734 26.9275 30.7641V38.8016C26.9275 39.4922 27.4884 40.0516 28.1775 40.0516ZM29.4275 32.0141H34.9791V37.5516H29.4275V32.0141ZM41.0134 40.0516H49.0619C49.7525 40.0516 50.3119 39.4922 50.3119 38.8016V30.7641C50.3119 30.0734 49.7525 29.5141 49.0619 29.5141H41.015C40.3244 29.5141 39.765 30.0734 39.765 30.7641V38.8016C39.7634 39.4922 40.3228 40.0516 41.0134 40.0516ZM42.2634 32.0141H47.8119V37.5516H42.265V32.0141H42.2634ZM69.2806 42.3281H61.2291C60.5384 42.3281 59.9791 42.8875 59.9791 43.5781V51.6203C59.9791 52.3109 60.5384 52.8703 61.2291 52.8703H69.2806C69.9712 52.8703 70.5306 52.3109 70.5306 51.6203V43.5781C70.5306 42.8875 69.9697 42.3281 69.2806 42.3281ZM68.0306 50.3703H62.4791V44.8281H68.0306V50.3703ZM78.7494 75.8766H76.4384V39.9344C76.4384 39.4641 76.1744 39.0344 75.7556 38.8203L56.5697 29.0562V10.5844C56.5697 9.89375 56.0103 9.33437 55.3197 9.33437H52.9728V2.87344C52.9728 2.18281 52.4134 1.62344 51.7228 1.62344H25.5166C24.8259 1.62344 24.2666 2.18281 24.2666 2.87344V9.33281H21.9197C21.2291 9.33281 20.6697 9.89219 20.6697 10.5828V24.5359H7.68531C6.99468 24.5359 6.43531 25.0953 6.43531 25.7859V53.7406L0.513435 58.0578C0.380547 58.1544 0.268089 58.2763 0.182543 58.4166C0.0969968 58.5568 0.0400543 58.7126 0.0149974 58.875C-0.0365651 59.2031 0.0462474 59.5375 0.24156 59.8062L2.7525 63.2344C2.99781 63.5687 3.3775 63.7453 3.76187 63.7453C4.01812 63.7453 4.27593 63.6672 4.49781 63.5047L6.43531 62.0922V75.8734H4.12437C3.43375 75.8734 2.87437 76.4328 2.87437 77.1234C2.87437 77.8141 3.43375 78.3734 4.12437 78.3734H78.7494C79.44 78.3734 79.9994 77.8141 79.9994 77.1234C79.9994 76.4328 79.44 75.8766 78.7494 75.8766ZM62.4775 60.1984L62.7634 59.8078C62.9587 59.5406 63.04 59.2047 62.99 58.8781C62.94 58.5516 62.7603 58.2562 62.4916 58.0609L62.4775 58.0516V57.65H68.0291V63.1875H62.4775V60.1984ZM60.0072 59.3422L58.9759 60.7516L41.8259 48.2437C41.6072 48.0844 41.3478 48.0031 41.09 48.0031C40.8322 48.0031 40.5728 48.0828 40.3541 48.2437L35.1119 52.0672L33.6275 50.9828L41.09 45.5437L60.0072 59.3422ZM26.7666 4.12344H50.4728V9.33281H26.7666V4.12344ZM23.1697 11.8344H54.0697V51.9187L41.8259 42.9891C41.612 42.8329 41.354 42.7488 41.0892 42.7488C40.8244 42.7488 40.5664 42.8329 40.3525 42.9891L31.5025 49.4391L23.1697 43.3641V11.8344ZM20.6697 37.5516H14.4572V32.0141H20.6697V37.5516ZM8.93531 27.0375H20.6697V29.5141H13.2072C12.5166 29.5141 11.9572 30.0734 11.9572 30.7641V38.8016C11.9572 39.4922 12.5166 40.0516 13.2072 40.0516H20.6697V43.3641L8.93531 51.9203V27.0375ZM4.03218 60.7531L2.99781 59.3422L21.9197 45.5469L40.8416 59.3437L39.8103 60.7531L22.6556 48.2437C22.4417 48.0876 22.1837 48.0035 21.9189 48.0035C21.6541 48.0035 21.3961 48.0876 21.1822 48.2437L4.03218 60.7531ZM18.2353 75.8766V67.2375H25.6041V75.8766H18.2353ZM28.1041 75.8766V65.9875C28.1041 65.2969 27.5447 64.7375 26.8541 64.7375H16.9853C16.2947 64.7375 15.7353 65.2969 15.7353 65.9875V75.8766H8.93531V60.2719L21.9197 50.8016L34.9041 60.2687V75.8766H28.1041ZM37.4056 75.8766V62.0922L39.3478 63.5078C39.9056 63.9141 40.6869 63.7922 41.0931 63.2359L43.5994 59.8078C43.7947 59.5394 43.8762 59.2047 43.8259 58.8766C43.7744 58.549 43.5952 58.2551 43.3275 58.0594L37.2322 53.6156L41.09 50.8016L54.0712 60.2687V75.8766H37.4056ZM56.5697 75.8766V62.0922L58.5119 63.5078C58.7252 63.6645 58.9831 63.7488 59.2478 63.7484C59.5072 63.7484 59.7634 63.6656 59.9791 63.5109V64.4359C59.9791 65.1266 60.5384 65.6859 61.2291 65.6859H69.2806C69.9712 65.6859 70.5306 65.1266 70.5306 64.4359V56.3984C70.5306 55.7078 69.9712 55.1484 69.2806 55.1484H61.2291C60.5947 55.1484 60.0712 55.6219 59.9916 56.2359L56.5712 53.7422V31.8609L73.94 40.7V75.8766H56.5697Z" fill="#A8ABAE" stroke="white" stroke-width="1.4" mask="url(#path-1-inside-1_5418_10069)"/>
</g>
<defs>
<clipPath id="clip0_5418_10069">
<rect width="80" height="80" fill="white"/>
</clipPath>
</defs>
</svg>
